<?xml version="1.0" encoding="UTF-8"?>
<svg preserveAspectRatio="xMidYMid meet" xmlns="http://www.w3.org/2000/svg" viewBox="0 0 440 758"><style>
    .bubble-bg { fill: #ffffff; stroke: #e2e8f0; stroke-width: 0.7; }
    .bubble-conn { stroke: #cbd5e0; stroke-width: 0.5; }
    .label-secondary, .zone-room { fill: #718096; }
    .phase-label { fill: #1a202c; }
    .sat-track { fill: #e2e8f0; opacity: 0.5; }
  </style>
            <!-- Phase trunks -->
            <line stroke-width="3" x1="24" y1="20" x2="24" y2="632" stroke="var(--electrical-panel-phase-l3-color, #5A6474)"></line>
            <line stroke-width="3" x1="36" y1="20" x2="36" y2="632" stroke="var(--electrical-panel-phase-l2-color, #1A202C)"></line>
            <line stroke-width="3" x1="48" y1="20" x2="48" y2="632" stroke="var(--electrical-panel-phase-l1-color, #8B4513)"></line>

            <!-- Phase labels -->
            <path d="M21.3 10.7L21.3 15.3L23.7 15.3L23.7 16L20.4 16L20.4 10.7L21.3 10.7M25.3 13.6L25.3 12.9L25.9 12.9Q26.3 12.9 26.5 12.7Q26.8 12.5 26.8 12.1Q26.8 11.7 26.6 11.5Q26.4 11.3 25.9 11.3Q25.6 11.3 25.4 11.5Q25.1 11.7 25.1 12.1L24.2 12.1Q24.2 11.6 24.5 11.3Q24.7 11 25.1 10.8Q25.5 10.6 25.9 10.6Q26.7 10.6 27.2 11Q27.6 11.4 27.6 12.1Q27.6 12.5 27.4 12.8Q27.2 13.1 26.8 13.3Q27.3 13.4 27.5 13.7Q27.7 14.1 27.7 14.5Q27.7 15.2 27.2 15.6Q26.7 16.1 25.9 16.1Q25.2 16.1 24.7 15.7Q24.2 15.3 24.2 14.6L25.1 14.6Q25.1 14.9 25.3 15.1Q25.5 15.4 25.9 15.4Q26.4 15.4 26.6 15.1Q26.8 14.9 26.8 14.5Q26.8 14.1 26.6 13.9Q26.3 13.6 25.8 13.6" class="phase-label"></path>
            <path d="M33.3 10.7L33.3 15.3L35.7 15.3L35.7 16L32.4 16L32.4 10.7L33.3 10.7M39.9 15.3L39.9 16L36.3 16L36.3 15.4L38.1 13.5Q38.5 13 38.6 12.7Q38.8 12.4 38.8 12.2Q38.8 11.8 38.6 11.5Q38.4 11.3 38 11.3Q37.6 11.3 37.3 11.6Q37.1 11.8 37.1 12.3L36.2 12.3Q36.2 11.8 36.4 11.4Q36.6 11 37 10.8Q37.5 10.6 38 10.6Q38.8 10.6 39.2 11Q39.7 11.4 39.7 12.1Q39.7 12.5 39.4 12.9Q39.2 13.3 38.7 13.9L37.4 15.3" class="phase-label"></path>
            <path d="M45.3 10.7L45.3 15.3L47.7 15.3L47.7 16L44.4 16L44.4 10.7L45.3 10.7M50.7 10.6L50.7 16L49.8 16L49.8 11.7L48.5 12.2L48.5 11.4L50.6 10.6" class="phase-label"></path>

            <!-- Staggered phase taps + bubbles -->
            <circle r="2" cx="48" cy="26" fill="var(--electrical-panel-phase-l1-color, #8B4513)"></circle>
            <!--?lit$997511696$-->
      <!--?lit$997511696$--><line class="bubble-conn" visibility="visible" data-ln-for="phase_l1" x1="48" y1="23.75" x2="123.7451171875" y2="23.75"></line>
      <rect class="bubble-bg" width="31.2548828125" height="13.5" rx="3" visibility="visible" data-bg-for="phase_l1" x="123.7451171875" y="17"></rect>
      <path d="M132.5 22.1Q132.5 22.5 132.3 22.8Q132.1 23.1 131.8 23.3Q132.2 23.4 132.4 23.8Q132.6 24.1 132.6 24.5Q132.6 25.2 132.1 25.7Q131.7 26.1 130.9 26.1Q130.1 26.1 129.6 25.7Q129.1 25.2 129.1 24.5Q129.1 24.1 129.4 23.8Q129.6 23.4 130 23.3Q129.6 23.1 129.4 22.8Q129.2 22.5 129.2 22.1Q129.2 21.4 129.7 21Q130.1 20.6 130.9 20.6Q131.6 20.6 132.1 21Q132.5 21.4 132.5 22.1M131.7 24.5Q131.7 24.1 131.5 23.9Q131.3 23.6 130.9 23.6Q130.5 23.6 130.2 23.9Q130 24.1 130 24.5Q130 24.9 130.2 25.1Q130.5 25.4 130.9 25.4Q131.3 25.4 131.5 25.1Q131.7 24.9 131.7 24.5M131.6 22.1Q131.6 21.8 131.4 21.5Q131.2 21.3 130.9 21.3Q130.5 21.3 130.3 21.5Q130.1 21.7 130.1 22.1Q130.1 22.5 130.3 22.7Q130.5 22.9 130.9 22.9Q131.2 22.9 131.4 22.7Q131.6 22.5 131.6 22.1M136.1 20.6L136.2 20.6L136.2 21.4L136.1 21.4Q135.3 21.4 134.9 21.8Q134.4 22.2 134.3 22.9Q134.8 22.5 135.4 22.5Q136.1 22.5 136.6 23Q137 23.5 137 24.3Q137 25.1 136.5 25.6Q136 26.1 135.2 26.1Q134.4 26.1 133.9 25.5Q133.4 24.9 133.4 23.9L133.4 23.6Q133.4 22.2 134.1 21.4Q134.8 20.6 136.1 20.6M135.2 23.2Q134.9 23.2 134.7 23.4Q134.4 23.5 134.3 23.8L134.3 24.1Q134.3 24.7 134.6 25Q134.8 25.4 135.2 25.4Q135.6 25.4 135.8 25.1Q136.1 24.8 136.1 24.3Q136.1 23.8 135.8 23.5Q135.6 23.2 135.2 23.2M141 22.1Q141 22.5 140.8 22.8Q140.6 23.1 140.3 23.3Q140.7 23.4 140.9 23.8Q141.1 24.1 141.1 24.5Q141.1 25.2 140.7 25.7Q140.2 26.1 139.4 26.1Q138.6 26.1 138.1 25.7Q137.7 25.2 137.7 24.5Q137.7 24.1 137.9 23.8Q138.1 23.4 138.5 23.3Q138.2 23.1 138 22.8Q137.8 22.5 137.8 22.1Q137.8 21.4 138.2 21Q138.7 20.6 139.4 20.6Q140.1 20.6 140.6 21Q141 21.4 141 22.1M140.3 24.5Q140.3 24.1 140 23.9Q139.8 23.6 139.4 23.6Q139 23.6 138.8 23.9Q138.5 24.1 138.5 24.5Q138.5 24.9 138.8 25.1Q139 25.4 139.4 25.4Q139.8 25.4 140 25.1Q140.3 24.9 140.3 24.5M140.1 22.1Q140.1 21.8 139.9 21.5Q139.7 21.3 139.4 21.3Q139.1 21.3 138.9 21.5Q138.7 21.7 138.7 22.1Q138.7 22.5 138.9 22.7Q139.1 22.9 139.4 22.9Q139.7 22.9 139.9 22.7Q140.1 22.5 140.1 22.1M147.1 20.7L148.1 24.7L148.9 20.7L149.9 20.7L148.6 26L147.7 26L146.7 22.1L145.7 26L144.8 26L143.6 20.7L144.5 20.7L145.3 24.7L146.3 20.7" class="pwr-value" fill="var(--primary-text-color)"></path>
      <!--?lit$997511696$-->
      <!--?lit$997511696$-->
    
            <circle r="2" cx="36" cy="46" fill="var(--electrical-panel-phase-l2-color, #1A202C)"></circle>
            <!--?lit$997511696$-->
      <!--?lit$997511696$--><line class="bubble-conn" visibility="visible" data-ln-for="phase_l2" x1="36" y1="43.75" x2="158.7451171875" y2="43.75"></line>
      <rect class="bubble-bg" width="31.2548828125" height="13.5" rx="3" visibility="visible" data-bg-for="phase_l2" x="158.7451171875" y="37"></rect>
      <path d="M167.7 40.7L167.7 41.2L165.6 46L164.6 46L166.8 41.4L164 41.4L164 40.7L167.7 40.7M171.9 42.8L171.9 43.8Q171.9 44.9 171.5 45.5Q171 46.1 170.1 46.1Q169.3 46.1 168.8 45.5Q168.4 44.9 168.4 43.8L168.4 42.9Q168.4 41.7 168.8 41.2Q169.3 40.6 170.1 40.6Q171 40.6 171.4 41.2Q171.9 41.7 171.9 42.8M171 44L171 42.8Q171 42 170.8 41.7Q170.6 41.3 170.1 41.3Q169.7 41.3 169.5 41.6Q169.3 42 169.3 42.7L169.3 43.9Q169.3 44.6 169.5 45Q169.7 45.4 170.1 45.4Q170.6 45.4 170.8 45Q171 44.7 171 44M175.1 40.6L175.1 46L174.2 46L174.2 41.7L172.9 42.2L172.9 41.4L175 40.6L175.1 40.6M182.1 40.7L183.1 44.7L183.9 40.7L184.9 40.7L183.6 46L182.7 46L181.7 42.1L180.7 46L179.8 46L178.6 40.7L179.5 40.7L180.3 44.7L181.3 40.7" class="pwr-value" fill="var(--primary-text-color)"></path>
      <!--?lit$997511696$-->
      <!--?lit$997511696$-->
    
            <circle r="2" cx="24" cy="66" fill="var(--electrical-panel-phase-l3-color, #5A6474)"></circle>
            <!--?lit$997511696$-->
      <!--?lit$997511696$--><line class="bubble-conn" visibility="visible" data-ln-for="phase_l3" x1="24" y1="63.75" x2="193.7451171875" y2="63.75"></line>
      <rect class="bubble-bg" width="31.2548828125" height="13.5" rx="3" visibility="visible" data-bg-for="phase_l3" x="193.7451171875" y="57"></rect>
      <path d="M201.7 63.8Q201.2 64.2 200.6 64.2Q199.9 64.2 199.5 63.7Q199.1 63.3 199.1 62.5Q199.1 61.9 199.3 61.5Q199.5 61.1 199.9 60.8Q200.3 60.6 200.8 60.6Q201.6 60.6 202.1 61.2Q202.6 61.8 202.6 62.8L202.6 63.1Q202.6 64.5 201.9 65.3Q201.3 66 200 66L199.9 66L199.9 65.3L200 65.3Q200.8 65.3 201.2 64.9Q201.6 64.5 201.7 63.8M200.8 63.5Q201.1 63.5 201.3 63.4Q201.5 63.2 201.7 63L201.7 62.6Q201.7 62 201.4 61.7Q201.2 61.3 200.8 61.3Q200.4 61.3 200.2 61.6Q200 61.9 200 62.4Q200 62.9 200.2 63.2Q200.4 63.5 200.8 63.5M205.9 63.8Q205.5 64.2 204.9 64.2Q204.2 64.2 203.8 63.7Q203.3 63.3 203.3 62.5Q203.3 61.9 203.6 61.5Q203.8 61.1 204.2 60.8Q204.6 60.6 205.1 60.6Q205.9 60.6 206.4 61.2Q206.8 61.8 206.8 62.8L206.8 63.1Q206.8 64.5 206.2 65.3Q205.5 66 204.2 66L204.1 66L204.1 65.3L204.2 65.3Q205 65.3 205.5 64.9Q205.9 64.5 205.9 63.8M205.1 63.5Q205.3 63.5 205.6 63.4Q205.8 63.2 205.9 63L205.9 62.6Q205.9 62 205.7 61.7Q205.5 61.3 205.1 61.3Q204.7 61.3 204.5 61.6Q204.2 61.9 204.2 62.4Q204.2 62.9 204.5 63.2Q204.7 63.5 205.1 63.5M211.1 62.8L211.1 63.8Q211.1 64.9 210.7 65.5Q210.3 66.1 209.4 66.1Q208.5 66.1 208.1 65.5Q207.7 64.9 207.7 63.8L207.7 62.9Q207.7 61.7 208.1 61.2Q208.5 60.6 209.4 60.6Q210.3 60.6 210.7 61.2Q211.1 61.7 211.1 62.8M210.3 64L210.3 62.8Q210.3 62 210.1 61.7Q209.8 61.3 209.4 61.3Q209 61.3 208.8 61.6Q208.6 62 208.5 62.7L208.5 63.9Q208.5 64.6 208.8 65Q209 65.4 209.4 65.4Q209.8 65.4 210 65Q210.2 64.7 210.3 64M217.1 60.7L218.1 64.7L218.9 60.7L219.9 60.7L218.6 66L217.7 66L216.7 62.1L215.7 66L214.8 66L213.6 60.7L214.5 60.7L215.3 64.7L216.3 60.7" class="pwr-value" fill="var(--primary-text-color)"></path>
      <!--?lit$997511696$-->
      <!--?lit$997511696$-->
    

            <!-- Main totals (right column) -->
            <path d="M282.6 23.7L282.6 24.2L280.8 24.2L280.8 29L280.2 29L280.2 24.2L278.4 24.2L278.4 23.7L282.6 23.7M282.7 27L282.7 27Q282.7 26.4 282.9 25.9Q283.2 25.5 283.6 25.2Q284 25 284.5 25Q285.3 25 285.8 25.5Q286.3 26.1 286.3 27L286.3 27.1Q286.3 27.6 286.1 28.1Q285.9 28.6 285.5 28.8Q285 29.1 284.5 29.1Q283.7 29.1 283.2 28.5Q282.7 28 282.7 27M283.4 27.1Q283.4 27.7 283.7 28.1Q284 28.5 284.5 28.5Q285 28.5 285.3 28.1Q285.6 27.7 285.6 27Q285.6 26.3 285.3 25.9Q285 25.5 284.5 25.5Q284 25.5 283.7 25.9Q283.4 26.3 283.4 27.1M287.4 24.1L288.1 24.1L288.1 25L288.8 25L288.8 25.6L288.1 25.6L288.1 28Q288.1 28.3 288.2 28.4Q288.3 28.5 288.5 28.5Q288.6 28.5 288.8 28.5L288.8 29Q288.6 29.1 288.3 29.1Q287.9 29.1 287.6 28.8Q287.4 28.5 287.4 28L287.4 25.6L286.7 25.6L286.7 25L287.4 25L287.4 24.1M292.8 29L292.1 29Q292 28.9 292 28.6Q291.5 29.1 290.8 29.1Q290.3 29.1 289.9 28.7Q289.5 28.4 289.5 27.9Q289.5 27.3 290 26.9Q290.4 26.6 291.3 26.6L292 26.6L292 26.3Q292 25.9 291.7 25.7Q291.5 25.5 291.1 25.5Q290.8 25.5 290.5 25.7Q290.3 25.9 290.3 26.1L289.6 26.1Q289.6 25.8 289.8 25.6Q290 25.3 290.4 25.1Q290.7 25 291.2 25Q291.8 25 292.2 25.3Q292.6 25.6 292.6 26.2L292.6 28.1Q292.6 28.6 292.8 28.9L292.8 29M290.9 28.5Q291.3 28.5 291.5 28.3Q291.8 28.2 292 27.9L292 27.1L291.4 27.1Q290.2 27.1 290.2 27.8Q290.2 28.1 290.4 28.3Q290.6 28.5 290.9 28.5M294.4 23.4L294.4 29L293.8 29L293.8 23.4" class="label-secondary"></path>
            <!--?lit$997511696$-->
      <!--?lit$997511696$-->
      <rect class="bubble-bg" width="33.001708984375" height="13.5" rx="3" visibility="visible" data-bg-for="total" x="321.998291015625" y="20"></rect>
      <path d="M328.4 26.6L328.4 25.9L329 25.9Q329.4 25.9 329.6 25.7Q329.9 25.5 329.9 25.1Q329.9 24.7 329.7 24.5Q329.5 24.3 329 24.3Q328.7 24.3 328.5 24.5Q328.2 24.7 328.2 25.1L327.3 25.1Q327.3 24.6 327.6 24.3Q327.8 24 328.2 23.8Q328.6 23.6 329 23.6Q329.8 23.6 330.3 24Q330.7 24.4 330.7 25.1Q330.7 25.5 330.5 25.8Q330.3 26.1 329.9 26.3Q330.4 26.4 330.6 26.7Q330.8 27.1 330.8 27.5Q330.8 28.2 330.3 28.6Q329.8 29.1 329 29.1Q328.3 29.1 327.8 28.7Q327.3 28.3 327.3 27.6L328.2 27.6Q328.2 27.9 328.4 28.1Q328.6 28.4 329 28.4Q329.5 28.4 329.7 28.1Q329.9 27.9 329.9 27.5Q329.9 27.1 329.7 26.9Q329.4 26.6 329 26.6L328.4 26.6M332.3 28.1Q332.5 28.1 332.7 28.2Q332.8 28.3 332.8 28.6Q332.8 28.8 332.7 28.9Q332.5 29 332.3 29Q332 29 331.9 28.9Q331.8 28.8 331.8 28.6Q331.8 28.3 331.9 28.2Q332 28.1 332.3 28.1M337.2 25.8L337.2 26.8Q337.2 27.9 336.8 28.5Q336.4 29.1 335.5 29.1Q334.6 29.1 334.2 28.5Q333.8 27.9 333.7 26.8L333.7 25.9Q333.7 24.7 334.2 24.2Q334.6 23.6 335.5 23.6Q336.4 23.6 336.8 24.2Q337.2 24.7 337.2 25.8M336.3 27L336.3 25.8Q336.3 25 336.1 24.7Q335.9 24.3 335.5 24.3Q335 24.3 334.8 24.6Q334.6 25 334.6 25.7L334.6 26.9Q334.6 27.6 334.8 28Q335 28.4 335.5 28.4Q335.9 28.4 336.1 28Q336.3 27.7 336.3 27M342.4 29L341.2 27.3L340.8 27.7L340.8 29L339.9 29L339.9 23.4L340.8 23.4L340.8 26.6L341.1 26.3L342.2 25L343.3 25L341.8 26.7L343.4 29L342.4 29M347.1 23.7L348.1 27.7L348.9 23.7L349.9 23.7L348.6 29L347.7 29L346.7 25.1L345.7 29L344.8 29L343.6 23.7L344.5 23.7L345.3 27.7L346.3 23.7" class="pwr-value" fill="#c53030"></path>
      <!--?lit$997511696$-->
      <!--?lit$997511696$-->
    
            <path d="M285.9 46.3L285.9 48.3Q285.6 48.7 285.1 48.9Q284.6 49.1 284 49.1Q283.3 49.1 282.8 48.8Q282.3 48.5 282 47.9Q281.8 47.3 281.8 46.6L281.8 46.1Q281.8 44.9 282.3 44.3Q282.9 43.6 283.9 43.6Q284.7 43.6 285.2 44Q285.7 44.4 285.9 45.2L285.2 45.2Q285 44.2 283.9 44.2Q283.2 44.2 282.8 44.7Q282.5 45.2 282.5 46.1L282.5 46.5Q282.5 47.4 282.9 48Q283.3 48.5 284 48.5Q284.4 48.5 284.7 48.4Q285 48.3 285.2 48.1L285.2 46.9L283.9 46.9L283.9 46.3L285.9 46.3M288.8 45L288.8 45.6Q288.7 45.6 288.5 45.6Q287.8 45.6 287.6 46.2L287.6 49L286.9 49L286.9 45L287.6 45L287.6 45.5Q287.9 45 288.5 45Q288.7 45 288.8 45M290.2 45L290.2 49L289.5 49L289.5 45L290.2 45M289.5 44Q289.5 43.8 289.6 43.7Q289.7 43.6 289.9 43.6Q290.1 43.6 290.2 43.7Q290.3 43.8 290.3 44Q290.3 44.2 290.2 44.3Q290.1 44.4 289.9 44.4Q289.7 44.4 289.6 44.3Q289.5 44.2 289.5 44M291.1 47L291.1 47Q291.1 46.1 291.6 45.5Q292 45 292.7 45Q293.4 45 293.8 45.4L293.8 43.4L294.5 43.4L294.5 49L293.8 49L293.8 48.6Q293.4 49.1 292.7 49.1Q292 49.1 291.6 48.5Q291.1 47.9 291.1 47M291.8 47.1Q291.8 47.7 292.1 48.1Q292.4 48.5 292.8 48.5Q293.5 48.5 293.8 47.9L293.8 46.1Q293.5 45.5 292.9 45.5Q292.4 45.5 292.1 45.9Q291.8 46.3 291.8 47.1" class="label-secondary"></path>
            <!--?lit$997511696$-->
      <!--?lit$997511696$-->
      <rect class="bubble-bg" width="33.001708984375" height="13.5" rx="3" visibility="visible" data-bg-for="grid" x="321.998291015625" y="40"></rect>
      <path d="M329.8 43.6L329.8 49L328.9 49L328.9 44.7L327.6 45.2L327.6 44.4L329.7 43.6L329.8 43.6M332.3 48.1Q332.5 48.1 332.7 48.2Q332.8 48.3 332.8 48.6Q332.8 48.8 332.7 48.9Q332.5 49 332.3 49Q332 49 331.9 48.9Q331.8 48.8 331.8 48.6Q331.8 48.3 331.9 48.2Q332 48.1 332.3 48.1M334.8 46.6L334.8 45.9L335.3 45.9Q335.7 45.9 336 45.7Q336.2 45.5 336.2 45.1Q336.2 44.7 336 44.5Q335.8 44.3 335.4 44.3Q335 44.3 334.8 44.5Q334.6 44.7 334.6 45.1L333.7 45.1Q333.7 44.6 333.9 44.3Q334.1 44 334.5 43.8Q334.9 43.6 335.4 43.6Q336.2 43.6 336.6 44Q337.1 44.4 337.1 45.1Q337.1 45.5 336.9 45.8Q336.6 46.1 336.3 46.3Q336.7 46.4 337 46.7Q337.2 47.1 337.2 47.5Q337.2 48.2 336.7 48.6Q336.2 49.1 335.4 49.1Q334.6 49.1 334.1 48.7Q333.6 48.3 333.6 47.6L334.5 47.6Q334.5 47.9 334.8 48.1Q335 48.4 335.4 48.4Q335.8 48.4 336.1 48.1Q336.3 47.9 336.3 47.5Q336.3 47.1 336 46.9Q335.8 46.6 335.3 46.6L334.8 46.6M342.4 49L341.2 47.3L340.8 47.7L340.8 49L339.9 49L339.9 43.4L340.8 43.4L340.8 46.6L341.1 46.3L342.2 45L343.3 45L341.8 46.7L343.4 49L342.4 49M347.1 43.7L348.1 47.7L348.9 43.7L349.9 43.7L348.6 49L347.7 49L346.7 45.1L345.7 49L344.8 49L343.6 43.7L344.5 43.7L345.3 47.7L346.3 43.7" class="pwr-value" fill="var(--secondary-text-color)"></path>
      <!--?lit$997511696$-->
      <!--?lit$997511696$-->
    

            <!--?lit$997511696$--><!---->
      <!--?lit$997511696$--><!----><circle r="3.5" cx="48" cy="104" fill="#3182ce"></circle><!---->
      <!--?lit$997511696$--><line stroke-width="2" x1="48" y1="104" x2="70" y2="104" stroke="#3182ce"></line>

      <g class="meta-target">
        <!--?lit$997511696$--><title><!---->40 A · 30 mA · 2P · Cl. A · L1<!----></title>
        <rect stroke-width="1.8" rx="2" x="70" y="92" width="24" height="24" fill="color-mix(in srgb, #3182ce 18%, var(--ha-card-background, var(--card-background-color, white)))" stroke="#3182ce"></rect>
        <path d="M79 108L77.2 108L77.2 101.6L79 101.6Q79.9 101.6 80.5 102Q81.2 102.4 81.6 103.1Q81.9 103.7 81.9 104.6L81.9 105Q81.9 105.9 81.6 106.6Q81.2 107.3 80.5 107.6Q79.9 108 79 108M79 102.5L78.3 102.5L78.3 107.1L79 107.1Q79.9 107.1 80.3 106.6Q80.8 106 80.8 105L80.8 104.6Q80.8 103.6 80.4 103Q79.9 102.5 79 102.5M85.8 101.6L85.8 108L84.7 108L84.7 102.9L83.1 103.4L83.1 102.5L85.6 101.6" fill="#3182ce"></path>
      </g>

      <!--?lit$997511696$-->

      <!--?lit$997511696$--><line stroke-width="3" x1="82" y1="116" x2="82" y2="196" stroke="#3182ce"></line>

      <!--?lit$997511696$--><!---->
      <line stroke-width="3" x1="82" y1="132" x2="104" y2="132" stroke="#3182ce"></line>
      <!--?lit$997511696$--><line stroke-width="1.5" x1="114" y1="142" x2="114" y2="175" stroke="#3182ce"></line>
      <g class="meta-target">
        <!--?lit$997511696$--><title><!---->16 A · 2P · 2.5 mm²<!----></title>
        <rect stroke-width="1.8" rx="2" x="104" y="122" width="20" height="20" fill="color-mix(in srgb, #3182ce 18%, var(--ha-card-background, var(--card-background-color, white)))" stroke="#3182ce"></rect>
        <path d="M115.8 136L115.2 134.5L112.8 134.5L112.2 136L111.1 136L113.5 129.6L114.5 129.6L116.9 136L115.8 136M114 131L113.1 133.6L114.9 133.6" fill="#3182ce"></path>
      </g>
      <!--?lit$997511696$-->

      <!--?lit$997511696$--><!---->
          <g class="meta-target">
            <!--?lit$997511696$--><title><!---->Office · L0<!----></title>
            <line stroke-width="0.8" x1="114" y1="153" x2="132" y2="153" stroke="#3182ce"></line>
            <!--?lit$997511696$-->
                    <rect x="132" y="146" width="20" height="12" fill="#38a169" rx="3"></rect>
                    <path d="M139.5 147L139.5 151.3L141.7 151.3L141.7 152L138.6 152L138.6 147L139.5 147M145.5 149L145.5 149.9Q145.5 151 145.1 151.5Q144.7 152.1 143.9 152.1Q143.1 152.1 142.7 151.5Q142.3 151 142.3 150L142.3 149.1Q142.3 148 142.7 147.5Q143.1 147 143.9 147Q144.7 147 145.1 147.5Q145.5 148 145.5 149M144.7 150.1L144.7 149Q144.7 148.3 144.5 147.9Q144.3 147.6 143.9 147.6Q143.5 147.6 143.3 147.9Q143.1 148.2 143.1 148.9L143.1 150Q143.1 150.7 143.3 151.1Q143.5 151.4 143.9 151.4Q144.3 151.4 144.5 151.1Q144.7 150.8 144.7 150.1" fill="white"></path>
                  
            <svg x="156" y="147" width="12" height="12" viewBox="0 0 24 24"><path d="M7.5,10.5A1.5,1.5 0 0,1 9,12A1.5,1.5 0 0,1 7.5,13.5C6.66,13.5 6,12.83 6,12A1.5,1.5 0 0,1 7.5,10.5M16.5,10.5A1.5,1.5 0 0,1 18,12A1.5,1.5 0 0,1 16.5,13.5A1.5,1.5 0 0,1 15,12A1.5,1.5 0 0,1 16.5,10.5M4.22,2H19.78C21,2 22,3 22,4.22V19.78A2.22,2.22 0 0,1 19.78,22H4.22C3,22 2,21 2,19.78V4.22A2.22,2.22 0 0,1 4.22,2M12,4A8,8 0 0,0 4,12A8,8 0 0,0 12,20A8,8 0 0,0 20,12A8,8 0 0,0 12,4Z" fill="var(--secondary-text-color, #718096)"></path></svg>
            <!--?lit$997511696$-->
                    <path d="M177 149L177 149.3Q177 150.2 176.8 150.8Q176.5 151.4 176 151.8Q175.4 152.1 174.8 152.1Q174.1 152.1 173.6 151.7Q173 151.4 172.8 150.8Q172.5 150.2 172.5 149.4L172.5 149Q172.5 148.2 172.7 147.5Q173 146.9 173.6 146.6Q174.1 146.2 174.7 146.2Q175.4 146.2 176 146.6Q176.5 146.9 176.8 147.5Q177 148.1 177 149M176.3 149.4L176.3 149Q176.3 148 175.9 147.4Q175.5 146.9 174.7 146.9Q174 146.9 173.6 147.4Q173.2 148 173.2 148.9L173.2 149.3Q173.2 150.3 173.6 150.9Q174 151.4 174.8 151.4Q175.5 151.4 175.9 150.9Q176.3 150.4 176.3 149.4M179.1 152L178.4 152L178.4 148.3L177.7 148.3L177.7 147.8L178.4 147.8L178.4 147.3Q178.4 146.7 178.8 146.3Q179.1 145.9 179.8 145.9Q180 145.9 180.3 146L180.3 146.6Q180.1 146.5 179.9 146.5Q179.5 146.5 179.3 146.7Q179.1 146.9 179.1 147.3L179.1 147.8L180 147.8L180 148.3L179.1 148.3L179.1 152M181.9 152L181.2 152L181.2 148.3L180.5 148.3L180.5 147.8L181.2 147.8L181.2 147.3Q181.2 146.7 181.5 146.3Q181.9 145.9 182.6 145.9Q182.8 145.9 183.1 146L183 146.6Q182.8 146.5 182.6 146.5Q182.3 146.5 182.1 146.7Q181.9 146.9 181.9 147.3L181.9 147.8L182.8 147.8L182.8 148.3L181.9 148.3L181.9 152M184.4 147.8L184.4 152L183.7 152L183.7 147.8L184.4 147.8M183.6 146.7Q183.6 146.5 183.7 146.4Q183.8 146.2 184 146.2Q184.2 146.2 184.4 146.4Q184.5 146.5 184.5 146.7Q184.5 146.8 184.4 146.9Q184.2 147.1 184 147.1Q183.8 147.1 183.7 146.9Q183.6 146.8 183.6 146.7M187.2 151.5Q187.6 151.5 187.9 151.3Q188.2 151 188.2 150.7L188.9 150.7Q188.9 151 188.7 151.4Q188.4 151.7 188.1 151.9Q187.7 152.1 187.2 152.1Q186.4 152.1 185.9 151.5Q185.4 150.9 185.4 149.9L185.4 149.8Q185.4 149.2 185.6 148.7Q185.8 148.2 186.2 148Q186.7 147.7 187.2 147.7Q187.9 147.7 188.4 148.1Q188.9 148.5 188.9 149.2L188.2 149.2Q188.2 148.8 187.9 148.6Q187.6 148.3 187.2 148.3Q186.7 148.3 186.4 148.7Q186.1 149.1 186.1 149.8L186.1 150Q186.1 150.7 186.4 151.1Q186.7 151.5 187.2 151.5M191.5 152.1Q190.6 152.1 190.1 151.5Q189.5 150.9 189.5 150L189.5 149.9Q189.5 149.2 189.8 148.7Q190 148.3 190.5 148Q190.9 147.7 191.4 147.7Q192.2 147.7 192.7 148.2Q193.1 148.8 193.1 149.8L193.1 150.1L190.3 150.1Q190.3 150.7 190.6 151.1Q191 151.5 191.5 151.5Q191.9 151.5 192.2 151.3Q192.4 151.2 192.6 150.9L193.1 151.3Q192.5 152.1 191.5 152.1M191.4 148.3Q191 148.3 190.7 148.6Q190.4 148.9 190.3 149.5L192.4 149.5L192.4 149.4Q192.4 148.9 192.1 148.6Q191.8 148.3 191.4 148.3" class="zone-room"></path>
                  
            <!--?lit$997511696$-->
          </g>
        <!----><!---->
          <g class="meta-target">
            <!--?lit$997511696$--><title><!---->Living room · L0<!----></title>
            <line stroke-width="0.8" x1="114" y1="175" x2="132" y2="175" stroke="#3182ce"></line>
            <!--?lit$997511696$-->
                    <rect x="132" y="168" width="20" height="12" fill="#38a169" rx="3"></rect>
                    <path d="M139.5 169L139.5 173.3L141.7 173.3L141.7 174L138.6 174L138.6 169L139.5 169M145.5 171L145.5 171.9Q145.5 173 145.1 173.5Q144.7 174.1 143.9 174.1Q143.1 174.1 142.7 173.5Q142.3 173 142.3 172L142.3 171.1Q142.3 170 142.7 169.5Q143.1 169 143.9 169Q144.7 169 145.1 169.5Q145.5 170 145.5 171M144.7 172.1L144.7 171Q144.7 170.3 144.5 169.9Q144.3 169.6 143.9 169.6Q143.5 169.6 143.3 169.9Q143.1 170.2 143.1 170.9L143.1 172Q143.1 172.7 143.3 173.1Q143.5 173.4 143.9 173.4Q144.3 173.4 144.5 173.1Q144.7 172.8 144.7 172.1" fill="white"></path>
                  
            <svg x="156" y="169" width="12" height="12" viewBox="0 0 24 24"><path d="M7.5,10.5A1.5,1.5 0 0,1 9,12A1.5,1.5 0 0,1 7.5,13.5C6.66,13.5 6,12.83 6,12A1.5,1.5 0 0,1 7.5,10.5M16.5,10.5A1.5,1.5 0 0,1 18,12A1.5,1.5 0 0,1 16.5,13.5A1.5,1.5 0 0,1 15,12A1.5,1.5 0 0,1 16.5,10.5M4.22,2H19.78C21,2 22,3 22,4.22V19.78A2.22,2.22 0 0,1 19.78,22H4.22C3,22 2,21 2,19.78V4.22A2.22,2.22 0 0,1 4.22,2M12,4A8,8 0 0,0 4,12A8,8 0 0,0 12,20A8,8 0 0,0 20,12A8,8 0 0,0 12,4Z" fill="var(--secondary-text-color, #718096)"></path></svg>
            <!--?lit$997511696$-->
                    <path d="M173.4 168.3L173.4 173.4L176.1 173.4L176.1 174L172.7 174L172.7 168.3L173.4 168.3M177.6 169.8L177.6 174L176.9 174L176.9 169.8L177.6 169.8M176.9 168.7Q176.9 168.5 177 168.4Q177.1 168.2 177.3 168.2Q177.5 168.2 177.6 168.4Q177.7 168.5 177.7 168.7Q177.7 168.8 177.6 168.9Q177.5 169.1 177.3 169.1Q177.1 169.1 177 168.9Q176.9 168.8 176.9 168.7M179.1 169.8L180.2 173L181.2 169.8L182 169.8L180.5 174L179.9 174L178.4 169.8L179.1 169.8M183.5 169.8L183.5 174L182.7 174L182.7 169.8L183.5 169.8M182.7 168.7Q182.7 168.5 182.8 168.4Q182.9 168.2 183.1 168.2Q183.3 168.2 183.4 168.4Q183.5 168.5 183.5 168.7Q183.5 168.8 183.4 168.9Q183.3 169.1 183.1 169.1Q182.9 169.1 182.8 168.9Q182.7 168.8 182.7 168.7M184.6 169.8L185.3 169.8L185.3 170.3Q185.8 169.7 186.6 169.7Q187.9 169.7 187.9 171.2L187.9 174L187.2 174L187.2 171.2Q187.2 170.7 187 170.5Q186.8 170.3 186.4 170.3Q186 170.3 185.7 170.5Q185.5 170.7 185.3 171L185.3 174L184.6 174L184.6 169.8M188.9 171.9Q188.9 170.9 189.3 170.3Q189.8 169.7 190.5 169.7Q191.3 169.7 191.7 170.2L191.8 169.8L192.4 169.8L192.4 173.9Q192.4 174.7 191.9 175.2Q191.4 175.7 190.6 175.7Q190.2 175.7 189.7 175.5Q189.3 175.3 189.1 174.9L189.4 174.5Q189.9 175.1 190.6 175.1Q191.1 175.1 191.4 174.8Q191.7 174.5 191.7 173.9L191.7 173.6Q191.3 174.1 190.5 174.1Q189.8 174.1 189.3 173.5Q188.9 172.9 188.9 171.9M189.6 171.9Q189.6 172.6 189.9 173.1Q190.2 173.5 190.7 173.5Q191.4 173.5 191.7 172.8L191.7 170.9Q191.4 170.3 190.7 170.3Q190.2 170.3 189.9 170.7Q189.6 171.1 189.6 171.9M197.5 169.8L197.5 170.4Q197.4 170.4 197.2 170.4Q196.5 170.4 196.2 171L196.2 174L195.5 174L195.5 169.8L196.2 169.8L196.2 170.3Q196.6 169.7 197.2 169.7Q197.4 169.7 197.5 169.8M197.9 171.9L197.9 171.8Q197.9 171.2 198.2 170.7Q198.4 170.2 198.9 170Q199.3 169.7 199.8 169.7Q200.7 169.7 201.2 170.3Q201.8 170.9 201.8 171.9L201.8 171.9Q201.8 172.6 201.5 173Q201.3 173.5 200.9 173.8Q200.4 174.1 199.9 174.1Q199 174.1 198.5 173.5Q197.9 172.9 197.9 171.9M198.7 171.9Q198.7 172.6 199 173.1Q199.3 173.5 199.9 173.5Q200.4 173.5 200.7 173.1Q201.1 172.6 201.1 171.8Q201.1 171.2 200.7 170.7Q200.4 170.3 199.8 170.3Q199.3 170.3 199 170.7Q198.7 171.1 198.7 171.9M202.5 171.9L202.5 171.8Q202.5 171.2 202.7 170.7Q203 170.2 203.4 170Q203.9 169.7 204.4 169.7Q205.3 169.7 205.8 170.3Q206.3 170.9 206.3 171.9L206.3 171.9Q206.3 172.6 206.1 173Q205.9 173.5 205.4 173.8Q205 174.1 204.4 174.1Q203.6 174.1 203 173.5Q202.5 172.9 202.5 171.9M203.2 171.9Q203.2 172.6 203.5 173.1Q203.9 173.5 204.4 173.5Q205 173.5 205.3 173.1Q205.6 172.6 205.6 171.8Q205.6 171.2 205.3 170.7Q205 170.3 204.4 170.3Q203.9 170.3 203.5 170.7Q203.2 171.1 203.2 171.9M207.2 169.8L207.9 169.8L207.9 170.2Q208.4 169.7 209.2 169.7Q210.1 169.7 210.4 170.4Q210.6 170.1 211 169.9Q211.3 169.7 211.8 169.7Q213.1 169.7 213.2 171.2L213.2 174L212.4 174L212.4 171.2Q212.4 170.8 212.2 170.5Q212 170.3 211.5 170.3Q211.1 170.3 210.9 170.5Q210.6 170.8 210.6 171.2L210.6 174L209.8 174L209.8 171.2Q209.8 170.3 208.9 170.3Q208.2 170.3 208 170.9L208 174L207.2 174" class="zone-room"></path>
                  
            <!--?lit$997511696$-->
          </g>
        <!---->
    <!----><!---->
      <line stroke-width="3" x1="82" y1="196" x2="104" y2="196" stroke="#3182ce"></line>
      <!--?lit$997511696$--><line stroke-width="1.5" x1="114" y1="206" x2="114" y2="239" stroke="#3182ce"></line>
      <g class="meta-target">
        <!--?lit$997511696$--><title><!---->10 A · 2P · 1.5 mm²<!----></title>
        <rect stroke-width="1.8" rx="2" x="104" y="186" width="20" height="20" fill="color-mix(in srgb, #3182ce 18%, var(--ha-card-background, var(--card-background-color, white)))" stroke="#3182ce"></rect>
        <path d="M114.1 200L111.8 200L111.8 193.6L114 193.6Q115.1 193.6 115.7 194Q116.2 194.5 116.2 195.3Q116.2 195.8 116 196.1Q115.7 196.5 115.3 196.7Q115.8 196.8 116.1 197.2Q116.4 197.6 116.4 198.1Q116.4 199 115.8 199.5Q115.2 200 114.1 200M114.3 197.1L112.9 197.1L112.9 199.1L114.2 199.1Q114.7 199.1 115 198.9Q115.3 198.6 115.3 198.1Q115.3 197.1 114.3 197.1M112.9 194.5L112.9 196.3L114 196.3Q114.5 196.3 114.8 196.1Q115.1 195.8 115.1 195.4Q115.1 194.9 114.8 194.7Q114.6 194.5 114 194.5" fill="#3182ce"></path>
      </g>
      <!--?lit$997511696$-->

      <!--?lit$997511696$--><!---->
          <g class="meta-target">
            <!--?lit$997511696$--><title><!---->Office · L0<!----></title>
            <line stroke-width="0.8" x1="114" y1="217" x2="132" y2="217" stroke="#3182ce"></line>
            <!--?lit$997511696$-->
                    <rect x="132" y="210" width="20" height="12" fill="#38a169" rx="3"></rect>
                    <path d="M139.5 211L139.5 215.3L141.7 215.3L141.7 216L138.6 216L138.6 211L139.5 211M145.5 213L145.5 213.9Q145.5 215 145.1 215.5Q144.7 216.1 143.9 216.1Q143.1 216.1 142.7 215.5Q142.3 215 142.3 214L142.3 213.1Q142.3 212 142.7 211.5Q143.1 211 143.9 211Q144.7 211 145.1 211.5Q145.5 212 145.5 213M144.7 214.1L144.7 213Q144.7 212.3 144.5 211.9Q144.3 211.6 143.9 211.6Q143.5 211.6 143.3 211.9Q143.1 212.2 143.1 212.9L143.1 214Q143.1 214.7 143.3 215.1Q143.5 215.4 143.9 215.4Q144.3 215.4 144.5 215.1Q144.7 214.8 144.7 214.1" fill="white"></path>
                  
            <svg x="156" y="211" width="12" height="12" viewBox="0 0 24 24"><path d="M12,2A7,7 0 0,1 19,9C19,11.38 17.81,13.47 16,14.74V17A1,1 0 0,1 15,18H9A1,1 0 0,1 8,17V14.74C6.19,13.47 5,11.38 5,9A7,7 0 0,1 12,2M9,21V20H15V21A1,1 0 0,1 14,22H10A1,1 0 0,1 9,21M12,4A5,5 0 0,0 7,9C7,11.05 8.23,12.81 10,13.58V16H14V13.58C15.77,12.81 17,11.05 17,9A5,5 0 0,0 12,4Z" fill="var(--secondary-text-color, #718096)"></path></svg>
            <!--?lit$997511696$-->
                    <path d="M177 213L177 213.3Q177 214.2 176.8 214.8Q176.5 215.4 176 215.8Q175.4 216.1 174.8 216.1Q174.1 216.1 173.6 215.7Q173 215.4 172.8 214.8Q172.5 214.2 172.5 213.4L172.5 213Q172.5 212.2 172.7 211.5Q173 210.9 173.6 210.6Q174.1 210.2 174.7 210.2Q175.4 210.2 176 210.6Q176.5 210.9 176.8 211.5Q177 212.1 177 213M176.3 213.4L176.3 213Q176.3 212 175.9 211.4Q175.5 210.9 174.7 210.9Q174 210.9 173.6 211.4Q173.2 212 173.2 212.9L173.2 213.3Q173.2 214.3 173.6 214.9Q174 215.4 174.8 215.4Q175.5 215.4 175.9 214.9Q176.3 214.4 176.3 213.4M179.1 216L178.4 216L178.4 212.3L177.7 212.3L177.7 211.8L178.4 211.8L178.4 211.3Q178.4 210.7 178.8 210.3Q179.1 209.9 179.8 209.9Q180 209.9 180.3 210L180.3 210.6Q180.1 210.5 179.9 210.5Q179.5 210.5 179.3 210.7Q179.1 210.9 179.1 211.3L179.1 211.8L180 211.8L180 212.3L179.1 212.3L179.1 216M181.9 216L181.2 216L181.2 212.3L180.5 212.3L180.5 211.8L181.2 211.8L181.2 211.3Q181.2 210.7 181.5 210.3Q181.9 209.9 182.6 209.9Q182.8 209.9 183.1 210L183 210.6Q182.8 210.5 182.6 210.5Q182.3 210.5 182.1 210.7Q181.9 210.9 181.9 211.3L181.9 211.8L182.8 211.8L182.8 212.3L181.9 212.3L181.9 216M184.4 211.8L184.4 216L183.7 216L183.7 211.8L184.4 211.8M183.6 210.7Q183.6 210.5 183.7 210.4Q183.8 210.2 184 210.2Q184.2 210.2 184.4 210.4Q184.5 210.5 184.5 210.7Q184.5 210.8 184.4 210.9Q184.2 211.1 184 211.1Q183.8 211.1 183.7 210.9Q183.6 210.8 183.6 210.7M187.2 215.5Q187.6 215.5 187.9 215.3Q188.2 215 188.2 214.7L188.9 214.7Q188.9 215 188.7 215.4Q188.4 215.7 188.1 215.9Q187.7 216.1 187.2 216.1Q186.4 216.1 185.9 215.5Q185.4 214.9 185.4 213.9L185.4 213.8Q185.4 213.2 185.6 212.7Q185.8 212.2 186.2 212Q186.7 211.7 187.2 211.7Q187.9 211.7 188.4 212.1Q188.9 212.5 188.9 213.2L188.2 213.2Q188.2 212.8 187.9 212.6Q187.6 212.3 187.2 212.3Q186.7 212.3 186.4 212.7Q186.1 213.1 186.1 213.8L186.1 214Q186.1 214.7 186.4 215.1Q186.7 215.5 187.2 215.5M191.5 216.1Q190.6 216.1 190.1 215.5Q189.5 214.9 189.5 214L189.5 213.9Q189.5 213.2 189.8 212.7Q190 212.3 190.5 212Q190.9 211.7 191.4 211.7Q192.2 211.7 192.7 212.2Q193.1 212.8 193.1 213.8L193.1 214.1L190.3 214.1Q190.3 214.7 190.6 215.1Q191 215.5 191.5 215.5Q191.9 215.5 192.2 215.3Q192.4 215.2 192.6 214.9L193.1 215.3Q192.5 216.1 191.5 216.1M191.4 212.3Q191 212.3 190.7 212.6Q190.4 212.9 190.3 213.5L192.4 213.5L192.4 213.4Q192.4 212.9 192.1 212.6Q191.8 212.3 191.4 212.3" class="zone-room"></path>
                  
            <!--?lit$997511696$-->
          </g>
        <!----><!---->
          <g class="meta-target">
            <!--?lit$997511696$--><title><!---->Hallway · L0<!----></title>
            <line stroke-width="0.8" x1="114" y1="239" x2="132" y2="239" stroke="#3182ce"></line>
            <!--?lit$997511696$-->
                    <rect x="132" y="232" width="20" height="12" fill="#38a169" rx="3"></rect>
                    <path d="M139.5 233L139.5 237.3L141.7 237.3L141.7 238L138.6 238L138.6 233L139.5 233M145.5 235L145.5 235.9Q145.5 237 145.1 237.5Q144.7 238.1 143.9 238.1Q143.1 238.1 142.7 237.5Q142.3 237 142.3 236L142.3 235.1Q142.3 234 142.7 233.5Q143.1 233 143.9 233Q144.7 233 145.1 233.5Q145.5 234 145.5 235M144.7 236.1L144.7 235Q144.7 234.3 144.5 233.9Q144.3 233.6 143.9 233.6Q143.5 233.6 143.3 233.9Q143.1 234.2 143.1 234.9L143.1 236Q143.1 236.7 143.3 237.1Q143.5 237.4 143.9 237.4Q144.3 237.4 144.5 237.1Q144.7 236.8 144.7 236.1" fill="white"></path>
                  
            <svg x="156" y="233" width="12" height="12" viewBox="0 0 24 24"><path d="M12,2A7,7 0 0,1 19,9C19,11.38 17.81,13.47 16,14.74V17A1,1 0 0,1 15,18H9A1,1 0 0,1 8,17V14.74C6.19,13.47 5,11.38 5,9A7,7 0 0,1 12,2M9,21V20H15V21A1,1 0 0,1 14,22H10A1,1 0 0,1 9,21M12,4A5,5 0 0,0 7,9C7,11.05 8.23,12.81 10,13.58V16H14V13.58C15.77,12.81 17,11.05 17,9A5,5 0 0,0 12,4Z" fill="var(--secondary-text-color, #718096)"></path></svg>
            <!--?lit$997511696$-->
                    <path d="M177 232.3L177 238L176.3 238L176.3 235.4L173.4 235.4L173.4 238L172.7 238L172.7 232.3L173.4 232.3L173.4 234.8L176.3 234.8L176.3 232.3L177 232.3M181.6 238L180.9 238Q180.8 237.9 180.8 237.6Q180.3 238.1 179.6 238.1Q178.9 238.1 178.5 237.7Q178.1 237.4 178.1 236.8Q178.1 236.2 178.6 235.8Q179.1 235.4 180 235.4L180.7 235.4L180.7 235.1Q180.7 234.7 180.5 234.5Q180.3 234.3 179.9 234.3Q179.5 234.3 179.2 234.5Q178.9 234.7 178.9 234.9L178.2 234.9Q178.2 234.6 178.4 234.3Q178.7 234 179 233.9Q179.4 233.7 179.9 233.7Q180.6 233.7 181 234.1Q181.5 234.4 181.5 235.1L181.5 237Q181.5 237.6 181.6 237.9L181.6 238M179.7 237.4Q180 237.4 180.3 237.3Q180.6 237.1 180.7 236.8L180.7 235.9L180.2 235.9Q178.9 235.9 178.9 236.7Q178.9 237.1 179.1 237.3Q179.3 237.4 179.7 237.4M183.4 232L183.4 238L182.7 238L182.7 232L183.4 232M185.3 232L185.3 238L184.6 238L184.6 232L185.3 232M189.2 233.8L190.2 237L191 233.8L191.8 233.8L190.5 238L189.9 238L188.9 234.8L187.9 238L187.3 238L186.1 233.8L186.8 233.8L187.7 236.9L188.6 233.8L189.2 233.8M195.9 238L195.1 238Q195 237.9 195 237.6Q194.5 238.1 193.8 238.1Q193.2 238.1 192.8 237.7Q192.4 237.4 192.4 236.8Q192.4 236.2 192.9 235.8Q193.4 235.4 194.3 235.4L195 235.4L195 235.1Q195 234.7 194.8 234.5Q194.5 234.3 194.1 234.3Q193.7 234.3 193.4 234.5Q193.2 234.7 193.2 234.9L192.5 234.9Q192.5 234.6 192.7 234.3Q192.9 234 193.3 233.9Q193.7 233.7 194.1 233.7Q194.9 233.7 195.3 234.1Q195.7 234.4 195.7 235.1L195.7 237Q195.7 237.6 195.9 237.9L195.9 238M193.9 237.4Q194.2 237.4 194.6 237.3Q194.9 237.1 195 236.8L195 235.9L194.4 235.9Q193.1 235.9 193.1 236.7Q193.1 237.1 193.3 237.3Q193.6 237.4 193.9 237.4M197.1 233.8L198.2 236.9L199.2 233.8L199.9 233.8L198.2 238.7Q197.8 239.7 197 239.7L196.8 239.7L196.6 239.6L196.6 239.1L196.8 239.1Q197.1 239.1 197.3 238.9Q197.5 238.8 197.7 238.4L197.8 238L196.3 233.8" class="zone-room"></path>
                  
            <!--?lit$997511696$-->
          </g>
        <!---->
    <!---->
    <!----><!---->
      <!--?lit$997511696$--><!----><circle r="3.5" cx="36" cy="280" fill="#d69e2e"></circle><!---->
      <!--?lit$997511696$--><line stroke-width="2" x1="36" y1="280" x2="70" y2="280" stroke="#d69e2e"></line>

      <g class="meta-target">
        <!--?lit$997511696$--><title><!---->40 A · 30 mA · 2P · Cl. A · L2<!----></title>
        <rect stroke-width="1.8" rx="2" x="70" y="268" width="24" height="24" fill="color-mix(in srgb, #d69e2e 18%, var(--ha-card-background, var(--card-background-color, white)))" stroke="#d69e2e"></rect>
        <path d="M79 284L77.2 284L77.2 277.6L79 277.6Q79.9 277.6 80.5 278Q81.2 278.4 81.6 279.1Q81.9 279.7 81.9 280.6L81.9 281Q81.9 281.9 81.6 282.6Q81.2 283.3 80.5 283.6Q79.9 284 79 284M79 278.5L78.3 278.5L78.3 283.1L79 283.1Q79.9 283.1 80.3 282.6Q80.8 282 80.8 281L80.8 280.6Q80.8 279.6 80.4 279Q79.9 278.5 79 278.5M87.2 283.1L87.2 284L82.9 284L82.9 283.3L85 280.9Q85.5 280.4 85.6 280.1Q85.8 279.7 85.8 279.4Q85.8 278.9 85.6 278.7Q85.3 278.4 84.9 278.4Q84.4 278.4 84.1 278.7Q83.8 279 83.8 279.6L82.7 279.6Q82.7 279 83 278.5Q83.3 278 83.8 277.8Q84.3 277.5 84.9 277.5Q85.8 277.5 86.4 278Q86.9 278.4 86.9 279.3Q86.9 279.8 86.6 280.3Q86.4 280.8 85.8 281.5L84.2 283.1" fill="#d69e2e"></path>
      </g>

      <!--?lit$997511696$-->

      <!--?lit$997511696$--><line stroke-width="3" x1="82" y1="292" x2="82" y2="372" stroke="#d69e2e"></line>

      <!--?lit$997511696$--><!---->
      <line stroke-width="3" x1="82" y1="308" x2="104" y2="308" stroke="#d69e2e"></line>
      <!--?lit$997511696$--><line stroke-width="1.5" x1="114" y1="318" x2="114" y2="351" stroke="#d69e2e"></line>
      <g class="meta-target">
        <!--?lit$997511696$--><title><!---->16 A · 2P · 2.5 mm²<!----></title>
        <rect stroke-width="1.8" rx="2" x="104" y="298" width="20" height="20" fill="color-mix(in srgb, #d69e2e 18%, var(--ha-card-background, var(--card-background-color, white)))" stroke="#d69e2e"></rect>
        <path d="M115.5 309.9L116.6 309.9Q116.5 310.9 115.8 311.5Q115.2 312.1 114.1 312.1Q113.3 312.1 112.7 311.7Q112.2 311.4 111.8 310.7Q111.5 310 111.5 309.1L111.5 308.5Q111.5 307.6 111.8 307Q112.2 306.3 112.8 305.9Q113.4 305.5 114.1 305.5Q115.2 305.5 115.8 306.1Q116.5 306.7 116.6 307.7L115.5 307.7Q115.4 307 115.1 306.7Q114.8 306.4 114.1 306.4Q113.4 306.4 113 306.9Q112.6 307.5 112.6 308.5L112.6 309.1Q112.6 310.1 113 310.6Q113.4 311.2 114.1 311.2Q114.7 311.2 115.1 310.9Q115.4 310.6 115.5 309.9" fill="#d69e2e"></path>
      </g>
      <!--?lit$997511696$-->

      <!--?lit$997511696$--><!---->
          <g class="meta-target">
            <!--?lit$997511696$--><title><!---->Kitchen · L0<!----></title>
            <line stroke-width="0.8" x1="114" y1="329" x2="132" y2="329" stroke="#d69e2e"></line>
            <!--?lit$997511696$-->
                    <rect x="132" y="322" width="20" height="12" fill="#38a169" rx="3"></rect>
                    <path d="M139.5 323L139.5 327.3L141.7 327.3L141.7 328L138.6 328L138.6 323L139.5 323M145.5 325L145.5 325.9Q145.5 327 145.1 327.5Q144.7 328.1 143.9 328.1Q143.1 328.1 142.7 327.5Q142.3 327 142.3 326L142.3 325.1Q142.3 324 142.7 323.5Q143.1 323 143.9 323Q144.7 323 145.1 323.5Q145.5 324 145.5 325M144.7 326.1L144.7 325Q144.7 324.3 144.5 323.9Q144.3 323.6 143.9 323.6Q143.5 323.6 143.3 323.9Q143.1 324.2 143.1 324.9L143.1 326Q143.1 326.7 143.3 327.1Q143.5 327.4 143.9 327.4Q144.3 327.4 144.5 327.1Q144.7 326.8 144.7 326.1" fill="white"></path>
                  
            <svg x="156" y="323" width="12" height="12" viewBox="0 0 24 24"><path d="M7.5,10.5A1.5,1.5 0 0,1 9,12A1.5,1.5 0 0,1 7.5,13.5C6.66,13.5 6,12.83 6,12A1.5,1.5 0 0,1 7.5,10.5M16.5,10.5A1.5,1.5 0 0,1 18,12A1.5,1.5 0 0,1 16.5,13.5A1.5,1.5 0 0,1 15,12A1.5,1.5 0 0,1 16.5,10.5M4.22,2H19.78C21,2 22,3 22,4.22V19.78A2.22,2.22 0 0,1 19.78,22H4.22C3,22 2,21 2,19.78V4.22A2.22,2.22 0 0,1 4.22,2M12,4A8,8 0 0,0 4,12A8,8 0 0,0 12,20A8,8 0 0,0 20,12A8,8 0 0,0 12,4Z" fill="var(--secondary-text-color, #718096)"></path></svg>
            <!--?lit$997511696$-->
                    <path d="M176.1 328L174.1 325.4L173.4 326.1L173.4 328L172.7 328L172.7 322.3L173.4 322.3L173.4 325.1L175.9 322.3L176.8 322.3L174.6 324.8L177 328L176.1 328M178.3 323.8L178.3 328L177.6 328L177.6 323.8L178.3 323.8M177.6 322.7Q177.6 322.5 177.7 322.4Q177.8 322.2 178 322.2Q178.2 322.2 178.3 322.4Q178.4 322.5 178.4 322.7Q178.4 322.8 178.3 322.9Q178.2 323.1 178 323.1Q177.8 323.1 177.7 322.9Q177.6 322.8 177.6 322.7M179.8 322.8L180.5 322.8L180.5 323.8L181.3 323.8L181.3 324.3L180.5 324.3L180.5 327Q180.5 327.2 180.6 327.3Q180.7 327.5 180.9 327.5Q181.1 327.5 181.3 327.4L181.3 328Q181 328.1 180.7 328.1Q180.3 328.1 180 327.8Q179.8 327.5 179.8 327L179.8 324.3L179 324.3L179 323.8L179.8 323.8L179.8 322.8M183.8 327.5Q184.2 327.5 184.5 327.3Q184.8 327 184.8 326.7L185.5 326.7Q185.5 327 185.2 327.4Q185 327.7 184.6 327.9Q184.2 328.1 183.8 328.1Q182.9 328.1 182.4 327.5Q181.9 326.9 181.9 325.9L181.9 325.8Q181.9 325.2 182.2 324.7Q182.4 324.2 182.8 324Q183.2 323.7 183.8 323.7Q184.5 323.7 185 324.1Q185.5 324.5 185.5 325.2L184.8 325.2Q184.8 324.8 184.5 324.6Q184.2 324.3 183.8 324.3Q183.3 324.3 183 324.7Q182.7 325.1 182.7 325.8L182.7 326Q182.7 326.7 183 327.1Q183.3 327.5 183.8 327.5M187 322L187 324.3Q187.5 323.7 188.3 323.7Q189.6 323.7 189.6 325.2L189.6 328L188.9 328L188.9 325.2Q188.9 324.7 188.7 324.5Q188.5 324.3 188.1 324.3Q187.7 324.3 187.4 324.5Q187.2 324.7 187 325L187 328L186.3 328L186.3 322L187 322M192.5 328.1Q191.6 328.1 191.1 327.5Q190.5 326.9 190.5 326L190.5 325.9Q190.5 325.2 190.8 324.7Q191 324.3 191.4 324Q191.9 323.7 192.4 323.7Q193.2 323.7 193.7 324.2Q194.1 324.8 194.1 325.8L194.1 326.1L191.3 326.1Q191.3 326.7 191.6 327.1Q192 327.5 192.5 327.5Q192.9 327.5 193.2 327.3Q193.4 327.2 193.6 326.9L194.1 327.3Q193.5 328.1 192.5 328.1M192.4 324.3Q191.9 324.3 191.6 324.6Q191.3 324.9 191.3 325.5L193.4 325.5L193.4 325.4Q193.4 324.9 193.1 324.6Q192.8 324.3 192.4 324.3M194.9 323.8L195.6 323.8L195.7 324.3Q196.1 323.7 196.9 323.7Q198.3 323.7 198.3 325.2L198.3 328L197.6 328L197.6 325.2Q197.5 324.7 197.3 324.5Q197.1 324.3 196.7 324.3Q196.4 324.3 196.1 324.5Q195.8 324.7 195.7 325L195.7 328L194.9 328" class="zone-room"></path>
                  
            <!--?lit$997511696$-->
          </g>
        <!----><!---->
          <g class="meta-target">
            <!--?lit$997511696$--><title><!---->Bedroom · L1<!----></title>
            <line stroke-width="0.8" x1="114" y1="351" x2="132" y2="351" stroke="#d69e2e"></line>
            <!--?lit$997511696$-->
                    <rect x="132" y="344" width="20" height="12" fill="#3182ce" rx="3"></rect>
                    <path d="M139.5 345L139.5 349.3L141.7 349.3L141.7 350L138.6 350L138.6 345L139.5 345M144.5 345L144.5 350L143.7 350L143.7 346L142.5 346.4L142.5 345.7L144.4 345" fill="white"></path>
                  
            <svg x="156" y="345" width="12" height="12" viewBox="0 0 24 24"><path d="M7.5,10.5A1.5,1.5 0 0,1 9,12A1.5,1.5 0 0,1 7.5,13.5C6.66,13.5 6,12.83 6,12A1.5,1.5 0 0,1 7.5,10.5M16.5,10.5A1.5,1.5 0 0,1 18,12A1.5,1.5 0 0,1 16.5,13.5A1.5,1.5 0 0,1 15,12A1.5,1.5 0 0,1 16.5,10.5M4.22,2H19.78C21,2 22,3 22,4.22V19.78A2.22,2.22 0 0,1 19.78,22H4.22C3,22 2,21 2,19.78V4.22A2.22,2.22 0 0,1 4.22,2M12,4A8,8 0 0,0 4,12A8,8 0 0,0 12,20A8,8 0 0,0 20,12A8,8 0 0,0 12,4Z" fill="var(--secondary-text-color, #718096)"></path></svg>
            <!--?lit$997511696$-->
                    <path d="M174.6 350L172.7 350L172.7 344.3L174.5 344.3Q175.4 344.3 175.9 344.7Q176.4 345.1 176.4 345.8Q176.4 346.2 176.2 346.5Q175.9 346.8 175.5 347Q176 347.1 176.3 347.5Q176.5 347.9 176.5 348.4Q176.5 349.1 176 349.6Q175.5 350 174.6 350M174.7 347.3L173.4 347.3L173.4 349.4L174.6 349.4Q175.2 349.4 175.5 349.1Q175.8 348.8 175.8 348.4Q175.8 347.3 174.7 347.3M173.4 344.9L173.4 346.7L174.5 346.7Q175 346.7 175.3 346.5Q175.6 346.2 175.6 345.8Q175.6 345.4 175.4 345.1Q175.1 344.9 174.5 344.9L173.4 344.9M179.3 350.1Q178.4 350.1 177.9 349.5Q177.3 348.9 177.3 348L177.3 347.9Q177.3 347.2 177.6 346.7Q177.8 346.3 178.3 346Q178.7 345.7 179.2 345.7Q180 345.7 180.5 346.2Q180.9 346.8 180.9 347.8L180.9 348.1L178.1 348.1Q178.1 348.7 178.4 349.1Q178.8 349.5 179.3 349.5Q179.7 349.5 180 349.3Q180.2 349.2 180.4 348.9L180.9 349.3Q180.3 350.1 179.3 350.1M179.2 346.3Q178.8 346.3 178.5 346.6Q178.2 346.9 178.1 347.5L180.2 347.5L180.2 347.4Q180.2 346.9 179.9 346.6Q179.6 346.3 179.2 346.3M181.6 347.9L181.6 347.9Q181.6 346.9 182.1 346.3Q182.5 345.7 183.3 345.7Q184 345.7 184.4 346.2L184.4 344L185.2 344L185.2 350L184.5 350L184.5 349.5Q184 350.1 183.3 350.1Q182.5 350.1 182.1 349.5Q181.6 348.9 181.6 347.9M182.3 347.9Q182.3 348.7 182.6 349.1Q182.9 349.5 183.4 349.5Q184.1 349.5 184.4 348.8L184.4 346.9Q184.1 346.3 183.4 346.3Q182.9 346.3 182.6 346.7Q182.3 347.1 182.3 347.9M188.3 345.8L188.3 346.4Q188.2 346.4 188 346.4Q187.3 346.4 187 347L187 350L186.3 350L186.3 345.8L187 345.8L187 346.3Q187.3 345.7 188 345.7Q188.2 345.7 188.3 345.8M188.7 347.9L188.7 347.8Q188.7 347.2 189 346.7Q189.2 346.2 189.6 346Q190.1 345.7 190.6 345.7Q191.5 345.7 192 346.3Q192.6 346.9 192.6 347.9L192.6 347.9Q192.6 348.6 192.3 349Q192.1 349.5 191.7 349.8Q191.2 350.1 190.6 350.1Q189.8 350.1 189.2 349.5Q188.7 348.9 188.7 347.9M189.4 347.9Q189.4 348.6 189.8 349.1Q190.1 349.5 190.6 349.5Q191.2 349.5 191.5 349.1Q191.8 348.6 191.8 347.8Q191.8 347.2 191.5 346.7Q191.2 346.3 190.6 346.3Q190.1 346.3 189.8 346.7Q189.4 347.1 189.4 347.9M193.3 347.9L193.3 347.8Q193.3 347.2 193.5 346.7Q193.8 346.2 194.2 346Q194.6 345.7 195.2 345.7Q196.1 345.7 196.6 346.3Q197.1 346.9 197.1 347.9L197.1 347.9Q197.1 348.6 196.9 349Q196.7 349.5 196.2 349.8Q195.8 350.1 195.2 350.1Q194.3 350.1 193.8 349.5Q193.3 348.9 193.3 347.9M194 347.9Q194 348.6 194.3 349.1Q194.7 349.5 195.2 349.5Q195.8 349.5 196.1 349.1Q196.4 348.6 196.4 347.8Q196.4 347.2 196.1 346.7Q195.7 346.3 195.2 346.3Q194.7 346.3 194.3 346.7Q194 347.1 194 347.9M198 345.8L198.7 345.8L198.7 346.2Q199.2 345.7 200 345.7Q200.9 345.7 201.2 346.4Q201.4 346.1 201.7 345.9Q202.1 345.7 202.5 345.7Q203.9 345.7 204 347.2L204 350L203.2 350L203.2 347.2Q203.2 346.8 203 346.5Q202.8 346.3 202.3 346.3Q201.9 346.3 201.7 346.5Q201.4 346.8 201.4 347.2L201.4 350L200.6 350L200.6 347.2Q200.6 346.3 199.7 346.3Q199 346.3 198.8 346.9L198.8 350L198 350" class="zone-room"></path>
                  
            <!--?lit$997511696$-->
          </g>
        <!---->
    <!----><!---->
      <line stroke-width="3" x1="82" y1="372" x2="104" y2="372" stroke="#d69e2e"></line>
      <!--?lit$997511696$--><line stroke-width="1.5" x1="114" y1="382" x2="114" y2="415" stroke="#d69e2e"></line>
      <g class="meta-target">
        <!--?lit$997511696$--><title><!---->16 A · 2P · 2.5 mm²<!----></title>
        <rect stroke-width="1.8" rx="2" x="104" y="362" width="20" height="20" fill="color-mix(in srgb, #d69e2e 18%, var(--ha-card-background, var(--card-background-color, white)))" stroke="#d69e2e"></rect>
        <path d="M113.6 376L111.7 376L111.7 369.6L113.6 369.6Q114.4 369.6 115.1 370Q115.8 370.4 116.1 371.1Q116.5 371.7 116.5 372.6L116.5 373Q116.5 373.9 116.1 374.6Q115.8 375.3 115.1 375.6Q114.4 376 113.6 376M113.6 370.5L112.8 370.5L112.8 375.1L113.5 375.1Q114.4 375.1 114.9 374.6Q115.4 374 115.4 373L115.4 372.6Q115.4 371.6 114.9 371Q114.5 370.5 113.6 370.5" fill="#d69e2e"></path>
      </g>
      <!--?lit$997511696$-->

      <!--?lit$997511696$--><!---->
          <g class="meta-target">
            <!--?lit$997511696$--><title><!---->Bathroom · L1<!----></title>
            <line stroke-width="0.8" x1="114" y1="393" x2="132" y2="393" stroke="#d69e2e"></line>
            <!--?lit$997511696$-->
                    <rect x="132" y="386" width="20" height="12" fill="#3182ce" rx="3"></rect>
                    <path d="M139.5 387L139.5 391.3L141.7 391.3L141.7 392L138.6 392L138.6 387L139.5 387M144.5 387L144.5 392L143.7 392L143.7 388L142.5 388.4L142.5 387.7L144.4 387" fill="white"></path>
                  
            <svg x="156" y="387" width="12" height="12" viewBox="0 0 24 24"><path d="M7.5,10.5A1.5,1.5 0 0,1 9,12A1.5,1.5 0 0,1 7.5,13.5C6.66,13.5 6,12.83 6,12A1.5,1.5 0 0,1 7.5,10.5M16.5,10.5A1.5,1.5 0 0,1 18,12A1.5,1.5 0 0,1 16.5,13.5A1.5,1.5 0 0,1 15,12A1.5,1.5 0 0,1 16.5,10.5M4.22,2H19.78C21,2 22,3 22,4.22V19.78A2.22,2.22 0 0,1 19.78,22H4.22C3,22 2,21 2,19.78V4.22A2.22,2.22 0 0,1 4.22,2M12,4A8,8 0 0,0 4,12A8,8 0 0,0 12,20A8,8 0 0,0 20,12A8,8 0 0,0 12,4Z" fill="var(--secondary-text-color, #718096)"></path></svg>
            <!--?lit$997511696$-->
                    <path d="M174.6 392L172.7 392L172.7 386.3L174.5 386.3Q175.4 386.3 175.9 386.7Q176.4 387.1 176.4 387.8Q176.4 388.2 176.2 388.5Q175.9 388.8 175.5 389Q176 389.1 176.3 389.5Q176.5 389.9 176.5 390.4Q176.5 391.1 176 391.6Q175.5 392 174.6 392M174.7 389.3L173.4 389.3L173.4 391.4L174.6 391.4Q175.2 391.4 175.5 391.1Q175.8 390.8 175.8 390.4Q175.8 389.3 174.7 389.3M173.4 386.9L173.4 388.7L174.5 388.7Q175 388.7 175.3 388.5Q175.6 388.2 175.6 387.8Q175.6 387.4 175.4 387.1Q175.1 386.9 174.5 386.9L173.4 386.9M180.9 392L180.1 392Q180.1 391.9 180 391.6Q179.5 392.1 178.8 392.1Q178.2 392.1 177.8 391.7Q177.4 391.4 177.4 390.8Q177.4 390.2 177.9 389.8Q178.4 389.4 179.3 389.4L180 389.4L180 389.1Q180 388.7 179.8 388.5Q179.6 388.3 179.1 388.3Q178.7 388.3 178.5 388.5Q178.2 388.7 178.2 388.9L177.5 388.9Q177.5 388.6 177.7 388.3Q177.9 388 178.3 387.9Q178.7 387.7 179.2 387.7Q179.9 387.7 180.3 388.1Q180.7 388.4 180.7 389.1L180.7 391Q180.7 391.6 180.9 391.9L180.9 392M178.9 391.4Q179.3 391.4 179.6 391.3Q179.9 391.1 180 390.8L180 389.9L179.5 389.9Q178.1 389.9 178.1 390.7Q178.1 391.1 178.4 391.3Q178.6 391.4 178.9 391.4M182.1 386.8L182.9 386.8L182.9 387.8L183.6 387.8L183.6 388.3L182.9 388.3L182.9 391Q182.9 391.2 183 391.3Q183.1 391.5 183.3 391.5Q183.4 391.5 183.7 391.4L183.7 392Q183.4 392.1 183.1 392.1Q182.6 392.1 182.4 391.8Q182.1 391.5 182.1 391L182.1 388.3L181.4 388.3L181.4 387.8L182.1 387.8L182.1 386.8M185.2 386L185.2 388.3Q185.7 387.7 186.5 387.7Q187.8 387.7 187.8 389.2L187.8 392L187.1 392L187.1 389.2Q187.1 388.7 186.9 388.5Q186.7 388.3 186.2 388.3Q185.9 388.3 185.6 388.5Q185.4 388.7 185.2 389L185.2 392L184.5 392L184.5 386L185.2 386M190.9 387.8L190.9 388.4Q190.8 388.4 190.6 388.4Q189.9 388.4 189.6 389L189.6 392L188.9 392L188.9 387.8L189.6 387.8L189.6 388.3Q190 387.7 190.6 387.7Q190.8 387.7 190.9 387.8M191.3 389.9L191.3 389.8Q191.3 389.2 191.6 388.7Q191.8 388.2 192.3 388Q192.7 387.7 193.3 387.7Q194.1 387.7 194.7 388.3Q195.2 388.9 195.2 389.9L195.2 389.9Q195.2 390.6 194.9 391Q194.7 391.5 194.3 391.8Q193.8 392.1 193.3 392.1Q192.4 392.1 191.9 391.5Q191.3 390.9 191.3 389.9M192.1 389.9Q192.1 390.6 192.4 391.1Q192.7 391.5 193.3 391.5Q193.8 391.5 194.1 391.1Q194.5 390.6 194.5 389.8Q194.5 389.2 194.1 388.7Q193.8 388.3 193.3 388.3Q192.7 388.3 192.4 388.7Q192.1 389.1 192.1 389.9M195.9 389.9L195.9 389.8Q195.9 389.2 196.1 388.7Q196.4 388.2 196.8 388Q197.3 387.7 197.8 387.7Q198.7 387.7 199.2 388.3Q199.7 388.9 199.7 389.9L199.7 389.9Q199.7 390.6 199.5 391Q199.3 391.5 198.8 391.8Q198.4 392.1 197.8 392.1Q197 392.1 196.4 391.5Q195.9 390.9 195.9 389.9M196.6 389.9Q196.6 390.6 197 391.1Q197.3 391.5 197.8 391.5Q198.4 391.5 198.7 391.1Q199 390.6 199 389.8Q199 389.2 198.7 388.7Q198.4 388.3 197.8 388.3Q197.3 388.3 197 388.7Q196.6 389.1 196.6 389.9M200.6 387.8L201.3 387.8L201.4 388.2Q201.8 387.7 202.6 387.7Q203.5 387.7 203.8 388.4Q204 388.1 204.4 387.9Q204.7 387.7 205.2 387.7Q206.6 387.7 206.6 389.2L206.6 392L205.9 392L205.9 389.2Q205.9 388.8 205.6 388.5Q205.4 388.3 204.9 388.3Q204.5 388.3 204.3 388.5Q204 388.8 204 389.2L204 392L203.2 392L203.2 389.2Q203.2 388.3 202.3 388.3Q201.6 388.3 201.4 388.9L201.4 392L200.6 392" class="zone-room"></path>
                  
            <!--?lit$997511696$-->
          </g>
        <!----><!---->
          <g class="meta-target">
            <!--?lit$997511696$--><title><!---->WC · L1<!----></title>
            <line stroke-width="0.8" x1="114" y1="415" x2="132" y2="415" stroke="#d69e2e"></line>
            <!--?lit$997511696$-->
                    <rect x="132" y="408" width="20" height="12" fill="#3182ce" rx="3"></rect>
                    <path d="M139.5 409L139.5 413.3L141.7 413.3L141.7 414L138.6 414L138.6 409L139.5 409M144.5 409L144.5 414L143.7 414L143.7 410L142.5 410.4L142.5 409.7L144.4 409" fill="white"></path>
                  
            <svg x="156" y="409" width="12" height="12" viewBox="0 0 24 24"><path d="M7.5,10.5A1.5,1.5 0 0,1 9,12A1.5,1.5 0 0,1 7.5,13.5C6.66,13.5 6,12.83 6,12A1.5,1.5 0 0,1 7.5,10.5M16.5,10.5A1.5,1.5 0 0,1 18,12A1.5,1.5 0 0,1 16.5,13.5A1.5,1.5 0 0,1 15,12A1.5,1.5 0 0,1 16.5,10.5M4.22,2H19.78C21,2 22,3 22,4.22V19.78A2.22,2.22 0 0,1 19.78,22H4.22C3,22 2,21 2,19.78V4.22A2.22,2.22 0 0,1 4.22,2M12,4A8,8 0 0,0 4,12A8,8 0 0,0 12,20A8,8 0 0,0 20,12A8,8 0 0,0 12,4Z" fill="var(--secondary-text-color, #718096)"></path></svg>
            <!--?lit$997511696$-->
                    <path d="M173 408.3L173.9 412.2L174 413L174.2 412.3L175.3 408.3L175.9 408.3L177 412.3L177.2 413L177.3 412.2L178.2 408.3L178.9 408.3L177.5 414L176.9 414L175.7 409.9L175.6 409.4L175.5 409.9L174.3 414L173.6 414L172.2 408.3L173 408.3M183.2 412.2L183.9 412.2Q183.8 413.1 183.3 413.6Q182.7 414.1 181.8 414.1Q180.8 414.1 180.2 413.4Q179.6 412.6 179.6 411.4L179.6 410.9Q179.6 410.1 179.8 409.5Q180.1 408.9 180.6 408.6Q181.2 408.2 181.9 408.2Q182.8 408.2 183.3 408.7Q183.9 409.2 183.9 410.1L183.2 410.1Q183.1 409.5 182.8 409.2Q182.4 408.9 181.9 408.9Q181.1 408.9 180.7 409.4Q180.3 409.9 180.3 410.9L180.3 411.4Q180.3 412.4 180.7 412.9Q181.1 413.5 181.8 413.5Q182.4 413.5 182.7 413.2Q183.1 412.9 183.2 412.2" class="zone-room"></path>
                  
            <!--?lit$997511696$-->
          </g>
        <!---->
    <!---->
    <!----><!---->
      <!--?lit$997511696$--><!----><circle r="3.5" cx="24" cy="456" fill="#38a169"></circle><!---->
      <!--?lit$997511696$--><line stroke-width="2" x1="24" y1="456" x2="70" y2="456" stroke="#38a169"></line>

      <g class="meta-target">
        <!--?lit$997511696$--><title><!---->40 A · 30 mA · 2P · Cl. A · L3<!----></title>
        <rect stroke-width="1.8" rx="2" x="70" y="444" width="24" height="24" fill="color-mix(in srgb, #38a169 18%, var(--ha-card-background, var(--card-background-color, white)))" stroke="#38a169"></rect>
        <path d="M79 460L77.2 460L77.2 453.6L79 453.6Q79.9 453.6 80.5 454Q81.2 454.4 81.6 455.1Q81.9 455.7 81.9 456.6L81.9 457Q81.9 457.9 81.6 458.6Q81.2 459.3 80.5 459.6Q79.9 460 79 460M79 454.5L78.3 454.5L78.3 459.1L79 459.1Q79.9 459.1 80.3 458.6Q80.8 458 80.8 457L80.8 456.6Q80.8 455.6 80.4 455Q79.9 454.5 79 454.5M84.1 457.2L84.1 456.3L84.7 456.3Q85.2 456.3 85.5 456.1Q85.8 455.8 85.8 455.3Q85.8 454.9 85.6 454.6Q85.3 454.4 84.8 454.4Q84.4 454.4 84.1 454.6Q83.9 454.9 83.9 455.3L82.8 455.3Q82.8 454.8 83.1 454.4Q83.3 454 83.8 453.7Q84.3 453.5 84.8 453.5Q85.8 453.5 86.3 454Q86.9 454.5 86.9 455.3Q86.9 455.8 86.6 456.1Q86.3 456.5 85.9 456.7Q86.4 456.9 86.7 457.3Q87 457.7 87 458.2Q87 459.1 86.4 459.6Q85.8 460.1 84.8 460.1Q83.9 460.1 83.3 459.6Q82.7 459.1 82.7 458.3L83.8 458.3Q83.8 458.7 84.1 459Q84.4 459.2 84.8 459.2Q85.3 459.2 85.6 459Q85.9 458.7 85.9 458.2Q85.9 457.7 85.6 457.4Q85.3 457.2 84.7 457.2" fill="#38a169"></path>
      </g>

      <!--?lit$997511696$-->

      <!--?lit$997511696$--><line stroke-width="3" x1="82" y1="468" x2="82" y2="570" stroke="#38a169"></line>

      <!--?lit$997511696$--><!---->
      <line stroke-width="3" x1="82" y1="484" x2="104" y2="484" stroke="#38a169"></line>
      <!--?lit$997511696$--><line stroke-width="1.5" x1="114" y1="494" x2="114" y2="549" stroke="#38a169"></line>
      <g class="meta-target">
        <!--?lit$997511696$--><title><!---->10 A · 2P · 1.5 mm²<!----></title>
        <rect stroke-width="1.8" rx="2" x="104" y="474" width="20" height="20" fill="color-mix(in srgb, #38a169 18%, var(--ha-card-background, var(--card-background-color, white)))" stroke="#38a169"></rect>
        <path d="M115.8 484.3L115.8 485.1L113.2 485.1L113.2 487.1L116.3 487.1L116.3 488L112.1 488L112.1 481.6L116.3 481.6L116.3 482.5L113.2 482.5L113.2 484.3" fill="#38a169"></path>
      </g>
      <!--?lit$997511696$-->

      <!--?lit$997511696$--><!---->
          <g class="meta-target">
            <!--?lit$997511696$--><title><!---->Living room · L0<!----></title>
            <line stroke-width="0.8" x1="114" y1="505" x2="132" y2="505" stroke="#38a169"></line>
            <!--?lit$997511696$-->
                    <rect x="132" y="498" width="20" height="12" fill="#38a169" rx="3"></rect>
                    <path d="M139.5 499L139.5 503.3L141.7 503.3L141.7 504L138.6 504L138.6 499L139.5 499M145.5 501L145.5 501.9Q145.5 503 145.1 503.5Q144.7 504.1 143.9 504.1Q143.1 504.1 142.7 503.5Q142.3 503 142.3 502L142.3 501.1Q142.3 500 142.7 499.5Q143.1 499 143.9 499Q144.7 499 145.1 499.5Q145.5 500 145.5 501M144.7 502.1L144.7 501Q144.7 500.3 144.5 499.9Q144.3 499.6 143.9 499.6Q143.5 499.6 143.3 499.9Q143.1 500.2 143.1 500.9L143.1 502Q143.1 502.7 143.3 503.1Q143.5 503.4 143.9 503.4Q144.3 503.4 144.5 503.1Q144.7 502.8 144.7 502.1" fill="white"></path>
                  
            <svg x="156" y="499" width="12" height="12" viewBox="0 0 24 24"><path d="M12,2A7,7 0 0,1 19,9C19,11.38 17.81,13.47 16,14.74V17A1,1 0 0,1 15,18H9A1,1 0 0,1 8,17V14.74C6.19,13.47 5,11.38 5,9A7,7 0 0,1 12,2M9,21V20H15V21A1,1 0 0,1 14,22H10A1,1 0 0,1 9,21M12,4A5,5 0 0,0 7,9C7,11.05 8.23,12.81 10,13.58V16H14V13.58C15.77,12.81 17,11.05 17,9A5,5 0 0,0 12,4Z" fill="var(--secondary-text-color, #718096)"></path></svg>
            <!--?lit$997511696$-->
                    <path d="M173.4 498.3L173.4 503.4L176.1 503.4L176.1 504L172.7 504L172.7 498.3L173.4 498.3M177.6 499.8L177.6 504L176.9 504L176.9 499.8L177.6 499.8M176.9 498.7Q176.9 498.5 177 498.4Q177.1 498.2 177.3 498.2Q177.5 498.2 177.6 498.4Q177.7 498.5 177.7 498.7Q177.7 498.8 177.6 498.9Q177.5 499.1 177.3 499.1Q177.1 499.1 177 498.9Q176.9 498.8 176.9 498.7M179.1 499.8L180.2 503L181.2 499.8L182 499.8L180.5 504L179.9 504L178.4 499.8L179.1 499.8M183.5 499.8L183.5 504L182.7 504L182.7 499.8L183.5 499.8M182.7 498.7Q182.7 498.5 182.8 498.4Q182.9 498.2 183.1 498.2Q183.3 498.2 183.4 498.4Q183.5 498.5 183.5 498.7Q183.5 498.8 183.4 498.9Q183.3 499.1 183.1 499.1Q182.9 499.1 182.8 498.9Q182.7 498.8 182.7 498.7M184.6 499.8L185.3 499.8L185.3 500.3Q185.8 499.7 186.6 499.7Q187.9 499.7 187.9 501.2L187.9 504L187.2 504L187.2 501.2Q187.2 500.7 187 500.5Q186.8 500.3 186.4 500.3Q186 500.3 185.7 500.5Q185.5 500.7 185.3 501L185.3 504L184.6 504L184.6 499.8M188.9 501.9Q188.9 500.9 189.3 500.3Q189.8 499.7 190.5 499.7Q191.3 499.7 191.7 500.2L191.8 499.8L192.4 499.8L192.4 503.9Q192.4 504.7 191.9 505.2Q191.4 505.7 190.6 505.7Q190.2 505.7 189.7 505.5Q189.3 505.3 189.1 504.9L189.4 504.5Q189.9 505.1 190.6 505.1Q191.1 505.1 191.4 504.8Q191.7 504.5 191.7 503.9L191.7 503.6Q191.3 504.1 190.5 504.1Q189.8 504.1 189.3 503.5Q188.9 502.9 188.9 501.9M189.6 501.9Q189.6 502.6 189.9 503.1Q190.2 503.5 190.7 503.5Q191.4 503.5 191.7 502.8L191.7 500.9Q191.4 500.3 190.7 500.3Q190.2 500.3 189.9 500.7Q189.6 501.1 189.6 501.9M197.5 499.8L197.5 500.4Q197.4 500.4 197.2 500.4Q196.5 500.4 196.2 501L196.2 504L195.5 504L195.5 499.8L196.2 499.8L196.2 500.3Q196.6 499.7 197.2 499.7Q197.4 499.7 197.5 499.8M197.9 501.9L197.9 501.8Q197.9 501.2 198.2 500.7Q198.4 500.2 198.9 500Q199.3 499.7 199.8 499.7Q200.7 499.7 201.2 500.3Q201.8 500.9 201.8 501.9L201.8 501.9Q201.8 502.6 201.5 503Q201.3 503.5 200.9 503.8Q200.4 504.1 199.9 504.1Q199 504.1 198.5 503.5Q197.9 502.9 197.9 501.9M198.7 501.9Q198.7 502.6 199 503.1Q199.3 503.5 199.9 503.5Q200.4 503.5 200.7 503.1Q201.1 502.6 201.1 501.8Q201.1 501.2 200.7 500.7Q200.4 500.3 199.8 500.3Q199.3 500.3 199 500.7Q198.7 501.1 198.7 501.9M202.5 501.9L202.5 501.8Q202.5 501.2 202.7 500.7Q203 500.2 203.4 500Q203.9 499.7 204.4 499.7Q205.3 499.7 205.8 500.3Q206.3 500.9 206.3 501.9L206.3 501.9Q206.3 502.6 206.1 503Q205.9 503.5 205.4 503.8Q205 504.1 204.4 504.1Q203.6 504.1 203 503.5Q202.5 502.9 202.5 501.9M203.2 501.9Q203.2 502.6 203.5 503.1Q203.9 503.5 204.4 503.5Q205 503.5 205.3 503.1Q205.6 502.6 205.6 501.8Q205.6 501.2 205.3 500.7Q205 500.3 204.4 500.3Q203.9 500.3 203.5 500.7Q203.2 501.1 203.2 501.9M207.2 499.8L207.9 499.8L207.9 500.2Q208.4 499.7 209.2 499.7Q210.1 499.7 210.4 500.4Q210.6 500.1 211 499.9Q211.3 499.7 211.8 499.7Q213.1 499.7 213.2 501.2L213.2 504L212.4 504L212.4 501.2Q212.4 500.8 212.2 500.5Q212 500.3 211.5 500.3Q211.1 500.3 210.9 500.5Q210.6 500.8 210.6 501.2L210.6 504L209.8 504L209.8 501.2Q209.8 500.3 208.9 500.3Q208.2 500.3 208 500.9L208 504L207.2 504" class="zone-room"></path>
                  
            <!--?lit$997511696$-->
          </g>
        <!----><!---->
          <g class="meta-target">
            <!--?lit$997511696$--><title><!---->Kitchen · L0<!----></title>
            <line stroke-width="0.8" x1="114" y1="527" x2="132" y2="527" stroke="#38a169"></line>
            <!--?lit$997511696$-->
                    <rect x="132" y="520" width="20" height="12" fill="#38a169" rx="3"></rect>
                    <path d="M139.5 521L139.5 525.3L141.7 525.3L141.7 526L138.6 526L138.6 521L139.5 521M145.5 523L145.5 523.9Q145.5 525 145.1 525.5Q144.7 526.1 143.9 526.1Q143.1 526.1 142.7 525.5Q142.3 525 142.3 524L142.3 523.1Q142.3 522 142.7 521.5Q143.1 521 143.9 521Q144.7 521 145.1 521.5Q145.5 522 145.5 523M144.7 524.1L144.7 523Q144.7 522.3 144.5 521.9Q144.3 521.6 143.9 521.6Q143.5 521.6 143.3 521.9Q143.1 522.2 143.1 522.9L143.1 524Q143.1 524.7 143.3 525.1Q143.5 525.4 143.9 525.4Q144.3 525.4 144.5 525.1Q144.7 524.8 144.7 524.1" fill="white"></path>
                  
            <svg x="156" y="521" width="12" height="12" viewBox="0 0 24 24"><path d="M12,2A7,7 0 0,1 19,9C19,11.38 17.81,13.47 16,14.74V17A1,1 0 0,1 15,18H9A1,1 0 0,1 8,17V14.74C6.19,13.47 5,11.38 5,9A7,7 0 0,1 12,2M9,21V20H15V21A1,1 0 0,1 14,22H10A1,1 0 0,1 9,21M12,4A5,5 0 0,0 7,9C7,11.05 8.23,12.81 10,13.58V16H14V13.58C15.77,12.81 17,11.05 17,9A5,5 0 0,0 12,4Z" fill="var(--secondary-text-color, #718096)"></path></svg>
            <!--?lit$997511696$-->
                    <path d="M176.1 526L174.1 523.4L173.4 524.1L173.4 526L172.7 526L172.7 520.3L173.4 520.3L173.4 523.1L175.9 520.3L176.8 520.3L174.6 522.8L177 526L176.1 526M178.3 521.8L178.3 526L177.6 526L177.6 521.8L178.3 521.8M177.6 520.7Q177.6 520.5 177.7 520.4Q177.8 520.2 178 520.2Q178.2 520.2 178.3 520.4Q178.4 520.5 178.4 520.7Q178.4 520.8 178.3 520.9Q178.2 521.1 178 521.1Q177.8 521.1 177.7 520.9Q177.6 520.8 177.6 520.7M179.8 520.8L180.5 520.8L180.5 521.8L181.3 521.8L181.3 522.3L180.5 522.3L180.5 525Q180.5 525.2 180.6 525.3Q180.7 525.5 180.9 525.5Q181.1 525.5 181.3 525.4L181.3 526Q181 526.1 180.7 526.1Q180.3 526.1 180 525.8Q179.8 525.5 179.8 525L179.8 522.3L179 522.3L179 521.8L179.8 521.8L179.8 520.8M183.8 525.5Q184.2 525.5 184.5 525.3Q184.8 525 184.8 524.7L185.5 524.7Q185.5 525 185.2 525.4Q185 525.7 184.6 525.9Q184.2 526.1 183.8 526.1Q182.9 526.1 182.4 525.5Q181.9 524.9 181.9 523.9L181.9 523.8Q181.9 523.2 182.2 522.7Q182.4 522.2 182.8 522Q183.2 521.7 183.8 521.7Q184.5 521.7 185 522.1Q185.5 522.5 185.5 523.2L184.8 523.2Q184.8 522.8 184.5 522.6Q184.2 522.3 183.8 522.3Q183.3 522.3 183 522.7Q182.7 523.1 182.7 523.8L182.7 524Q182.7 524.7 183 525.1Q183.3 525.5 183.8 525.5M187 520L187 522.3Q187.5 521.7 188.3 521.7Q189.6 521.7 189.6 523.2L189.6 526L188.9 526L188.9 523.2Q188.9 522.7 188.7 522.5Q188.5 522.3 188.1 522.3Q187.7 522.3 187.4 522.5Q187.2 522.7 187 523L187 526L186.3 526L186.3 520L187 520M192.5 526.1Q191.6 526.1 191.1 525.5Q190.5 524.9 190.5 524L190.5 523.9Q190.5 523.2 190.8 522.7Q191 522.3 191.4 522Q191.9 521.7 192.4 521.7Q193.2 521.7 193.7 522.2Q194.1 522.8 194.1 523.8L194.1 524.1L191.3 524.1Q191.3 524.7 191.6 525.1Q192 525.5 192.5 525.5Q192.9 525.5 193.2 525.3Q193.4 525.2 193.6 524.9L194.1 525.3Q193.5 526.1 192.5 526.1M192.4 522.3Q191.9 522.3 191.6 522.6Q191.3 522.9 191.3 523.5L193.4 523.5L193.4 523.4Q193.4 522.9 193.1 522.6Q192.8 522.3 192.4 522.3M194.9 521.8L195.6 521.8L195.7 522.3Q196.1 521.7 196.9 521.7Q198.3 521.7 198.3 523.2L198.3 526L197.6 526L197.6 523.2Q197.5 522.7 197.3 522.5Q197.1 522.3 196.7 522.3Q196.4 522.3 196.1 522.5Q195.8 522.7 195.7 523L195.7 526L194.9 526" class="zone-room"></path>
                  
            <!--?lit$997511696$-->
          </g>
        <!----><!---->
          <g class="meta-target">
            <!--?lit$997511696$--><title><!---->Stairs · L1<!----></title>
            <line stroke-width="0.8" x1="114" y1="549" x2="132" y2="549" stroke="#38a169"></line>
            <!--?lit$997511696$-->
                    <rect x="132" y="542" width="20" height="12" fill="#3182ce" rx="3"></rect>
                    <path d="M139.5 543L139.5 547.3L141.7 547.3L141.7 548L138.6 548L138.6 543L139.5 543M144.5 543L144.5 548L143.7 548L143.7 544L142.5 544.4L142.5 543.7L144.4 543" fill="white"></path>
                  
            <svg x="156" y="543" width="12" height="12" viewBox="0 0 24 24"><path d="M12,2A7,7 0 0,1 19,9C19,11.38 17.81,13.47 16,14.74V17A1,1 0 0,1 15,18H9A1,1 0 0,1 8,17V14.74C6.19,13.47 5,11.38 5,9A7,7 0 0,1 12,2M9,21V20H15V21A1,1 0 0,1 14,22H10A1,1 0 0,1 9,21M12,4A5,5 0 0,0 7,9C7,11.05 8.23,12.81 10,13.58V16H14V13.58C15.77,12.81 17,11.05 17,9A5,5 0 0,0 12,4Z" fill="var(--secondary-text-color, #718096)"></path></svg>
            <!--?lit$997511696$-->
                    <path d="M174.3 545.5Q173.4 545.2 172.9 544.8Q172.5 544.4 172.5 543.8Q172.5 543.1 173 542.7Q173.6 542.2 174.4 542.2Q175 542.2 175.5 542.5Q175.9 542.7 176.2 543.1Q176.4 543.5 176.4 544L175.7 544Q175.7 543.4 175.4 543.1Q175 542.9 174.4 542.9Q173.9 542.9 173.6 543.1Q173.3 543.3 173.3 543.8Q173.3 544.1 173.5 544.4Q173.8 544.6 174.5 544.8Q175.3 545 175.7 545.2Q176.1 545.5 176.3 545.8Q176.4 546.1 176.4 546.6Q176.4 547.2 175.9 547.7Q175.4 548.1 174.5 548.1Q173.9 548.1 173.4 547.9Q172.9 547.6 172.6 547.2Q172.3 546.8 172.3 546.4L173.1 546.4Q173.1 546.9 173.4 547.2Q173.8 547.5 174.5 547.5Q175.1 547.5 175.4 547.2Q175.7 547 175.7 546.6Q175.7 546.1 175.4 545.9Q175.1 545.7 174.3 545.5M177.6 542.8L178.3 542.8L178.3 543.8L179.1 543.8L179.1 544.3L178.3 544.3L178.3 547Q178.3 547.2 178.4 547.3Q178.5 547.5 178.7 547.5Q178.9 547.5 179.1 547.4L179.1 548Q178.8 548.1 178.5 548.1Q178 548.1 177.8 547.8Q177.6 547.5 177.6 547L177.6 544.3L176.8 544.3L176.8 543.8L177.6 543.8L177.6 542.8M183.3 548L182.5 548Q182.5 547.9 182.4 547.6Q181.9 548.1 181.2 548.1Q180.6 548.1 180.2 547.7Q179.8 547.4 179.8 546.8Q179.8 546.2 180.3 545.8Q180.8 545.4 181.7 545.4L182.4 545.4L182.4 545.1Q182.4 544.7 182.2 544.5Q181.9 544.3 181.5 544.3Q181.1 544.3 180.9 544.5Q180.6 544.7 180.6 544.9L179.9 544.9Q179.9 544.6 180.1 544.3Q180.3 544 180.7 543.9Q181.1 543.7 181.6 543.7Q182.3 543.7 182.7 544.1Q183.1 544.4 183.1 545.1L183.1 547Q183.1 547.6 183.3 547.9L183.3 548M181.3 547.4Q181.7 547.4 182 547.3Q182.3 547.1 182.4 546.8L182.4 545.9L181.8 545.9Q180.5 545.9 180.5 546.7Q180.5 547.1 180.7 547.3Q181 547.4 181.3 547.4M185 543.8L185 548L184.3 548L184.3 543.8L185 543.8M184.3 542.7Q184.3 542.5 184.4 542.4Q184.5 542.2 184.7 542.2Q184.9 542.2 185 542.4Q185.1 542.5 185.1 542.7Q185.1 542.8 185 542.9Q184.9 543.1 184.7 543.1Q184.5 543.1 184.4 542.9Q184.3 542.8 184.3 542.7M188.2 543.8L188.2 544.4Q188.1 544.4 187.9 544.4Q187.2 544.4 186.9 545L186.9 548L186.2 548L186.2 543.8L186.9 543.8L186.9 544.3Q187.3 543.7 187.9 543.7Q188.1 543.7 188.2 543.8M191.4 546.9Q191.4 546.6 191.1 546.4Q190.9 546.3 190.4 546.1Q189.8 546 189.5 545.9Q189.2 545.7 189 545.5Q188.9 545.2 188.9 544.9Q188.9 544.4 189.3 544.1Q189.8 543.7 190.4 543.7Q191.2 543.7 191.6 544.1Q192.1 544.4 192.1 545L191.3 545Q191.3 544.7 191.1 544.5Q190.8 544.3 190.4 544.3Q190 544.3 189.8 544.5Q189.6 544.6 189.6 544.9Q189.6 545.2 189.8 545.3Q190 545.4 190.6 545.6Q191.1 545.7 191.4 545.8Q191.8 546 191.9 546.3Q192.1 546.5 192.1 546.8Q192.1 547.4 191.6 547.7Q191.2 548.1 190.5 548.1Q190 548.1 189.6 547.9Q189.2 547.7 189 547.4Q188.7 547.1 188.7 546.7L189.5 546.7Q189.5 547.1 189.7 547.3Q190 547.5 190.5 547.5Q190.9 547.5 191.1 547.3Q191.4 547.2 191.4 546.9" class="zone-room"></path>
                  
            <!--?lit$997511696$-->
          </g>
        <!---->
    <!----><!---->
      <line stroke-width="3" x1="82" y1="570" x2="104" y2="570" stroke="#38a169"></line>
      <!--?lit$997511696$--><line stroke-width="1.5" x1="114" y1="580" x2="114" y2="591" stroke="#38a169"></line>
      <g class="meta-target">
        <!--?lit$997511696$--><title><!---->16 A · 2P · 2.5 mm²<!----></title>
        <rect stroke-width="1.8" rx="2" x="104" y="560" width="20" height="20" fill="color-mix(in srgb, #38a169 18%, var(--ha-card-background, var(--card-background-color, white)))" stroke="#38a169"></rect>
        <path d="M115.9 570.4L115.9 571.3L113.3 571.3L113.3 574L112.2 574L112.2 567.6L116.2 567.6L116.2 568.5L113.3 568.5L113.3 570.4" fill="#38a169"></path>
      </g>
      <!--?lit$997511696$-->

      <!--?lit$997511696$--><!---->
          <g class="meta-target">
            <!--?lit$997511696$--><title><!---->Basement · LB<!----></title>
            <line stroke-width="0.8" x1="114" y1="591" x2="132" y2="591" stroke="#38a169"></line>
            <!--?lit$997511696$-->
                    <rect x="132" y="584" width="20" height="12" fill="#718096" rx="3"></rect>
                    <path d="M139.3 585L139.3 589.3L141.5 589.3L141.5 590L138.4 590L138.4 585L139.3 585M144 590L142.2 590L142.2 585L143.9 585Q144.7 585 145.2 585.4Q145.6 585.7 145.6 586.4Q145.6 586.7 145.4 587Q145.3 587.3 144.9 587.4Q145.3 587.5 145.5 587.8Q145.7 588.1 145.7 588.5Q145.7 589.2 145.3 589.6Q144.8 590 144 590M144.1 587.8L143.1 587.8L143.1 589.3L144 589.3Q144.4 589.3 144.7 589.1Q144.9 588.9 144.9 588.5Q144.9 587.8 144.1 587.8M143.1 585.7L143.1 587.1L143.9 587.1Q144.3 587.1 144.5 586.9Q144.8 586.8 144.8 586.4Q144.8 586 144.6 585.9Q144.3 585.7 143.9 585.7" fill="white"></path>
                  
            <svg x="156" y="585" width="12" height="12" viewBox="0 0 24 24"><path d="M7.5,10.5A1.5,1.5 0 0,1 9,12A1.5,1.5 0 0,1 7.5,13.5C6.66,13.5 6,12.83 6,12A1.5,1.5 0 0,1 7.5,10.5M16.5,10.5A1.5,1.5 0 0,1 18,12A1.5,1.5 0 0,1 16.5,13.5A1.5,1.5 0 0,1 15,12A1.5,1.5 0 0,1 16.5,10.5M4.22,2H19.78C21,2 22,3 22,4.22V19.78A2.22,2.22 0 0,1 19.78,22H4.22C3,22 2,21 2,19.78V4.22A2.22,2.22 0 0,1 4.22,2M12,4A8,8 0 0,0 4,12A8,8 0 0,0 12,20A8,8 0 0,0 20,12A8,8 0 0,0 12,4Z" fill="var(--secondary-text-color, #718096)"></path></svg>
            <!--?lit$997511696$-->
                    <path d="M174.6 590L172.7 590L172.7 584.3L174.5 584.3Q175.4 584.3 175.9 584.7Q176.4 585.1 176.4 585.8Q176.4 586.2 176.2 586.5Q175.9 586.8 175.5 587Q176 587.1 176.3 587.5Q176.5 587.9 176.5 588.4Q176.5 589.1 176 589.6Q175.5 590 174.6 590M174.7 587.3L173.4 587.3L173.4 589.4L174.6 589.4Q175.2 589.4 175.5 589.1Q175.8 588.8 175.8 588.4Q175.8 587.3 174.7 587.3M173.4 584.9L173.4 586.7L174.5 586.7Q175 586.7 175.3 586.5Q175.6 586.2 175.6 585.8Q175.6 585.4 175.4 585.1Q175.1 584.9 174.5 584.9L173.4 584.9M180.9 590L180.1 590Q180.1 589.9 180 589.6Q179.5 590.1 178.8 590.1Q178.2 590.1 177.8 589.7Q177.4 589.4 177.4 588.8Q177.4 588.2 177.9 587.8Q178.4 587.4 179.3 587.4L180 587.4L180 587.1Q180 586.7 179.8 586.5Q179.6 586.3 179.1 586.3Q178.7 586.3 178.5 586.5Q178.2 586.7 178.2 586.9L177.5 586.9Q177.5 586.6 177.7 586.3Q177.9 586 178.3 585.9Q178.7 585.7 179.2 585.7Q179.9 585.7 180.3 586.1Q180.7 586.4 180.7 587.1L180.7 589Q180.7 589.6 180.9 589.9L180.9 590M178.9 589.4Q179.3 589.4 179.6 589.3Q179.9 589.1 180 588.8L180 587.9L179.5 587.9Q178.1 587.9 178.1 588.7Q178.1 589.1 178.4 589.3Q178.6 589.4 178.9 589.4M184.3 588.9Q184.3 588.6 184.1 588.4Q183.9 588.3 183.3 588.1Q182.8 588 182.5 587.9Q182.2 587.7 182 587.5Q181.8 587.2 181.8 586.9Q181.8 586.4 182.3 586.1Q182.7 585.7 183.4 585.7Q184.1 585.7 184.6 586.1Q185 586.4 185 587L184.3 587Q184.3 586.7 184 586.5Q183.8 586.3 183.4 586.3Q183 586.3 182.8 586.5Q182.6 586.6 182.6 586.9Q182.6 587.2 182.8 587.3Q183 587.4 183.5 587.6Q184.1 587.7 184.4 587.8Q184.7 588 184.9 588.3Q185.1 588.5 185.1 588.8Q185.1 589.4 184.6 589.7Q184.2 590.1 183.4 590.1Q182.9 590.1 182.5 589.9Q182.1 589.7 181.9 589.4Q181.7 589.1 181.7 588.7L182.4 588.7Q182.4 589.1 182.7 589.3Q183 589.5 183.4 589.5Q183.8 589.5 184.1 589.3Q184.3 589.2 184.3 588.9M187.8 590.1Q186.9 590.1 186.4 589.5Q185.8 588.9 185.8 588L185.8 587.9Q185.8 587.2 186.1 586.7Q186.3 586.3 186.7 586Q187.2 585.7 187.7 585.7Q188.5 585.7 188.9 586.2Q189.4 586.8 189.4 587.8L189.4 588.1L186.5 588.1Q186.6 588.7 186.9 589.1Q187.3 589.5 187.8 589.5Q188.2 589.5 188.4 589.3Q188.7 589.2 188.9 588.9L189.4 589.3Q188.8 590.1 187.8 590.1M187.7 586.3Q187.2 586.3 186.9 586.6Q186.6 586.9 186.6 587.5L188.7 587.5L188.7 587.4Q188.7 586.9 188.4 586.6Q188.1 586.3 187.7 586.3M190.2 585.8L190.9 585.8L190.9 586.2Q191.4 585.7 192.2 585.7Q193.1 585.7 193.4 586.4Q193.6 586.1 194 585.9Q194.3 585.7 194.8 585.7Q196.1 585.7 196.2 587.2L196.2 590L195.4 590L195.4 587.2Q195.4 586.8 195.2 586.5Q195 586.3 194.5 586.3Q194.1 586.3 193.9 586.5Q193.6 586.8 193.6 587.2L193.6 590L192.8 590L192.8 587.2Q192.8 586.3 191.9 586.3Q191.2 586.3 191 586.9L191 590L190.2 590L190.2 585.8M199 590.1Q198.1 590.1 197.6 589.5Q197.1 588.9 197.1 588L197.1 587.9Q197.1 587.2 197.3 586.7Q197.6 586.3 198 586Q198.4 585.7 198.9 585.7Q199.7 585.7 200.2 586.2Q200.7 586.8 200.7 587.8L200.7 588.1L197.8 588.1Q197.8 588.7 198.2 589.1Q198.5 589.5 199 589.5Q199.4 589.5 199.7 589.3Q200 589.2 200.2 588.9L200.6 589.3Q200.1 590.1 199 590.1M198.9 586.3Q198.5 586.3 198.2 586.6Q197.9 586.9 197.8 587.5L199.9 587.5L199.9 587.4Q199.9 586.9 199.6 586.6Q199.4 586.3 198.9 586.3M201.5 585.8L202.2 585.8L202.2 586.3Q202.7 585.7 203.5 585.7Q204.8 585.7 204.8 587.2L204.8 590L204.1 590L204.1 587.2Q204.1 586.7 203.9 586.5Q203.7 586.3 203.2 586.3Q202.9 586.3 202.6 586.5Q202.4 586.7 202.2 587L202.2 590L201.5 590L201.5 585.8M206.2 584.8L206.9 584.8L206.9 585.8L207.7 585.8L207.7 586.3L206.9 586.3L206.9 589Q206.9 589.2 207 589.3Q207.1 589.5 207.4 589.5Q207.5 589.5 207.7 589.4L207.7 590Q207.4 590.1 207.1 590.1Q206.7 590.1 206.4 589.8Q206.2 589.5 206.2 589L206.2 586.3L205.4 586.3L205.4 585.8L206.2 585.8" class="zone-room"></path>
                  
            <!--?lit$997511696$-->
          </g>
        <!---->
    <!---->
    <!----><!---->
      <!--?lit$997511696$--><!----><circle r="3.5" cx="48" cy="632" fill="#805ad5"></circle><!----><!----><circle r="3.5" cx="36" cy="632" fill="#805ad5"></circle><!----><!----><circle r="3.5" cx="24" cy="632" fill="#805ad5"></circle><!---->
      <!--?lit$997511696$--><line stroke-width="2" x1="24" y1="632" x2="70" y2="632" stroke="#805ad5"></line>

      <g class="meta-target">
        <!--?lit$997511696$--><title><!---->40 A · 30 mA · 4P · Cl. A · L1+L2+L3<!----></title>
        <rect stroke-width="1.8" rx="2" x="70" y="620" width="24" height="24" fill="color-mix(in srgb, #805ad5 18%, var(--ha-card-background, var(--card-background-color, white)))" stroke="#805ad5"></rect>
        <path d="M79 636L77.2 636L77.2 629.6L79 629.6Q79.9 629.6 80.5 630Q81.2 630.4 81.6 631.1Q81.9 631.7 81.9 632.6L81.9 633Q81.9 633.9 81.6 634.6Q81.2 635.3 80.5 635.6Q79.9 636 79 636M79 630.5L78.3 630.5L78.3 635.1L79 635.1Q79.9 635.1 80.3 634.6Q80.8 634 80.8 633L80.8 632.6Q80.8 631.6 80.4 631Q79.9 630.5 79 630.5M86.5 629.6L86.5 633.7L87.3 633.7L87.3 634.6L86.5 634.6L86.5 636L85.4 636L85.4 634.6L82.6 634.6L82.6 633.9L85.4 629.6L86.5 629.6M85.3 631.2L83.7 633.7L85.4 633.7L85.4 631" fill="#805ad5"></path>
      </g>

      <!--?lit$997511696$-->

      <!--?lit$997511696$--><line stroke-width="3" x1="82" y1="644" x2="82" y2="702" stroke="#805ad5"></line>

      <!--?lit$997511696$--><!---->
      <line stroke-width="3" x1="82" y1="660" x2="104" y2="660" stroke="#805ad5"></line>
      <!--?lit$997511696$--><line stroke-width="1.5" x1="114" y1="670" x2="114" y2="681" stroke="#805ad5"></line>
      <g class="meta-target">
        <!--?lit$997511696$--><title><!---->20 A · 4P · 6 mm²<!----></title>
        <rect stroke-width="1.8" rx="2" x="104" y="650" width="20" height="20" fill="color-mix(in srgb, #805ad5 18%, var(--ha-card-background, var(--card-background-color, white)))" stroke="#805ad5"></rect>
        <path d="M113.7 657.6L113.7 664L112.5 664L112.5 661.2L109.7 661.2L109.7 664L108.6 664L108.6 657.6L109.7 657.6L109.7 660.3L112.5 660.3L112.5 657.6L113.7 657.6M117.4 661.6L116.1 661.6L116.1 664L115 664L115 657.6L117.4 657.6Q118.5 657.6 119.1 658.2Q119.8 658.7 119.8 659.6Q119.8 660.6 119.1 661.1Q118.5 661.6 117.4 661.6M116.1 658.5L116.1 660.7L117.4 660.7Q118 660.7 118.3 660.5Q118.6 660.2 118.6 659.6Q118.6 659.1 118.3 658.8Q118 658.5 117.4 658.5" fill="#805ad5"></path>
      </g>
      <!--?lit$997511696$-->
      <!--?lit$997511696$--><line class="bubble-conn" visibility="visible" data-ln-for="c-HP" x1="124" y1="660.75" x2="321.998291015625" y2="660.75"></line>
      <rect class="bubble-bg" width="33.001708984375" height="13.5" rx="3" visibility="visible" data-bg-for="c-HP" x="321.998291015625" y="654"></rect>
      <path d="M329.8 657.6L329.8 663L328.9 663L328.9 658.7L327.6 659.2L327.6 658.4L329.7 657.6L329.8 657.6M332.3 662.1Q332.5 662.1 332.7 662.2Q332.8 662.3 332.8 662.6Q332.8 662.8 332.7 662.9Q332.5 663 332.3 663Q332 663 331.9 662.9Q331.8 662.8 331.8 662.6Q331.8 662.3 331.9 662.2Q332 662.1 332.3 662.1M336.3 660.8Q335.8 661.2 335.2 661.2Q334.5 661.2 334.1 660.7Q333.7 660.3 333.7 659.5Q333.7 658.9 333.9 658.5Q334.1 658.1 334.5 657.8Q334.9 657.6 335.4 657.6Q336.2 657.6 336.7 658.2Q337.2 658.8 337.2 659.8L337.2 660.1Q337.2 661.5 336.5 662.3Q335.9 663 334.6 663L334.5 663L334.5 662.3L334.6 662.3Q335.4 662.3 335.8 661.9Q336.2 661.5 336.3 660.8M335.4 660.5Q335.7 660.5 335.9 660.4Q336.2 660.2 336.3 660L336.3 659.6Q336.3 659 336 658.7Q335.8 658.3 335.4 658.3Q335 658.3 334.8 658.6Q334.6 658.9 334.6 659.4Q334.6 659.9 334.8 660.2Q335 660.5 335.4 660.5M342.4 663L341.2 661.3L340.8 661.7L340.8 663L339.9 663L339.9 657.4L340.8 657.4L340.8 660.6L341.1 660.3L342.2 659L343.3 659L341.8 660.7L343.4 663L342.4 663M347.1 657.7L348.1 661.7L348.9 657.7L349.9 657.7L348.6 663L347.7 663L346.7 659.1L345.7 663L344.8 663L343.6 657.7L344.5 657.7L345.3 661.7L346.3 657.7" class="pwr-value" fill="#805ad5"></path>
      <!--?lit$997511696$-->
      <!--?lit$997511696$-->
    

      <!--?lit$997511696$--><!---->
          <g class="meta-target">
            <!--?lit$997511696$--><title><!---->Heat pump · L0<!----></title>
            <line stroke-width="0.8" x1="114" y1="681" x2="132" y2="681" stroke="#805ad5"></line>
            <!--?lit$997511696$-->
                    <rect x="132" y="674" width="20" height="12" fill="#38a169" rx="3"></rect>
                    <path d="M139.5 675L139.5 679.3L141.7 679.3L141.7 680L138.6 680L138.6 675L139.5 675M145.5 677L145.5 677.9Q145.5 679 145.1 679.5Q144.7 680.1 143.9 680.1Q143.1 680.1 142.7 679.5Q142.3 679 142.3 678L142.3 677.1Q142.3 676 142.7 675.5Q143.1 675 143.9 675Q144.7 675 145.1 675.5Q145.5 676 145.5 677M144.7 678.1L144.7 677Q144.7 676.3 144.5 675.9Q144.3 675.6 143.9 675.6Q143.5 675.6 143.3 675.9Q143.1 676.2 143.1 676.9L143.1 678Q143.1 678.7 143.3 679.1Q143.5 679.4 143.9 679.4Q144.3 679.4 144.5 679.1Q144.7 678.8 144.7 678.1" fill="white"></path>
                  
            <svg x="156" y="675" width="12" height="12" viewBox="0 0 24 24"><path d="M19 3H5C3.9 3 3 3.9 3 5V19C3 20.1 3.9 21 5 21H19C20.1 21 21 20.1 21 19V5C21 3.9 20.1 3 19 3M12.75 7.08C13.57 7.2 14.32 7.5 14.95 8L12.75 10.19V7.08M11.25 7.08V10.19L9.05 8C9.68 7.5 10.43 7.2 11.25 7.08M8 9.05L10.19 11.25H7.08C7.2 10.43 7.5 9.68 8 9.05M7.08 12.75H10.19L8 14.95C7.5 14.32 7.2 13.57 7.08 12.75M11.25 16.92C10.43 16.8 9.68 16.5 9.05 16L11.25 13.81V16.92M12 13C11.45 13 11 12.55 11 12S11.45 11 12 11 13 11.45 13 12 12.55 13 12 13M12.75 16.92V13.81L14.95 16C14.32 16.5 13.57 16.8 12.75 16.92M16 14.95L13.81 12.75H16.92C16.8 13.57 16.5 14.32 16 14.95M13.81 11.25L16 9.05C16.5 9.69 16.8 10.44 16.92 11.25H13.81Z" fill="var(--secondary-text-color, #718096)"></path></svg>
            <!--?lit$997511696$-->
                    <path d="M177 674.3L177 680L176.3 680L176.3 677.4L173.4 677.4L173.4 680L172.7 680L172.7 674.3L173.4 674.3L173.4 676.8L176.3 676.8L176.3 674.3L177 674.3M180 680.1Q179.1 680.1 178.6 679.5Q178.1 678.9 178.1 678L178.1 677.9Q178.1 677.2 178.3 676.7Q178.5 676.3 179 676Q179.4 675.7 179.9 675.7Q180.7 675.7 181.2 676.2Q181.7 676.8 181.7 677.8L181.7 678.1L178.8 678.1Q178.8 678.7 179.2 679.1Q179.5 679.5 180 679.5Q180.4 679.5 180.7 679.3Q181 679.2 181.2 678.9L181.6 679.3Q181.1 680.1 180 680.1M179.9 676.3Q179.5 676.3 179.2 676.6Q178.9 676.9 178.8 677.5L180.9 677.5L180.9 677.4Q180.9 676.9 180.6 676.6Q180.4 676.3 179.9 676.3M185.9 680L185.1 680Q185 679.9 185 679.6Q184.5 680.1 183.8 680.1Q183.2 680.1 182.8 679.7Q182.4 679.4 182.4 678.8Q182.4 678.2 182.9 677.8Q183.4 677.4 184.3 677.4L185 677.4L185 677.1Q185 676.7 184.8 676.5Q184.5 676.3 184.1 676.3Q183.7 676.3 183.4 676.5Q183.2 676.7 183.2 676.9L182.5 676.9Q182.5 676.6 182.7 676.3Q182.9 676 183.3 675.9Q183.7 675.7 184.1 675.7Q184.9 675.7 185.3 676.1Q185.7 676.4 185.7 677.1L185.7 679Q185.7 679.6 185.9 679.9L185.9 680M183.9 679.4Q184.2 679.4 184.5 679.3Q184.8 679.1 185 678.8L185 677.9L184.4 677.9Q183.1 677.9 183.1 678.7Q183.1 679.1 183.3 679.3Q183.5 679.4 183.9 679.4M187.1 674.8L187.8 674.8L187.8 675.8L188.6 675.8L188.6 676.3L187.8 676.3L187.8 679Q187.8 679.2 187.9 679.3Q188 679.5 188.3 679.5Q188.4 679.5 188.6 679.4L188.6 680Q188.3 680.1 188.1 680.1Q187.6 680.1 187.3 679.8Q187.1 679.5 187.1 679L187.1 676.3L186.3 676.3L186.3 675.8L187.1 675.8L187.1 674.8M195 677.9L195 677.9Q195 678.9 194.6 679.5Q194.1 680.1 193.4 680.1Q192.6 680.1 192.2 679.6L192.2 681.6L191.4 681.6L191.4 675.8L192.1 675.8L192.1 676.2Q192.6 675.7 193.4 675.7Q194.1 675.7 194.6 676.3Q195 676.8 195 677.9M194.3 677.9Q194.3 677.1 194 676.7Q193.7 676.3 193.1 676.3Q192.5 676.3 192.2 676.9L192.2 678.9Q192.5 679.5 193.1 679.5Q193.7 679.5 194 679.1Q194.3 678.7 194.3 677.9M198.5 680L198.5 679.6Q198.1 680.1 197.3 680.1Q196.6 680.1 196.3 679.7Q195.9 679.3 195.9 678.5L195.9 675.8L196.6 675.8L196.6 678.5Q196.6 679.5 197.4 679.5Q198.2 679.5 198.5 678.8L198.5 675.8L199.2 675.8L199.2 680L198.5 680M200.3 675.8L201 675.8L201 676.2Q201.5 675.7 202.3 675.7Q203.2 675.7 203.5 676.4Q203.7 676.1 204 675.9Q204.4 675.7 204.8 675.7Q206.2 675.7 206.3 677.2L206.3 680L205.5 680L205.5 677.2Q205.5 676.8 205.3 676.5Q205.1 676.3 204.6 676.3Q204.2 676.3 204 676.5Q203.7 676.8 203.7 677.2L203.7 680L202.9 680L202.9 677.2Q202.9 676.3 202 676.3Q201.3 676.3 201.1 676.9L201.1 680L200.3 680L200.3 675.8M210.9 677.9L210.9 677.9Q210.9 678.9 210.5 679.5Q210 680.1 209.3 680.1Q208.5 680.1 208.1 679.6L208.1 681.6L207.3 681.6L207.3 675.8L208 675.8L208 676.2Q208.5 675.7 209.3 675.7Q210 675.7 210.5 676.3Q210.9 676.8 210.9 677.9M210.2 677.9Q210.2 677.1 209.9 676.7Q209.6 676.3 209.1 676.3Q208.4 676.3 208.1 676.9L208.1 678.9Q208.4 679.5 209.1 679.5Q209.6 679.5 209.9 679.1Q210.2 678.7 210.2 677.9" class="zone-room"></path>
                  
            <!--?lit$997511696$-->
          </g>
        <!---->
    <!----><!---->
      <line stroke-width="3" x1="82" y1="702" x2="104" y2="702" stroke="#805ad5"></line>
      <!--?lit$997511696$--><line stroke-width="1.5" x1="114" y1="712" x2="114" y2="723" stroke="#805ad5"></line>
      <g class="meta-target">
        <!--?lit$997511696$--><title><!---->20 A · 4P · 6 mm²<!----></title>
        <rect stroke-width="1.8" rx="2" x="104" y="692" width="20" height="20" fill="color-mix(in srgb, #805ad5 18%, var(--ha-card-background, var(--card-background-color, white)))" stroke="#805ad5"></rect>
        <path d="M112.8 703.9L113.9 703.9Q113.8 704.9 113.2 705.5Q112.5 706.1 111.4 706.1Q110.7 706.1 110.1 705.7Q109.5 705.4 109.2 704.7Q108.9 704 108.8 703.1L108.8 702.5Q108.8 701.6 109.2 701Q109.5 700.3 110.1 699.9Q110.7 699.5 111.5 699.5Q112.5 699.5 113.2 700.1Q113.8 700.7 113.9 701.7L112.8 701.7Q112.7 701 112.4 700.7Q112.1 700.4 111.5 700.4Q110.7 700.4 110.4 700.9Q110 701.5 110 702.5L110 703.1Q110 704.1 110.3 704.6Q110.7 705.2 111.4 705.2Q112.1 705.2 112.4 704.9Q112.7 704.6 112.8 703.9M119.4 699.6L119.4 700.5L117.4 700.5L117.4 706L116.3 706L116.3 700.5L114.3 700.5L114.3 699.6" fill="#805ad5"></path>
      </g>
      <!--?lit$997511696$-->
      <!--?lit$997511696$--><line class="bubble-conn" visibility="visible" data-ln-for="c-CT" x1="124" y1="702.75" x2="323.7451171875" y2="702.75"></line>
      <rect class="bubble-bg" width="31.2548828125" height="13.5" rx="3" visibility="visible" data-bg-for="c-CT" x="323.7451171875" y="696"></rect>
      <path d="M331.7 702.8Q331.2 703.2 330.6 703.2Q329.9 703.2 329.5 702.7Q329.1 702.3 329.1 701.5Q329.1 700.9 329.3 700.5Q329.5 700.1 329.9 699.8Q330.3 699.6 330.8 699.6Q331.6 699.6 332.1 700.2Q332.6 700.8 332.6 701.8L332.6 702.1Q332.6 703.5 331.9 704.3Q331.3 705 330 705L329.9 705L329.9 704.3L330 704.3Q330.8 704.3 331.2 703.9Q331.6 703.5 331.7 702.8M330.8 702.5Q331.1 702.5 331.3 702.4Q331.5 702.2 331.7 702L331.7 701.6Q331.7 701 331.4 700.7Q331.2 700.3 330.8 700.3Q330.4 700.3 330.2 700.6Q330 700.9 330 701.4Q330 701.9 330.2 702.2Q330.4 702.5 330.8 702.5M335.9 702.8Q335.5 703.2 334.9 703.2Q334.2 703.2 333.8 702.7Q333.3 702.3 333.3 701.5Q333.3 700.9 333.6 700.5Q333.8 700.1 334.2 699.8Q334.6 699.6 335.1 699.6Q335.9 699.6 336.4 700.2Q336.8 700.8 336.8 701.8L336.8 702.1Q336.8 703.5 336.2 704.3Q335.5 705 334.2 705L334.1 705L334.1 704.3L334.2 704.3Q335 704.3 335.5 703.9Q335.9 703.5 335.9 702.8M335.1 702.5Q335.3 702.5 335.6 702.4Q335.8 702.2 335.9 702L335.9 701.6Q335.9 701 335.7 700.7Q335.5 700.3 335.1 700.3Q334.7 700.3 334.5 700.6Q334.2 700.9 334.2 701.4Q334.2 701.9 334.5 702.2Q334.7 702.5 335.1 702.5M340.7 699.7L340.7 703.1L341.3 703.1L341.3 703.8L340.7 703.8L340.7 705L339.8 705L339.8 703.8L337.5 703.8L337.5 703.3L339.8 699.7L340.7 699.7M339.7 701L338.4 703.1L339.8 703.1L339.8 700.9L339.7 701M347.1 699.7L348.1 703.7L348.9 699.7L349.9 699.7L348.6 705L347.7 705L346.7 701.1L345.7 705L344.8 705L343.6 699.7L344.5 699.7L345.3 703.7L346.3 699.7" class="pwr-value" fill="#805ad5"></path>
      <!--?lit$997511696$-->
      <!--?lit$997511696$-->
    

      <!--?lit$997511696$--><!---->
          <g class="meta-target">
            <!--?lit$997511696$--><title><!---->Induction cooktop · L0<!----></title>
            <line stroke-width="0.8" x1="114" y1="723" x2="132" y2="723" stroke="#805ad5"></line>
            <!--?lit$997511696$-->
                    <rect x="132" y="716" width="20" height="12" fill="#38a169" rx="3"></rect>
                    <path d="M139.5 717L139.5 721.3L141.7 721.3L141.7 722L138.6 722L138.6 717L139.5 717M145.5 719L145.5 719.9Q145.5 721 145.1 721.5Q144.7 722.1 143.9 722.1Q143.1 722.1 142.7 721.5Q142.3 721 142.3 720L142.3 719.1Q142.3 718 142.7 717.5Q143.1 717 143.9 717Q144.7 717 145.1 717.5Q145.5 718 145.5 719M144.7 720.1L144.7 719Q144.7 718.3 144.5 717.9Q144.3 717.6 143.9 717.6Q143.5 717.6 143.3 717.9Q143.1 718.2 143.1 718.9L143.1 720Q143.1 720.7 143.3 721.1Q143.5 721.4 143.9 721.4Q144.3 721.4 144.5 721.1Q144.7 720.8 144.7 720.1" fill="white"></path>
                  
            <svg x="156" y="717" width="12" height="12" viewBox="0 0 24 24"><path d="M6,14H8L11,17H9L6,14M4,4H5V3A1,1 0 0,1 6,2H10A1,1 0 0,1 11,3V4H13V3A1,1 0 0,1 14,2H18A1,1 0 0,1 19,3V4H20A2,2 0 0,1 22,6V19A2,2 0 0,1 20,21V22H17V21H7V22H4V21A2,2 0 0,1 2,19V6A2,2 0 0,1 4,4M18,7A1,1 0 0,1 19,8A1,1 0 0,1 18,9A1,1 0 0,1 17,8A1,1 0 0,1 18,7M14,7A1,1 0 0,1 15,8A1,1 0 0,1 14,9A1,1 0 0,1 13,8A1,1 0 0,1 14,7M20,6H4V10H20V6M4,19H20V12H4V19M6,7A1,1 0 0,1 7,8A1,1 0 0,1 6,9A1,1 0 0,1 5,8A1,1 0 0,1 6,7M13,14H15L18,17H16L13,14Z" fill="var(--secondary-text-color, #718096)"></path></svg>
            <!--?lit$997511696$-->
                    <path d="M173.5 716.3L173.5 722L172.7 722L172.7 716.3L173.5 716.3M174.7 717.8L175.4 717.8L175.4 718.3Q175.9 717.7 176.7 717.7Q178 717.7 178 719.2L178 722L177.3 722L177.3 719.2Q177.3 718.7 177.1 718.5Q176.9 718.3 176.5 718.3Q176.1 718.3 175.9 718.5Q175.6 718.7 175.4 719L175.4 722L174.7 722L174.7 717.8M179 719.9L179 719.9Q179 718.9 179.4 718.3Q179.9 717.7 180.6 717.7Q181.4 717.7 181.8 718.2L181.8 716L182.5 716L182.5 722L181.9 722L181.8 721.5Q181.4 722.1 180.6 722.1Q179.9 722.1 179.4 721.5Q179 720.9 179 719.9M179.7 719.9Q179.7 720.7 180 721.1Q180.3 721.5 180.8 721.5Q181.5 721.5 181.8 720.8L181.8 718.9Q181.5 718.3 180.8 718.3Q180.3 718.3 180 718.7Q179.7 719.1 179.7 719.9M186.3 722L186.3 721.6Q185.8 722.1 185 722.1Q184.3 722.1 184 721.7Q183.6 721.3 183.6 720.5L183.6 717.8L184.4 717.8L184.4 720.5Q184.4 721.5 185.1 721.5Q186 721.5 186.2 720.8L186.2 717.8L187 717.8L187 722L186.3 722M189.8 721.5Q190.1 721.5 190.4 721.3Q190.7 721 190.8 720.7L191.4 720.7Q191.4 721 191.2 721.4Q191 721.7 190.6 721.9Q190.2 722.1 189.8 722.1Q188.9 722.1 188.4 721.5Q187.9 720.9 187.9 719.9L187.9 719.8Q187.9 719.2 188.1 718.7Q188.3 718.2 188.7 718Q189.2 717.7 189.8 717.7Q190.5 717.7 190.9 718.1Q191.4 718.5 191.4 719.2L190.8 719.2Q190.7 718.8 190.4 718.6Q190.2 718.3 189.8 718.3Q189.2 718.3 188.9 718.7Q188.6 719.1 188.6 719.8L188.6 720Q188.6 720.7 188.9 721.1Q189.2 721.5 189.8 721.5M192.5 716.8L193.2 716.8L193.2 717.8L194 717.8L194 718.3L193.2 718.3L193.2 721Q193.2 721.2 193.3 721.3Q193.4 721.5 193.7 721.5Q193.8 721.5 194 721.4L194 722Q193.8 722.1 193.5 722.1Q193 722.1 192.8 721.8Q192.5 721.5 192.5 721L192.5 718.3L191.7 718.3L191.7 717.8L192.5 717.8L192.5 716.8M195.6 717.8L195.6 722L194.9 722L194.9 717.8L195.6 717.8M194.9 716.7Q194.9 716.5 195 716.4Q195.1 716.2 195.3 716.2Q195.5 716.2 195.6 716.4Q195.7 716.5 195.7 716.7Q195.7 716.8 195.6 716.9Q195.5 717.1 195.3 717.1Q195.1 717.1 195 716.9Q194.9 716.8 194.9 716.7M196.6 719.9L196.6 719.8Q196.6 719.2 196.9 718.7Q197.1 718.2 197.5 718Q198 717.7 198.5 717.7Q199.4 717.7 199.9 718.3Q200.5 718.9 200.5 719.9L200.5 719.9Q200.5 720.6 200.2 721Q200 721.5 199.5 721.8Q199.1 722.1 198.5 722.1Q197.7 722.1 197.1 721.5Q196.6 720.9 196.6 719.9M197.3 719.9Q197.3 720.6 197.7 721.1Q198 721.5 198.5 721.5Q199.1 721.5 199.4 721.1Q199.7 720.6 199.7 719.8Q199.7 719.2 199.4 718.7Q199.1 718.3 198.5 718.3Q198 718.3 197.7 718.7Q197.3 719.1 197.3 719.9M201.4 717.8L202 717.8L202.1 718.3Q202.6 717.7 203.3 717.7Q204.7 717.7 204.7 719.2L204.7 722L204 722L204 719.2Q204 718.7 203.8 718.5Q203.6 718.3 203.1 718.3Q202.8 718.3 202.5 718.5Q202.2 718.7 202.1 719L202.1 722L201.4 722L201.4 717.8M209.5 721.5Q209.8 721.5 210.1 721.3Q210.4 721 210.4 720.7L211.1 720.7Q211.1 721 210.9 721.4Q210.7 721.7 210.3 721.9Q209.9 722.1 209.5 722.1Q208.6 722.1 208.1 721.5Q207.6 720.9 207.6 719.9L207.6 719.8Q207.6 719.2 207.8 718.7Q208 718.2 208.4 718Q208.9 717.7 209.4 717.7Q210.2 717.7 210.6 718.1Q211.1 718.5 211.1 719.2L210.4 719.2Q210.4 718.8 210.1 718.6Q209.9 718.3 209.4 718.3Q208.9 718.3 208.6 718.7Q208.3 719.1 208.3 719.8L208.3 720Q208.3 720.7 208.6 721.1Q208.9 721.5 209.5 721.5M211.8 719.9L211.8 719.8Q211.8 719.2 212 718.7Q212.2 718.2 212.7 718Q213.1 717.7 213.7 717.7Q214.5 717.7 215.1 718.3Q215.6 718.9 215.6 719.9L215.6 719.9Q215.6 720.6 215.4 721Q215.1 721.5 214.7 721.8Q214.3 722.1 213.7 722.1Q212.8 722.1 212.3 721.5Q211.8 720.9 211.8 719.9M212.5 719.9Q212.5 720.6 212.8 721.1Q213.1 721.5 213.7 721.5Q214.2 721.5 214.6 721.1Q214.9 720.6 214.9 719.8Q214.9 719.2 214.5 718.7Q214.2 718.3 213.7 718.3Q213.1 718.3 212.8 718.7Q212.5 719.1 212.5 719.9M216.3 719.9L216.3 719.8Q216.3 719.2 216.6 718.7Q216.8 718.2 217.2 718Q217.7 717.7 218.2 717.7Q219.1 717.7 219.6 718.3Q220.2 718.9 220.2 719.9L220.2 719.9Q220.2 720.6 219.9 721Q219.7 721.5 219.3 721.8Q218.8 722.1 218.2 722.1Q217.4 722.1 216.8 721.5Q216.3 720.9 216.3 719.9M217 719.9Q217 720.6 217.4 721.1Q217.7 721.5 218.2 721.5Q218.8 721.5 219.1 721.1Q219.4 720.6 219.4 719.8Q219.4 719.2 219.1 718.7Q218.8 718.3 218.2 718.3Q217.7 718.3 217.4 718.7Q217 719.1 217 719.9M223.7 722L222.3 720L221.8 720.5L221.8 722L221.1 722L221.1 716L221.8 716L221.8 719.6L222.2 719.2L223.5 717.8L224.4 717.8L222.7 719.5L224.6 722L223.7 722M225.4 716.8L226.1 716.8L226.1 717.8L226.9 717.8L226.9 718.3L226.1 718.3L226.1 721Q226.1 721.2 226.2 721.3Q226.3 721.5 226.6 721.5Q226.7 721.5 226.9 721.4L226.9 722Q226.6 722.1 226.4 722.1Q225.9 722.1 225.6 721.8Q225.4 721.5 225.4 721L225.4 718.3L224.6 718.3L224.6 717.8L225.4 717.8L225.4 716.8M227.5 719.9L227.5 719.8Q227.5 719.2 227.7 718.7Q228 718.2 228.4 718Q228.8 717.7 229.4 717.7Q230.3 717.7 230.8 718.3Q231.3 718.9 231.3 719.9L231.3 719.9Q231.3 720.6 231.1 721Q230.8 721.5 230.4 721.8Q230 722.1 229.4 722.1Q228.5 722.1 228 721.5Q227.5 720.9 227.5 719.9M228.2 719.9Q228.2 720.6 228.5 721.1Q228.8 721.5 229.4 721.5Q229.9 721.5 230.3 721.1Q230.6 720.6 230.6 719.8Q230.6 719.2 230.3 718.7Q229.9 718.3 229.4 718.3Q228.9 718.3 228.5 718.7Q228.2 719.1 228.2 719.9M235.8 719.9L235.8 719.9Q235.8 720.9 235.4 721.5Q234.9 722.1 234.2 722.1Q233.4 722.1 232.9 721.6L232.9 723.6L232.2 723.6L232.2 717.8L232.9 717.8L232.9 718.2Q233.4 717.7 234.1 717.7Q234.9 717.7 235.3 718.3Q235.8 718.8 235.8 719.9M235.1 719.9Q235.1 719.1 234.8 718.7Q234.5 718.3 233.9 718.3Q233.3 718.3 232.9 718.9L232.9 720.9Q233.3 721.5 233.9 721.5Q234.5 721.5 234.8 721.1Q235.1 720.7 235.1 719.9" class="zone-room"></path>
                  
            <!--?lit$997511696$-->
          </g>
        <!---->
    <!---->
    <!---->
          </svg>
