<?xml version="1.0" encoding="UTF-8"?>
<svg preserveAspectRatio="xMidYMid meet" xmlns="http://www.w3.org/2000/svg" viewBox="0 0 440 494"><style>
    .bubble-bg { fill: #ffffff; stroke: #e2e8f0; stroke-width: 0.7; }
    .bubble-conn { stroke: #cbd5e0; stroke-width: 0.5; }
    .label-secondary, .zone-room { fill: #718096; }
    .phase-label { fill: #1a202c; }
    .sat-track { fill: #e2e8f0; opacity: 0.5; }
  </style>
            <!-- Phase trunks -->
            <line stroke-width="3" x1="24" y1="20" x2="24" y2="388" stroke="var(--electrical-panel-phase-l3-color, #5A6474)"></line>
            <line stroke-width="3" x1="36" y1="20" x2="36" y2="388" stroke="var(--electrical-panel-phase-l2-color, #1A202C)"></line>
            <line stroke-width="3" x1="48" y1="20" x2="48" y2="388" stroke="var(--electrical-panel-phase-l1-color, #8B4513)"></line>

            <!-- Phase labels -->
            <path d="M21.3 10.7L21.3 15.3L23.7 15.3L23.7 16L20.4 16L20.4 10.7L21.3 10.7M25.3 13.6L25.3 12.9L25.9 12.9Q26.3 12.9 26.5 12.7Q26.8 12.5 26.8 12.1Q26.8 11.7 26.6 11.5Q26.4 11.3 25.9 11.3Q25.6 11.3 25.4 11.5Q25.1 11.7 25.1 12.1L24.2 12.1Q24.2 11.6 24.5 11.3Q24.7 11 25.1 10.8Q25.5 10.6 25.9 10.6Q26.7 10.6 27.2 11Q27.6 11.4 27.6 12.1Q27.6 12.5 27.4 12.8Q27.2 13.1 26.8 13.3Q27.3 13.4 27.5 13.7Q27.7 14.1 27.7 14.5Q27.7 15.2 27.2 15.6Q26.7 16.1 25.9 16.1Q25.2 16.1 24.7 15.7Q24.2 15.3 24.2 14.6L25.1 14.6Q25.1 14.9 25.3 15.1Q25.5 15.4 25.9 15.4Q26.4 15.4 26.6 15.1Q26.8 14.9 26.8 14.5Q26.8 14.1 26.6 13.9Q26.3 13.6 25.8 13.6" class="phase-label"></path>
            <path d="M33.3 10.7L33.3 15.3L35.7 15.3L35.7 16L32.4 16L32.4 10.7L33.3 10.7M39.9 15.3L39.9 16L36.3 16L36.3 15.4L38.1 13.5Q38.5 13 38.6 12.7Q38.8 12.4 38.8 12.2Q38.8 11.8 38.6 11.5Q38.4 11.3 38 11.3Q37.6 11.3 37.3 11.6Q37.1 11.8 37.1 12.3L36.2 12.3Q36.2 11.8 36.4 11.4Q36.6 11 37 10.8Q37.5 10.6 38 10.6Q38.8 10.6 39.2 11Q39.7 11.4 39.7 12.1Q39.7 12.5 39.4 12.9Q39.2 13.3 38.7 13.9L37.4 15.3" class="phase-label"></path>
            <path d="M45.3 10.7L45.3 15.3L47.7 15.3L47.7 16L44.4 16L44.4 10.7L45.3 10.7M50.7 10.6L50.7 16L49.8 16L49.8 11.7L48.5 12.2L48.5 11.4L50.6 10.6" class="phase-label"></path>

            <!-- Staggered phase taps + bubbles -->
            <circle r="2" cx="48" cy="26" fill="var(--electrical-panel-phase-l1-color, #8B4513)"></circle>
            <!--?lit$997511696$-->
      <!--?lit$997511696$--><line class="bubble-conn" visibility="hidden" data-ln-for="phase_l1" x1="48" y1="22" x2="150" y2="22"></line>
      <rect class="bubble-bg" width="42" height="15" rx="3" visibility="hidden" data-bg-for="phase_l1" x="110" y="14"></rect>
      
      <!--?lit$997511696$-->
      <!--?lit$997511696$-->
    
            <circle r="2" cx="36" cy="46" fill="var(--electrical-panel-phase-l2-color, #1A202C)"></circle>
            <!--?lit$997511696$-->
      <!--?lit$997511696$--><line class="bubble-conn" visibility="hidden" data-ln-for="phase_l2" x1="36" y1="42" x2="185" y2="42"></line>
      <rect class="bubble-bg" width="42" height="15" rx="3" visibility="hidden" data-bg-for="phase_l2" x="145" y="34"></rect>
      
      <!--?lit$997511696$-->
      <!--?lit$997511696$-->
    
            <circle r="2" cx="24" cy="66" fill="var(--electrical-panel-phase-l3-color, #5A6474)"></circle>
            <!--?lit$997511696$-->
      <!--?lit$997511696$--><line class="bubble-conn" visibility="hidden" data-ln-for="phase_l3" x1="24" y1="62" x2="220" y2="62"></line>
      <rect class="bubble-bg" width="42" height="15" rx="3" visibility="hidden" data-bg-for="phase_l3" x="180" y="54"></rect>
      
      <!--?lit$997511696$-->
      <!--?lit$997511696$-->
    

            <!-- Main totals (right column) -->
            <path d="M282.6 23.7L282.6 24.2L280.8 24.2L280.8 29L280.2 29L280.2 24.2L278.4 24.2L278.4 23.7L282.6 23.7M282.7 27L282.7 27Q282.7 26.4 282.9 25.9Q283.2 25.5 283.6 25.2Q284 25 284.5 25Q285.3 25 285.8 25.5Q286.3 26.1 286.3 27L286.3 27.1Q286.3 27.6 286.1 28.1Q285.9 28.6 285.5 28.8Q285 29.1 284.5 29.1Q283.7 29.1 283.2 28.5Q282.7 28 282.7 27M283.4 27.1Q283.4 27.7 283.7 28.1Q284 28.5 284.5 28.5Q285 28.5 285.3 28.1Q285.6 27.7 285.6 27Q285.6 26.3 285.3 25.9Q285 25.5 284.5 25.5Q284 25.5 283.7 25.9Q283.4 26.3 283.4 27.1M287.4 24.1L288.1 24.1L288.1 25L288.8 25L288.8 25.6L288.1 25.6L288.1 28Q288.1 28.3 288.2 28.4Q288.3 28.5 288.5 28.5Q288.6 28.5 288.8 28.5L288.8 29Q288.6 29.1 288.3 29.1Q287.9 29.1 287.6 28.8Q287.4 28.5 287.4 28L287.4 25.6L286.7 25.6L286.7 25L287.4 25L287.4 24.1M292.8 29L292.1 29Q292 28.9 292 28.6Q291.5 29.1 290.8 29.1Q290.3 29.1 289.9 28.7Q289.5 28.4 289.5 27.9Q289.5 27.3 290 26.9Q290.4 26.6 291.3 26.6L292 26.6L292 26.3Q292 25.9 291.7 25.7Q291.5 25.5 291.1 25.5Q290.8 25.5 290.5 25.7Q290.3 25.9 290.3 26.1L289.6 26.1Q289.6 25.8 289.8 25.6Q290 25.3 290.4 25.1Q290.7 25 291.2 25Q291.8 25 292.2 25.3Q292.6 25.6 292.6 26.2L292.6 28.1Q292.6 28.6 292.8 28.9L292.8 29M290.9 28.5Q291.3 28.5 291.5 28.3Q291.8 28.2 292 27.9L292 27.1L291.4 27.1Q290.2 27.1 290.2 27.8Q290.2 28.1 290.4 28.3Q290.6 28.5 290.9 28.5M294.4 23.4L294.4 29L293.8 29L293.8 23.4" class="label-secondary"></path>
            <!--?lit$997511696$-->
      <!--?lit$997511696$-->
      <rect class="bubble-bg" width="33.001708984375" height="13.5" rx="3" visibility="visible" data-bg-for="total" x="321.998291015625" y="20"></rect>
      <path d="M328.4 26.6L328.4 25.9L329 25.9Q329.4 25.9 329.6 25.7Q329.9 25.5 329.9 25.1Q329.9 24.7 329.7 24.5Q329.5 24.3 329 24.3Q328.7 24.3 328.5 24.5Q328.2 24.7 328.2 25.1L327.3 25.1Q327.3 24.6 327.6 24.3Q327.8 24 328.2 23.8Q328.6 23.6 329 23.6Q329.8 23.6 330.3 24Q330.7 24.4 330.7 25.1Q330.7 25.5 330.5 25.8Q330.3 26.1 329.9 26.3Q330.4 26.4 330.6 26.7Q330.8 27.1 330.8 27.5Q330.8 28.2 330.3 28.6Q329.8 29.1 329 29.1Q328.3 29.1 327.8 28.7Q327.3 28.3 327.3 27.6L328.2 27.6Q328.2 27.9 328.4 28.1Q328.6 28.4 329 28.4Q329.5 28.4 329.7 28.1Q329.9 27.9 329.9 27.5Q329.9 27.1 329.7 26.9Q329.4 26.6 329 26.6L328.4 26.6M332.3 28.1Q332.5 28.1 332.7 28.2Q332.8 28.3 332.8 28.6Q332.8 28.8 332.7 28.9Q332.5 29 332.3 29Q332 29 331.9 28.9Q331.8 28.8 331.8 28.6Q331.8 28.3 331.9 28.2Q332 28.1 332.3 28.1M337.2 25.8L337.2 26.8Q337.2 27.9 336.8 28.5Q336.4 29.1 335.5 29.1Q334.6 29.1 334.2 28.5Q333.8 27.9 333.7 26.8L333.7 25.9Q333.7 24.7 334.2 24.2Q334.6 23.6 335.5 23.6Q336.4 23.6 336.8 24.2Q337.2 24.7 337.2 25.8M336.3 27L336.3 25.8Q336.3 25 336.1 24.7Q335.9 24.3 335.5 24.3Q335 24.3 334.8 24.6Q334.6 25 334.6 25.7L334.6 26.9Q334.6 27.6 334.8 28Q335 28.4 335.5 28.4Q335.9 28.4 336.1 28Q336.3 27.7 336.3 27M342.4 29L341.2 27.3L340.8 27.7L340.8 29L339.9 29L339.9 23.4L340.8 23.4L340.8 26.6L341.1 26.3L342.2 25L343.3 25L341.8 26.7L343.4 29L342.4 29M347.1 23.7L348.1 27.7L348.9 23.7L349.9 23.7L348.6 29L347.7 29L346.7 25.1L345.7 29L344.8 29L343.6 23.7L344.5 23.7L345.3 27.7L346.3 23.7" class="pwr-value" fill="#c53030"></path>
      <!--?lit$997511696$-->
      <!--?lit$997511696$-->
    
            <path d="M285.9 46.3L285.9 48.3Q285.6 48.7 285.1 48.9Q284.6 49.1 284 49.1Q283.3 49.1 282.8 48.8Q282.3 48.5 282 47.9Q281.8 47.3 281.8 46.6L281.8 46.1Q281.8 44.9 282.3 44.3Q282.9 43.6 283.9 43.6Q284.7 43.6 285.2 44Q285.7 44.4 285.9 45.2L285.2 45.2Q285 44.2 283.9 44.2Q283.2 44.2 282.8 44.7Q282.5 45.2 282.5 46.1L282.5 46.5Q282.5 47.4 282.9 48Q283.3 48.5 284 48.5Q284.4 48.5 284.7 48.4Q285 48.3 285.2 48.1L285.2 46.9L283.9 46.9L283.9 46.3L285.9 46.3M288.8 45L288.8 45.6Q288.7 45.6 288.5 45.6Q287.8 45.6 287.6 46.2L287.6 49L286.9 49L286.9 45L287.6 45L287.6 45.5Q287.9 45 288.5 45Q288.7 45 288.8 45M290.2 45L290.2 49L289.5 49L289.5 45L290.2 45M289.5 44Q289.5 43.8 289.6 43.7Q289.7 43.6 289.9 43.6Q290.1 43.6 290.2 43.7Q290.3 43.8 290.3 44Q290.3 44.2 290.2 44.3Q290.1 44.4 289.9 44.4Q289.7 44.4 289.6 44.3Q289.5 44.2 289.5 44M291.1 47L291.1 47Q291.1 46.1 291.6 45.5Q292 45 292.7 45Q293.4 45 293.8 45.4L293.8 43.4L294.5 43.4L294.5 49L293.8 49L293.8 48.6Q293.4 49.1 292.7 49.1Q292 49.1 291.6 48.5Q291.1 47.9 291.1 47M291.8 47.1Q291.8 47.7 292.1 48.1Q292.4 48.5 292.8 48.5Q293.5 48.5 293.8 47.9L293.8 46.1Q293.5 45.5 292.9 45.5Q292.4 45.5 292.1 45.9Q291.8 46.3 291.8 47.1" class="label-secondary"></path>
            <!--?lit$997511696$-->
      <!--?lit$997511696$-->
      <rect class="bubble-bg" width="35.484619140625" height="13.5" rx="3" visibility="visible" data-bg-for="grid" x="319.515380859375" y="40"></rect>
      <path d="M328.2 46L328.2 46.7L325.1 46.7L325.1 46L328.2 46M332.7 43.7L332.7 44.2L330.6 49L329.6 49L331.8 44.4L329 44.4L329 43.7L332.7 43.7M334.4 46.6L334.4 45.9L335 45.9Q335.4 45.9 335.6 45.7Q335.9 45.5 335.9 45.1Q335.9 44.7 335.7 44.5Q335.5 44.3 335.1 44.3Q334.7 44.3 334.5 44.5Q334.2 44.7 334.2 45.1L333.3 45.1Q333.3 44.6 333.6 44.3Q333.8 44 334.2 43.8Q334.6 43.6 335 43.6Q335.8 43.6 336.3 44Q336.8 44.4 336.8 45.1Q336.8 45.5 336.5 45.8Q336.3 46.1 335.9 46.3Q336.4 46.4 336.6 46.7Q336.8 47.1 336.8 47.5Q336.8 48.2 336.3 48.6Q335.8 49.1 335 49.1Q334.3 49.1 333.8 48.7Q333.3 48.3 333.3 47.6L334.2 47.6Q334.2 47.9 334.4 48.1Q334.7 48.4 335.1 48.4Q335.5 48.4 335.7 48.1Q335.9 47.9 335.9 47.5Q335.9 47.1 335.7 46.9Q335.5 46.6 335 46.6L334.4 46.6M341.3 48.3L341.3 49L337.7 49L337.7 48.4L339.4 46.5Q339.8 46 340 45.7Q340.2 45.4 340.2 45.2Q340.2 44.8 339.9 44.5Q339.7 44.3 339.4 44.3Q338.9 44.3 338.7 44.6Q338.5 44.8 338.5 45.3L337.6 45.3Q337.6 44.8 337.8 44.4Q338 44 338.4 43.8Q338.8 43.6 339.4 43.6Q340.1 43.6 340.6 44Q341 44.4 341 45.1Q341 45.5 340.8 45.9Q340.6 46.3 340.1 46.9L338.8 48.3L341.3 48.3M347.1 43.7L348.1 47.7L348.9 43.7L349.9 43.7L348.6 49L347.7 49L346.7 45.1L345.7 49L344.8 49L343.6 43.7L344.5 43.7L345.3 47.7L346.3 43.7" class="pwr-value" fill="var(--secondary-text-color)"></path>
      <!--?lit$997511696$-->
      <!--?lit$997511696$-->
    

            <!--?lit$997511696$--><!---->
      <!--?lit$997511696$--><!----><circle r="3.5" cx="48" cy="104" fill="#3182ce"></circle><!---->
      <!--?lit$997511696$--><line stroke-width="2" x1="48" y1="104" x2="70" y2="104" stroke="#3182ce"></line>

      <g class="meta-target">
        <!--?lit$997511696$--><title><!---->40 A · 30 mA · 2P · Cl. A · L1<!----></title>
        <rect stroke-width="1.8" rx="2" x="70" y="92" width="24" height="24" fill="color-mix(in srgb, #3182ce 18%, var(--ha-card-background, var(--card-background-color, white)))" stroke="#3182ce"></rect>
        <path d="M79 108L77.2 108L77.2 101.6L79 101.6Q79.9 101.6 80.5 102Q81.2 102.4 81.6 103.1Q81.9 103.7 81.9 104.6L81.9 105Q81.9 105.9 81.6 106.6Q81.2 107.3 80.5 107.6Q79.9 108 79 108M79 102.5L78.3 102.5L78.3 107.1L79 107.1Q79.9 107.1 80.3 106.6Q80.8 106 80.8 105L80.8 104.6Q80.8 103.6 80.4 103Q79.9 102.5 79 102.5M85.8 101.6L85.8 108L84.7 108L84.7 102.9L83.1 103.4L83.1 102.5L85.6 101.6" fill="#3182ce"></path>
      </g>

      <!--?lit$997511696$-->
      <!--?lit$997511696$--><line class="bubble-conn" visibility="visible" data-ln-for="g-D1" x1="94" y1="104.75" x2="328.0078125" y2="104.75"></line>
      <rect class="bubble-bg" width="26.9921875" height="13.5" rx="3" visibility="visible" data-bg-for="g-D1" x="328.0078125" y="98"></rect>
      <path d="M334.4 104.5L333.6 104.4L333.9 101.7L336.8 101.7L336.8 102.4L334.7 102.4L334.5 103.7Q334.9 103.5 335.4 103.5Q336.1 103.5 336.5 104Q337 104.5 337 105.3Q337 106.1 336.5 106.6Q336 107.1 335.2 107.1Q334.5 107.1 334 106.7Q333.5 106.2 333.5 105.6L334.3 105.6Q334.4 105.9 334.6 106.2Q334.8 106.4 335.2 106.4Q335.6 106.4 335.9 106.1Q336.1 105.8 336.1 105.3Q336.1 104.8 335.8 104.5Q335.6 104.2 335.1 104.2Q334.9 104.2 334.7 104.3Q334.6 104.3 334.4 104.5M341.3 106.3L341.3 107L337.7 107L337.7 106.4L339.4 104.5Q339.8 104 340 103.7Q340.2 103.4 340.2 103.2Q340.2 102.8 339.9 102.5Q339.7 102.3 339.4 102.3Q338.9 102.3 338.7 102.6Q338.5 102.8 338.5 103.3L337.6 103.3Q337.6 102.8 337.8 102.4Q338 102 338.4 101.8Q338.8 101.6 339.4 101.6Q340.1 101.6 340.6 102Q341 102.4 341 103.1Q341 103.5 340.8 103.9Q340.6 104.3 340.1 104.9L338.8 106.3L341.3 106.3M347.1 101.7L348.1 105.7L348.9 101.7L349.9 101.7L348.6 107L347.7 107L346.7 103.1L345.7 107L344.8 107L343.6 101.7L344.5 101.7L345.3 105.7L346.3 101.7" class="pwr-value" fill="#3182ce"></path>
      <!--?lit$997511696$-->
      <!--?lit$997511696$-->
    

      <!--?lit$997511696$--><line stroke-width="3" x1="82" y1="116" x2="82" y2="326" stroke="#3182ce"></line>

      <!--?lit$997511696$--><!---->
      <line stroke-width="3" x1="82" y1="132" x2="104" y2="132" stroke="#3182ce"></line>
      <!--?lit$997511696$--><line stroke-width="1.5" x1="114" y1="142" x2="114" y2="197" stroke="#3182ce"></line>
      <g class="meta-target">
        <!--?lit$997511696$--><title><!---->16 A · 2P · 2.5 mm²<!----></title>
        <rect stroke-width="1.8" rx="2" x="104" y="122" width="20" height="20" fill="color-mix(in srgb, #3182ce 18%, var(--ha-card-background, var(--card-background-color, white)))" stroke="#3182ce"></rect>
        <path d="M115.8 136L115.2 134.5L112.8 134.5L112.2 136L111.1 136L113.5 129.6L114.5 129.6L116.9 136L115.8 136M114 131L113.1 133.6L114.9 133.6" fill="#3182ce"></path>
      </g>
      <!--?lit$997511696$-->
      <!--?lit$997511696$--><line class="bubble-conn" visibility="visible" data-ln-for="c-A" x1="124" y1="132.75" x2="323.7451171875" y2="132.75"></line>
      <rect class="bubble-bg" width="31.2548828125" height="13.5" rx="3" visibility="visible" data-bg-for="c-A" x="323.7451171875" y="126"></rect>
      <path d="M330.1 132.5L329.4 132.4L329.7 129.7L332.5 129.7L332.5 130.4L330.4 130.4L330.3 131.7Q330.6 131.5 331.1 131.5Q331.9 131.5 332.3 132Q332.7 132.5 332.7 133.3Q332.7 134.1 332.2 134.6Q331.8 135.1 331 135.1Q330.2 135.1 329.7 134.7Q329.3 134.2 329.2 133.6L330.1 133.6Q330.1 133.9 330.4 134.2Q330.6 134.4 330.9 134.4Q331.4 134.4 331.6 134.1Q331.8 133.8 331.8 133.3Q331.8 132.8 331.6 132.5Q331.3 132.2 330.9 132.2Q330.6 132.2 330.5 132.3Q330.3 132.3 330.1 132.5M336.1 129.6L336.2 129.6L336.2 130.4L336.1 130.4Q335.3 130.4 334.9 130.8Q334.4 131.2 334.3 131.9Q334.8 131.5 335.4 131.5Q336.1 131.5 336.6 132Q337 132.5 337 133.3Q337 134.1 336.5 134.6Q336 135.1 335.2 135.1Q334.4 135.1 333.9 134.5Q333.4 133.9 333.4 132.9L333.4 132.6Q333.4 131.2 334.1 130.4Q334.8 129.6 336.1 129.6M335.2 132.2Q334.9 132.2 334.7 132.4Q334.4 132.5 334.3 132.8L334.3 133.1Q334.3 133.7 334.6 134Q334.8 134.4 335.2 134.4Q335.6 134.4 335.8 134.1Q336.1 133.8 336.1 133.3Q336.1 132.8 335.8 132.5Q335.6 132.2 335.2 132.2M340.1 129.6L340.1 135L339.2 135L339.2 130.7L337.9 131.2L337.9 130.4L340 129.6L340.1 129.6M347.1 129.7L348.1 133.7L348.9 129.7L349.9 129.7L348.6 135L347.7 135L346.7 131.1L345.7 135L344.8 135L343.6 129.7L344.5 129.7L345.3 133.7L346.3 129.7" class="pwr-value" fill="#3182ce"></path>
      <!--?lit$997511696$-->
      <!--?lit$997511696$-->
    

      <!--?lit$997511696$--><!---->
          <g class="meta-target">
            <!--?lit$997511696$--><title><!---->Kitchen sockets · L0<!----></title>
            <line stroke-width="0.8" x1="114" y1="153" x2="132" y2="153" stroke="#3182ce"></line>
            <!--?lit$997511696$-->
                    <rect x="132" y="146" width="20" height="12" fill="#38a169" rx="3"></rect>
                    <path d="M139.5 147L139.5 151.3L141.7 151.3L141.7 152L138.6 152L138.6 147L139.5 147M145.5 149L145.5 149.9Q145.5 151 145.1 151.5Q144.7 152.1 143.9 152.1Q143.1 152.1 142.7 151.5Q142.3 151 142.3 150L142.3 149.1Q142.3 148 142.7 147.5Q143.1 147 143.9 147Q144.7 147 145.1 147.5Q145.5 148 145.5 149M144.7 150.1L144.7 149Q144.7 148.3 144.5 147.9Q144.3 147.6 143.9 147.6Q143.5 147.6 143.3 147.9Q143.1 148.2 143.1 148.9L143.1 150Q143.1 150.7 143.3 151.1Q143.5 151.4 143.9 151.4Q144.3 151.4 144.5 151.1Q144.7 150.8 144.7 150.1" fill="white"></path>
                  
            <svg x="156" y="147" width="12" height="12" viewBox="0 0 24 24"><path d="M7.5,10.5A1.5,1.5 0 0,1 9,12A1.5,1.5 0 0,1 7.5,13.5C6.66,13.5 6,12.83 6,12A1.5,1.5 0 0,1 7.5,10.5M16.5,10.5A1.5,1.5 0 0,1 18,12A1.5,1.5 0 0,1 16.5,13.5A1.5,1.5 0 0,1 15,12A1.5,1.5 0 0,1 16.5,10.5M4.22,2H19.78C21,2 22,3 22,4.22V19.78A2.22,2.22 0 0,1 19.78,22H4.22C3,22 2,21 2,19.78V4.22A2.22,2.22 0 0,1 4.22,2M12,4A8,8 0 0,0 4,12A8,8 0 0,0 12,20A8,8 0 0,0 20,12A8,8 0 0,0 12,4Z" fill="var(--secondary-text-color, #718096)"></path></svg>
            <!--?lit$997511696$-->
                    <path d="M176.1 152L174.1 149.4L173.4 150.1L173.4 152L172.7 152L172.7 146.3L173.4 146.3L173.4 149.1L175.9 146.3L176.8 146.3L174.6 148.8L177 152L176.1 152M178.3 147.8L178.3 152L177.6 152L177.6 147.8L178.3 147.8M177.6 146.7Q177.6 146.5 177.7 146.4Q177.8 146.2 178 146.2Q178.2 146.2 178.3 146.4Q178.4 146.5 178.4 146.7Q178.4 146.8 178.3 146.9Q178.2 147.1 178 147.1Q177.8 147.1 177.7 146.9Q177.6 146.8 177.6 146.7M179.8 146.8L180.5 146.8L180.5 147.8L181.3 147.8L181.3 148.3L180.5 148.3L180.5 151Q180.5 151.2 180.6 151.3Q180.7 151.5 180.9 151.5Q181.1 151.5 181.3 151.4L181.3 152Q181 152.1 180.7 152.1Q180.3 152.1 180 151.8Q179.8 151.5 179.8 151L179.8 148.3L179 148.3L179 147.8L179.8 147.8L179.8 146.8M183.8 151.5Q184.2 151.5 184.5 151.3Q184.8 151 184.8 150.7L185.5 150.7Q185.5 151 185.2 151.4Q185 151.7 184.6 151.9Q184.2 152.1 183.8 152.1Q182.9 152.1 182.4 151.5Q181.9 150.9 181.9 149.9L181.9 149.8Q181.9 149.2 182.2 148.7Q182.4 148.2 182.8 148Q183.2 147.7 183.8 147.7Q184.5 147.7 185 148.1Q185.5 148.5 185.5 149.2L184.8 149.2Q184.8 148.8 184.5 148.6Q184.2 148.3 183.8 148.3Q183.3 148.3 183 148.7Q182.7 149.1 182.7 149.8L182.7 150Q182.7 150.7 183 151.1Q183.3 151.5 183.8 151.5M187 146L187 148.3Q187.5 147.7 188.3 147.7Q189.6 147.7 189.6 149.2L189.6 152L188.9 152L188.9 149.2Q188.9 148.7 188.7 148.5Q188.5 148.3 188.1 148.3Q187.7 148.3 187.4 148.5Q187.2 148.7 187 149L187 152L186.3 152L186.3 146L187 146M192.5 152.1Q191.6 152.1 191.1 151.5Q190.5 150.9 190.5 150L190.5 149.9Q190.5 149.2 190.8 148.7Q191 148.3 191.4 148Q191.9 147.7 192.4 147.7Q193.2 147.7 193.7 148.2Q194.1 148.8 194.1 149.8L194.1 150.1L191.3 150.1Q191.3 150.7 191.6 151.1Q192 151.5 192.5 151.5Q192.9 151.5 193.2 151.3Q193.4 151.2 193.6 150.9L194.1 151.3Q193.5 152.1 192.5 152.1M192.4 148.3Q191.9 148.3 191.6 148.6Q191.3 148.9 191.3 149.5L193.4 149.5L193.4 149.4Q193.4 148.9 193.1 148.6Q192.8 148.3 192.4 148.3M194.9 147.8L195.6 147.8L195.7 148.3Q196.1 147.7 196.9 147.7Q198.3 147.7 198.3 149.2L198.3 152L197.6 152L197.6 149.2Q197.5 148.7 197.3 148.5Q197.1 148.3 196.7 148.3Q196.4 148.3 196.1 148.5Q195.8 148.7 195.7 149L195.7 152L194.9 152L194.9 147.8M203.8 150.9Q203.8 150.6 203.6 150.4Q203.4 150.3 202.8 150.1Q202.3 150 201.9 149.9Q201.6 149.7 201.5 149.5Q201.3 149.2 201.3 148.9Q201.3 148.4 201.8 148.1Q202.2 147.7 202.9 147.7Q203.6 147.7 204 148.1Q204.5 148.4 204.5 149L203.8 149Q203.8 148.7 203.5 148.5Q203.3 148.3 202.9 148.3Q202.5 148.3 202.3 148.5Q202 148.6 202 148.9Q202 149.2 202.2 149.3Q202.4 149.4 203 149.6Q203.5 149.7 203.9 149.8Q204.2 150 204.4 150.3Q204.5 150.5 204.5 150.8Q204.5 151.4 204.1 151.7Q203.6 152.1 202.9 152.1Q202.4 152.1 202 151.9Q201.6 151.7 201.4 151.4Q201.2 151.1 201.2 150.7L201.9 150.7Q201.9 151.1 202.2 151.3Q202.5 151.5 202.9 151.5Q203.3 151.5 203.6 151.3Q203.8 151.2 203.8 150.9M205.3 149.9L205.3 149.8Q205.3 149.2 205.5 148.7Q205.8 148.2 206.2 148Q206.6 147.7 207.2 147.7Q208.1 147.7 208.6 148.3Q209.1 148.9 209.1 149.9L209.1 149.9Q209.1 150.6 208.9 151Q208.7 151.5 208.2 151.8Q207.8 152.1 207.2 152.1Q206.3 152.1 205.8 151.5Q205.3 150.9 205.3 149.9M206 149.9Q206 150.6 206.3 151.1Q206.7 151.5 207.2 151.5Q207.8 151.5 208.1 151.1Q208.4 150.6 208.4 149.8Q208.4 149.2 208.1 148.7Q207.7 148.3 207.2 148.3Q206.7 148.3 206.3 148.7Q206 149.1 206 149.9M211.7 151.5Q212.1 151.5 212.4 151.3Q212.7 151 212.7 150.7L213.4 150.7Q213.4 151 213.2 151.4Q212.9 151.7 212.5 151.9Q212.2 152.1 211.7 152.1Q210.9 152.1 210.4 151.5Q209.8 150.9 209.8 149.9L209.8 149.8Q209.8 149.2 210.1 148.7Q210.3 148.2 210.7 148Q211.1 147.7 211.7 147.7Q212.4 147.7 212.9 148.1Q213.4 148.5 213.4 149.2L212.7 149.2Q212.7 148.8 212.4 148.6Q212.1 148.3 211.7 148.3Q211.2 148.3 210.9 148.7Q210.6 149.1 210.6 149.8L210.6 150Q210.6 150.7 210.9 151.1Q211.2 151.5 211.7 151.5M216.9 152L215.4 150L214.9 150.5L214.9 152L214.2 152L214.2 146L214.9 146L214.9 149.6L215.3 149.2L216.6 147.8L217.5 147.8L215.9 149.5L217.7 152L216.9 152M219.9 152.1Q219.1 152.1 218.6 151.5Q218 150.9 218 150L218 149.9Q218 149.2 218.3 148.7Q218.5 148.3 218.9 148Q219.4 147.7 219.9 147.7Q220.7 147.7 221.1 148.2Q221.6 148.8 221.6 149.8L221.6 150.1L218.7 150.1Q218.8 150.7 219.1 151.1Q219.4 151.5 220 151.5Q220.4 151.5 220.6 151.3Q220.9 151.2 221.1 150.9L221.5 151.3Q221 152.1 219.9 152.1M219.9 148.3Q219.4 148.3 219.1 148.6Q218.8 148.9 218.8 149.5L220.9 149.5L220.9 149.4Q220.8 148.9 220.6 148.6Q220.3 148.3 219.9 148.3M222.7 146.8L223.4 146.8L223.4 147.8L224.2 147.8L224.2 148.3L223.4 148.3L223.4 151Q223.4 151.2 223.5 151.3Q223.6 151.5 223.9 151.5Q224 151.5 224.2 151.4L224.2 152Q223.9 152.1 223.7 152.1Q223.2 152.1 222.9 151.8Q222.7 151.5 222.7 151L222.7 148.3L221.9 148.3L221.9 147.8L222.7 147.8L222.7 146.8M227.5 150.9Q227.5 150.6 227.3 150.4Q227.1 150.3 226.5 150.1Q226 150 225.6 149.9Q225.3 149.7 225.2 149.5Q225 149.2 225 148.9Q225 148.4 225.5 148.1Q225.9 147.7 226.6 147.7Q227.3 147.7 227.7 148.1Q228.2 148.4 228.2 149L227.5 149Q227.5 148.7 227.2 148.5Q227 148.3 226.6 148.3Q226.2 148.3 226 148.5Q225.7 148.6 225.7 148.9Q225.7 149.2 225.9 149.3Q226.2 149.4 226.7 149.6Q227.2 149.7 227.6 149.8Q227.9 150 228.1 150.3Q228.2 150.5 228.2 150.8Q228.2 151.4 227.8 151.7Q227.3 152.1 226.6 152.1Q226.1 152.1 225.7 151.9Q225.3 151.7 225.1 151.4Q224.9 151.1 224.9 150.7L225.6 150.7Q225.6 151.1 225.9 151.3Q226.2 151.5 226.6 151.5Q227 151.5 227.3 151.3Q227.5 151.2 227.5 150.9" class="zone-room"></path>
                  
            <!--?lit$997511696$-->
          </g>
        <!----><!---->
          <g class="meta-target">
            <!--?lit$997511696$--><title><!---->Fridge · L0 · ✓ critical<!----></title>
            <line stroke-width="0.8" x1="114" y1="175" x2="132" y2="175" stroke="#3182ce"></line>
            <!--?lit$997511696$-->
                    <rect x="132" y="168" width="20" height="12" fill="#38a169" rx="3"></rect>
                    <path d="M139.5 169L139.5 173.3L141.7 173.3L141.7 174L138.6 174L138.6 169L139.5 169M145.5 171L145.5 171.9Q145.5 173 145.1 173.5Q144.7 174.1 143.9 174.1Q143.1 174.1 142.7 173.5Q142.3 173 142.3 172L142.3 171.1Q142.3 170 142.7 169.5Q143.1 169 143.9 169Q144.7 169 145.1 169.5Q145.5 170 145.5 171M144.7 172.1L144.7 171Q144.7 170.3 144.5 169.9Q144.3 169.6 143.9 169.6Q143.5 169.6 143.3 169.9Q143.1 170.2 143.1 170.9L143.1 172Q143.1 172.7 143.3 173.1Q143.5 173.4 143.9 173.4Q144.3 173.4 144.5 173.1Q144.7 172.8 144.7 172.1" fill="white"></path>
                  
            <svg x="156" y="169" width="12" height="12" viewBox="0 0 24 24"><path d="M7,2H17A2,2 0 0,1 19,4V9H5V4A2,2 0 0,1 7,2M19,19A2,2 0 0,1 17,21V22H15V21H9V22H7V21A2,2 0 0,1 5,19V10H19V19M8,5V7H10V5H8M8,12V15H10V12H8Z" fill="var(--secondary-text-color, #718096)"></path></svg>
            <!--?lit$997511696$-->
                    <path d="M175.8 170.9L175.8 171.5L173.4 171.5L173.4 174L172.7 174L172.7 168.3L176.2 168.3L176.2 168.9L173.4 168.9L173.4 170.9L175.8 170.9M178.9 169.8L178.9 170.4Q178.7 170.4 178.6 170.4Q177.8 170.4 177.6 171L177.6 174L176.9 174L176.9 169.8L177.6 169.8L177.6 170.3Q177.9 169.7 178.6 169.7Q178.8 169.7 178.9 169.8M180.4 169.8L180.4 174L179.6 174L179.6 169.8L180.4 169.8M179.6 168.7Q179.6 168.5 179.7 168.4Q179.8 168.2 180 168.2Q180.2 168.2 180.3 168.4Q180.4 168.5 180.4 168.7Q180.4 168.8 180.3 168.9Q180.2 169.1 180 169.1Q179.8 169.1 179.7 168.9Q179.6 168.8 179.6 168.7M181.3 171.9L181.3 171.9Q181.3 170.9 181.8 170.3Q182.3 169.7 183 169.7Q183.8 169.7 184.2 170.2L184.2 168L184.9 168L184.9 174L184.2 174L184.2 173.5Q183.8 174.1 183 174.1Q182.3 174.1 181.8 173.5Q181.3 172.9 181.3 171.9M182.1 171.9Q182.1 172.7 182.4 173.1Q182.7 173.5 183.2 173.5Q183.9 173.5 184.2 172.8L184.2 170.9Q183.9 170.3 183.2 170.3Q182.7 170.3 182.4 170.7Q182.1 171.1 182.1 171.9M185.9 171.9Q185.9 170.9 186.3 170.3Q186.8 169.7 187.5 169.7Q188.3 169.7 188.7 170.2L188.8 169.8L189.4 169.8L189.4 173.9Q189.4 174.7 188.9 175.2Q188.5 175.7 187.6 175.7Q187.2 175.7 186.7 175.5Q186.3 175.3 186.1 174.9L186.4 174.5Q186.9 175.1 187.6 175.1Q188.1 175.1 188.4 174.8Q188.7 174.5 188.7 173.9L188.7 173.6Q188.3 174.1 187.5 174.1Q186.8 174.1 186.3 173.5Q185.9 172.9 185.9 171.9M186.6 171.9Q186.6 172.6 186.9 173.1Q187.2 173.5 187.7 173.5Q188.4 173.5 188.7 172.8L188.7 170.9Q188.4 170.3 187.7 170.3Q187.2 170.3 186.9 170.7Q186.6 171.1 186.6 171.9M192.3 174.1Q191.4 174.1 190.9 173.5Q190.3 172.9 190.3 172L190.3 171.9Q190.3 171.2 190.6 170.7Q190.8 170.3 191.2 170Q191.7 169.7 192.2 169.7Q193 169.7 193.5 170.2Q193.9 170.8 193.9 171.8L193.9 172.1L191.1 172.1Q191.1 172.7 191.4 173.1Q191.8 173.5 192.3 173.5Q192.7 173.5 193 173.3Q193.2 173.2 193.4 172.9L193.9 173.3Q193.3 174.1 192.3 174.1M192.2 170.3Q191.7 170.3 191.4 170.6Q191.1 170.9 191.1 171.5L193.2 171.5L193.2 171.4Q193.2 170.9 192.9 170.6Q192.6 170.3 192.2 170.3" class="zone-room"></path>
                  
            <!--?lit$997511696$-->
      <!--?lit$997511696$--><line class="bubble-conn" visibility="visible" data-ln-for="z-A-1" x1="270" y1="175.75" x2="323.7451171875" y2="175.75"></line>
      <rect class="bubble-bg" width="51.2548828125" height="13.5" rx="3" visibility="visible" data-bg-for="z-A-1" x="323.7451171875" y="169"></rect>
      <path d="M332.7 177.3L332.7 178L329.1 178L329.1 177.4L330.9 175.5Q331.3 175 331.5 174.7Q331.6 174.4 331.6 174.2Q331.6 173.8 331.4 173.5Q331.2 173.3 330.8 173.3Q330.4 173.3 330.2 173.6Q329.9 173.8 329.9 174.3L329 174.3Q329 173.8 329.3 173.4Q329.5 173 329.9 172.8Q330.3 172.6 330.8 172.6Q331.6 172.6 332.1 173Q332.5 173.4 332.5 174.1Q332.5 174.5 332.3 174.9Q332.1 175.3 331.6 175.9L330.3 177.3L332.7 177.3M336.1 172.6L336.2 172.6L336.2 173.4L336.1 173.4Q335.3 173.4 334.9 173.8Q334.4 174.2 334.3 174.9Q334.8 174.5 335.4 174.5Q336.1 174.5 336.6 175Q337 175.5 337 176.3Q337 177.1 336.5 177.6Q336 178.1 335.2 178.1Q334.4 178.1 333.9 177.5Q333.4 176.9 333.4 175.9L333.4 175.6Q333.4 174.2 334.1 173.4Q334.8 172.6 336.1 172.6M335.2 175.2Q334.9 175.2 334.7 175.4Q334.4 175.5 334.3 175.8L334.3 176.1Q334.3 176.7 334.6 177Q334.8 177.4 335.2 177.4Q335.6 177.4 335.8 177.1Q336.1 176.8 336.1 176.3Q336.1 175.8 335.8 175.5Q335.6 175.2 335.2 175.2M340.1 172.6L340.1 178L339.2 178L339.2 173.7L337.9 174.2L337.9 173.4L340 172.6L340.1 172.6M347.1 172.7L348.1 176.7L348.9 172.7L349.9 172.7L348.6 178L347.7 178L346.7 174.1L345.7 178L344.8 178L343.6 172.7L344.5 172.7L345.3 176.7L346.3 172.7" class="pwr-value" fill="var(--primary-text-color)"></path>
      <!--?lit$997511696$-->
      <!--?lit$997511696$-->
              <rect style="cursor:pointer" data-toggle-for="z-A-1" x="354" y="171" width="14" height="8" fill="#38a169" rx="4"></rect>
              <circle fill="white" style="pointer-events:none" cx="363.5" cy="175" r="3"></circle>
              <rect fill="transparent" style="cursor:pointer" x="351" y="167" width="20" height="16"></rect>
            
    
          </g>
        <!----><!---->
          <g class="meta-target">
            <!--?lit$997511696$--><title><!---->Coffee maker · L0<!----></title>
            <line stroke-width="0.8" x1="114" y1="197" x2="132" y2="197" stroke="#3182ce"></line>
            <!--?lit$997511696$-->
                    <rect x="132" y="190" width="20" height="12" fill="#38a169" rx="3"></rect>
                    <path d="M139.5 191L139.5 195.3L141.7 195.3L141.7 196L138.6 196L138.6 191L139.5 191M145.5 193L145.5 193.9Q145.5 195 145.1 195.5Q144.7 196.1 143.9 196.1Q143.1 196.1 142.7 195.5Q142.3 195 142.3 194L142.3 193.1Q142.3 192 142.7 191.5Q143.1 191 143.9 191Q144.7 191 145.1 191.5Q145.5 192 145.5 193M144.7 194.1L144.7 193Q144.7 192.3 144.5 191.9Q144.3 191.6 143.9 191.6Q143.5 191.6 143.3 191.9Q143.1 192.2 143.1 192.9L143.1 194Q143.1 194.7 143.3 195.1Q143.5 195.4 143.9 195.4Q144.3 195.4 144.5 195.1Q144.7 194.8 144.7 194.1" fill="white"></path>
                  
            <svg x="156" y="191" width="12" height="12" viewBox="0 0 24 24"><path d="M18 6V4H20V2H6C4.9 2 4 2.9 4 4V20C4 21.1 4.9 22 6 22H20V20H15.97C17.2 19.09 18 17.64 18 16V11H8V16C8 17.64 8.81 19.09 10.03 20H6V4H8V6C8 6.55 8.45 7 9 7H17C17.55 7 18 6.55 18 6M13 8C13.55 8 14 8.45 14 9S13.55 10 13 10 12 9.55 12 9 12.45 8 13 8Z" fill="var(--secondary-text-color, #718096)"></path></svg>
            <!--?lit$997511696$-->
                    <path d="M176.1 194.2L176.8 194.2Q176.7 195.1 176.2 195.6Q175.6 196.1 174.7 196.1Q173.7 196.1 173.1 195.4Q172.5 194.6 172.5 193.4L172.5 192.9Q172.5 192.1 172.7 191.5Q173 190.9 173.6 190.6Q174.1 190.2 174.8 190.2Q175.7 190.2 176.2 190.7Q176.8 191.2 176.8 192.1L176.1 192.1Q176 191.5 175.7 191.2Q175.3 190.9 174.8 190.9Q174 190.9 173.6 191.4Q173.2 191.9 173.2 192.9L173.2 193.4Q173.2 194.4 173.6 194.9Q174 195.5 174.7 195.5Q175.3 195.5 175.6 195.2Q176 194.9 176.1 194.2M177.6 193.9L177.6 193.8Q177.6 193.2 177.8 192.7Q178.1 192.2 178.5 192Q178.9 191.7 179.5 191.7Q180.3 191.7 180.9 192.3Q181.4 192.9 181.4 193.9L181.4 193.9Q181.4 194.6 181.2 195Q180.9 195.5 180.5 195.8Q180.1 196.1 179.5 196.1Q178.6 196.1 178.1 195.5Q177.6 194.9 177.6 193.9M178.3 193.9Q178.3 194.6 178.6 195.1Q178.9 195.5 179.5 195.5Q180 195.5 180.4 195.1Q180.7 194.6 180.7 193.8Q180.7 193.2 180.4 192.7Q180 192.3 179.5 192.3Q178.9 192.3 178.6 192.7Q178.3 193.1 178.3 193.9M183.4 196L182.7 196L182.7 192.3L182 192.3L182 191.8L182.7 191.8L182.7 191.3Q182.7 190.7 183 190.3Q183.4 189.9 184.1 189.9Q184.3 189.9 184.6 190L184.5 190.6Q184.3 190.5 184.1 190.5Q183.8 190.5 183.6 190.7Q183.4 190.9 183.4 191.3L183.4 191.8L184.3 191.8L184.3 192.3L183.4 192.3L183.4 196M186.2 196L185.4 196L185.4 192.3L184.8 192.3L184.8 191.8L185.4 191.8L185.4 191.3Q185.4 190.7 185.8 190.3Q186.2 189.9 186.8 189.9Q187.1 189.9 187.3 190L187.3 190.6Q187.1 190.5 186.9 190.5Q186.6 190.5 186.4 190.7Q186.2 190.9 186.2 191.3L186.2 191.8L187.1 191.8L187.1 192.3L186.2 192.3L186.2 196M189.5 196.1Q188.7 196.1 188.1 195.5Q187.6 194.9 187.6 194L187.6 193.9Q187.6 193.2 187.8 192.7Q188.1 192.3 188.5 192Q188.9 191.7 189.4 191.7Q190.3 191.7 190.7 192.2Q191.2 192.8 191.2 193.8L191.2 194.1L188.3 194.1Q188.3 194.7 188.7 195.1Q189 195.5 189.6 195.5Q190 195.5 190.2 195.3Q190.5 195.2 190.7 194.9L191.1 195.3Q190.6 196.1 189.5 196.1M189.4 192.3Q189 192.3 188.7 192.6Q188.4 192.9 188.3 193.5L190.5 193.5L190.5 193.4Q190.4 192.9 190.2 192.6Q189.9 192.3 189.4 192.3M193.8 196.1Q192.9 196.1 192.4 195.5Q191.8 194.9 191.8 194L191.8 193.9Q191.8 193.2 192.1 192.7Q192.3 192.3 192.7 192Q193.2 191.7 193.7 191.7Q194.5 191.7 195 192.2Q195.4 192.8 195.4 193.8L195.4 194.1L192.6 194.1Q192.6 194.7 192.9 195.1Q193.3 195.5 193.8 195.5Q194.2 195.5 194.5 195.3Q194.7 195.2 194.9 194.9L195.4 195.3Q194.8 196.1 193.8 196.1M193.7 192.3Q193.2 192.3 192.9 192.6Q192.6 192.9 192.6 193.5L194.7 193.5L194.7 193.4Q194.7 192.9 194.4 192.6Q194.1 192.3 193.7 192.3M198.2 191.8L198.9 191.8L198.9 192.2Q199.4 191.7 200.2 191.7Q201.1 191.7 201.4 192.4Q201.6 192.1 201.9 191.9Q202.3 191.7 202.7 191.7Q204.1 191.7 204.2 193.2L204.2 196L203.4 196L203.4 193.2Q203.4 192.8 203.2 192.5Q203 192.3 202.5 192.3Q202.1 192.3 201.9 192.5Q201.6 192.8 201.6 193.2L201.6 196L200.8 196L200.8 193.2Q200.8 192.3 199.9 192.3Q199.2 192.3 199 192.9L199 196L198.2 196L198.2 191.8M208.6 196L207.9 196Q207.8 195.9 207.8 195.6Q207.3 196.1 206.6 196.1Q205.9 196.1 205.5 195.7Q205.1 195.4 205.1 194.8Q205.1 194.2 205.6 193.8Q206.1 193.4 207 193.4L207.7 193.4L207.7 193.1Q207.7 192.7 207.5 192.5Q207.3 192.3 206.8 192.3Q206.5 192.3 206.2 192.5Q205.9 192.7 205.9 192.9L205.2 192.9Q205.2 192.6 205.4 192.3Q205.7 192 206 191.9Q206.4 191.7 206.9 191.7Q207.6 191.7 208 192.1Q208.4 192.4 208.5 193.1L208.5 195Q208.5 195.6 208.6 195.9L208.6 196M206.7 195.4Q207 195.4 207.3 195.3Q207.6 195.1 207.7 194.8L207.7 193.9L207.2 193.9Q205.8 193.9 205.8 194.7Q205.8 195.1 206.1 195.3Q206.3 195.4 206.7 195.4M212.3 196L210.8 194L210.3 194.5L210.3 196L209.6 196L209.6 190L210.3 190L210.3 193.6L210.7 193.2L212 191.8L212.9 191.8L211.3 193.5L213.1 196L212.3 196M215.3 196.1Q214.5 196.1 213.9 195.5Q213.4 194.9 213.4 194L213.4 193.9Q213.4 193.2 213.6 192.7Q213.9 192.3 214.3 192Q214.7 191.7 215.2 191.7Q216.1 191.7 216.5 192.2Q217 192.8 217 193.8L217 194.1L214.1 194.1Q214.1 194.7 214.5 195.1Q214.8 195.5 215.4 195.5Q215.8 195.5 216 195.3Q216.3 195.2 216.5 194.9L216.9 195.3Q216.4 196.1 215.3 196.1M215.2 192.3Q214.8 192.3 214.5 192.6Q214.2 192.9 214.1 193.5L216.3 193.5L216.3 193.4Q216.2 192.9 216 192.6Q215.7 192.3 215.2 192.3M219.9 191.8L219.9 192.4Q219.7 192.4 219.5 192.4Q218.8 192.4 218.5 193L218.5 196L217.8 196L217.8 191.8L218.5 191.8L218.5 192.3Q218.9 191.7 219.5 191.7Q219.7 191.7 219.9 191.8" class="zone-room"></path>
                  
            <!--?lit$997511696$-->
      <!--?lit$997511696$--><line class="bubble-conn" visibility="visible" data-ln-for="z-A-2" x1="270" y1="197.75" x2="323.7451171875" y2="197.75"></line>
      <rect class="bubble-bg" width="51.2548828125" height="13.5" rx="3" visibility="visible" data-bg-for="z-A-2" x="323.7451171875" y="191"></rect>
      <path d="M332.2 194.7L332.2 198.1L332.8 198.1L332.8 198.8L332.2 198.8L332.2 200L331.3 200L331.3 198.8L329 198.8L328.9 198.3L331.2 194.7L332.2 194.7M331.2 196L329.9 198.1L331.3 198.1L331.3 195.9L331.2 196M337 194.7L337 195.2L334.8 200L333.9 200L336 195.4L333.3 195.4L333.3 194.7L337 194.7M340.1 194.6L340.1 200L339.2 200L339.2 195.7L337.9 196.2L337.9 195.4L340 194.6L340.1 194.6M347.1 194.7L348.1 198.7L348.9 194.7L349.9 194.7L348.6 200L347.7 200L346.7 196.1L345.7 200L344.8 200L343.6 194.7L344.5 194.7L345.3 198.7L346.3 194.7" class="pwr-value" fill="var(--primary-text-color)"></path>
      <!--?lit$997511696$-->
      <!--?lit$997511696$-->
              <rect style="cursor:pointer" data-toggle-for="z-A-2" x="354" y="193" width="14" height="8" fill="#38a169" rx="4"></rect>
              <circle fill="white" style="pointer-events:none" cx="363.5" cy="197" r="3"></circle>
              <rect fill="transparent" style="cursor:pointer" x="351" y="189" width="20" height="16"></rect>
            
    
          </g>
        <!---->
    <!----><!---->
      <line stroke-width="3" x1="82" y1="218" x2="104" y2="218" stroke="#3182ce"></line>
      <!--?lit$997511696$--><line stroke-width="1.5" x1="114" y1="228" x2="114" y2="305" stroke="#3182ce"></line>
      <g class="meta-target">
        <!--?lit$997511696$--><title><!---->10 A · 2P · 1.5 mm²<!----></title>
        <rect stroke-width="1.8" rx="2" x="104" y="208" width="20" height="20" fill="color-mix(in srgb, #3182ce 18%, var(--ha-card-background, var(--card-background-color, white)))" stroke="#3182ce"></rect>
        <path d="M114.1 222L111.8 222L111.8 215.6L114 215.6Q115.1 215.6 115.7 216Q116.2 216.5 116.2 217.3Q116.2 217.8 116 218.1Q115.7 218.5 115.3 218.7Q115.8 218.8 116.1 219.2Q116.4 219.6 116.4 220.1Q116.4 221 115.8 221.5Q115.2 222 114.1 222M114.3 219.1L112.9 219.1L112.9 221.1L114.2 221.1Q114.7 221.1 115 220.9Q115.3 220.6 115.3 220.1Q115.3 219.1 114.3 219.1M112.9 216.5L112.9 218.3L114 218.3Q114.5 218.3 114.8 218.1Q115.1 217.8 115.1 217.4Q115.1 216.9 114.8 216.7Q114.6 216.5 114 216.5" fill="#3182ce"></path>
      </g>
      <!--?lit$997511696$-->

      <!--?lit$997511696$--><!---->
          <g class="meta-target">
            <!--?lit$997511696$--><title><!---->Living room · L0<!----></title>
            <line stroke-width="0.8" x1="114" y1="239" x2="132" y2="239" stroke="#3182ce"></line>
            <!--?lit$997511696$-->
                    <rect x="132" y="232" width="20" height="12" fill="#38a169" rx="3"></rect>
                    <path d="M139.5 233L139.5 237.3L141.7 237.3L141.7 238L138.6 238L138.6 233L139.5 233M145.5 235L145.5 235.9Q145.5 237 145.1 237.5Q144.7 238.1 143.9 238.1Q143.1 238.1 142.7 237.5Q142.3 237 142.3 236L142.3 235.1Q142.3 234 142.7 233.5Q143.1 233 143.9 233Q144.7 233 145.1 233.5Q145.5 234 145.5 235M144.7 236.1L144.7 235Q144.7 234.3 144.5 233.9Q144.3 233.6 143.9 233.6Q143.5 233.6 143.3 233.9Q143.1 234.2 143.1 234.9L143.1 236Q143.1 236.7 143.3 237.1Q143.5 237.4 143.9 237.4Q144.3 237.4 144.5 237.1Q144.7 236.8 144.7 236.1" fill="white"></path>
                  
            <svg x="156" y="233" width="12" height="12" viewBox="0 0 24 24"><path d="M12,2A7,7 0 0,1 19,9C19,11.38 17.81,13.47 16,14.74V17A1,1 0 0,1 15,18H9A1,1 0 0,1 8,17V14.74C6.19,13.47 5,11.38 5,9A7,7 0 0,1 12,2M9,21V20H15V21A1,1 0 0,1 14,22H10A1,1 0 0,1 9,21M12,4A5,5 0 0,0 7,9C7,11.05 8.23,12.81 10,13.58V16H14V13.58C15.77,12.81 17,11.05 17,9A5,5 0 0,0 12,4Z" fill="var(--secondary-text-color, #718096)"></path></svg>
            <!--?lit$997511696$-->
                    <path d="M173.4 232.3L173.4 237.4L176.1 237.4L176.1 238L172.7 238L172.7 232.3L173.4 232.3M177.6 233.8L177.6 238L176.9 238L176.9 233.8L177.6 233.8M176.9 232.7Q176.9 232.5 177 232.4Q177.1 232.2 177.3 232.2Q177.5 232.2 177.6 232.4Q177.7 232.5 177.7 232.7Q177.7 232.8 177.6 232.9Q177.5 233.1 177.3 233.1Q177.1 233.1 177 232.9Q176.9 232.8 176.9 232.7M179.1 233.8L180.2 237L181.2 233.8L182 233.8L180.5 238L179.9 238L178.4 233.8L179.1 233.8M183.5 233.8L183.5 238L182.7 238L182.7 233.8L183.5 233.8M182.7 232.7Q182.7 232.5 182.8 232.4Q182.9 232.2 183.1 232.2Q183.3 232.2 183.4 232.4Q183.5 232.5 183.5 232.7Q183.5 232.8 183.4 232.9Q183.3 233.1 183.1 233.1Q182.9 233.1 182.8 232.9Q182.7 232.8 182.7 232.7M184.6 233.8L185.3 233.8L185.3 234.3Q185.8 233.7 186.6 233.7Q187.9 233.7 187.9 235.2L187.9 238L187.2 238L187.2 235.2Q187.2 234.7 187 234.5Q186.8 234.3 186.4 234.3Q186 234.3 185.7 234.5Q185.5 234.7 185.3 235L185.3 238L184.6 238L184.6 233.8M188.9 235.9Q188.9 234.9 189.3 234.3Q189.8 233.7 190.5 233.7Q191.3 233.7 191.7 234.2L191.8 233.8L192.4 233.8L192.4 237.9Q192.4 238.7 191.9 239.2Q191.4 239.7 190.6 239.7Q190.2 239.7 189.7 239.5Q189.3 239.3 189.1 238.9L189.4 238.5Q189.9 239.1 190.6 239.1Q191.1 239.1 191.4 238.8Q191.7 238.5 191.7 237.9L191.7 237.6Q191.3 238.1 190.5 238.1Q189.8 238.1 189.3 237.5Q188.9 236.9 188.9 235.9M189.6 235.9Q189.6 236.6 189.9 237.1Q190.2 237.5 190.7 237.5Q191.4 237.5 191.7 236.8L191.7 234.9Q191.4 234.3 190.7 234.3Q190.2 234.3 189.9 234.7Q189.6 235.1 189.6 235.9M197.5 233.8L197.5 234.4Q197.4 234.4 197.2 234.4Q196.5 234.4 196.2 235L196.2 238L195.5 238L195.5 233.8L196.2 233.8L196.2 234.3Q196.6 233.7 197.2 233.7Q197.4 233.7 197.5 233.8M197.9 235.9L197.9 235.8Q197.9 235.2 198.2 234.7Q198.4 234.2 198.9 234Q199.3 233.7 199.8 233.7Q200.7 233.7 201.2 234.3Q201.8 234.9 201.8 235.9L201.8 235.9Q201.8 236.6 201.5 237Q201.3 237.5 200.9 237.8Q200.4 238.1 199.9 238.1Q199 238.1 198.5 237.5Q197.9 236.9 197.9 235.9M198.7 235.9Q198.7 236.6 199 237.1Q199.3 237.5 199.9 237.5Q200.4 237.5 200.7 237.1Q201.1 236.6 201.1 235.8Q201.1 235.2 200.7 234.7Q200.4 234.3 199.8 234.3Q199.3 234.3 199 234.7Q198.7 235.1 198.7 235.9M202.5 235.9L202.5 235.8Q202.5 235.2 202.7 234.7Q203 234.2 203.4 234Q203.9 233.7 204.4 233.7Q205.3 233.7 205.8 234.3Q206.3 234.9 206.3 235.9L206.3 235.9Q206.3 236.6 206.1 237Q205.9 237.5 205.4 237.8Q205 238.1 204.4 238.1Q203.6 238.1 203 237.5Q202.5 236.9 202.5 235.9M203.2 235.9Q203.2 236.6 203.5 237.1Q203.9 237.5 204.4 237.5Q205 237.5 205.3 237.1Q205.6 236.6 205.6 235.8Q205.6 235.2 205.3 234.7Q205 234.3 204.4 234.3Q203.9 234.3 203.5 234.7Q203.2 235.1 203.2 235.9M207.2 233.8L207.9 233.8L207.9 234.2Q208.4 233.7 209.2 233.7Q210.1 233.7 210.4 234.4Q210.6 234.1 211 233.9Q211.3 233.7 211.8 233.7Q213.1 233.7 213.2 235.2L213.2 238L212.4 238L212.4 235.2Q212.4 234.8 212.2 234.5Q212 234.3 211.5 234.3Q211.1 234.3 210.9 234.5Q210.6 234.8 210.6 235.2L210.6 238L209.8 238L209.8 235.2Q209.8 234.3 208.9 234.3Q208.2 234.3 208 234.9L208 238L207.2 238" class="zone-room"></path>
                  
            <!--?lit$997511696$-->
          </g>
        <!----><!---->
          <g class="meta-target">
            <!--?lit$997511696$--><title><!---->Bathroom · L0<!----></title>
            <line stroke-width="0.8" x1="114" y1="261" x2="132" y2="261" stroke="#3182ce"></line>
            <!--?lit$997511696$-->
                    <rect x="132" y="254" width="20" height="12" fill="#38a169" rx="3"></rect>
                    <path d="M139.5 255L139.5 259.3L141.7 259.3L141.7 260L138.6 260L138.6 255L139.5 255M145.5 257L145.5 257.9Q145.5 259 145.1 259.5Q144.7 260.1 143.9 260.1Q143.1 260.1 142.7 259.5Q142.3 259 142.3 258L142.3 257.1Q142.3 256 142.7 255.5Q143.1 255 143.9 255Q144.7 255 145.1 255.5Q145.5 256 145.5 257M144.7 258.1L144.7 257Q144.7 256.3 144.5 255.9Q144.3 255.6 143.9 255.6Q143.5 255.6 143.3 255.9Q143.1 256.2 143.1 256.9L143.1 258Q143.1 258.7 143.3 259.1Q143.5 259.4 143.9 259.4Q144.3 259.4 144.5 259.1Q144.7 258.8 144.7 258.1" fill="white"></path>
                  
            <svg x="156" y="255" width="12" height="12" viewBox="0 0 24 24"><path d="M12,2A7,7 0 0,1 19,9C19,11.38 17.81,13.47 16,14.74V17A1,1 0 0,1 15,18H9A1,1 0 0,1 8,17V14.74C6.19,13.47 5,11.38 5,9A7,7 0 0,1 12,2M9,21V20H15V21A1,1 0 0,1 14,22H10A1,1 0 0,1 9,21M12,4A5,5 0 0,0 7,9C7,11.05 8.23,12.81 10,13.58V16H14V13.58C15.77,12.81 17,11.05 17,9A5,5 0 0,0 12,4Z" fill="var(--secondary-text-color, #718096)"></path></svg>
            <!--?lit$997511696$-->
                    <path d="M174.6 260L172.7 260L172.7 254.3L174.5 254.3Q175.4 254.3 175.9 254.7Q176.4 255.1 176.4 255.8Q176.4 256.2 176.2 256.5Q175.9 256.8 175.5 257Q176 257.1 176.3 257.5Q176.5 257.9 176.5 258.4Q176.5 259.1 176 259.6Q175.5 260 174.6 260M174.7 257.3L173.4 257.3L173.4 259.4L174.6 259.4Q175.2 259.4 175.5 259.1Q175.8 258.8 175.8 258.4Q175.8 257.3 174.7 257.3M173.4 254.9L173.4 256.7L174.5 256.7Q175 256.7 175.3 256.5Q175.6 256.2 175.6 255.8Q175.6 255.4 175.4 255.1Q175.1 254.9 174.5 254.9L173.4 254.9M180.9 260L180.1 260Q180.1 259.9 180 259.6Q179.5 260.1 178.8 260.1Q178.2 260.1 177.8 259.7Q177.4 259.4 177.4 258.8Q177.4 258.2 177.9 257.8Q178.4 257.4 179.3 257.4L180 257.4L180 257.1Q180 256.7 179.8 256.5Q179.6 256.3 179.1 256.3Q178.7 256.3 178.5 256.5Q178.2 256.7 178.2 256.9L177.5 256.9Q177.5 256.6 177.7 256.3Q177.9 256 178.3 255.9Q178.7 255.7 179.2 255.7Q179.9 255.7 180.3 256.1Q180.7 256.4 180.7 257.1L180.7 259Q180.7 259.6 180.9 259.9L180.9 260M178.9 259.4Q179.3 259.4 179.6 259.3Q179.9 259.1 180 258.8L180 257.9L179.5 257.9Q178.1 257.9 178.1 258.7Q178.1 259.1 178.4 259.3Q178.6 259.4 178.9 259.4M182.1 254.8L182.9 254.8L182.9 255.8L183.6 255.8L183.6 256.3L182.9 256.3L182.9 259Q182.9 259.2 183 259.3Q183.1 259.5 183.3 259.5Q183.4 259.5 183.7 259.4L183.7 260Q183.4 260.1 183.1 260.1Q182.6 260.1 182.4 259.8Q182.1 259.5 182.1 259L182.1 256.3L181.4 256.3L181.4 255.8L182.1 255.8L182.1 254.8M185.2 254L185.2 256.3Q185.7 255.7 186.5 255.7Q187.8 255.7 187.8 257.2L187.8 260L187.1 260L187.1 257.2Q187.1 256.7 186.9 256.5Q186.7 256.3 186.2 256.3Q185.9 256.3 185.6 256.5Q185.4 256.7 185.2 257L185.2 260L184.5 260L184.5 254L185.2 254M190.9 255.8L190.9 256.4Q190.8 256.4 190.6 256.4Q189.9 256.4 189.6 257L189.6 260L188.9 260L188.9 255.8L189.6 255.8L189.6 256.3Q190 255.7 190.6 255.7Q190.8 255.7 190.9 255.8M191.3 257.9L191.3 257.8Q191.3 257.2 191.6 256.7Q191.8 256.2 192.3 256Q192.7 255.7 193.3 255.7Q194.1 255.7 194.7 256.3Q195.2 256.9 195.2 257.9L195.2 257.9Q195.2 258.6 194.9 259Q194.7 259.5 194.3 259.8Q193.8 260.1 193.3 260.1Q192.4 260.1 191.9 259.5Q191.3 258.9 191.3 257.9M192.1 257.9Q192.1 258.6 192.4 259.1Q192.7 259.5 193.3 259.5Q193.8 259.5 194.1 259.1Q194.5 258.6 194.5 257.8Q194.5 257.2 194.1 256.7Q193.8 256.3 193.3 256.3Q192.7 256.3 192.4 256.7Q192.1 257.1 192.1 257.9M195.9 257.9L195.9 257.8Q195.9 257.2 196.1 256.7Q196.4 256.2 196.8 256Q197.3 255.7 197.8 255.7Q198.7 255.7 199.2 256.3Q199.7 256.9 199.7 257.9L199.7 257.9Q199.7 258.6 199.5 259Q199.3 259.5 198.8 259.8Q198.4 260.1 197.8 260.1Q197 260.1 196.4 259.5Q195.9 258.9 195.9 257.9M196.6 257.9Q196.6 258.6 197 259.1Q197.3 259.5 197.8 259.5Q198.4 259.5 198.7 259.1Q199 258.6 199 257.8Q199 257.2 198.7 256.7Q198.4 256.3 197.8 256.3Q197.3 256.3 197 256.7Q196.6 257.1 196.6 257.9M200.6 255.8L201.3 255.8L201.4 256.2Q201.8 255.7 202.6 255.7Q203.5 255.7 203.8 256.4Q204 256.1 204.4 255.9Q204.7 255.7 205.2 255.7Q206.6 255.7 206.6 257.2L206.6 260L205.9 260L205.9 257.2Q205.9 256.8 205.6 256.5Q205.4 256.3 204.9 256.3Q204.5 256.3 204.3 256.5Q204 256.8 204 257.2L204 260L203.2 260L203.2 257.2Q203.2 256.3 202.3 256.3Q201.6 256.3 201.4 256.9L201.4 260L200.6 260" class="zone-room"></path>
                  
            <!--?lit$997511696$-->
          </g>
        <!----><!---->
          <g class="meta-target">
            <!--?lit$997511696$--><title><!---->Bedroom · L1<!----></title>
            <line stroke-width="0.8" x1="114" y1="283" x2="132" y2="283" stroke="#3182ce"></line>
            <!--?lit$997511696$-->
                    <rect x="132" y="276" width="20" height="12" fill="#3182ce" rx="3"></rect>
                    <path d="M139.5 277L139.5 281.3L141.7 281.3L141.7 282L138.6 282L138.6 277L139.5 277M144.5 277L144.5 282L143.7 282L143.7 278L142.5 278.4L142.5 277.7L144.4 277" fill="white"></path>
                  
            <svg x="156" y="277" width="12" height="12" viewBox="0 0 24 24"><path d="M12,2A7,7 0 0,1 19,9C19,11.38 17.81,13.47 16,14.74V17A1,1 0 0,1 15,18H9A1,1 0 0,1 8,17V14.74C6.19,13.47 5,11.38 5,9A7,7 0 0,1 12,2M9,21V20H15V21A1,1 0 0,1 14,22H10A1,1 0 0,1 9,21M12,4A5,5 0 0,0 7,9C7,11.05 8.23,12.81 10,13.58V16H14V13.58C15.77,12.81 17,11.05 17,9A5,5 0 0,0 12,4Z" fill="var(--secondary-text-color, #718096)"></path></svg>
            <!--?lit$997511696$-->
                    <path d="M174.6 282L172.7 282L172.7 276.3L174.5 276.3Q175.4 276.3 175.9 276.7Q176.4 277.1 176.4 277.8Q176.4 278.2 176.2 278.5Q175.9 278.8 175.5 279Q176 279.1 176.3 279.5Q176.5 279.9 176.5 280.4Q176.5 281.1 176 281.6Q175.5 282 174.6 282M174.7 279.3L173.4 279.3L173.4 281.4L174.6 281.4Q175.2 281.4 175.5 281.1Q175.8 280.8 175.8 280.4Q175.8 279.3 174.7 279.3M173.4 276.9L173.4 278.7L174.5 278.7Q175 278.7 175.3 278.5Q175.6 278.2 175.6 277.8Q175.6 277.4 175.4 277.1Q175.1 276.9 174.5 276.9L173.4 276.9M179.3 282.1Q178.4 282.1 177.9 281.5Q177.3 280.9 177.3 280L177.3 279.9Q177.3 279.2 177.6 278.7Q177.8 278.3 178.3 278Q178.7 277.7 179.2 277.7Q180 277.7 180.5 278.2Q180.9 278.8 180.9 279.8L180.9 280.1L178.1 280.1Q178.1 280.7 178.4 281.1Q178.8 281.5 179.3 281.5Q179.7 281.5 180 281.3Q180.2 281.2 180.4 280.9L180.9 281.3Q180.3 282.1 179.3 282.1M179.2 278.3Q178.8 278.3 178.5 278.6Q178.2 278.9 178.1 279.5L180.2 279.5L180.2 279.4Q180.2 278.9 179.9 278.6Q179.6 278.3 179.2 278.3M181.6 279.9L181.6 279.9Q181.6 278.9 182.1 278.3Q182.5 277.7 183.3 277.7Q184 277.7 184.4 278.2L184.4 276L185.2 276L185.2 282L184.5 282L184.5 281.5Q184 282.1 183.3 282.1Q182.5 282.1 182.1 281.5Q181.6 280.9 181.6 279.9M182.3 279.9Q182.3 280.7 182.6 281.1Q182.9 281.5 183.4 281.5Q184.1 281.5 184.4 280.8L184.4 278.9Q184.1 278.3 183.4 278.3Q182.9 278.3 182.6 278.7Q182.3 279.1 182.3 279.9M188.3 277.8L188.3 278.4Q188.2 278.4 188 278.4Q187.3 278.4 187 279L187 282L186.3 282L186.3 277.8L187 277.8L187 278.3Q187.3 277.7 188 277.7Q188.2 277.7 188.3 277.8M188.7 279.9L188.7 279.8Q188.7 279.2 189 278.7Q189.2 278.2 189.6 278Q190.1 277.7 190.6 277.7Q191.5 277.7 192 278.3Q192.6 278.9 192.6 279.9L192.6 279.9Q192.6 280.6 192.3 281Q192.1 281.5 191.7 281.8Q191.2 282.1 190.6 282.1Q189.8 282.1 189.2 281.5Q188.7 280.9 188.7 279.9M189.4 279.9Q189.4 280.6 189.8 281.1Q190.1 281.5 190.6 281.5Q191.2 281.5 191.5 281.1Q191.8 280.6 191.8 279.8Q191.8 279.2 191.5 278.7Q191.2 278.3 190.6 278.3Q190.1 278.3 189.8 278.7Q189.4 279.1 189.4 279.9M193.3 279.9L193.3 279.8Q193.3 279.2 193.5 278.7Q193.8 278.2 194.2 278Q194.6 277.7 195.2 277.7Q196.1 277.7 196.6 278.3Q197.1 278.9 197.1 279.9L197.1 279.9Q197.1 280.6 196.9 281Q196.7 281.5 196.2 281.8Q195.8 282.1 195.2 282.1Q194.3 282.1 193.8 281.5Q193.3 280.9 193.3 279.9M194 279.9Q194 280.6 194.3 281.1Q194.7 281.5 195.2 281.5Q195.8 281.5 196.1 281.1Q196.4 280.6 196.4 279.8Q196.4 279.2 196.1 278.7Q195.7 278.3 195.2 278.3Q194.7 278.3 194.3 278.7Q194 279.1 194 279.9M198 277.8L198.7 277.8L198.7 278.2Q199.2 277.7 200 277.7Q200.9 277.7 201.2 278.4Q201.4 278.1 201.7 277.9Q202.1 277.7 202.5 277.7Q203.9 277.7 204 279.2L204 282L203.2 282L203.2 279.2Q203.2 278.8 203 278.5Q202.8 278.3 202.3 278.3Q201.9 278.3 201.7 278.5Q201.4 278.8 201.4 279.2L201.4 282L200.6 282L200.6 279.2Q200.6 278.3 199.7 278.3Q199 278.3 198.8 278.9L198.8 282L198 282" class="zone-room"></path>
                  
            <!--?lit$997511696$-->
          </g>
        <!----><!---->
          <g class="meta-target">
            <!--?lit$997511696$--><title><!---->Hallway · L1<!----></title>
            <line stroke-width="0.8" x1="114" y1="305" x2="132" y2="305" stroke="#3182ce"></line>
            <!--?lit$997511696$-->
                    <rect x="132" y="298" width="20" height="12" fill="#3182ce" rx="3"></rect>
                    <path d="M139.5 299L139.5 303.3L141.7 303.3L141.7 304L138.6 304L138.6 299L139.5 299M144.5 299L144.5 304L143.7 304L143.7 300L142.5 300.4L142.5 299.7L144.4 299" fill="white"></path>
                  
            <svg x="156" y="299" width="12" height="12" viewBox="0 0 24 24"><path d="M12,2A7,7 0 0,1 19,9C19,11.38 17.81,13.47 16,14.74V17A1,1 0 0,1 15,18H9A1,1 0 0,1 8,17V14.74C6.19,13.47 5,11.38 5,9A7,7 0 0,1 12,2M9,21V20H15V21A1,1 0 0,1 14,22H10A1,1 0 0,1 9,21M12,4A5,5 0 0,0 7,9C7,11.05 8.23,12.81 10,13.58V16H14V13.58C15.77,12.81 17,11.05 17,9A5,5 0 0,0 12,4Z" fill="var(--secondary-text-color, #718096)"></path></svg>
            <!--?lit$997511696$-->
                    <path d="M177 298.3L177 304L176.3 304L176.3 301.4L173.4 301.4L173.4 304L172.7 304L172.7 298.3L173.4 298.3L173.4 300.8L176.3 300.8L176.3 298.3L177 298.3M181.6 304L180.9 304Q180.8 303.9 180.8 303.6Q180.3 304.1 179.6 304.1Q178.9 304.1 178.5 303.7Q178.1 303.4 178.1 302.8Q178.1 302.2 178.6 301.8Q179.1 301.4 180 301.4L180.7 301.4L180.7 301.1Q180.7 300.7 180.5 300.5Q180.3 300.3 179.9 300.3Q179.5 300.3 179.2 300.5Q178.9 300.7 178.9 300.9L178.2 300.9Q178.2 300.6 178.4 300.3Q178.7 300 179 299.9Q179.4 299.7 179.9 299.7Q180.6 299.7 181 300.1Q181.5 300.4 181.5 301.1L181.5 303Q181.5 303.6 181.6 303.9L181.6 304M179.7 303.4Q180 303.4 180.3 303.3Q180.6 303.1 180.7 302.8L180.7 301.9L180.2 301.9Q178.9 301.9 178.9 302.7Q178.9 303.1 179.1 303.3Q179.3 303.4 179.7 303.4M183.4 298L183.4 304L182.7 304L182.7 298L183.4 298M185.3 298L185.3 304L184.6 304L184.6 298L185.3 298M189.2 299.8L190.2 303L191 299.8L191.8 299.8L190.5 304L189.9 304L188.9 300.8L187.9 304L187.3 304L186.1 299.8L186.8 299.8L187.7 302.9L188.6 299.8L189.2 299.8M195.9 304L195.1 304Q195 303.9 195 303.6Q194.5 304.1 193.8 304.1Q193.2 304.1 192.8 303.7Q192.4 303.4 192.4 302.8Q192.4 302.2 192.9 301.8Q193.4 301.4 194.3 301.4L195 301.4L195 301.1Q195 300.7 194.8 300.5Q194.5 300.3 194.1 300.3Q193.7 300.3 193.4 300.5Q193.2 300.7 193.2 300.9L192.5 300.9Q192.5 300.6 192.7 300.3Q192.9 300 193.3 299.9Q193.7 299.7 194.1 299.7Q194.9 299.7 195.3 300.1Q195.7 300.4 195.7 301.1L195.7 303Q195.7 303.6 195.9 303.9L195.9 304M193.9 303.4Q194.2 303.4 194.6 303.3Q194.9 303.1 195 302.8L195 301.9L194.4 301.9Q193.1 301.9 193.1 302.7Q193.1 303.1 193.3 303.3Q193.6 303.4 193.9 303.4M197.1 299.8L198.2 302.9L199.2 299.8L199.9 299.8L198.2 304.7Q197.8 305.7 197 305.7L196.8 305.7L196.6 305.6L196.6 305.1L196.8 305.1Q197.1 305.1 197.3 304.9Q197.5 304.8 197.7 304.4L197.8 304L196.3 299.8" class="zone-room"></path>
                  
            <!--?lit$997511696$-->
          </g>
        <!---->
    <!----><!---->
      <line stroke-width="3" x1="82" y1="326" x2="104" y2="326" stroke="#3182ce"></line>
      <!--?lit$997511696$--><line stroke-width="1.5" x1="114" y1="336" x2="114" y2="347" stroke="#3182ce"></line>
      <g class="meta-target">
        <!--?lit$997511696$--><title><!---->16 A · 2P · 2.5 mm²<!----></title>
        <rect stroke-width="1.8" rx="2" x="104" y="316" width="20" height="20" fill="color-mix(in srgb, #3182ce 18%, var(--ha-card-background, var(--card-background-color, white)))" stroke="#3182ce"></rect>
        <path d="M115.5 327.9L116.6 327.9Q116.5 328.9 115.8 329.5Q115.2 330.1 114.1 330.1Q113.3 330.1 112.7 329.7Q112.2 329.4 111.8 328.7Q111.5 328 111.5 327.1L111.5 326.5Q111.5 325.6 111.8 325Q112.2 324.3 112.8 323.9Q113.4 323.5 114.1 323.5Q115.2 323.5 115.8 324.1Q116.5 324.7 116.6 325.7L115.5 325.7Q115.4 325 115.1 324.7Q114.8 324.4 114.1 324.4Q113.4 324.4 113 324.9Q112.6 325.5 112.6 326.5L112.6 327.1Q112.6 328.1 113 328.6Q113.4 329.2 114.1 329.2Q114.7 329.2 115.1 328.9Q115.4 328.6 115.5 327.9" fill="#3182ce"></path>
      </g>
      <!--?lit$997511696$-->

      <!--?lit$997511696$--><!---->
          <g class="meta-target">
            <!--?lit$997511696$--><title><!---->Bedroom · L1<!----></title>
            <line stroke-width="0.8" x1="114" y1="347" x2="132" y2="347" stroke="#3182ce"></line>
            <!--?lit$997511696$-->
                    <rect x="132" y="340" width="20" height="12" fill="#3182ce" rx="3"></rect>
                    <path d="M139.5 341L139.5 345.3L141.7 345.3L141.7 346L138.6 346L138.6 341L139.5 341M144.5 341L144.5 346L143.7 346L143.7 342L142.5 342.4L142.5 341.7L144.4 341" fill="white"></path>
                  
            <svg x="156" y="341" width="12" height="12" viewBox="0 0 24 24"><path d="M7.5,10.5A1.5,1.5 0 0,1 9,12A1.5,1.5 0 0,1 7.5,13.5C6.66,13.5 6,12.83 6,12A1.5,1.5 0 0,1 7.5,10.5M16.5,10.5A1.5,1.5 0 0,1 18,12A1.5,1.5 0 0,1 16.5,13.5A1.5,1.5 0 0,1 15,12A1.5,1.5 0 0,1 16.5,10.5M4.22,2H19.78C21,2 22,3 22,4.22V19.78A2.22,2.22 0 0,1 19.78,22H4.22C3,22 2,21 2,19.78V4.22A2.22,2.22 0 0,1 4.22,2M12,4A8,8 0 0,0 4,12A8,8 0 0,0 12,20A8,8 0 0,0 20,12A8,8 0 0,0 12,4Z" fill="var(--secondary-text-color, #718096)"></path></svg>
            <!--?lit$997511696$-->
                    <path d="M174.6 346L172.7 346L172.7 340.3L174.5 340.3Q175.4 340.3 175.9 340.7Q176.4 341.1 176.4 341.8Q176.4 342.2 176.2 342.5Q175.9 342.8 175.5 343Q176 343.1 176.3 343.5Q176.5 343.9 176.5 344.4Q176.5 345.1 176 345.6Q175.5 346 174.6 346M174.7 343.3L173.4 343.3L173.4 345.4L174.6 345.4Q175.2 345.4 175.5 345.1Q175.8 344.8 175.8 344.4Q175.8 343.3 174.7 343.3M173.4 340.9L173.4 342.7L174.5 342.7Q175 342.7 175.3 342.5Q175.6 342.2 175.6 341.8Q175.6 341.4 175.4 341.1Q175.1 340.9 174.5 340.9L173.4 340.9M179.3 346.1Q178.4 346.1 177.9 345.5Q177.3 344.9 177.3 344L177.3 343.9Q177.3 343.2 177.6 342.7Q177.8 342.3 178.3 342Q178.7 341.7 179.2 341.7Q180 341.7 180.5 342.2Q180.9 342.8 180.9 343.8L180.9 344.1L178.1 344.1Q178.1 344.7 178.4 345.1Q178.8 345.5 179.3 345.5Q179.7 345.5 180 345.3Q180.2 345.2 180.4 344.9L180.9 345.3Q180.3 346.1 179.3 346.1M179.2 342.3Q178.8 342.3 178.5 342.6Q178.2 342.9 178.1 343.5L180.2 343.5L180.2 343.4Q180.2 342.9 179.9 342.6Q179.6 342.3 179.2 342.3M181.6 343.9L181.6 343.9Q181.6 342.9 182.1 342.3Q182.5 341.7 183.3 341.7Q184 341.7 184.4 342.2L184.4 340L185.2 340L185.2 346L184.5 346L184.5 345.5Q184 346.1 183.3 346.1Q182.5 346.1 182.1 345.5Q181.6 344.9 181.6 343.9M182.3 343.9Q182.3 344.7 182.6 345.1Q182.9 345.5 183.4 345.5Q184.1 345.5 184.4 344.8L184.4 342.9Q184.1 342.3 183.4 342.3Q182.9 342.3 182.6 342.7Q182.3 343.1 182.3 343.9M188.3 341.8L188.3 342.4Q188.2 342.4 188 342.4Q187.3 342.4 187 343L187 346L186.3 346L186.3 341.8L187 341.8L187 342.3Q187.3 341.7 188 341.7Q188.2 341.7 188.3 341.8M188.7 343.9L188.7 343.8Q188.7 343.2 189 342.7Q189.2 342.2 189.6 342Q190.1 341.7 190.6 341.7Q191.5 341.7 192 342.3Q192.6 342.9 192.6 343.9L192.6 343.9Q192.6 344.6 192.3 345Q192.1 345.5 191.7 345.8Q191.2 346.1 190.6 346.1Q189.8 346.1 189.2 345.5Q188.7 344.9 188.7 343.9M189.4 343.9Q189.4 344.6 189.8 345.1Q190.1 345.5 190.6 345.5Q191.2 345.5 191.5 345.1Q191.8 344.6 191.8 343.8Q191.8 343.2 191.5 342.7Q191.2 342.3 190.6 342.3Q190.1 342.3 189.8 342.7Q189.4 343.1 189.4 343.9M193.3 343.9L193.3 343.8Q193.3 343.2 193.5 342.7Q193.8 342.2 194.2 342Q194.6 341.7 195.2 341.7Q196.1 341.7 196.6 342.3Q197.1 342.9 197.1 343.9L197.1 343.9Q197.1 344.6 196.9 345Q196.7 345.5 196.2 345.8Q195.8 346.1 195.2 346.1Q194.3 346.1 193.8 345.5Q193.3 344.9 193.3 343.9M194 343.9Q194 344.6 194.3 345.1Q194.7 345.5 195.2 345.5Q195.8 345.5 196.1 345.1Q196.4 344.6 196.4 343.8Q196.4 343.2 196.1 342.7Q195.7 342.3 195.2 342.3Q194.7 342.3 194.3 342.7Q194 343.1 194 343.9M198 341.8L198.7 341.8L198.7 342.2Q199.2 341.7 200 341.7Q200.9 341.7 201.2 342.4Q201.4 342.1 201.7 341.9Q202.1 341.7 202.5 341.7Q203.9 341.7 204 343.2L204 346L203.2 346L203.2 343.2Q203.2 342.8 203 342.5Q202.8 342.3 202.3 342.3Q201.9 342.3 201.7 342.5Q201.4 342.8 201.4 343.2L201.4 346L200.6 346L200.6 343.2Q200.6 342.3 199.7 342.3Q199 342.3 198.8 342.9L198.8 346L198 346" class="zone-room"></path>
                  
            <!--?lit$997511696$-->
      <!--?lit$997511696$--><line class="bubble-conn" visibility="visible" data-ln-for="z-C-0" x1="270" y1="347.75" x2="323.7451171875" y2="347.75"></line>
      <rect class="bubble-bg" width="51.2548828125" height="13.5" rx="3" visibility="visible" data-bg-for="z-C-0" x="323.7451171875" y="341"></rect>
      <path d="M332.2 344.7L332.2 348.1L332.8 348.1L332.8 348.8L332.2 348.8L332.2 350L331.3 350L331.3 348.8L329 348.8L328.9 348.3L331.2 344.7L332.2 344.7M331.2 346L329.9 348.1L331.3 348.1L331.3 345.9L331.2 346M334.4 347.5L333.6 347.4L333.9 344.7L336.8 344.7L336.8 345.4L334.7 345.4L334.5 346.7Q334.9 346.5 335.4 346.5Q336.1 346.5 336.5 347Q337 347.5 337 348.3Q337 349.1 336.5 349.6Q336 350.1 335.2 350.1Q334.5 350.1 334 349.7Q333.5 349.2 333.5 348.6L334.3 348.6Q334.4 348.9 334.6 349.2Q334.8 349.4 335.2 349.4Q335.6 349.4 335.9 349.1Q336.1 348.8 336.1 348.3Q336.1 347.8 335.8 347.5Q335.6 347.2 335.1 347.2Q334.9 347.2 334.7 347.3Q334.6 347.3 334.4 347.5M340.1 344.6L340.1 350L339.2 350L339.2 345.7L337.9 346.2L337.9 345.4L340 344.6L340.1 344.6M347.1 344.7L348.1 348.7L348.9 344.7L349.9 344.7L348.6 350L347.7 350L346.7 346.1L345.7 350L344.8 350L343.6 344.7L344.5 344.7L345.3 348.7L346.3 344.7" class="pwr-value" fill="var(--primary-text-color)"></path>
      <!--?lit$997511696$-->
      <!--?lit$997511696$-->
              <rect style="cursor:pointer" data-toggle-for="z-C-0" x="354" y="343" width="14" height="8" fill="#a0aec0" rx="4"></rect>
              <circle fill="white" style="pointer-events:none" cx="358.5" cy="347" r="3"></circle>
              <rect fill="transparent" style="cursor:pointer" x="351" y="339" width="20" height="16"></rect>
            
    
          </g>
        <!---->
    <!---->
    <!----><!---->
      <!--?lit$997511696$--><!----><circle r="3.5" cx="48" cy="388" fill="var(--energy-solar-color, #d97706)"></circle><!---->
      <!--?lit$997511696$--><line stroke-width="2" x1="48" y1="388" x2="70" y2="388" stroke="var(--energy-solar-color, #d97706)"></line>

      <g class="meta-target">
        <!--?lit$997511696$--><title><!---->L1<!----></title>
        <rect stroke-width="1.8" rx="2" x="70" y="376" width="24" height="24" fill="color-mix(in srgb, var(--energy-solar-color, #d97706) 18%, var(--ha-card-background, var(--card-background-color, white)))" stroke="var(--energy-solar-color, #d97706)"></rect>
        <path d="M79.3 389.6L78 389.6L78 392L76.9 392L76.9 385.6L79.3 385.6Q80.4 385.6 81 386.2Q81.6 386.7 81.6 387.6Q81.6 388.6 81 389.1Q80.4 389.6 79.3 389.6M78 386.5L78 388.7L79.3 388.7Q79.9 388.7 80.2 388.5Q80.5 388.2 80.5 387.6Q80.5 387.1 80.2 386.8Q79.9 386.5 79.3 386.5L78 386.5M83.3 385.6L84.9 390.6L86.5 385.6L87.7 385.6L85.4 392L84.3 392L82 385.6" fill="var(--energy-solar-color, #d97706)"></path>
      </g>

      <!--?lit$997511696$-->
      <!--?lit$997511696$--><line class="bubble-conn" visibility="visible" data-ln-for="g-PV" x1="94" y1="388.75" x2="317.7685546875" y2="388.75"></line>
      <rect class="bubble-bg" width="37.2314453125" height="13.5" rx="3" visibility="visible" data-bg-for="g-PV" x="317.7685546875" y="382"></rect>
      <path d="M326.5 388L326.5 388.7L323.3 388.7L323.3 388L326.5 388M329.8 385.6L329.8 391L328.9 391L328.9 386.7L327.6 387.2L327.6 386.4L329.7 385.6L329.8 385.6M332.3 390.1Q332.5 390.1 332.7 390.2Q332.8 390.3 332.8 390.6Q332.8 390.8 332.7 390.9Q332.5 391 332.3 391Q332 391 331.9 390.9Q331.8 390.8 331.8 390.6Q331.8 390.3 331.9 390.2Q332 390.1 332.3 390.1M337.3 390.3L337.3 391L333.8 391L333.8 390.4L335.5 388.5Q335.9 388 336.1 387.7Q336.2 387.4 336.2 387.2Q336.2 386.8 336 386.5Q335.8 386.3 335.5 386.3Q335 386.3 334.8 386.6Q334.5 386.8 334.5 387.3L333.7 387.3Q333.7 386.8 333.9 386.4Q334.1 386 334.5 385.8Q334.9 385.6 335.5 385.6Q336.2 385.6 336.7 386Q337.1 386.4 337.1 387.1Q337.1 387.5 336.9 387.9Q336.7 388.3 336.2 388.9L334.9 390.3L337.3 390.3M342.4 391L341.2 389.3L340.8 389.7L340.8 391L339.9 391L339.9 385.4L340.8 385.4L340.8 388.6L341.1 388.3L342.2 387L343.3 387L341.8 388.7L343.4 391L342.4 391M347.1 385.7L348.1 389.7L348.9 385.7L349.9 385.7L348.6 391L347.7 391L346.7 387.1L345.7 391L344.8 391L343.6 385.7L344.5 385.7L345.3 389.7L346.3 385.7" class="pwr-value" fill="var(--energy-solar-color, #d97706)"></path>
      <!--?lit$997511696$-->
      <!--?lit$997511696$-->
    

      <!--?lit$997511696$--><line stroke-width="3" x1="82" y1="400" x2="82" y2="416" stroke="var(--energy-solar-color, #d97706)"></line>

      <!--?lit$997511696$--><!---->
      <line stroke-width="3" x1="82" y1="416" x2="104" y2="416" stroke="var(--energy-solar-color, #d97706)"></line>
      <!--?lit$997511696$--><line stroke-width="1.5" x1="114" y1="426" x2="114" y2="459" stroke="var(--energy-solar-color, #d97706)"></line>
      <g class="meta-target">
        <!--?lit$997511696$-->
        <rect stroke-width="1.8" rx="2" x="104" y="406" width="20" height="20" fill="color-mix(in srgb, var(--energy-solar-color, #d97706) 18%, var(--ha-card-background, var(--card-background-color, white)))" stroke="var(--energy-solar-color, #d97706)"></rect>
        <path d="M108.4 413.6L108.4 420L107.3 420L107.3 413.6L108.4 413.6M114.9 413.6L114.9 420L113.8 420L110.9 415.5L110.9 420L109.8 420L109.8 413.6L110.9 413.6L113.8 418.2L113.8 413.6L114.9 413.6M116.8 413.6L118.5 418.6L120.1 413.6L121.3 413.6L119 420L117.9 420L115.6 413.6" fill="var(--energy-solar-color, #d97706)"></path>
      </g>
      <!--?lit$997511696$-->

      <!--?lit$997511696$--><!---->
          <g class="meta-target">
            <!--?lit$997511696$--><title><!---->Inverter #1 · TO<!----></title>
            <line stroke-width="0.8" x1="114" y1="437" x2="132" y2="437" stroke="var(--energy-solar-color, #d97706)"></line>
            <!--?lit$997511696$-->
                    <rect x="132" y="430" width="20" height="12" fill="#c2410c" rx="3"></rect>
                    <path d="M141.6 431L141.6 431.7L140.1 431.7L140.1 436L139.2 436L139.2 431.7L137.7 431.7L137.7 431L141.6 431M146.1 433.4L146.1 433.6Q146.1 434.4 145.9 434.9Q145.6 435.5 145.2 435.8Q144.7 436.1 144.1 436.1Q143.5 436.1 143 435.8Q142.5 435.5 142.3 434.9Q142 434.4 142 433.7L142 433.4Q142 432.7 142.3 432.1Q142.5 431.5 143 431.3Q143.5 431 144.1 431Q144.7 431 145.2 431.2Q145.6 431.5 145.9 432.1Q146.1 432.6 146.1 433.4M145.3 433.6L145.3 433.4Q145.3 432.6 145 432.1Q144.6 431.7 144.1 431.7Q143.5 431.7 143.2 432.1Q142.9 432.6 142.9 433.4L142.9 433.6Q142.9 434.5 143.2 434.9Q143.5 435.4 144.1 435.4Q144.7 435.4 145 434.9Q145.3 434.5 145.3 433.6" fill="white"></path>
                  
            <svg x="156" y="431" width="12" height="12" viewBox="0 0 24 24"><path d="M11.45,2V5.55L15,3.77L11.45,2M10.45,8L8,10.46L11.75,11.71L10.45,8M2,11.45L3.77,15L5.55,11.45H2M10,2H2V10C2.57,10.17 3.17,10.25 3.77,10.25C7.35,10.26 10.26,7.35 10.27,3.75C10.26,3.16 10.17,2.57 10,2M17,22V16H14L19,7V13H22L17,22Z" fill="var(--secondary-text-color, #718096)"></path></svg>
            <!--?lit$997511696$-->
                    <path d="M173.5 430.3L173.5 436L172.7 436L172.7 430.3L173.5 430.3M174.7 431.8L175.4 431.8L175.4 432.3Q175.9 431.7 176.7 431.7Q178 431.7 178 433.2L178 436L177.3 436L177.3 433.2Q177.3 432.7 177.1 432.5Q176.9 432.3 176.5 432.3Q176.1 432.3 175.9 432.5Q175.6 432.7 175.4 433L175.4 436L174.7 436L174.7 431.8M179.5 431.8L180.5 435L181.6 431.8L182.3 431.8L180.8 436L180.3 436L178.7 431.8L179.5 431.8M184.7 436.1Q183.9 436.1 183.3 435.5Q182.8 434.9 182.8 434L182.8 433.9Q182.8 433.2 183 432.7Q183.3 432.3 183.7 432Q184.1 431.7 184.6 431.7Q185.4 431.7 185.9 432.2Q186.4 432.8 186.4 433.8L186.4 434.1L183.5 434.1Q183.5 434.7 183.9 435.1Q184.2 435.5 184.8 435.5Q185.1 435.5 185.4 435.3Q185.7 435.2 185.9 434.9L186.3 435.3Q185.8 436.1 184.7 436.1M184.6 432.3Q184.2 432.3 183.9 432.6Q183.6 432.9 183.5 433.5L185.6 433.5L185.6 433.4Q185.6 432.9 185.3 432.6Q185.1 432.3 184.6 432.3M189.2 431.8L189.2 432.4Q189.1 432.4 188.9 432.4Q188.2 432.4 187.9 433L187.9 436L187.2 436L187.2 431.8L187.9 431.8L187.9 432.3Q188.3 431.7 188.9 431.7Q189.1 431.7 189.2 431.8M190.4 430.8L191.1 430.8L191.1 431.8L191.9 431.8L191.9 432.3L191.1 432.3L191.1 435Q191.1 435.2 191.2 435.3Q191.3 435.5 191.5 435.5Q191.7 435.5 191.9 435.4L191.9 436Q191.6 436.1 191.3 436.1Q190.9 436.1 190.6 435.8Q190.4 435.5 190.4 435L190.4 432.3L189.6 432.3L189.6 431.8L190.4 431.8L190.4 430.8M194.5 436.1Q193.6 436.1 193.1 435.5Q192.5 434.9 192.5 434L192.5 433.9Q192.5 433.2 192.8 432.7Q193 432.3 193.4 432Q193.9 431.7 194.4 431.7Q195.2 431.7 195.7 432.2Q196.1 432.8 196.1 433.8L196.1 434.1L193.3 434.1Q193.3 434.7 193.6 435.1Q194 435.5 194.5 435.5Q194.9 435.5 195.2 435.3Q195.4 435.2 195.6 434.9L196.1 435.3Q195.5 436.1 194.5 436.1M194.4 432.3Q193.9 432.3 193.6 432.6Q193.3 432.9 193.3 433.5L195.4 433.5L195.4 433.4Q195.4 432.9 195.1 432.6Q194.8 432.3 194.4 432.3M199 431.8L199 432.4Q198.8 432.4 198.6 432.4Q197.9 432.4 197.7 433L197.7 436L197 436L197 431.8L197.7 431.8L197.7 432.3Q198 431.7 198.7 431.7Q198.9 431.7 199 431.8M203.8 436L204.1 434.4L203.1 434.4L202.7 436L202.2 436L202.5 434.4L201.6 434.4L201.6 433.9L202.6 433.9L202.9 432.5L201.9 432.5L201.9 431.9L203 431.9L203.3 430.3L203.8 430.3L203.5 431.9L204.6 431.9L204.9 430.3L205.4 430.3L205.1 431.9L205.9 431.9L205.9 432.5L205 432.5L204.7 433.9L205.6 433.9L205.6 434.4L204.6 434.4L204.3 436L203.8 436M203.4 432.5L203.2 433.9L204.2 433.9L204.5 432.5L203.4 432.5M208.9 430.3L208.9 436L208.1 436L208.1 431.2L206.7 431.7L206.7 431.1L208.8 430.3" class="zone-room"></path>
                  
            <!--?lit$997511696$-->
      <!--?lit$997511696$--><line class="bubble-conn" visibility="visible" data-ln-for="z-INV-0" x1="270" y1="437.75" x2="317.7685546875" y2="437.75"></line>
      <rect class="bubble-bg" width="37.2314453125" height="13.5" rx="3" visibility="visible" data-bg-for="z-INV-0" x="317.7685546875" y="431"></rect>
      <path d="M326.5 437L326.5 437.7L323.3 437.7L323.3 437L326.5 437M329.8 434.6L329.8 440L328.9 440L328.9 435.7L327.6 436.2L327.6 435.4L329.7 434.6L329.8 434.6M332.3 439.1Q332.5 439.1 332.7 439.2Q332.8 439.3 332.8 439.6Q332.8 439.8 332.7 439.9Q332.5 440 332.3 440Q332 440 331.9 439.9Q331.8 439.8 331.8 439.6Q331.8 439.3 331.9 439.2Q332 439.1 332.3 439.1M334.8 437.6L334.8 436.9L335.3 436.9Q335.7 436.9 336 436.7Q336.2 436.5 336.2 436.1Q336.2 435.7 336 435.5Q335.8 435.3 335.4 435.3Q335 435.3 334.8 435.5Q334.6 435.7 334.6 436.1L333.7 436.1Q333.7 435.6 333.9 435.3Q334.1 435 334.5 434.8Q334.9 434.6 335.4 434.6Q336.2 434.6 336.6 435Q337.1 435.4 337.1 436.1Q337.1 436.5 336.9 436.8Q336.6 437.1 336.3 437.3Q336.7 437.4 337 437.7Q337.2 438.1 337.2 438.5Q337.2 439.2 336.7 439.6Q336.2 440.1 335.4 440.1Q334.6 440.1 334.1 439.7Q333.6 439.3 333.6 438.6L334.5 438.6Q334.5 438.9 334.8 439.1Q335 439.4 335.4 439.4Q335.8 439.4 336.1 439.1Q336.3 438.9 336.3 438.5Q336.3 438.1 336 437.9Q335.8 437.6 335.3 437.6L334.8 437.6M342.4 440L341.2 438.3L340.8 438.7L340.8 440L339.9 440L339.9 434.4L340.8 434.4L340.8 437.6L341.1 437.3L342.2 436L343.3 436L341.8 437.7L343.4 440L342.4 440M347.1 434.7L348.1 438.7L348.9 434.7L349.9 434.7L348.6 440L347.7 440L346.7 436.1L345.7 440L344.8 440L343.6 434.7L344.5 434.7L345.3 438.7L346.3 434.7" class="pwr-value" fill="var(--primary-text-color)"></path>
      <!--?lit$997511696$-->
      <!--?lit$997511696$-->
    
          </g>
        <!----><!---->
          <g class="meta-target">
            <!--?lit$997511696$--><title><!---->Inverter #2 · TO<!----></title>
            <line stroke-width="0.8" x1="114" y1="459" x2="132" y2="459" stroke="var(--energy-solar-color, #d97706)"></line>
            <!--?lit$997511696$-->
                    <rect x="132" y="452" width="20" height="12" fill="#c2410c" rx="3"></rect>
                    <path d="M141.6 453L141.6 453.7L140.1 453.7L140.1 458L139.2 458L139.2 453.7L137.7 453.7L137.7 453L141.6 453M146.1 455.4L146.1 455.6Q146.1 456.4 145.9 456.9Q145.6 457.5 145.2 457.8Q144.7 458.1 144.1 458.1Q143.5 458.1 143 457.8Q142.5 457.5 142.3 456.9Q142 456.4 142 455.7L142 455.4Q142 454.7 142.3 454.1Q142.5 453.5 143 453.3Q143.5 453 144.1 453Q144.7 453 145.2 453.2Q145.6 453.5 145.9 454.1Q146.1 454.6 146.1 455.4M145.3 455.6L145.3 455.4Q145.3 454.6 145 454.1Q144.6 453.7 144.1 453.7Q143.5 453.7 143.2 454.1Q142.9 454.6 142.9 455.4L142.9 455.6Q142.9 456.5 143.2 456.9Q143.5 457.4 144.1 457.4Q144.7 457.4 145 456.9Q145.3 456.5 145.3 455.6" fill="white"></path>
                  
            <svg x="156" y="453" width="12" height="12" viewBox="0 0 24 24"><path d="M11.45,2V5.55L15,3.77L11.45,2M10.45,8L8,10.46L11.75,11.71L10.45,8M2,11.45L3.77,15L5.55,11.45H2M10,2H2V10C2.57,10.17 3.17,10.25 3.77,10.25C7.35,10.26 10.26,7.35 10.27,3.75C10.26,3.16 10.17,2.57 10,2M17,22V16H14L19,7V13H22L17,22Z" fill="var(--secondary-text-color, #718096)"></path></svg>
            <!--?lit$997511696$-->
                    <path d="M173.5 452.3L173.5 458L172.7 458L172.7 452.3L173.5 452.3M174.7 453.8L175.4 453.8L175.4 454.3Q175.9 453.7 176.7 453.7Q178 453.7 178 455.2L178 458L177.3 458L177.3 455.2Q177.3 454.7 177.1 454.5Q176.9 454.3 176.5 454.3Q176.1 454.3 175.9 454.5Q175.6 454.7 175.4 455L175.4 458L174.7 458L174.7 453.8M179.5 453.8L180.5 457L181.6 453.8L182.3 453.8L180.8 458L180.3 458L178.7 453.8L179.5 453.8M184.7 458.1Q183.9 458.1 183.3 457.5Q182.8 456.9 182.8 456L182.8 455.9Q182.8 455.2 183 454.7Q183.3 454.3 183.7 454Q184.1 453.7 184.6 453.7Q185.4 453.7 185.9 454.2Q186.4 454.8 186.4 455.8L186.4 456.1L183.5 456.1Q183.5 456.7 183.9 457.1Q184.2 457.5 184.8 457.5Q185.1 457.5 185.4 457.3Q185.7 457.2 185.9 456.9L186.3 457.3Q185.8 458.1 184.7 458.1M184.6 454.3Q184.2 454.3 183.9 454.6Q183.6 454.9 183.5 455.5L185.6 455.5L185.6 455.4Q185.6 454.9 185.3 454.6Q185.1 454.3 184.6 454.3M189.2 453.8L189.2 454.4Q189.1 454.4 188.9 454.4Q188.2 454.4 187.9 455L187.9 458L187.2 458L187.2 453.8L187.9 453.8L187.9 454.3Q188.3 453.7 188.9 453.7Q189.1 453.7 189.2 453.8M190.4 452.8L191.1 452.8L191.1 453.8L191.9 453.8L191.9 454.3L191.1 454.3L191.1 457Q191.1 457.2 191.2 457.3Q191.3 457.5 191.5 457.5Q191.7 457.5 191.9 457.4L191.9 458Q191.6 458.1 191.3 458.1Q190.9 458.1 190.6 457.8Q190.4 457.5 190.4 457L190.4 454.3L189.6 454.3L189.6 453.8L190.4 453.8L190.4 452.8M194.5 458.1Q193.6 458.1 193.1 457.5Q192.5 456.9 192.5 456L192.5 455.9Q192.5 455.2 192.8 454.7Q193 454.3 193.4 454Q193.9 453.7 194.4 453.7Q195.2 453.7 195.7 454.2Q196.1 454.8 196.1 455.8L196.1 456.1L193.3 456.1Q193.3 456.7 193.6 457.1Q194 457.5 194.5 457.5Q194.9 457.5 195.2 457.3Q195.4 457.2 195.6 456.9L196.1 457.3Q195.5 458.1 194.5 458.1M194.4 454.3Q193.9 454.3 193.6 454.6Q193.3 454.9 193.3 455.5L195.4 455.5L195.4 455.4Q195.4 454.9 195.1 454.6Q194.8 454.3 194.4 454.3M199 453.8L199 454.4Q198.8 454.4 198.6 454.4Q197.9 454.4 197.7 455L197.7 458L197 458L197 453.8L197.7 453.8L197.7 454.3Q198 453.7 198.7 453.7Q198.9 453.7 199 453.8M203.8 458L204.1 456.4L203.1 456.4L202.7 458L202.2 458L202.5 456.4L201.6 456.4L201.6 455.9L202.6 455.9L202.9 454.5L201.9 454.5L201.9 453.9L203 453.9L203.3 452.3L203.8 452.3L203.5 453.9L204.6 453.9L204.9 452.3L205.4 452.3L205.1 453.9L205.9 453.9L205.9 454.5L205 454.5L204.7 455.9L205.6 455.9L205.6 456.4L204.6 456.4L204.3 458L203.8 458M203.4 454.5L203.2 455.9L204.2 455.9L204.5 454.5L203.4 454.5M210.2 457.4L210.2 458L206.5 458L206.5 457.5L208.5 455.3Q208.9 454.8 209.1 454.5Q209.2 454.2 209.2 453.8Q209.2 453.4 209 453.1Q208.7 452.8 208.2 452.8Q207.7 452.8 207.4 453.1Q207.1 453.4 207.1 454L206.4 454Q206.4 453.2 206.9 452.7Q207.4 452.2 208.2 452.2Q209 452.2 209.5 452.7Q210 453.1 210 453.8Q210 454.6 208.9 455.8L207.4 457.4" class="zone-room"></path>
                  
            <!--?lit$997511696$-->
      <!--?lit$997511696$--><line class="bubble-conn" visibility="visible" data-ln-for="z-INV-1" x1="270" y1="459.75" x2="317.7685546875" y2="459.75"></line>
      <rect class="bubble-bg" width="37.2314453125" height="13.5" rx="3" visibility="visible" data-bg-for="z-INV-1" x="317.7685546875" y="453"></rect>
      <path d="M326.5 459L326.5 459.7L323.3 459.7L323.3 459L326.5 459M329.8 456.6L329.8 462L328.9 462L328.9 457.7L327.6 458.2L327.6 457.4L329.7 456.6L329.8 456.6M332.3 461.1Q332.5 461.1 332.7 461.2Q332.8 461.3 332.8 461.6Q332.8 461.8 332.7 461.9Q332.5 462 332.3 462Q332 462 331.9 461.9Q331.8 461.8 331.8 461.6Q331.8 461.3 331.9 461.2Q332 461.1 332.3 461.1M336.8 456.7L336.8 460.1L337.4 460.1L337.4 460.8L336.8 460.8L336.8 462L335.9 462L335.9 460.8L333.6 460.8L333.5 460.3L335.8 456.7L336.8 456.7M335.8 458L334.5 460.1L335.9 460.1L335.9 457.9L335.8 458M342.4 462L341.2 460.3L340.8 460.7L340.8 462L339.9 462L339.9 456.4L340.8 456.4L340.8 459.6L341.1 459.3L342.2 458L343.3 458L341.8 459.7L343.4 462L342.4 462M347.1 456.7L348.1 460.7L348.9 456.7L349.9 456.7L348.6 462L347.7 462L346.7 458.1L345.7 462L344.8 462L343.6 456.7L344.5 456.7L345.3 460.7L346.3 456.7" class="pwr-value" fill="var(--primary-text-color)"></path>
      <!--?lit$997511696$-->
      <!--?lit$997511696$-->
    
          </g>
        <!---->
    <!---->
    <!---->
          </svg>
