<?xml version="1.0" encoding="UTF-8"?>
<svg preserveAspectRatio="xMidYMid meet" xmlns="http://www.w3.org/2000/svg" viewBox="0 0 440 296"><style>
    .bubble-bg { fill: #ffffff; stroke: #e2e8f0; stroke-width: 0.7; }
    .bubble-conn { stroke: #cbd5e0; stroke-width: 0.5; }
    .label-secondary, .zone-room { fill: #718096; }
    .phase-label { fill: #1a202c; }
    .sat-track { fill: #e2e8f0; opacity: 0.5; }
  </style>
            <!-- Phase trunks -->
            <line stroke-width="3" x1="24" y1="20" x2="24" y2="104" stroke="var(--electrical-panel-phase-l3-color, #5A6474)"></line>
            <line stroke-width="3" x1="36" y1="20" x2="36" y2="104" stroke="var(--electrical-panel-phase-l2-color, #1A202C)"></line>
            <line stroke-width="3" x1="48" y1="20" x2="48" y2="104" stroke="var(--electrical-panel-phase-l1-color, #8B4513)"></line>

            <!-- Phase labels -->
            <path d="M21.3 10.7L21.3 15.3L23.7 15.3L23.7 16L20.4 16L20.4 10.7L21.3 10.7M25.3 13.6L25.3 12.9L25.9 12.9Q26.3 12.9 26.5 12.7Q26.8 12.5 26.8 12.1Q26.8 11.7 26.6 11.5Q26.4 11.3 25.9 11.3Q25.6 11.3 25.4 11.5Q25.1 11.7 25.1 12.1L24.2 12.1Q24.2 11.6 24.5 11.3Q24.7 11 25.1 10.8Q25.5 10.6 25.9 10.6Q26.7 10.6 27.2 11Q27.6 11.4 27.6 12.1Q27.6 12.5 27.4 12.8Q27.2 13.1 26.8 13.3Q27.3 13.4 27.5 13.7Q27.7 14.1 27.7 14.5Q27.7 15.2 27.2 15.6Q26.7 16.1 25.9 16.1Q25.2 16.1 24.7 15.7Q24.2 15.3 24.2 14.6L25.1 14.6Q25.1 14.9 25.3 15.1Q25.5 15.4 25.9 15.4Q26.4 15.4 26.6 15.1Q26.8 14.9 26.8 14.5Q26.8 14.1 26.6 13.9Q26.3 13.6 25.8 13.6" class="phase-label"></path>
            <path d="M33.3 10.7L33.3 15.3L35.7 15.3L35.7 16L32.4 16L32.4 10.7L33.3 10.7M39.9 15.3L39.9 16L36.3 16L36.3 15.4L38.1 13.5Q38.5 13 38.6 12.7Q38.8 12.4 38.8 12.2Q38.8 11.8 38.6 11.5Q38.4 11.3 38 11.3Q37.6 11.3 37.3 11.6Q37.1 11.8 37.1 12.3L36.2 12.3Q36.2 11.8 36.4 11.4Q36.6 11 37 10.8Q37.5 10.6 38 10.6Q38.8 10.6 39.2 11Q39.7 11.4 39.7 12.1Q39.7 12.5 39.4 12.9Q39.2 13.3 38.7 13.9L37.4 15.3" class="phase-label"></path>
            <path d="M45.3 10.7L45.3 15.3L47.7 15.3L47.7 16L44.4 16L44.4 10.7L45.3 10.7M50.7 10.6L50.7 16L49.8 16L49.8 11.7L48.5 12.2L48.5 11.4L50.6 10.6" class="phase-label"></path>

            <!-- Staggered phase taps + bubbles -->
            <circle r="2" cx="48" cy="26" fill="var(--electrical-panel-phase-l1-color, #8B4513)"></circle>
            <!--?lit$997511696$-->
      <!--?lit$997511696$--><line class="bubble-conn" visibility="hidden" data-ln-for="phase_l1" x1="48" y1="22" x2="150" y2="22"></line>
      <rect class="bubble-bg" width="42" height="15" rx="3" visibility="hidden" data-bg-for="phase_l1" x="110" y="14"></rect>
      
      <!--?lit$997511696$-->
      <!--?lit$997511696$-->
    
            <circle r="2" cx="36" cy="46" fill="var(--electrical-panel-phase-l2-color, #1A202C)"></circle>
            <!--?lit$997511696$-->
      <!--?lit$997511696$--><line class="bubble-conn" visibility="hidden" data-ln-for="phase_l2" x1="36" y1="42" x2="185" y2="42"></line>
      <rect class="bubble-bg" width="42" height="15" rx="3" visibility="hidden" data-bg-for="phase_l2" x="145" y="34"></rect>
      
      <!--?lit$997511696$-->
      <!--?lit$997511696$-->
    
            <circle r="2" cx="24" cy="66" fill="var(--electrical-panel-phase-l3-color, #5A6474)"></circle>
            <!--?lit$997511696$-->
      <!--?lit$997511696$--><line class="bubble-conn" visibility="hidden" data-ln-for="phase_l3" x1="24" y1="62" x2="220" y2="62"></line>
      <rect class="bubble-bg" width="42" height="15" rx="3" visibility="hidden" data-bg-for="phase_l3" x="180" y="54"></rect>
      
      <!--?lit$997511696$-->
      <!--?lit$997511696$-->
    

            <!-- Main totals (right column) -->
            <path d="M282.6 23.7L282.6 24.2L280.8 24.2L280.8 29L280.2 29L280.2 24.2L278.4 24.2L278.4 23.7L282.6 23.7M282.7 27L282.7 27Q282.7 26.4 282.9 25.9Q283.2 25.5 283.6 25.2Q284 25 284.5 25Q285.3 25 285.8 25.5Q286.3 26.1 286.3 27L286.3 27.1Q286.3 27.6 286.1 28.1Q285.9 28.6 285.5 28.8Q285 29.1 284.5 29.1Q283.7 29.1 283.2 28.5Q282.7 28 282.7 27M283.4 27.1Q283.4 27.7 283.7 28.1Q284 28.5 284.5 28.5Q285 28.5 285.3 28.1Q285.6 27.7 285.6 27Q285.6 26.3 285.3 25.9Q285 25.5 284.5 25.5Q284 25.5 283.7 25.9Q283.4 26.3 283.4 27.1M287.4 24.1L288.1 24.1L288.1 25L288.8 25L288.8 25.6L288.1 25.6L288.1 28Q288.1 28.3 288.2 28.4Q288.3 28.5 288.5 28.5Q288.6 28.5 288.8 28.5L288.8 29Q288.6 29.1 288.3 29.1Q287.9 29.1 287.6 28.8Q287.4 28.5 287.4 28L287.4 25.6L286.7 25.6L286.7 25L287.4 25L287.4 24.1M292.8 29L292.1 29Q292 28.9 292 28.6Q291.5 29.1 290.8 29.1Q290.3 29.1 289.9 28.7Q289.5 28.4 289.5 27.9Q289.5 27.3 290 26.9Q290.4 26.6 291.3 26.6L292 26.6L292 26.3Q292 25.9 291.7 25.7Q291.5 25.5 291.1 25.5Q290.8 25.5 290.5 25.7Q290.3 25.9 290.3 26.1L289.6 26.1Q289.6 25.8 289.8 25.6Q290 25.3 290.4 25.1Q290.7 25 291.2 25Q291.8 25 292.2 25.3Q292.6 25.6 292.6 26.2L292.6 28.1Q292.6 28.6 292.8 28.9L292.8 29M290.9 28.5Q291.3 28.5 291.5 28.3Q291.8 28.2 292 27.9L292 27.1L291.4 27.1Q290.2 27.1 290.2 27.8Q290.2 28.1 290.4 28.3Q290.6 28.5 290.9 28.5M294.4 23.4L294.4 29L293.8 29L293.8 23.4" class="label-secondary"></path>
            <!--?lit$997511696$-->
      <!--?lit$997511696$-->
      <rect class="bubble-bg" width="42" height="15" rx="3" visibility="hidden" data-bg-for="total" x="310" y="17"></rect>
      
      <!--?lit$997511696$-->
      <!--?lit$997511696$-->
    
            <path d="M285.9 46.3L285.9 48.3Q285.6 48.7 285.1 48.9Q284.6 49.1 284 49.1Q283.3 49.1 282.8 48.8Q282.3 48.5 282 47.9Q281.8 47.3 281.8 46.6L281.8 46.1Q281.8 44.9 282.3 44.3Q282.9 43.6 283.9 43.6Q284.7 43.6 285.2 44Q285.7 44.4 285.9 45.2L285.2 45.2Q285 44.2 283.9 44.2Q283.2 44.2 282.8 44.7Q282.5 45.2 282.5 46.1L282.5 46.5Q282.5 47.4 282.9 48Q283.3 48.5 284 48.5Q284.4 48.5 284.7 48.4Q285 48.3 285.2 48.1L285.2 46.9L283.9 46.9L283.9 46.3L285.9 46.3M288.8 45L288.8 45.6Q288.7 45.6 288.5 45.6Q287.8 45.6 287.6 46.2L287.6 49L286.9 49L286.9 45L287.6 45L287.6 45.5Q287.9 45 288.5 45Q288.7 45 288.8 45M290.2 45L290.2 49L289.5 49L289.5 45L290.2 45M289.5 44Q289.5 43.8 289.6 43.7Q289.7 43.6 289.9 43.6Q290.1 43.6 290.2 43.7Q290.3 43.8 290.3 44Q290.3 44.2 290.2 44.3Q290.1 44.4 289.9 44.4Q289.7 44.4 289.6 44.3Q289.5 44.2 289.5 44M291.1 47L291.1 47Q291.1 46.1 291.6 45.5Q292 45 292.7 45Q293.4 45 293.8 45.4L293.8 43.4L294.5 43.4L294.5 49L293.8 49L293.8 48.6Q293.4 49.1 292.7 49.1Q292 49.1 291.6 48.5Q291.1 47.9 291.1 47M291.8 47.1Q291.8 47.7 292.1 48.1Q292.4 48.5 292.8 48.5Q293.5 48.5 293.8 47.9L293.8 46.1Q293.5 45.5 292.9 45.5Q292.4 45.5 292.1 45.9Q291.8 46.3 291.8 47.1" class="label-secondary"></path>
            <!--?lit$997511696$-->
      <!--?lit$997511696$-->
      <rect class="bubble-bg" width="42" height="15" rx="3" visibility="hidden" data-bg-for="grid" x="310" y="37"></rect>
      
      <!--?lit$997511696$-->
      <!--?lit$997511696$-->
    

            <!--?lit$997511696$--><!---->
      <!--?lit$997511696$--><!----><circle r="3.5" cx="48" cy="104" fill="#3182ce"></circle><!---->
      <!--?lit$997511696$--><line stroke-width="2" x1="48" y1="104" x2="70" y2="104" stroke="#3182ce"></line>

      <g class="meta-target">
        <!--?lit$997511696$--><title><!---->40 A · 30 mA · 2P · Cl. A · L1<!----></title>
        <rect stroke-width="1.8" rx="2" x="70" y="92" width="24" height="24" fill="color-mix(in srgb, #3182ce 18%, var(--ha-card-background, var(--card-background-color, white)))" stroke="#3182ce"></rect>
        <path d="M79 108L77.2 108L77.2 101.6L79 101.6Q79.9 101.6 80.5 102Q81.2 102.4 81.6 103.1Q81.9 103.7 81.9 104.6L81.9 105Q81.9 105.9 81.6 106.6Q81.2 107.3 80.5 107.6Q79.9 108 79 108M79 102.5L78.3 102.5L78.3 107.1L79 107.1Q79.9 107.1 80.3 106.6Q80.8 106 80.8 105L80.8 104.6Q80.8 103.6 80.4 103Q79.9 102.5 79 102.5M85.8 101.6L85.8 108L84.7 108L84.7 102.9L83.1 103.4L83.1 102.5L85.6 101.6" fill="#3182ce"></path>
      </g>

      <!--?lit$997511696$-->

      <!--?lit$997511696$--><line stroke-width="3" x1="82" y1="116" x2="82" y2="196" stroke="#3182ce"></line>

      <!--?lit$997511696$--><!---->
      <line stroke-width="3" x1="82" y1="132" x2="104" y2="132" stroke="#3182ce"></line>
      <!--?lit$997511696$--><line stroke-width="1.5" x1="114" y1="142" x2="114" y2="175" stroke="#3182ce"></line>
      <g class="meta-target">
        <!--?lit$997511696$--><title><!---->16 A · 2P · 2.5 mm²<!----></title>
        <rect stroke-width="1.8" rx="2" x="104" y="122" width="20" height="20" fill="color-mix(in srgb, #3182ce 18%, var(--ha-card-background, var(--card-background-color, white)))" stroke="#3182ce"></rect>
        <path d="M115.8 136L115.2 134.5L112.8 134.5L112.2 136L111.1 136L113.5 129.6L114.5 129.6L116.9 136L115.8 136M114 131L113.1 133.6L114.9 133.6" fill="#3182ce"></path>
      </g>
      <!--?lit$997511696$-->

      <!--?lit$997511696$--><!---->
          <g class="meta-target">
            <!--?lit$997511696$--><title><!---->Kitchen · L0<!----></title>
            <line stroke-width="0.8" x1="114" y1="153" x2="132" y2="153" stroke="#3182ce"></line>
            <!--?lit$997511696$-->
                    <rect x="132" y="146" width="20" height="12" fill="#38a169" rx="3"></rect>
                    <path d="M139.5 147L139.5 151.3L141.7 151.3L141.7 152L138.6 152L138.6 147L139.5 147M145.5 149L145.5 149.9Q145.5 151 145.1 151.5Q144.7 152.1 143.9 152.1Q143.1 152.1 142.7 151.5Q142.3 151 142.3 150L142.3 149.1Q142.3 148 142.7 147.5Q143.1 147 143.9 147Q144.7 147 145.1 147.5Q145.5 148 145.5 149M144.7 150.1L144.7 149Q144.7 148.3 144.5 147.9Q144.3 147.6 143.9 147.6Q143.5 147.6 143.3 147.9Q143.1 148.2 143.1 148.9L143.1 150Q143.1 150.7 143.3 151.1Q143.5 151.4 143.9 151.4Q144.3 151.4 144.5 151.1Q144.7 150.8 144.7 150.1" fill="white"></path>
                  
            <svg x="156" y="147" width="12" height="12" viewBox="0 0 24 24"><path d="M7.5,10.5A1.5,1.5 0 0,1 9,12A1.5,1.5 0 0,1 7.5,13.5C6.66,13.5 6,12.83 6,12A1.5,1.5 0 0,1 7.5,10.5M16.5,10.5A1.5,1.5 0 0,1 18,12A1.5,1.5 0 0,1 16.5,13.5A1.5,1.5 0 0,1 15,12A1.5,1.5 0 0,1 16.5,10.5M4.22,2H19.78C21,2 22,3 22,4.22V19.78A2.22,2.22 0 0,1 19.78,22H4.22C3,22 2,21 2,19.78V4.22A2.22,2.22 0 0,1 4.22,2M12,4A8,8 0 0,0 4,12A8,8 0 0,0 12,20A8,8 0 0,0 20,12A8,8 0 0,0 12,4Z" fill="var(--secondary-text-color, #718096)"></path></svg>
            <!--?lit$997511696$-->
                    <path d="M176.1 152L174.1 149.4L173.4 150.1L173.4 152L172.7 152L172.7 146.3L173.4 146.3L173.4 149.1L175.9 146.3L176.8 146.3L174.6 148.8L177 152L176.1 152M178.3 147.8L178.3 152L177.6 152L177.6 147.8L178.3 147.8M177.6 146.7Q177.6 146.5 177.7 146.4Q177.8 146.2 178 146.2Q178.2 146.2 178.3 146.4Q178.4 146.5 178.4 146.7Q178.4 146.8 178.3 146.9Q178.2 147.1 178 147.1Q177.8 147.1 177.7 146.9Q177.6 146.8 177.6 146.7M179.8 146.8L180.5 146.8L180.5 147.8L181.3 147.8L181.3 148.3L180.5 148.3L180.5 151Q180.5 151.2 180.6 151.3Q180.7 151.5 180.9 151.5Q181.1 151.5 181.3 151.4L181.3 152Q181 152.1 180.7 152.1Q180.3 152.1 180 151.8Q179.8 151.5 179.8 151L179.8 148.3L179 148.3L179 147.8L179.8 147.8L179.8 146.8M183.8 151.5Q184.2 151.5 184.5 151.3Q184.8 151 184.8 150.7L185.5 150.7Q185.5 151 185.2 151.4Q185 151.7 184.6 151.9Q184.2 152.1 183.8 152.1Q182.9 152.1 182.4 151.5Q181.9 150.9 181.9 149.9L181.9 149.8Q181.9 149.2 182.2 148.7Q182.4 148.2 182.8 148Q183.2 147.7 183.8 147.7Q184.5 147.7 185 148.1Q185.5 148.5 185.5 149.2L184.8 149.2Q184.8 148.8 184.5 148.6Q184.2 148.3 183.8 148.3Q183.3 148.3 183 148.7Q182.7 149.1 182.7 149.8L182.7 150Q182.7 150.7 183 151.1Q183.3 151.5 183.8 151.5M187 146L187 148.3Q187.5 147.7 188.3 147.7Q189.6 147.7 189.6 149.2L189.6 152L188.9 152L188.9 149.2Q188.9 148.7 188.7 148.5Q188.5 148.3 188.1 148.3Q187.7 148.3 187.4 148.5Q187.2 148.7 187 149L187 152L186.3 152L186.3 146L187 146M192.5 152.1Q191.6 152.1 191.1 151.5Q190.5 150.9 190.5 150L190.5 149.9Q190.5 149.2 190.8 148.7Q191 148.3 191.4 148Q191.9 147.7 192.4 147.7Q193.2 147.7 193.7 148.2Q194.1 148.8 194.1 149.8L194.1 150.1L191.3 150.1Q191.3 150.7 191.6 151.1Q192 151.5 192.5 151.5Q192.9 151.5 193.2 151.3Q193.4 151.2 193.6 150.9L194.1 151.3Q193.5 152.1 192.5 152.1M192.4 148.3Q191.9 148.3 191.6 148.6Q191.3 148.9 191.3 149.5L193.4 149.5L193.4 149.4Q193.4 148.9 193.1 148.6Q192.8 148.3 192.4 148.3M194.9 147.8L195.6 147.8L195.7 148.3Q196.1 147.7 196.9 147.7Q198.3 147.7 198.3 149.2L198.3 152L197.6 152L197.6 149.2Q197.5 148.7 197.3 148.5Q197.1 148.3 196.7 148.3Q196.4 148.3 196.1 148.5Q195.8 148.7 195.7 149L195.7 152L194.9 152" class="zone-room"></path>
                  
            <!--?lit$997511696$-->
          </g>
        <!----><!---->
          <g class="meta-target">
            <!--?lit$997511696$--><title><!---->Living room · L0<!----></title>
            <line stroke-width="0.8" x1="114" y1="175" x2="132" y2="175" stroke="#3182ce"></line>
            <!--?lit$997511696$-->
                    <rect x="132" y="168" width="20" height="12" fill="#38a169" rx="3"></rect>
                    <path d="M139.5 169L139.5 173.3L141.7 173.3L141.7 174L138.6 174L138.6 169L139.5 169M145.5 171L145.5 171.9Q145.5 173 145.1 173.5Q144.7 174.1 143.9 174.1Q143.1 174.1 142.7 173.5Q142.3 173 142.3 172L142.3 171.1Q142.3 170 142.7 169.5Q143.1 169 143.9 169Q144.7 169 145.1 169.5Q145.5 170 145.5 171M144.7 172.1L144.7 171Q144.7 170.3 144.5 169.9Q144.3 169.6 143.9 169.6Q143.5 169.6 143.3 169.9Q143.1 170.2 143.1 170.9L143.1 172Q143.1 172.7 143.3 173.1Q143.5 173.4 143.9 173.4Q144.3 173.4 144.5 173.1Q144.7 172.8 144.7 172.1" fill="white"></path>
                  
            <svg x="156" y="169" width="12" height="12" viewBox="0 0 24 24"><path d="M7.5,10.5A1.5,1.5 0 0,1 9,12A1.5,1.5 0 0,1 7.5,13.5C6.66,13.5 6,12.83 6,12A1.5,1.5 0 0,1 7.5,10.5M16.5,10.5A1.5,1.5 0 0,1 18,12A1.5,1.5 0 0,1 16.5,13.5A1.5,1.5 0 0,1 15,12A1.5,1.5 0 0,1 16.5,10.5M4.22,2H19.78C21,2 22,3 22,4.22V19.78A2.22,2.22 0 0,1 19.78,22H4.22C3,22 2,21 2,19.78V4.22A2.22,2.22 0 0,1 4.22,2M12,4A8,8 0 0,0 4,12A8,8 0 0,0 12,20A8,8 0 0,0 20,12A8,8 0 0,0 12,4Z" fill="var(--secondary-text-color, #718096)"></path></svg>
            <!--?lit$997511696$-->
                    <path d="M173.4 168.3L173.4 173.4L176.1 173.4L176.1 174L172.7 174L172.7 168.3L173.4 168.3M177.6 169.8L177.6 174L176.9 174L176.9 169.8L177.6 169.8M176.9 168.7Q176.9 168.5 177 168.4Q177.1 168.2 177.3 168.2Q177.5 168.2 177.6 168.4Q177.7 168.5 177.7 168.7Q177.7 168.8 177.6 168.9Q177.5 169.1 177.3 169.1Q177.1 169.1 177 168.9Q176.9 168.8 176.9 168.7M179.1 169.8L180.2 173L181.2 169.8L182 169.8L180.5 174L179.9 174L178.4 169.8L179.1 169.8M183.5 169.8L183.5 174L182.7 174L182.7 169.8L183.5 169.8M182.7 168.7Q182.7 168.5 182.8 168.4Q182.9 168.2 183.1 168.2Q183.3 168.2 183.4 168.4Q183.5 168.5 183.5 168.7Q183.5 168.8 183.4 168.9Q183.3 169.1 183.1 169.1Q182.9 169.1 182.8 168.9Q182.7 168.8 182.7 168.7M184.6 169.8L185.3 169.8L185.3 170.3Q185.8 169.7 186.6 169.7Q187.9 169.7 187.9 171.2L187.9 174L187.2 174L187.2 171.2Q187.2 170.7 187 170.5Q186.8 170.3 186.4 170.3Q186 170.3 185.7 170.5Q185.5 170.7 185.3 171L185.3 174L184.6 174L184.6 169.8M188.9 171.9Q188.9 170.9 189.3 170.3Q189.8 169.7 190.5 169.7Q191.3 169.7 191.7 170.2L191.8 169.8L192.4 169.8L192.4 173.9Q192.4 174.7 191.9 175.2Q191.4 175.7 190.6 175.7Q190.2 175.7 189.7 175.5Q189.3 175.3 189.1 174.9L189.4 174.5Q189.9 175.1 190.6 175.1Q191.1 175.1 191.4 174.8Q191.7 174.5 191.7 173.9L191.7 173.6Q191.3 174.1 190.5 174.1Q189.8 174.1 189.3 173.5Q188.9 172.9 188.9 171.9M189.6 171.9Q189.6 172.6 189.9 173.1Q190.2 173.5 190.7 173.5Q191.4 173.5 191.7 172.8L191.7 170.9Q191.4 170.3 190.7 170.3Q190.2 170.3 189.9 170.7Q189.6 171.1 189.6 171.9M197.5 169.8L197.5 170.4Q197.4 170.4 197.2 170.4Q196.5 170.4 196.2 171L196.2 174L195.5 174L195.5 169.8L196.2 169.8L196.2 170.3Q196.6 169.7 197.2 169.7Q197.4 169.7 197.5 169.8M197.9 171.9L197.9 171.8Q197.9 171.2 198.2 170.7Q198.4 170.2 198.9 170Q199.3 169.7 199.8 169.7Q200.7 169.7 201.2 170.3Q201.8 170.9 201.8 171.9L201.8 171.9Q201.8 172.6 201.5 173Q201.3 173.5 200.9 173.8Q200.4 174.1 199.9 174.1Q199 174.1 198.5 173.5Q197.9 172.9 197.9 171.9M198.7 171.9Q198.7 172.6 199 173.1Q199.3 173.5 199.9 173.5Q200.4 173.5 200.7 173.1Q201.1 172.6 201.1 171.8Q201.1 171.2 200.7 170.7Q200.4 170.3 199.8 170.3Q199.3 170.3 199 170.7Q198.7 171.1 198.7 171.9M202.5 171.9L202.5 171.8Q202.5 171.2 202.7 170.7Q203 170.2 203.4 170Q203.9 169.7 204.4 169.7Q205.3 169.7 205.8 170.3Q206.3 170.9 206.3 171.9L206.3 171.9Q206.3 172.6 206.1 173Q205.9 173.5 205.4 173.8Q205 174.1 204.4 174.1Q203.6 174.1 203 173.5Q202.5 172.9 202.5 171.9M203.2 171.9Q203.2 172.6 203.5 173.1Q203.9 173.5 204.4 173.5Q205 173.5 205.3 173.1Q205.6 172.6 205.6 171.8Q205.6 171.2 205.3 170.7Q205 170.3 204.4 170.3Q203.9 170.3 203.5 170.7Q203.2 171.1 203.2 171.9M207.2 169.8L207.9 169.8L207.9 170.2Q208.4 169.7 209.2 169.7Q210.1 169.7 210.4 170.4Q210.6 170.1 211 169.9Q211.3 169.7 211.8 169.7Q213.1 169.7 213.2 171.2L213.2 174L212.4 174L212.4 171.2Q212.4 170.8 212.2 170.5Q212 170.3 211.5 170.3Q211.1 170.3 210.9 170.5Q210.6 170.8 210.6 171.2L210.6 174L209.8 174L209.8 171.2Q209.8 170.3 208.9 170.3Q208.2 170.3 208 170.9L208 174L207.2 174" class="zone-room"></path>
                  
            <!--?lit$997511696$-->
          </g>
        <!---->
    <!----><!---->
      <line stroke-width="3" x1="82" y1="196" x2="104" y2="196" stroke="#3182ce"></line>
      <!--?lit$997511696$--><line stroke-width="1.5" x1="114" y1="206" x2="114" y2="261" stroke="#3182ce"></line>
      <g class="meta-target">
        <!--?lit$997511696$--><title><!---->10 A · 2P · 1.5 mm²<!----></title>
        <rect stroke-width="1.8" rx="2" x="104" y="186" width="20" height="20" fill="color-mix(in srgb, #3182ce 18%, var(--ha-card-background, var(--card-background-color, white)))" stroke="#3182ce"></rect>
        <path d="M114.1 200L111.8 200L111.8 193.6L114 193.6Q115.1 193.6 115.7 194Q116.2 194.5 116.2 195.3Q116.2 195.8 116 196.1Q115.7 196.5 115.3 196.7Q115.8 196.8 116.1 197.2Q116.4 197.6 116.4 198.1Q116.4 199 115.8 199.5Q115.2 200 114.1 200M114.3 197.1L112.9 197.1L112.9 199.1L114.2 199.1Q114.7 199.1 115 198.9Q115.3 198.6 115.3 198.1Q115.3 197.1 114.3 197.1M112.9 194.5L112.9 196.3L114 196.3Q114.5 196.3 114.8 196.1Q115.1 195.8 115.1 195.4Q115.1 194.9 114.8 194.7Q114.6 194.5 114 194.5" fill="#3182ce"></path>
      </g>
      <!--?lit$997511696$-->

      <!--?lit$997511696$--><!---->
          <g class="meta-target">
            <!--?lit$997511696$--><title><!---->Living room · L0<!----></title>
            <line stroke-width="0.8" x1="114" y1="217" x2="132" y2="217" stroke="#3182ce"></line>
            <!--?lit$997511696$-->
                    <rect x="132" y="210" width="20" height="12" fill="#38a169" rx="3"></rect>
                    <path d="M139.5 211L139.5 215.3L141.7 215.3L141.7 216L138.6 216L138.6 211L139.5 211M145.5 213L145.5 213.9Q145.5 215 145.1 215.5Q144.7 216.1 143.9 216.1Q143.1 216.1 142.7 215.5Q142.3 215 142.3 214L142.3 213.1Q142.3 212 142.7 211.5Q143.1 211 143.9 211Q144.7 211 145.1 211.5Q145.5 212 145.5 213M144.7 214.1L144.7 213Q144.7 212.3 144.5 211.9Q144.3 211.6 143.9 211.6Q143.5 211.6 143.3 211.9Q143.1 212.2 143.1 212.9L143.1 214Q143.1 214.7 143.3 215.1Q143.5 215.4 143.9 215.4Q144.3 215.4 144.5 215.1Q144.7 214.8 144.7 214.1" fill="white"></path>
                  
            <svg x="156" y="211" width="12" height="12" viewBox="0 0 24 24"><path d="M12,2A7,7 0 0,1 19,9C19,11.38 17.81,13.47 16,14.74V17A1,1 0 0,1 15,18H9A1,1 0 0,1 8,17V14.74C6.19,13.47 5,11.38 5,9A7,7 0 0,1 12,2M9,21V20H15V21A1,1 0 0,1 14,22H10A1,1 0 0,1 9,21M12,4A5,5 0 0,0 7,9C7,11.05 8.23,12.81 10,13.58V16H14V13.58C15.77,12.81 17,11.05 17,9A5,5 0 0,0 12,4Z" fill="var(--secondary-text-color, #718096)"></path></svg>
            <!--?lit$997511696$-->
                    <path d="M173.4 210.3L173.4 215.4L176.1 215.4L176.1 216L172.7 216L172.7 210.3L173.4 210.3M177.6 211.8L177.6 216L176.9 216L176.9 211.8L177.6 211.8M176.9 210.7Q176.9 210.5 177 210.4Q177.1 210.2 177.3 210.2Q177.5 210.2 177.6 210.4Q177.7 210.5 177.7 210.7Q177.7 210.8 177.6 210.9Q177.5 211.1 177.3 211.1Q177.1 211.1 177 210.9Q176.9 210.8 176.9 210.7M179.1 211.8L180.2 215L181.2 211.8L182 211.8L180.5 216L179.9 216L178.4 211.8L179.1 211.8M183.5 211.8L183.5 216L182.7 216L182.7 211.8L183.5 211.8M182.7 210.7Q182.7 210.5 182.8 210.4Q182.9 210.2 183.1 210.2Q183.3 210.2 183.4 210.4Q183.5 210.5 183.5 210.7Q183.5 210.8 183.4 210.9Q183.3 211.1 183.1 211.1Q182.9 211.1 182.8 210.9Q182.7 210.8 182.7 210.7M184.6 211.8L185.3 211.8L185.3 212.3Q185.8 211.7 186.6 211.7Q187.9 211.7 187.9 213.2L187.9 216L187.2 216L187.2 213.2Q187.2 212.7 187 212.5Q186.8 212.3 186.4 212.3Q186 212.3 185.7 212.5Q185.5 212.7 185.3 213L185.3 216L184.6 216L184.6 211.8M188.9 213.9Q188.9 212.9 189.3 212.3Q189.8 211.7 190.5 211.7Q191.3 211.7 191.7 212.2L191.8 211.8L192.4 211.8L192.4 215.9Q192.4 216.7 191.9 217.2Q191.4 217.7 190.6 217.7Q190.2 217.7 189.7 217.5Q189.3 217.3 189.1 216.9L189.4 216.5Q189.9 217.1 190.6 217.1Q191.1 217.1 191.4 216.8Q191.7 216.5 191.7 215.9L191.7 215.6Q191.3 216.1 190.5 216.1Q189.8 216.1 189.3 215.5Q188.9 214.9 188.9 213.9M189.6 213.9Q189.6 214.6 189.9 215.1Q190.2 215.5 190.7 215.5Q191.4 215.5 191.7 214.8L191.7 212.9Q191.4 212.3 190.7 212.3Q190.2 212.3 189.9 212.7Q189.6 213.1 189.6 213.9M197.5 211.8L197.5 212.4Q197.4 212.4 197.2 212.4Q196.5 212.4 196.2 213L196.2 216L195.5 216L195.5 211.8L196.2 211.8L196.2 212.3Q196.6 211.7 197.2 211.7Q197.4 211.7 197.5 211.8M197.9 213.9L197.9 213.8Q197.9 213.2 198.2 212.7Q198.4 212.2 198.9 212Q199.3 211.7 199.8 211.7Q200.7 211.7 201.2 212.3Q201.8 212.9 201.8 213.9L201.8 213.9Q201.8 214.6 201.5 215Q201.3 215.5 200.9 215.8Q200.4 216.1 199.9 216.1Q199 216.1 198.5 215.5Q197.9 214.9 197.9 213.9M198.7 213.9Q198.7 214.6 199 215.1Q199.3 215.5 199.9 215.5Q200.4 215.5 200.7 215.1Q201.1 214.6 201.1 213.8Q201.1 213.2 200.7 212.7Q200.4 212.3 199.8 212.3Q199.3 212.3 199 212.7Q198.7 213.1 198.7 213.9M202.5 213.9L202.5 213.8Q202.5 213.2 202.7 212.7Q203 212.2 203.4 212Q203.9 211.7 204.4 211.7Q205.3 211.7 205.8 212.3Q206.3 212.9 206.3 213.9L206.3 213.9Q206.3 214.6 206.1 215Q205.9 215.5 205.4 215.8Q205 216.1 204.4 216.1Q203.6 216.1 203 215.5Q202.5 214.9 202.5 213.9M203.2 213.9Q203.2 214.6 203.5 215.1Q203.9 215.5 204.4 215.5Q205 215.5 205.3 215.1Q205.6 214.6 205.6 213.8Q205.6 213.2 205.3 212.7Q205 212.3 204.4 212.3Q203.9 212.3 203.5 212.7Q203.2 213.1 203.2 213.9M207.2 211.8L207.9 211.8L207.9 212.2Q208.4 211.7 209.2 211.7Q210.1 211.7 210.4 212.4Q210.6 212.1 211 211.9Q211.3 211.7 211.8 211.7Q213.1 211.7 213.2 213.2L213.2 216L212.4 216L212.4 213.2Q212.4 212.8 212.2 212.5Q212 212.3 211.5 212.3Q211.1 212.3 210.9 212.5Q210.6 212.8 210.6 213.2L210.6 216L209.8 216L209.8 213.2Q209.8 212.3 208.9 212.3Q208.2 212.3 208 212.9L208 216L207.2 216" class="zone-room"></path>
                  
            <!--?lit$997511696$-->
          </g>
        <!----><!---->
          <g class="meta-target">
            <!--?lit$997511696$--><title><!---->Bathroom · L0<!----></title>
            <line stroke-width="0.8" x1="114" y1="239" x2="132" y2="239" stroke="#3182ce"></line>
            <!--?lit$997511696$-->
                    <rect x="132" y="232" width="20" height="12" fill="#38a169" rx="3"></rect>
                    <path d="M139.5 233L139.5 237.3L141.7 237.3L141.7 238L138.6 238L138.6 233L139.5 233M145.5 235L145.5 235.9Q145.5 237 145.1 237.5Q144.7 238.1 143.9 238.1Q143.1 238.1 142.7 237.5Q142.3 237 142.3 236L142.3 235.1Q142.3 234 142.7 233.5Q143.1 233 143.9 233Q144.7 233 145.1 233.5Q145.5 234 145.5 235M144.7 236.1L144.7 235Q144.7 234.3 144.5 233.9Q144.3 233.6 143.9 233.6Q143.5 233.6 143.3 233.9Q143.1 234.2 143.1 234.9L143.1 236Q143.1 236.7 143.3 237.1Q143.5 237.4 143.9 237.4Q144.3 237.4 144.5 237.1Q144.7 236.8 144.7 236.1" fill="white"></path>
                  
            <svg x="156" y="233" width="12" height="12" viewBox="0 0 24 24"><path d="M12,2A7,7 0 0,1 19,9C19,11.38 17.81,13.47 16,14.74V17A1,1 0 0,1 15,18H9A1,1 0 0,1 8,17V14.74C6.19,13.47 5,11.38 5,9A7,7 0 0,1 12,2M9,21V20H15V21A1,1 0 0,1 14,22H10A1,1 0 0,1 9,21M12,4A5,5 0 0,0 7,9C7,11.05 8.23,12.81 10,13.58V16H14V13.58C15.77,12.81 17,11.05 17,9A5,5 0 0,0 12,4Z" fill="var(--secondary-text-color, #718096)"></path></svg>
            <!--?lit$997511696$-->
                    <path d="M174.6 238L172.7 238L172.7 232.3L174.5 232.3Q175.4 232.3 175.9 232.7Q176.4 233.1 176.4 233.8Q176.4 234.2 176.2 234.5Q175.9 234.8 175.5 235Q176 235.1 176.3 235.5Q176.5 235.9 176.5 236.4Q176.5 237.1 176 237.6Q175.5 238 174.6 238M174.7 235.3L173.4 235.3L173.4 237.4L174.6 237.4Q175.2 237.4 175.5 237.1Q175.8 236.8 175.8 236.4Q175.8 235.3 174.7 235.3M173.4 232.9L173.4 234.7L174.5 234.7Q175 234.7 175.3 234.5Q175.6 234.2 175.6 233.8Q175.6 233.4 175.4 233.1Q175.1 232.9 174.5 232.9L173.4 232.9M180.9 238L180.1 238Q180.1 237.9 180 237.6Q179.5 238.1 178.8 238.1Q178.2 238.1 177.8 237.7Q177.4 237.4 177.4 236.8Q177.4 236.2 177.9 235.8Q178.4 235.4 179.3 235.4L180 235.4L180 235.1Q180 234.7 179.8 234.5Q179.6 234.3 179.1 234.3Q178.7 234.3 178.5 234.5Q178.2 234.7 178.2 234.9L177.5 234.9Q177.5 234.6 177.7 234.3Q177.9 234 178.3 233.9Q178.7 233.7 179.2 233.7Q179.9 233.7 180.3 234.1Q180.7 234.4 180.7 235.1L180.7 237Q180.7 237.6 180.9 237.9L180.9 238M178.9 237.4Q179.3 237.4 179.6 237.3Q179.9 237.1 180 236.8L180 235.9L179.5 235.9Q178.1 235.9 178.1 236.7Q178.1 237.1 178.4 237.3Q178.6 237.4 178.9 237.4M182.1 232.8L182.9 232.8L182.9 233.8L183.6 233.8L183.6 234.3L182.9 234.3L182.9 237Q182.9 237.2 183 237.3Q183.1 237.5 183.3 237.5Q183.4 237.5 183.7 237.4L183.7 238Q183.4 238.1 183.1 238.1Q182.6 238.1 182.4 237.8Q182.1 237.5 182.1 237L182.1 234.3L181.4 234.3L181.4 233.8L182.1 233.8L182.1 232.8M185.2 232L185.2 234.3Q185.7 233.7 186.5 233.7Q187.8 233.7 187.8 235.2L187.8 238L187.1 238L187.1 235.2Q187.1 234.7 186.9 234.5Q186.7 234.3 186.2 234.3Q185.9 234.3 185.6 234.5Q185.4 234.7 185.2 235L185.2 238L184.5 238L184.5 232L185.2 232M190.9 233.8L190.9 234.4Q190.8 234.4 190.6 234.4Q189.9 234.4 189.6 235L189.6 238L188.9 238L188.9 233.8L189.6 233.8L189.6 234.3Q190 233.7 190.6 233.7Q190.8 233.7 190.9 233.8M191.3 235.9L191.3 235.8Q191.3 235.2 191.6 234.7Q191.8 234.2 192.3 234Q192.7 233.7 193.3 233.7Q194.1 233.7 194.7 234.3Q195.2 234.9 195.2 235.9L195.2 235.9Q195.2 236.6 194.9 237Q194.7 237.5 194.3 237.8Q193.8 238.1 193.3 238.1Q192.4 238.1 191.9 237.5Q191.3 236.9 191.3 235.9M192.1 235.9Q192.1 236.6 192.4 237.1Q192.7 237.5 193.3 237.5Q193.8 237.5 194.1 237.1Q194.5 236.6 194.5 235.8Q194.5 235.2 194.1 234.7Q193.8 234.3 193.3 234.3Q192.7 234.3 192.4 234.7Q192.1 235.1 192.1 235.9M195.9 235.9L195.9 235.8Q195.9 235.2 196.1 234.7Q196.4 234.2 196.8 234Q197.3 233.7 197.8 233.7Q198.7 233.7 199.2 234.3Q199.7 234.9 199.7 235.9L199.7 235.9Q199.7 236.6 199.5 237Q199.3 237.5 198.8 237.8Q198.4 238.1 197.8 238.1Q197 238.1 196.4 237.5Q195.9 236.9 195.9 235.9M196.6 235.9Q196.6 236.6 197 237.1Q197.3 237.5 197.8 237.5Q198.4 237.5 198.7 237.1Q199 236.6 199 235.8Q199 235.2 198.7 234.7Q198.4 234.3 197.8 234.3Q197.3 234.3 197 234.7Q196.6 235.1 196.6 235.9M200.6 233.8L201.3 233.8L201.4 234.2Q201.8 233.7 202.6 233.7Q203.5 233.7 203.8 234.4Q204 234.1 204.4 233.9Q204.7 233.7 205.2 233.7Q206.6 233.7 206.6 235.2L206.6 238L205.9 238L205.9 235.2Q205.9 234.8 205.6 234.5Q205.4 234.3 204.9 234.3Q204.5 234.3 204.3 234.5Q204 234.8 204 235.2L204 238L203.2 238L203.2 235.2Q203.2 234.3 202.3 234.3Q201.6 234.3 201.4 234.9L201.4 238L200.6 238" class="zone-room"></path>
                  
            <!--?lit$997511696$-->
          </g>
        <!----><!---->
          <g class="meta-target">
            <!--?lit$997511696$--><title><!---->Hallway · L0<!----></title>
            <line stroke-width="0.8" x1="114" y1="261" x2="132" y2="261" stroke="#3182ce"></line>
            <!--?lit$997511696$-->
                    <rect x="132" y="254" width="20" height="12" fill="#38a169" rx="3"></rect>
                    <path d="M139.5 255L139.5 259.3L141.7 259.3L141.7 260L138.6 260L138.6 255L139.5 255M145.5 257L145.5 257.9Q145.5 259 145.1 259.5Q144.7 260.1 143.9 260.1Q143.1 260.1 142.7 259.5Q142.3 259 142.3 258L142.3 257.1Q142.3 256 142.7 255.5Q143.1 255 143.9 255Q144.7 255 145.1 255.5Q145.5 256 145.5 257M144.7 258.1L144.7 257Q144.7 256.3 144.5 255.9Q144.3 255.6 143.9 255.6Q143.5 255.6 143.3 255.9Q143.1 256.2 143.1 256.9L143.1 258Q143.1 258.7 143.3 259.1Q143.5 259.4 143.9 259.4Q144.3 259.4 144.5 259.1Q144.7 258.8 144.7 258.1" fill="white"></path>
                  
            <svg x="156" y="255" width="12" height="12" viewBox="0 0 24 24"><path d="M12,2A7,7 0 0,1 19,9C19,11.38 17.81,13.47 16,14.74V17A1,1 0 0,1 15,18H9A1,1 0 0,1 8,17V14.74C6.19,13.47 5,11.38 5,9A7,7 0 0,1 12,2M9,21V20H15V21A1,1 0 0,1 14,22H10A1,1 0 0,1 9,21M12,4A5,5 0 0,0 7,9C7,11.05 8.23,12.81 10,13.58V16H14V13.58C15.77,12.81 17,11.05 17,9A5,5 0 0,0 12,4Z" fill="var(--secondary-text-color, #718096)"></path></svg>
            <!--?lit$997511696$-->
                    <path d="M177 254.3L177 260L176.3 260L176.3 257.4L173.4 257.4L173.4 260L172.7 260L172.7 254.3L173.4 254.3L173.4 256.8L176.3 256.8L176.3 254.3L177 254.3M181.6 260L180.9 260Q180.8 259.9 180.8 259.6Q180.3 260.1 179.6 260.1Q178.9 260.1 178.5 259.7Q178.1 259.4 178.1 258.8Q178.1 258.2 178.6 257.8Q179.1 257.4 180 257.4L180.7 257.4L180.7 257.1Q180.7 256.7 180.5 256.5Q180.3 256.3 179.9 256.3Q179.5 256.3 179.2 256.5Q178.9 256.7 178.9 256.9L178.2 256.9Q178.2 256.6 178.4 256.3Q178.7 256 179 255.9Q179.4 255.7 179.9 255.7Q180.6 255.7 181 256.1Q181.5 256.4 181.5 257.1L181.5 259Q181.5 259.6 181.6 259.9L181.6 260M179.7 259.4Q180 259.4 180.3 259.3Q180.6 259.1 180.7 258.8L180.7 257.9L180.2 257.9Q178.9 257.9 178.9 258.7Q178.9 259.1 179.1 259.3Q179.3 259.4 179.7 259.4M183.4 254L183.4 260L182.7 260L182.7 254L183.4 254M185.3 254L185.3 260L184.6 260L184.6 254L185.3 254M189.2 255.8L190.2 259L191 255.8L191.8 255.8L190.5 260L189.9 260L188.9 256.8L187.9 260L187.3 260L186.1 255.8L186.8 255.8L187.7 258.9L188.6 255.8L189.2 255.8M195.9 260L195.1 260Q195 259.9 195 259.6Q194.5 260.1 193.8 260.1Q193.2 260.1 192.8 259.7Q192.4 259.4 192.4 258.8Q192.4 258.2 192.9 257.8Q193.4 257.4 194.3 257.4L195 257.4L195 257.1Q195 256.7 194.8 256.5Q194.5 256.3 194.1 256.3Q193.7 256.3 193.4 256.5Q193.2 256.7 193.2 256.9L192.5 256.9Q192.5 256.6 192.7 256.3Q192.9 256 193.3 255.9Q193.7 255.7 194.1 255.7Q194.9 255.7 195.3 256.1Q195.7 256.4 195.7 257.1L195.7 259Q195.7 259.6 195.9 259.9L195.9 260M193.9 259.4Q194.2 259.4 194.6 259.3Q194.9 259.1 195 258.8L195 257.9L194.4 257.9Q193.1 257.9 193.1 258.7Q193.1 259.1 193.3 259.3Q193.6 259.4 193.9 259.4M197.1 255.8L198.2 258.9L199.2 255.8L199.9 255.8L198.2 260.7Q197.8 261.7 197 261.7L196.8 261.7L196.6 261.6L196.6 261.1L196.8 261.1Q197.1 261.1 197.3 260.9Q197.5 260.8 197.7 260.4L197.8 260L196.3 255.8" class="zone-room"></path>
                  
            <!--?lit$997511696$-->
          </g>
        <!---->
    <!---->
    <!---->
          </svg>
