<?xml version="1.0" encoding="UTF-8"?>
<svg preserveAspectRatio="xMidYMid meet" xmlns="http://www.w3.org/2000/svg" viewBox="0 0 440 758"><style>
    .bubble-bg { fill: #ffffff; stroke: #e2e8f0; stroke-width: 0.7; }
    .bubble-conn { stroke: #cbd5e0; stroke-width: 0.5; }
    .label-secondary, .zone-room { fill: #718096; }
    .phase-label { fill: #1a202c; }
    .sat-track { fill: #e2e8f0; opacity: 0.5; }
  </style>
            <!-- Phase trunks -->
            <line stroke-width="3" x1="24" y1="20" x2="24" y2="632" stroke="var(--electrical-panel-phase-l3-color, #5A6474)"></line>
            <line stroke-width="3" x1="36" y1="20" x2="36" y2="632" stroke="var(--electrical-panel-phase-l2-color, #1A202C)"></line>
            <line stroke-width="3" x1="48" y1="20" x2="48" y2="632" stroke="var(--electrical-panel-phase-l1-color, #8B4513)"></line>

            <!-- Phase labels -->
            <path d="M21.3 10.7L21.3 15.3L23.7 15.3L23.7 16L20.4 16L20.4 10.7L21.3 10.7M25.3 13.6L25.3 12.9L25.9 12.9Q26.3 12.9 26.5 12.7Q26.8 12.5 26.8 12.1Q26.8 11.7 26.6 11.5Q26.4 11.3 25.9 11.3Q25.6 11.3 25.4 11.5Q25.1 11.7 25.1 12.1L24.2 12.1Q24.2 11.6 24.5 11.3Q24.7 11 25.1 10.8Q25.5 10.6 25.9 10.6Q26.7 10.6 27.2 11Q27.6 11.4 27.6 12.1Q27.6 12.5 27.4 12.8Q27.2 13.1 26.8 13.3Q27.3 13.4 27.5 13.7Q27.7 14.1 27.7 14.5Q27.7 15.2 27.2 15.6Q26.7 16.1 25.9 16.1Q25.2 16.1 24.7 15.7Q24.2 15.3 24.2 14.6L25.1 14.6Q25.1 14.9 25.3 15.1Q25.5 15.4 25.9 15.4Q26.4 15.4 26.6 15.1Q26.8 14.9 26.8 14.5Q26.8 14.1 26.6 13.9Q26.3 13.6 25.8 13.6" class="phase-label"></path>
            <path d="M33.3 10.7L33.3 15.3L35.7 15.3L35.7 16L32.4 16L32.4 10.7L33.3 10.7M39.9 15.3L39.9 16L36.3 16L36.3 15.4L38.1 13.5Q38.5 13 38.6 12.7Q38.8 12.4 38.8 12.2Q38.8 11.8 38.6 11.5Q38.4 11.3 38 11.3Q37.6 11.3 37.3 11.6Q37.1 11.8 37.1 12.3L36.2 12.3Q36.2 11.8 36.4 11.4Q36.6 11 37 10.8Q37.5 10.6 38 10.6Q38.8 10.6 39.2 11Q39.7 11.4 39.7 12.1Q39.7 12.5 39.4 12.9Q39.2 13.3 38.7 13.9L37.4 15.3" class="phase-label"></path>
            <path d="M45.3 10.7L45.3 15.3L47.7 15.3L47.7 16L44.4 16L44.4 10.7L45.3 10.7M50.7 10.6L50.7 16L49.8 16L49.8 11.7L48.5 12.2L48.5 11.4L50.6 10.6" class="phase-label"></path>

            <!-- Staggered phase taps + bubbles -->
            <circle r="2" cx="48" cy="26" fill="var(--electrical-panel-phase-l1-color, #8B4513)"></circle>
            <!--?lit$079520168$-->
      <!--?lit$079520168$--><line class="bubble-conn" visibility="visible" data-ln-for="phase_l1" x1="48" y1="23.75" x2="123.7451171875" y2="23.75"></line>
      <rect class="bubble-bg" width="31.2548828125" height="13.5" rx="3" visibility="visible" data-bg-for="phase_l1" x="123.7451171875" y="17"></rect>
      <path d="M132.5 22.1Q132.5 22.5 132.3 22.8Q132.1 23.1 131.8 23.3Q132.2 23.4 132.4 23.8Q132.6 24.1 132.6 24.5Q132.6 25.2 132.1 25.7Q131.7 26.1 130.9 26.1Q130.1 26.1 129.6 25.7Q129.1 25.2 129.1 24.5Q129.1 24.1 129.4 23.8Q129.6 23.4 130 23.3Q129.6 23.1 129.4 22.8Q129.2 22.5 129.2 22.1Q129.2 21.4 129.7 21Q130.1 20.6 130.9 20.6Q131.6 20.6 132.1 21Q132.5 21.4 132.5 22.1M131.7 24.5Q131.7 24.1 131.5 23.9Q131.3 23.6 130.9 23.6Q130.5 23.6 130.2 23.9Q130 24.1 130 24.5Q130 24.9 130.2 25.1Q130.5 25.4 130.9 25.4Q131.3 25.4 131.5 25.1Q131.7 24.9 131.7 24.5M131.6 22.1Q131.6 21.8 131.4 21.5Q131.2 21.3 130.9 21.3Q130.5 21.3 130.3 21.5Q130.1 21.7 130.1 22.1Q130.1 22.5 130.3 22.7Q130.5 22.9 130.9 22.9Q131.2 22.9 131.4 22.7Q131.6 22.5 131.6 22.1M136.1 20.6L136.2 20.6L136.2 21.4L136.1 21.4Q135.3 21.4 134.9 21.8Q134.4 22.2 134.3 22.9Q134.8 22.5 135.4 22.5Q136.1 22.5 136.6 23Q137 23.5 137 24.3Q137 25.1 136.5 25.6Q136 26.1 135.2 26.1Q134.4 26.1 133.9 25.5Q133.4 24.9 133.4 23.9L133.4 23.6Q133.4 22.2 134.1 21.4Q134.8 20.6 136.1 20.6M135.2 23.2Q134.9 23.2 134.7 23.4Q134.4 23.5 134.3 23.8L134.3 24.1Q134.3 24.7 134.6 25Q134.8 25.4 135.2 25.4Q135.6 25.4 135.8 25.1Q136.1 24.8 136.1 24.3Q136.1 23.8 135.8 23.5Q135.6 23.2 135.2 23.2M141 22.1Q141 22.5 140.8 22.8Q140.6 23.1 140.3 23.3Q140.7 23.4 140.9 23.8Q141.1 24.1 141.1 24.5Q141.1 25.2 140.7 25.7Q140.2 26.1 139.4 26.1Q138.6 26.1 138.1 25.7Q137.7 25.2 137.7 24.5Q137.7 24.1 137.9 23.8Q138.1 23.4 138.5 23.3Q138.2 23.1 138 22.8Q137.8 22.5 137.8 22.1Q137.8 21.4 138.2 21Q138.7 20.6 139.4 20.6Q140.1 20.6 140.6 21Q141 21.4 141 22.1M140.3 24.5Q140.3 24.1 140 23.9Q139.8 23.6 139.4 23.6Q139 23.6 138.8 23.9Q138.5 24.1 138.5 24.5Q138.5 24.9 138.8 25.1Q139 25.4 139.4 25.4Q139.8 25.4 140 25.1Q140.3 24.9 140.3 24.5M140.1 22.1Q140.1 21.8 139.9 21.5Q139.7 21.3 139.4 21.3Q139.1 21.3 138.9 21.5Q138.7 21.7 138.7 22.1Q138.7 22.5 138.9 22.7Q139.1 22.9 139.4 22.9Q139.7 22.9 139.9 22.7Q140.1 22.5 140.1 22.1M147.1 20.7L148.1 24.7L148.9 20.7L149.9 20.7L148.6 26L147.7 26L146.7 22.1L145.7 26L144.8 26L143.6 20.7L144.5 20.7L145.3 24.7L146.3 20.7" class="pwr-value" fill="var(--primary-text-color)"></path>
      <!--?lit$079520168$-->
      <!--?lit$079520168$-->
    
            <circle r="2" cx="36" cy="46" fill="var(--electrical-panel-phase-l2-color, #1A202C)"></circle>
            <!--?lit$079520168$-->
      <!--?lit$079520168$--><line class="bubble-conn" visibility="visible" data-ln-for="phase_l2" x1="36" y1="43.75" x2="158.7451171875" y2="43.75"></line>
      <rect class="bubble-bg" width="31.2548828125" height="13.5" rx="3" visibility="visible" data-bg-for="phase_l2" x="158.7451171875" y="37"></rect>
      <path d="M167.7 40.7L167.7 41.2L165.6 46L164.6 46L166.8 41.4L164 41.4L164 40.7L167.7 40.7M171.9 42.8L171.9 43.8Q171.9 44.9 171.5 45.5Q171 46.1 170.1 46.1Q169.3 46.1 168.8 45.5Q168.4 44.9 168.4 43.8L168.4 42.9Q168.4 41.7 168.8 41.2Q169.3 40.6 170.1 40.6Q171 40.6 171.4 41.2Q171.9 41.7 171.9 42.8M171 44L171 42.8Q171 42 170.8 41.7Q170.6 41.3 170.1 41.3Q169.7 41.3 169.5 41.6Q169.3 42 169.3 42.7L169.3 43.9Q169.3 44.6 169.5 45Q169.7 45.4 170.1 45.4Q170.6 45.4 170.8 45Q171 44.7 171 44M175.1 40.6L175.1 46L174.2 46L174.2 41.7L172.9 42.2L172.9 41.4L175 40.6L175.1 40.6M182.1 40.7L183.1 44.7L183.9 40.7L184.9 40.7L183.6 46L182.7 46L181.7 42.1L180.7 46L179.8 46L178.6 40.7L179.5 40.7L180.3 44.7L181.3 40.7" class="pwr-value" fill="var(--primary-text-color)"></path>
      <!--?lit$079520168$-->
      <!--?lit$079520168$-->
    
            <circle r="2" cx="24" cy="66" fill="var(--electrical-panel-phase-l3-color, #5A6474)"></circle>
            <!--?lit$079520168$-->
      <!--?lit$079520168$--><line class="bubble-conn" visibility="visible" data-ln-for="phase_l3" x1="24" y1="63.75" x2="193.7451171875" y2="63.75"></line>
      <rect class="bubble-bg" width="31.2548828125" height="13.5" rx="3" visibility="visible" data-bg-for="phase_l3" x="193.7451171875" y="57"></rect>
      <path d="M201.7 63.8Q201.2 64.2 200.6 64.2Q199.9 64.2 199.5 63.7Q199.1 63.3 199.1 62.5Q199.1 61.9 199.3 61.5Q199.5 61.1 199.9 60.8Q200.3 60.6 200.8 60.6Q201.6 60.6 202.1 61.2Q202.6 61.8 202.6 62.8L202.6 63.1Q202.6 64.5 201.9 65.3Q201.3 66 200 66L199.9 66L199.9 65.3L200 65.3Q200.8 65.3 201.2 64.9Q201.6 64.5 201.7 63.8M200.8 63.5Q201.1 63.5 201.3 63.4Q201.5 63.2 201.7 63L201.7 62.6Q201.7 62 201.4 61.7Q201.2 61.3 200.8 61.3Q200.4 61.3 200.2 61.6Q200 61.9 200 62.4Q200 62.9 200.2 63.2Q200.4 63.5 200.8 63.5M205.9 63.8Q205.5 64.2 204.9 64.2Q204.2 64.2 203.8 63.7Q203.3 63.3 203.3 62.5Q203.3 61.9 203.6 61.5Q203.8 61.1 204.2 60.8Q204.6 60.6 205.1 60.6Q205.9 60.6 206.4 61.2Q206.8 61.8 206.8 62.8L206.8 63.1Q206.8 64.5 206.2 65.3Q205.5 66 204.2 66L204.1 66L204.1 65.3L204.2 65.3Q205 65.3 205.5 64.9Q205.9 64.5 205.9 63.8M205.1 63.5Q205.3 63.5 205.6 63.4Q205.8 63.2 205.9 63L205.9 62.6Q205.9 62 205.7 61.7Q205.5 61.3 205.1 61.3Q204.7 61.3 204.5 61.6Q204.2 61.9 204.2 62.4Q204.2 62.9 204.5 63.2Q204.7 63.5 205.1 63.5M211.1 62.8L211.1 63.8Q211.1 64.9 210.7 65.5Q210.3 66.1 209.4 66.1Q208.5 66.1 208.1 65.5Q207.7 64.9 207.7 63.8L207.7 62.9Q207.7 61.7 208.1 61.2Q208.5 60.6 209.4 60.6Q210.3 60.6 210.7 61.2Q211.1 61.7 211.1 62.8M210.3 64L210.3 62.8Q210.3 62 210.1 61.7Q209.8 61.3 209.4 61.3Q209 61.3 208.8 61.6Q208.6 62 208.5 62.7L208.5 63.9Q208.5 64.6 208.8 65Q209 65.4 209.4 65.4Q209.8 65.4 210 65Q210.2 64.7 210.3 64M217.1 60.7L218.1 64.7L218.9 60.7L219.9 60.7L218.6 66L217.7 66L216.7 62.1L215.7 66L214.8 66L213.6 60.7L214.5 60.7L215.3 64.7L216.3 60.7" class="pwr-value" fill="var(--primary-text-color)"></path>
      <!--?lit$079520168$-->
      <!--?lit$079520168$-->
    

            <!-- Main totals (right column) -->
            <path d="M282.6 23.7L282.6 24.2L280.8 24.2L280.8 29L280.2 29L280.2 24.2L278.4 24.2L278.4 23.7L282.6 23.7M282.7 27L282.7 27Q282.7 26.4 282.9 25.9Q283.2 25.5 283.6 25.2Q284 25 284.5 25Q285.3 25 285.8 25.5Q286.3 26.1 286.3 27L286.3 27.1Q286.3 27.6 286.1 28.1Q285.9 28.6 285.5 28.8Q285 29.1 284.5 29.1Q283.7 29.1 283.2 28.5Q282.7 28 282.7 27M283.4 27.1Q283.4 27.7 283.7 28.1Q284 28.5 284.5 28.5Q285 28.5 285.3 28.1Q285.6 27.7 285.6 27Q285.6 26.3 285.3 25.9Q285 25.5 284.5 25.5Q284 25.5 283.7 25.9Q283.4 26.3 283.4 27.1M287.4 24.1L288.1 24.1L288.1 25L288.8 25L288.8 25.6L288.1 25.6L288.1 28Q288.1 28.3 288.2 28.4Q288.3 28.5 288.5 28.5Q288.6 28.5 288.8 28.5L288.8 29Q288.6 29.1 288.3 29.1Q287.9 29.1 287.6 28.8Q287.4 28.5 287.4 28L287.4 25.6L286.7 25.6L286.7 25L287.4 25L287.4 24.1M292.8 29L292.1 29Q292 28.9 292 28.6Q291.5 29.1 290.8 29.1Q290.3 29.1 289.9 28.7Q289.5 28.4 289.5 27.9Q289.5 27.3 290 26.9Q290.4 26.6 291.3 26.6L292 26.6L292 26.3Q292 25.9 291.7 25.7Q291.5 25.5 291.1 25.5Q290.8 25.5 290.5 25.7Q290.3 25.9 290.3 26.1L289.6 26.1Q289.6 25.8 289.8 25.6Q290 25.3 290.4 25.1Q290.7 25 291.2 25Q291.8 25 292.2 25.3Q292.6 25.6 292.6 26.2L292.6 28.1Q292.6 28.6 292.8 28.9L292.8 29M290.9 28.5Q291.3 28.5 291.5 28.3Q291.8 28.2 292 27.9L292 27.1L291.4 27.1Q290.2 27.1 290.2 27.8Q290.2 28.1 290.4 28.3Q290.6 28.5 290.9 28.5M294.4 23.4L294.4 29L293.8 29L293.8 23.4" class="label-secondary"></path>
            <!--?lit$079520168$-->
      <!--?lit$079520168$-->
      <rect class="bubble-bg" width="33.001708984375" height="13.5" rx="3" visibility="visible" data-bg-for="total" x="321.998291015625" y="20"></rect>
      <path d="M328.4 26.6L328.4 25.9L329 25.9Q329.4 25.9 329.6 25.7Q329.9 25.5 329.9 25.1Q329.9 24.7 329.7 24.5Q329.5 24.3 329 24.3Q328.7 24.3 328.5 24.5Q328.2 24.7 328.2 25.1L327.3 25.1Q327.3 24.6 327.6 24.3Q327.8 24 328.2 23.8Q328.6 23.6 329 23.6Q329.8 23.6 330.3 24Q330.7 24.4 330.7 25.1Q330.7 25.5 330.5 25.8Q330.3 26.1 329.9 26.3Q330.4 26.4 330.6 26.7Q330.8 27.1 330.8 27.5Q330.8 28.2 330.3 28.6Q329.8 29.1 329 29.1Q328.3 29.1 327.8 28.7Q327.3 28.3 327.3 27.6L328.2 27.6Q328.2 27.9 328.4 28.1Q328.6 28.4 329 28.4Q329.5 28.4 329.7 28.1Q329.9 27.9 329.9 27.5Q329.9 27.1 329.7 26.9Q329.4 26.6 329 26.6L328.4 26.6M332.3 28.1Q332.5 28.1 332.7 28.2Q332.8 28.3 332.8 28.6Q332.8 28.8 332.7 28.9Q332.5 29 332.3 29Q332 29 331.9 28.9Q331.8 28.8 331.8 28.6Q331.8 28.3 331.9 28.2Q332 28.1 332.3 28.1M337.2 25.8L337.2 26.8Q337.2 27.9 336.8 28.5Q336.4 29.1 335.5 29.1Q334.6 29.1 334.2 28.5Q333.8 27.9 333.7 26.8L333.7 25.9Q333.7 24.7 334.2 24.2Q334.6 23.6 335.5 23.6Q336.4 23.6 336.8 24.2Q337.2 24.7 337.2 25.8M336.3 27L336.3 25.8Q336.3 25 336.1 24.7Q335.9 24.3 335.5 24.3Q335 24.3 334.8 24.6Q334.6 25 334.6 25.7L334.6 26.9Q334.6 27.6 334.8 28Q335 28.4 335.5 28.4Q335.9 28.4 336.1 28Q336.3 27.7 336.3 27M342.4 29L341.2 27.3L340.8 27.7L340.8 29L339.9 29L339.9 23.4L340.8 23.4L340.8 26.6L341.1 26.3L342.2 25L343.3 25L341.8 26.7L343.4 29L342.4 29M347.1 23.7L348.1 27.7L348.9 23.7L349.9 23.7L348.6 29L347.7 29L346.7 25.1L345.7 29L344.8 29L343.6 23.7L344.5 23.7L345.3 27.7L346.3 23.7" class="pwr-value" fill="#c53030"></path>
      <!--?lit$079520168$-->
      <!--?lit$079520168$-->
    
            <path d="M285.9 46.3L285.9 48.3Q285.6 48.7 285.1 48.9Q284.6 49.1 284 49.1Q283.3 49.1 282.8 48.8Q282.3 48.5 282 47.9Q281.8 47.3 281.8 46.6L281.8 46.1Q281.8 44.9 282.3 44.3Q282.9 43.6 283.9 43.6Q284.7 43.6 285.2 44Q285.7 44.4 285.9 45.2L285.2 45.2Q285 44.2 283.9 44.2Q283.2 44.2 282.8 44.7Q282.5 45.2 282.5 46.1L282.5 46.5Q282.5 47.4 282.9 48Q283.3 48.5 284 48.5Q284.4 48.5 284.7 48.4Q285 48.3 285.2 48.1L285.2 46.9L283.9 46.9L283.9 46.3L285.9 46.3M288.8 45L288.8 45.6Q288.7 45.6 288.5 45.6Q287.8 45.6 287.6 46.2L287.6 49L286.9 49L286.9 45L287.6 45L287.6 45.5Q287.9 45 288.5 45Q288.7 45 288.8 45M290.2 45L290.2 49L289.5 49L289.5 45L290.2 45M289.5 44Q289.5 43.8 289.6 43.7Q289.7 43.6 289.9 43.6Q290.1 43.6 290.2 43.7Q290.3 43.8 290.3 44Q290.3 44.2 290.2 44.3Q290.1 44.4 289.9 44.4Q289.7 44.4 289.6 44.3Q289.5 44.2 289.5 44M291.1 47L291.1 47Q291.1 46.1 291.6 45.5Q292 45 292.7 45Q293.4 45 293.8 45.4L293.8 43.4L294.5 43.4L294.5 49L293.8 49L293.8 48.6Q293.4 49.1 292.7 49.1Q292 49.1 291.6 48.5Q291.1 47.9 291.1 47M291.8 47.1Q291.8 47.7 292.1 48.1Q292.4 48.5 292.8 48.5Q293.5 48.5 293.8 47.9L293.8 46.1Q293.5 45.5 292.9 45.5Q292.4 45.5 292.1 45.9Q291.8 46.3 291.8 47.1" class="label-secondary"></path>
            <!--?lit$079520168$-->
      <!--?lit$079520168$-->
      <rect class="bubble-bg" width="33.001708984375" height="13.5" rx="3" visibility="visible" data-bg-for="grid" x="321.998291015625" y="40"></rect>
      <path d="M329.8 43.6L329.8 49L328.9 49L328.9 44.7L327.6 45.2L327.6 44.4L329.7 43.6L329.8 43.6M332.3 48.1Q332.5 48.1 332.7 48.2Q332.8 48.3 332.8 48.6Q332.8 48.8 332.7 48.9Q332.5 49 332.3 49Q332 49 331.9 48.9Q331.8 48.8 331.8 48.6Q331.8 48.3 331.9 48.2Q332 48.1 332.3 48.1M334.8 46.6L334.8 45.9L335.3 45.9Q335.7 45.9 336 45.7Q336.2 45.5 336.2 45.1Q336.2 44.7 336 44.5Q335.8 44.3 335.4 44.3Q335 44.3 334.8 44.5Q334.6 44.7 334.6 45.1L333.7 45.1Q333.7 44.6 333.9 44.3Q334.1 44 334.5 43.8Q334.9 43.6 335.4 43.6Q336.2 43.6 336.6 44Q337.1 44.4 337.1 45.1Q337.1 45.5 336.9 45.8Q336.6 46.1 336.3 46.3Q336.7 46.4 337 46.7Q337.2 47.1 337.2 47.5Q337.2 48.2 336.7 48.6Q336.2 49.1 335.4 49.1Q334.6 49.1 334.1 48.7Q333.6 48.3 333.6 47.6L334.5 47.6Q334.5 47.9 334.8 48.1Q335 48.4 335.4 48.4Q335.8 48.4 336.1 48.1Q336.3 47.9 336.3 47.5Q336.3 47.1 336 46.9Q335.8 46.6 335.3 46.6L334.8 46.6M342.4 49L341.2 47.3L340.8 47.7L340.8 49L339.9 49L339.9 43.4L340.8 43.4L340.8 46.6L341.1 46.3L342.2 45L343.3 45L341.8 46.7L343.4 49L342.4 49M347.1 43.7L348.1 47.7L348.9 43.7L349.9 43.7L348.6 49L347.7 49L346.7 45.1L345.7 49L344.8 49L343.6 43.7L344.5 43.7L345.3 47.7L346.3 43.7" class="pwr-value" fill="var(--secondary-text-color)"></path>
      <!--?lit$079520168$-->
      <!--?lit$079520168$-->
    

            <!--?lit$079520168$--><!---->
      <!--?lit$079520168$--><!----><circle r="3.5" cx="48" cy="104" fill="#3182ce"></circle><!---->
      <!--?lit$079520168$--><line stroke-width="2" x1="48" y1="104" x2="70" y2="104" stroke="#3182ce"></line>

      <g class="meta-target">
        <!--?lit$079520168$--><title><!---->40 A · 30 mA · 2P · Cl. A · L1<!----></title>
        <rect stroke-width="1.8" rx="2" x="70" y="92" width="24" height="24" fill="color-mix(in srgb, #3182ce 18%, var(--ha-card-background, var(--card-background-color, white)))" stroke="#3182ce"></rect>
        <path d="M79 108L77.2 108L77.2 101.6L79 101.6Q79.9 101.6 80.5 102Q81.2 102.4 81.6 103.1Q81.9 103.7 81.9 104.6L81.9 105Q81.9 105.9 81.6 106.6Q81.2 107.3 80.5 107.6Q79.9 108 79 108M79 102.5L78.3 102.5L78.3 107.1L79 107.1Q79.9 107.1 80.3 106.6Q80.8 106 80.8 105L80.8 104.6Q80.8 103.6 80.4 103Q79.9 102.5 79 102.5M85.8 101.6L85.8 108L84.7 108L84.7 102.9L83.1 103.4L83.1 102.5L85.6 101.6" fill="#3182ce"></path>
      </g>

      <!--?lit$079520168$-->

      <!--?lit$079520168$--><line stroke-width="3" x1="82" y1="116" x2="82" y2="196" stroke="#3182ce"></line>

      <!--?lit$079520168$--><!---->
      <line stroke-width="3" x1="82" y1="132" x2="104" y2="132" stroke="#3182ce"></line>
      <!--?lit$079520168$--><line stroke-width="1.5" x1="114" y1="142" x2="114" y2="175" stroke="#3182ce"></line>
      <g class="meta-target">
        <!--?lit$079520168$--><title><!---->16 A · 2P · 2.5 mm²<!----></title>
        <rect stroke-width="1.8" rx="2" x="104" y="122" width="20" height="20" fill="color-mix(in srgb, #3182ce 18%, var(--ha-card-background, var(--card-background-color, white)))" stroke="#3182ce"></rect>
        <path d="M115.8 136L115.2 134.5L112.8 134.5L112.2 136L111.1 136L113.5 129.6L114.5 129.6L116.9 136L115.8 136M114 131L113.1 133.6L114.9 133.6" fill="#3182ce"></path>
      </g>
      <!--?lit$079520168$-->

      <!--?lit$079520168$--><!---->
          <g class="meta-target">
            <!--?lit$079520168$--><title><!---->Office · L0<!----></title>
            <line stroke-width="0.8" x1="114" y1="153" x2="132" y2="153" stroke="#3182ce"></line>
            <!--?lit$079520168$-->
                    <rect x="132" y="146" width="20" height="12" fill="#38a169" rx="3"></rect>
                    <path d="M139.5 149.4L139.5 153.7L141.7 153.7L141.7 154.4L138.6 154.4L138.6 149.4L139.5 149.4M145.5 151.4L145.5 152.3Q145.5 153.4 145.1 153.9Q144.7 154.5 143.9 154.5Q143.1 154.5 142.7 153.9Q142.3 153.4 142.3 152.4L142.3 151.5Q142.3 150.4 142.7 149.9Q143.1 149.3 143.9 149.3Q144.7 149.3 145.1 149.9Q145.5 150.4 145.5 151.4M144.7 152.5L144.7 151.4Q144.7 150.7 144.5 150.3Q144.3 150 143.9 150Q143.5 150 143.3 150.3Q143.1 150.6 143.1 151.3L143.1 152.4Q143.1 153.1 143.3 153.5Q143.5 153.8 143.9 153.8Q144.3 153.8 144.5 153.5Q144.7 153.2 144.7 152.5" fill="white"></path>
                  
            <svg x="156" y="147" width="12" height="12" viewBox="0 0 24 24"><path d="M7.5,10.5A1.5,1.5 0 0,1 9,12A1.5,1.5 0 0,1 7.5,13.5C6.66,13.5 6,12.83 6,12A1.5,1.5 0 0,1 7.5,10.5M16.5,10.5A1.5,1.5 0 0,1 18,12A1.5,1.5 0 0,1 16.5,13.5A1.5,1.5 0 0,1 15,12A1.5,1.5 0 0,1 16.5,10.5M4.22,2H19.78C21,2 22,3 22,4.22V19.78A2.22,2.22 0 0,1 19.78,22H4.22C3,22 2,21 2,19.78V4.22A2.22,2.22 0 0,1 4.22,2M12,4A8,8 0 0,0 4,12A8,8 0 0,0 12,20A8,8 0 0,0 20,12A8,8 0 0,0 12,4Z" fill="var(--secondary-text-color, #718096)"></path></svg>
            <!--?lit$079520168$-->
                    <path d="M177 151.7L177 152.1Q177 152.9 176.8 153.5Q176.5 154.2 176 154.5Q175.4 154.8 174.8 154.8Q174.1 154.8 173.6 154.5Q173 154.2 172.8 153.5Q172.5 152.9 172.5 152.1L172.5 151.7Q172.5 150.9 172.7 150.3Q173 149.6 173.6 149.3Q174.1 149 174.7 149Q175.4 149 176 149.3Q176.5 149.6 176.8 150.3Q177 150.9 177 151.7M176.3 152.1L176.3 151.7Q176.3 150.7 175.9 150.2Q175.5 149.6 174.7 149.6Q174 149.6 173.6 150.2Q173.2 150.7 173.2 151.7L173.2 152.1Q173.2 153.1 173.6 153.6Q174 154.2 174.8 154.2Q175.5 154.2 175.9 153.6Q176.3 153.1 176.3 152.1M179.1 154.7L178.4 154.7L178.4 151.1L177.7 151.1L177.7 150.5L178.4 150.5L178.4 150.1Q178.4 149.4 178.8 149Q179.1 148.7 179.8 148.7Q180 148.7 180.3 148.7L180.3 149.3Q180.1 149.3 179.9 149.3Q179.5 149.3 179.3 149.5Q179.1 149.7 179.1 150.1L179.1 150.5L180 150.5L180 151.1L179.1 151.1L179.1 154.7M181.9 154.7L181.2 154.7L181.2 151.1L180.5 151.1L180.5 150.5L181.2 150.5L181.2 150.1Q181.2 149.4 181.5 149Q181.9 148.7 182.6 148.7Q182.8 148.7 183.1 148.7L183 149.3Q182.8 149.3 182.6 149.3Q182.3 149.3 182.1 149.5Q181.9 149.7 181.9 150.1L181.9 150.5L182.8 150.5L182.8 151.1L181.9 151.1L181.9 154.7M184.4 150.5L184.4 154.7L183.7 154.7L183.7 150.5L184.4 150.5M183.6 149.4Q183.6 149.2 183.7 149.1Q183.8 149 184 149Q184.2 149 184.4 149.1Q184.5 149.2 184.5 149.4Q184.5 149.6 184.4 149.7Q184.2 149.8 184 149.8Q183.8 149.8 183.7 149.7Q183.6 149.6 183.6 149.4M187.2 154.2Q187.6 154.2 187.9 154Q188.2 153.8 188.2 153.4L188.9 153.4Q188.9 153.8 188.7 154.1Q188.4 154.4 188.1 154.6Q187.7 154.8 187.2 154.8Q186.4 154.8 185.9 154.2Q185.4 153.7 185.4 152.7L185.4 152.5Q185.4 151.9 185.6 151.4Q185.8 151 186.2 150.7Q186.7 150.4 187.2 150.4Q187.9 150.4 188.4 150.9Q188.9 151.3 188.9 152L188.2 152Q188.2 151.6 187.9 151.3Q187.6 151 187.2 151Q186.7 151 186.4 151.4Q186.1 151.8 186.1 152.6L186.1 152.7Q186.1 153.4 186.4 153.8Q186.7 154.2 187.2 154.2M191.5 154.8Q190.6 154.8 190.1 154.2Q189.5 153.7 189.5 152.7L189.5 152.6Q189.5 152 189.8 151.5Q190 151 190.5 150.7Q190.9 150.4 191.4 150.4Q192.2 150.4 192.7 151Q193.1 151.5 193.1 152.5L193.1 152.8L190.3 152.8Q190.3 153.5 190.6 153.8Q191 154.2 191.5 154.2Q191.9 154.2 192.2 154.1Q192.4 153.9 192.6 153.7L193.1 154Q192.5 154.8 191.5 154.8M191.4 151Q191 151 190.7 151.3Q190.4 151.7 190.3 152.2L192.4 152.2L192.4 152.2Q192.4 151.6 192.1 151.3Q191.8 151 191.4 151" class="zone-room"></path>
                  
            <!--?lit$079520168$-->
          </g>
        <!----><!---->
          <g class="meta-target">
            <!--?lit$079520168$--><title><!---->Living room · L0<!----></title>
            <line stroke-width="0.8" x1="114" y1="175" x2="132" y2="175" stroke="#3182ce"></line>
            <!--?lit$079520168$-->
                    <rect x="132" y="168" width="20" height="12" fill="#38a169" rx="3"></rect>
                    <path d="M139.5 171.4L139.5 175.7L141.7 175.7L141.7 176.4L138.6 176.4L138.6 171.4L139.5 171.4M145.5 173.4L145.5 174.3Q145.5 175.4 145.1 175.9Q144.7 176.5 143.9 176.5Q143.1 176.5 142.7 175.9Q142.3 175.4 142.3 174.4L142.3 173.5Q142.3 172.4 142.7 171.9Q143.1 171.3 143.9 171.3Q144.7 171.3 145.1 171.9Q145.5 172.4 145.5 173.4M144.7 174.5L144.7 173.4Q144.7 172.7 144.5 172.3Q144.3 172 143.9 172Q143.5 172 143.3 172.3Q143.1 172.6 143.1 173.3L143.1 174.4Q143.1 175.1 143.3 175.5Q143.5 175.8 143.9 175.8Q144.3 175.8 144.5 175.5Q144.7 175.2 144.7 174.5" fill="white"></path>
                  
            <svg x="156" y="169" width="12" height="12" viewBox="0 0 24 24"><path d="M7.5,10.5A1.5,1.5 0 0,1 9,12A1.5,1.5 0 0,1 7.5,13.5C6.66,13.5 6,12.83 6,12A1.5,1.5 0 0,1 7.5,10.5M16.5,10.5A1.5,1.5 0 0,1 18,12A1.5,1.5 0 0,1 16.5,13.5A1.5,1.5 0 0,1 15,12A1.5,1.5 0 0,1 16.5,10.5M4.22,2H19.78C21,2 22,3 22,4.22V19.78A2.22,2.22 0 0,1 19.78,22H4.22C3,22 2,21 2,19.78V4.22A2.22,2.22 0 0,1 4.22,2M12,4A8,8 0 0,0 4,12A8,8 0 0,0 12,20A8,8 0 0,0 20,12A8,8 0 0,0 12,4Z" fill="var(--secondary-text-color, #718096)"></path></svg>
            <!--?lit$079520168$-->
                    <path d="M173.4 171L173.4 176.1L176.1 176.1L176.1 176.7L172.7 176.7L172.7 171L173.4 171M177.6 172.5L177.6 176.7L176.9 176.7L176.9 172.5L177.6 172.5M176.9 171.4Q176.9 171.2 177 171.1Q177.1 171 177.3 171Q177.5 171 177.6 171.1Q177.7 171.2 177.7 171.4Q177.7 171.6 177.6 171.7Q177.5 171.8 177.3 171.8Q177.1 171.8 177 171.7Q176.9 171.6 176.9 171.4M179.1 172.5L180.2 175.8L181.2 172.5L182 172.5L180.5 176.7L179.9 176.7L178.4 172.5L179.1 172.5M183.5 172.5L183.5 176.7L182.7 176.7L182.7 172.5L183.5 172.5M182.7 171.4Q182.7 171.2 182.8 171.1Q182.9 171 183.1 171Q183.3 171 183.4 171.1Q183.5 171.2 183.5 171.4Q183.5 171.6 183.4 171.7Q183.3 171.8 183.1 171.8Q182.9 171.8 182.8 171.7Q182.7 171.6 182.7 171.4M184.6 172.5L185.3 172.5L185.3 173Q185.8 172.4 186.6 172.4Q187.9 172.4 187.9 173.9L187.9 176.7L187.2 176.7L187.2 173.9Q187.2 173.5 187 173.3Q186.8 173 186.4 173Q186 173 185.7 173.2Q185.5 173.4 185.3 173.7L185.3 176.7L184.6 176.7L184.6 172.5M188.9 174.6Q188.9 173.6 189.3 173Q189.8 172.4 190.5 172.4Q191.3 172.4 191.7 173L191.8 172.5L192.4 172.5L192.4 176.6Q192.4 177.5 191.9 177.9Q191.4 178.4 190.6 178.4Q190.2 178.4 189.7 178.2Q189.3 178 189.1 177.7L189.4 177.2Q189.9 177.8 190.6 177.8Q191.1 177.8 191.4 177.5Q191.7 177.2 191.7 176.7L191.7 176.3Q191.3 176.8 190.5 176.8Q189.8 176.8 189.3 176.2Q188.9 175.6 188.9 174.6M189.6 174.7Q189.6 175.4 189.9 175.8Q190.2 176.2 190.7 176.2Q191.4 176.2 191.7 175.6L191.7 173.6Q191.4 173 190.7 173Q190.2 173 189.9 173.5Q189.6 173.9 189.6 174.7M197.5 172.5L197.5 173.2Q197.4 173.1 197.2 173.1Q196.5 173.1 196.2 173.7L196.2 176.7L195.5 176.7L195.5 172.5L196.2 172.5L196.2 173Q196.6 172.4 197.2 172.4Q197.4 172.4 197.5 172.5M197.9 174.6L197.9 174.6Q197.9 174 198.2 173.5Q198.4 173 198.9 172.7Q199.3 172.4 199.8 172.4Q200.7 172.4 201.2 173Q201.8 173.6 201.8 174.6L201.8 174.7Q201.8 175.3 201.5 175.8Q201.3 176.3 200.9 176.5Q200.4 176.8 199.9 176.8Q199 176.8 198.5 176.2Q197.9 175.6 197.9 174.6M198.7 174.7Q198.7 175.4 199 175.8Q199.3 176.2 199.9 176.2Q200.4 176.2 200.7 175.8Q201.1 175.4 201.1 174.6Q201.1 173.9 200.7 173.5Q200.4 173 199.8 173Q199.3 173 199 173.4Q198.7 173.9 198.7 174.7M202.5 174.6L202.5 174.6Q202.5 174 202.7 173.5Q203 173 203.4 172.7Q203.9 172.4 204.4 172.4Q205.3 172.4 205.8 173Q206.3 173.6 206.3 174.6L206.3 174.7Q206.3 175.3 206.1 175.8Q205.9 176.3 205.4 176.5Q205 176.8 204.4 176.8Q203.6 176.8 203 176.2Q202.5 175.6 202.5 174.6M203.2 174.7Q203.2 175.4 203.5 175.8Q203.9 176.2 204.4 176.2Q205 176.2 205.3 175.8Q205.6 175.4 205.6 174.6Q205.6 173.9 205.3 173.5Q205 173 204.4 173Q203.9 173 203.5 173.4Q203.2 173.9 203.2 174.7M207.2 172.5L207.9 172.5L207.9 173Q208.4 172.4 209.2 172.4Q210.1 172.4 210.4 173.1Q210.6 172.8 211 172.6Q211.3 172.4 211.8 172.4Q213.1 172.4 213.2 173.9L213.2 176.7L212.4 176.7L212.4 173.9Q212.4 173.5 212.2 173.3Q212 173 211.5 173Q211.1 173 210.9 173.3Q210.6 173.5 210.6 173.9L210.6 176.7L209.8 176.7L209.8 174Q209.8 173 208.9 173Q208.2 173 208 173.6L208 176.7L207.2 176.7" class="zone-room"></path>
                  
            <!--?lit$079520168$-->
          </g>
        <!---->
    <!----><!---->
      <line stroke-width="3" x1="82" y1="196" x2="104" y2="196" stroke="#3182ce"></line>
      <!--?lit$079520168$--><line stroke-width="1.5" x1="114" y1="206" x2="114" y2="239" stroke="#3182ce"></line>
      <g class="meta-target">
        <!--?lit$079520168$--><title><!---->10 A · 2P · 1.5 mm²<!----></title>
        <rect stroke-width="1.8" rx="2" x="104" y="186" width="20" height="20" fill="color-mix(in srgb, #3182ce 18%, var(--ha-card-background, var(--card-background-color, white)))" stroke="#3182ce"></rect>
        <path d="M114.1 200L111.8 200L111.8 193.6L114 193.6Q115.1 193.6 115.7 194Q116.2 194.5 116.2 195.3Q116.2 195.8 116 196.1Q115.7 196.5 115.3 196.7Q115.8 196.8 116.1 197.2Q116.4 197.6 116.4 198.1Q116.4 199 115.8 199.5Q115.2 200 114.1 200M114.3 197.1L112.9 197.1L112.9 199.1L114.2 199.1Q114.7 199.1 115 198.9Q115.3 198.6 115.3 198.1Q115.3 197.1 114.3 197.1M112.9 194.5L112.9 196.3L114 196.3Q114.5 196.3 114.8 196.1Q115.1 195.8 115.1 195.4Q115.1 194.9 114.8 194.7Q114.6 194.5 114 194.5" fill="#3182ce"></path>
      </g>
      <!--?lit$079520168$-->

      <!--?lit$079520168$--><!---->
          <g class="meta-target">
            <!--?lit$079520168$--><title><!---->Office · L0<!----></title>
            <line stroke-width="0.8" x1="114" y1="217" x2="132" y2="217" stroke="#3182ce"></line>
            <!--?lit$079520168$-->
                    <rect x="132" y="210" width="20" height="12" fill="#38a169" rx="3"></rect>
                    <path d="M139.5 213.4L139.5 217.7L141.7 217.7L141.7 218.4L138.6 218.4L138.6 213.4L139.5 213.4M145.5 215.4L145.5 216.3Q145.5 217.4 145.1 217.9Q144.7 218.5 143.9 218.5Q143.1 218.5 142.7 217.9Q142.3 217.4 142.3 216.4L142.3 215.5Q142.3 214.4 142.7 213.9Q143.1 213.3 143.9 213.3Q144.7 213.3 145.1 213.9Q145.5 214.4 145.5 215.4M144.7 216.5L144.7 215.4Q144.7 214.7 144.5 214.3Q144.3 214 143.9 214Q143.5 214 143.3 214.3Q143.1 214.6 143.1 215.3L143.1 216.4Q143.1 217.1 143.3 217.5Q143.5 217.8 143.9 217.8Q144.3 217.8 144.5 217.5Q144.7 217.2 144.7 216.5" fill="white"></path>
                  
            <svg x="156" y="211" width="12" height="12" viewBox="0 0 24 24"><path d="M12,2A7,7 0 0,1 19,9C19,11.38 17.81,13.47 16,14.74V17A1,1 0 0,1 15,18H9A1,1 0 0,1 8,17V14.74C6.19,13.47 5,11.38 5,9A7,7 0 0,1 12,2M9,21V20H15V21A1,1 0 0,1 14,22H10A1,1 0 0,1 9,21M12,4A5,5 0 0,0 7,9C7,11.05 8.23,12.81 10,13.58V16H14V13.58C15.77,12.81 17,11.05 17,9A5,5 0 0,0 12,4Z" fill="var(--secondary-text-color, #718096)"></path></svg>
            <!--?lit$079520168$-->
                    <path d="M177 215.7L177 216.1Q177 216.9 176.8 217.5Q176.5 218.2 176 218.5Q175.4 218.8 174.8 218.8Q174.1 218.8 173.6 218.5Q173 218.2 172.8 217.5Q172.5 216.9 172.5 216.1L172.5 215.7Q172.5 214.9 172.7 214.3Q173 213.6 173.6 213.3Q174.1 213 174.7 213Q175.4 213 176 213.3Q176.5 213.6 176.8 214.3Q177 214.9 177 215.7M176.3 216.1L176.3 215.7Q176.3 214.7 175.9 214.2Q175.5 213.6 174.7 213.6Q174 213.6 173.6 214.2Q173.2 214.7 173.2 215.7L173.2 216.1Q173.2 217.1 173.6 217.6Q174 218.2 174.8 218.2Q175.5 218.2 175.9 217.6Q176.3 217.1 176.3 216.1M179.1 218.7L178.4 218.7L178.4 215.1L177.7 215.1L177.7 214.5L178.4 214.5L178.4 214.1Q178.4 213.4 178.8 213Q179.1 212.7 179.8 212.7Q180 212.7 180.3 212.7L180.3 213.3Q180.1 213.3 179.9 213.3Q179.5 213.3 179.3 213.5Q179.1 213.7 179.1 214.1L179.1 214.5L180 214.5L180 215.1L179.1 215.1L179.1 218.7M181.9 218.7L181.2 218.7L181.2 215.1L180.5 215.1L180.5 214.5L181.2 214.5L181.2 214.1Q181.2 213.4 181.5 213Q181.9 212.7 182.6 212.7Q182.8 212.7 183.1 212.7L183 213.3Q182.8 213.3 182.6 213.3Q182.3 213.3 182.1 213.5Q181.9 213.7 181.9 214.1L181.9 214.5L182.8 214.5L182.8 215.1L181.9 215.1L181.9 218.7M184.4 214.5L184.4 218.7L183.7 218.7L183.7 214.5L184.4 214.5M183.6 213.4Q183.6 213.2 183.7 213.1Q183.8 213 184 213Q184.2 213 184.4 213.1Q184.5 213.2 184.5 213.4Q184.5 213.6 184.4 213.7Q184.2 213.8 184 213.8Q183.8 213.8 183.7 213.7Q183.6 213.6 183.6 213.4M187.2 218.2Q187.6 218.2 187.9 218Q188.2 217.8 188.2 217.4L188.9 217.4Q188.9 217.8 188.7 218.1Q188.4 218.4 188.1 218.6Q187.7 218.8 187.2 218.8Q186.4 218.8 185.9 218.2Q185.4 217.7 185.4 216.7L185.4 216.5Q185.4 215.9 185.6 215.4Q185.8 215 186.2 214.7Q186.7 214.4 187.2 214.4Q187.9 214.4 188.4 214.9Q188.9 215.3 188.9 216L188.2 216Q188.2 215.6 187.9 215.3Q187.6 215 187.2 215Q186.7 215 186.4 215.4Q186.1 215.8 186.1 216.6L186.1 216.7Q186.1 217.4 186.4 217.8Q186.7 218.2 187.2 218.2M191.5 218.8Q190.6 218.8 190.1 218.2Q189.5 217.7 189.5 216.7L189.5 216.6Q189.5 216 189.8 215.5Q190 215 190.5 214.7Q190.9 214.4 191.4 214.4Q192.2 214.4 192.7 215Q193.1 215.5 193.1 216.5L193.1 216.8L190.3 216.8Q190.3 217.5 190.6 217.8Q191 218.2 191.5 218.2Q191.9 218.2 192.2 218.1Q192.4 217.9 192.6 217.7L193.1 218Q192.5 218.8 191.5 218.8M191.4 215Q191 215 190.7 215.3Q190.4 215.7 190.3 216.2L192.4 216.2L192.4 216.2Q192.4 215.6 192.1 215.3Q191.8 215 191.4 215" class="zone-room"></path>
                  
            <!--?lit$079520168$-->
          </g>
        <!----><!---->
          <g class="meta-target">
            <!--?lit$079520168$--><title><!---->Hallway · L0<!----></title>
            <line stroke-width="0.8" x1="114" y1="239" x2="132" y2="239" stroke="#3182ce"></line>
            <!--?lit$079520168$-->
                    <rect x="132" y="232" width="20" height="12" fill="#38a169" rx="3"></rect>
                    <path d="M139.5 235.4L139.5 239.7L141.7 239.7L141.7 240.4L138.6 240.4L138.6 235.4L139.5 235.4M145.5 237.4L145.5 238.3Q145.5 239.4 145.1 239.9Q144.7 240.5 143.9 240.5Q143.1 240.5 142.7 239.9Q142.3 239.4 142.3 238.4L142.3 237.5Q142.3 236.4 142.7 235.9Q143.1 235.3 143.9 235.3Q144.7 235.3 145.1 235.9Q145.5 236.4 145.5 237.4M144.7 238.5L144.7 237.4Q144.7 236.7 144.5 236.3Q144.3 236 143.9 236Q143.5 236 143.3 236.3Q143.1 236.6 143.1 237.3L143.1 238.4Q143.1 239.1 143.3 239.5Q143.5 239.8 143.9 239.8Q144.3 239.8 144.5 239.5Q144.7 239.2 144.7 238.5" fill="white"></path>
                  
            <svg x="156" y="233" width="12" height="12" viewBox="0 0 24 24"><path d="M12,2A7,7 0 0,1 19,9C19,11.38 17.81,13.47 16,14.74V17A1,1 0 0,1 15,18H9A1,1 0 0,1 8,17V14.74C6.19,13.47 5,11.38 5,9A7,7 0 0,1 12,2M9,21V20H15V21A1,1 0 0,1 14,22H10A1,1 0 0,1 9,21M12,4A5,5 0 0,0 7,9C7,11.05 8.23,12.81 10,13.58V16H14V13.58C15.77,12.81 17,11.05 17,9A5,5 0 0,0 12,4Z" fill="var(--secondary-text-color, #718096)"></path></svg>
            <!--?lit$079520168$-->
                    <path d="M177 235L177 240.7L176.3 240.7L176.3 238.1L173.4 238.1L173.4 240.7L172.7 240.7L172.7 235L173.4 235L173.4 237.5L176.3 237.5L176.3 235L177 235M181.6 240.7L180.9 240.7Q180.8 240.6 180.8 240.3Q180.3 240.8 179.6 240.8Q178.9 240.8 178.5 240.5Q178.1 240.1 178.1 239.6Q178.1 238.9 178.6 238.5Q179.1 238.2 180 238.2L180.7 238.2L180.7 237.8Q180.7 237.5 180.5 237.2Q180.3 237 179.9 237Q179.5 237 179.2 237.2Q178.9 237.4 178.9 237.7L178.2 237.7Q178.2 237.4 178.4 237.1Q178.7 236.8 179 236.6Q179.4 236.4 179.9 236.4Q180.6 236.4 181 236.8Q181.5 237.2 181.5 237.8L181.5 239.7Q181.5 240.3 181.6 240.7L181.6 240.7M179.7 240.2Q180 240.2 180.3 240Q180.6 239.8 180.7 239.6L180.7 238.7L180.2 238.7Q178.9 238.7 178.9 239.5Q178.9 239.8 179.1 240Q179.3 240.2 179.7 240.2M183.4 234.7L183.4 240.7L182.7 240.7L182.7 234.7L183.4 234.7M185.3 234.7L185.3 240.7L184.6 240.7L184.6 234.7L185.3 234.7M189.2 236.5L190.2 239.7L191 236.5L191.8 236.5L190.5 240.7L189.9 240.7L188.9 237.5L187.9 240.7L187.3 240.7L186.1 236.5L186.8 236.5L187.7 239.7L188.6 236.5L189.2 236.5M195.9 240.7L195.1 240.7Q195 240.6 195 240.3Q194.5 240.8 193.8 240.8Q193.2 240.8 192.8 240.5Q192.4 240.1 192.4 239.6Q192.4 238.9 192.9 238.5Q193.4 238.2 194.3 238.2L195 238.2L195 237.8Q195 237.5 194.8 237.2Q194.5 237 194.1 237Q193.7 237 193.4 237.2Q193.2 237.4 193.2 237.7L192.5 237.7Q192.5 237.4 192.7 237.1Q192.9 236.8 193.3 236.6Q193.7 236.4 194.1 236.4Q194.9 236.4 195.3 236.8Q195.7 237.2 195.7 237.8L195.7 239.7Q195.7 240.3 195.9 240.7L195.9 240.7M193.9 240.2Q194.2 240.2 194.6 240Q194.9 239.8 195 239.6L195 238.7L194.4 238.7Q193.1 238.7 193.1 239.5Q193.1 239.8 193.3 240Q193.6 240.2 193.9 240.2M197.1 236.5L198.2 239.7L199.2 236.5L199.9 236.5L198.2 241.4Q197.8 242.4 197 242.4L196.8 242.4L196.6 242.4L196.6 241.8L196.8 241.8Q197.1 241.8 197.3 241.7Q197.5 241.5 197.7 241.1L197.8 240.7L196.3 236.5" class="zone-room"></path>
                  
            <!--?lit$079520168$-->
          </g>
        <!---->
    <!---->
    <!----><!---->
      <!--?lit$079520168$--><!----><circle r="3.5" cx="36" cy="280" fill="#d69e2e"></circle><!---->
      <!--?lit$079520168$--><line stroke-width="2" x1="36" y1="280" x2="70" y2="280" stroke="#d69e2e"></line>

      <g class="meta-target">
        <!--?lit$079520168$--><title><!---->40 A · 30 mA · 2P · Cl. A · L2<!----></title>
        <rect stroke-width="1.8" rx="2" x="70" y="268" width="24" height="24" fill="color-mix(in srgb, #d69e2e 18%, var(--ha-card-background, var(--card-background-color, white)))" stroke="#d69e2e"></rect>
        <path d="M79 284L77.2 284L77.2 277.6L79 277.6Q79.9 277.6 80.5 278Q81.2 278.4 81.6 279.1Q81.9 279.7 81.9 280.6L81.9 281Q81.9 281.9 81.6 282.6Q81.2 283.3 80.5 283.6Q79.9 284 79 284M79 278.5L78.3 278.5L78.3 283.1L79 283.1Q79.9 283.1 80.3 282.6Q80.8 282 80.8 281L80.8 280.6Q80.8 279.6 80.4 279Q79.9 278.5 79 278.5M87.2 283.1L87.2 284L82.9 284L82.9 283.3L85 280.9Q85.5 280.4 85.6 280.1Q85.8 279.7 85.8 279.4Q85.8 278.9 85.6 278.7Q85.3 278.4 84.9 278.4Q84.4 278.4 84.1 278.7Q83.8 279 83.8 279.6L82.7 279.6Q82.7 279 83 278.5Q83.3 278 83.8 277.8Q84.3 277.5 84.9 277.5Q85.8 277.5 86.4 278Q86.9 278.4 86.9 279.3Q86.9 279.8 86.6 280.3Q86.4 280.8 85.8 281.5L84.2 283.1" fill="#d69e2e"></path>
      </g>

      <!--?lit$079520168$-->

      <!--?lit$079520168$--><line stroke-width="3" x1="82" y1="292" x2="82" y2="372" stroke="#d69e2e"></line>

      <!--?lit$079520168$--><!---->
      <line stroke-width="3" x1="82" y1="308" x2="104" y2="308" stroke="#d69e2e"></line>
      <!--?lit$079520168$--><line stroke-width="1.5" x1="114" y1="318" x2="114" y2="351" stroke="#d69e2e"></line>
      <g class="meta-target">
        <!--?lit$079520168$--><title><!---->16 A · 2P · 2.5 mm²<!----></title>
        <rect stroke-width="1.8" rx="2" x="104" y="298" width="20" height="20" fill="color-mix(in srgb, #d69e2e 18%, var(--ha-card-background, var(--card-background-color, white)))" stroke="#d69e2e"></rect>
        <path d="M115.5 309.9L116.6 309.9Q116.5 310.9 115.8 311.5Q115.2 312.1 114.1 312.1Q113.3 312.1 112.7 311.7Q112.2 311.4 111.8 310.7Q111.5 310 111.5 309.1L111.5 308.5Q111.5 307.6 111.8 307Q112.2 306.3 112.8 305.9Q113.4 305.5 114.1 305.5Q115.2 305.5 115.8 306.1Q116.5 306.7 116.6 307.7L115.5 307.7Q115.4 307 115.1 306.7Q114.8 306.4 114.1 306.4Q113.4 306.4 113 306.9Q112.6 307.5 112.6 308.5L112.6 309.1Q112.6 310.1 113 310.6Q113.4 311.2 114.1 311.2Q114.7 311.2 115.1 310.9Q115.4 310.6 115.5 309.9" fill="#d69e2e"></path>
      </g>
      <!--?lit$079520168$-->

      <!--?lit$079520168$--><!---->
          <g class="meta-target">
            <!--?lit$079520168$--><title><!---->Kitchen · L0<!----></title>
            <line stroke-width="0.8" x1="114" y1="329" x2="132" y2="329" stroke="#d69e2e"></line>
            <!--?lit$079520168$-->
                    <rect x="132" y="322" width="20" height="12" fill="#38a169" rx="3"></rect>
                    <path d="M139.5 325.4L139.5 329.7L141.7 329.7L141.7 330.4L138.6 330.4L138.6 325.4L139.5 325.4M145.5 327.4L145.5 328.3Q145.5 329.4 145.1 329.9Q144.7 330.5 143.9 330.5Q143.1 330.5 142.7 329.9Q142.3 329.4 142.3 328.4L142.3 327.5Q142.3 326.4 142.7 325.9Q143.1 325.3 143.9 325.3Q144.7 325.3 145.1 325.9Q145.5 326.4 145.5 327.4M144.7 328.5L144.7 327.4Q144.7 326.7 144.5 326.3Q144.3 326 143.9 326Q143.5 326 143.3 326.3Q143.1 326.6 143.1 327.3L143.1 328.4Q143.1 329.1 143.3 329.5Q143.5 329.8 143.9 329.8Q144.3 329.8 144.5 329.5Q144.7 329.2 144.7 328.5" fill="white"></path>
                  
            <svg x="156" y="323" width="12" height="12" viewBox="0 0 24 24"><path d="M7.5,10.5A1.5,1.5 0 0,1 9,12A1.5,1.5 0 0,1 7.5,13.5C6.66,13.5 6,12.83 6,12A1.5,1.5 0 0,1 7.5,10.5M16.5,10.5A1.5,1.5 0 0,1 18,12A1.5,1.5 0 0,1 16.5,13.5A1.5,1.5 0 0,1 15,12A1.5,1.5 0 0,1 16.5,10.5M4.22,2H19.78C21,2 22,3 22,4.22V19.78A2.22,2.22 0 0,1 19.78,22H4.22C3,22 2,21 2,19.78V4.22A2.22,2.22 0 0,1 4.22,2M12,4A8,8 0 0,0 4,12A8,8 0 0,0 12,20A8,8 0 0,0 20,12A8,8 0 0,0 12,4Z" fill="var(--secondary-text-color, #718096)"></path></svg>
            <!--?lit$079520168$-->
                    <path d="M176.1 330.7L174.1 328.1L173.4 328.8L173.4 330.7L172.7 330.7L172.7 325L173.4 325L173.4 327.9L175.9 325L176.8 325L174.6 327.6L177 330.7L176.1 330.7M178.3 326.5L178.3 330.7L177.6 330.7L177.6 326.5L178.3 326.5M177.6 325.4Q177.6 325.2 177.7 325.1Q177.8 325 178 325Q178.2 325 178.3 325.1Q178.4 325.2 178.4 325.4Q178.4 325.6 178.3 325.7Q178.2 325.8 178 325.8Q177.8 325.8 177.7 325.7Q177.6 325.6 177.6 325.4M179.8 325.5L180.5 325.5L180.5 326.5L181.3 326.5L181.3 327.1L180.5 327.1L180.5 329.7Q180.5 329.9 180.6 330.1Q180.7 330.2 180.9 330.2Q181.1 330.2 181.3 330.1L181.3 330.7Q181 330.8 180.7 330.8Q180.3 330.8 180 330.5Q179.8 330.2 179.8 329.7L179.8 327.1L179 327.1L179 326.5L179.8 326.5L179.8 325.5M183.8 330.2Q184.2 330.2 184.5 330Q184.8 329.8 184.8 329.4L185.5 329.4Q185.5 329.8 185.2 330.1Q185 330.4 184.6 330.6Q184.2 330.8 183.8 330.8Q182.9 330.8 182.4 330.2Q181.9 329.7 181.9 328.7L181.9 328.5Q181.9 327.9 182.2 327.4Q182.4 327 182.8 326.7Q183.2 326.4 183.8 326.4Q184.5 326.4 185 326.9Q185.5 327.3 185.5 328L184.8 328Q184.8 327.6 184.5 327.3Q184.2 327 183.8 327Q183.3 327 183 327.4Q182.7 327.8 182.7 328.6L182.7 328.7Q182.7 329.4 183 329.8Q183.3 330.2 183.8 330.2M187 324.7L187 327Q187.5 326.4 188.3 326.4Q189.6 326.4 189.6 327.9L189.6 330.7L188.9 330.7L188.9 327.9Q188.9 327.5 188.7 327.3Q188.5 327 188.1 327Q187.7 327 187.4 327.2Q187.2 327.4 187 327.7L187 330.7L186.3 330.7L186.3 324.7L187 324.7M192.5 330.8Q191.6 330.8 191.1 330.2Q190.5 329.7 190.5 328.7L190.5 328.6Q190.5 328 190.8 327.5Q191 327 191.4 326.7Q191.9 326.4 192.4 326.4Q193.2 326.4 193.7 327Q194.1 327.5 194.1 328.5L194.1 328.8L191.3 328.8Q191.3 329.5 191.6 329.8Q192 330.2 192.5 330.2Q192.9 330.2 193.2 330.1Q193.4 329.9 193.6 329.7L194.1 330Q193.5 330.8 192.5 330.8M192.4 327Q191.9 327 191.6 327.3Q191.3 327.7 191.3 328.2L193.4 328.2L193.4 328.2Q193.4 327.6 193.1 327.3Q192.8 327 192.4 327M194.9 326.5L195.6 326.5L195.7 327Q196.1 326.4 196.9 326.4Q198.3 326.4 198.3 327.9L198.3 330.7L197.6 330.7L197.6 327.9Q197.5 327.5 197.3 327.3Q197.1 327 196.7 327Q196.4 327 196.1 327.2Q195.8 327.4 195.7 327.7L195.7 330.7L194.9 330.7" class="zone-room"></path>
                  
            <!--?lit$079520168$-->
          </g>
        <!----><!---->
          <g class="meta-target">
            <!--?lit$079520168$--><title><!---->Bedroom · L1<!----></title>
            <line stroke-width="0.8" x1="114" y1="351" x2="132" y2="351" stroke="#d69e2e"></line>
            <!--?lit$079520168$-->
                    <rect x="132" y="344" width="20" height="12" fill="#3182ce" rx="3"></rect>
                    <path d="M139.5 347.4L139.5 351.7L141.7 351.7L141.7 352.4L138.6 352.4L138.6 347.4L139.5 347.4M144.5 347.4L144.5 352.4L143.7 352.4L143.7 348.4L142.5 348.8L142.5 348.1L144.4 347.4" fill="white"></path>
                  
            <svg x="156" y="345" width="12" height="12" viewBox="0 0 24 24"><path d="M7.5,10.5A1.5,1.5 0 0,1 9,12A1.5,1.5 0 0,1 7.5,13.5C6.66,13.5 6,12.83 6,12A1.5,1.5 0 0,1 7.5,10.5M16.5,10.5A1.5,1.5 0 0,1 18,12A1.5,1.5 0 0,1 16.5,13.5A1.5,1.5 0 0,1 15,12A1.5,1.5 0 0,1 16.5,10.5M4.22,2H19.78C21,2 22,3 22,4.22V19.78A2.22,2.22 0 0,1 19.78,22H4.22C3,22 2,21 2,19.78V4.22A2.22,2.22 0 0,1 4.22,2M12,4A8,8 0 0,0 4,12A8,8 0 0,0 12,20A8,8 0 0,0 20,12A8,8 0 0,0 12,4Z" fill="var(--secondary-text-color, #718096)"></path></svg>
            <!--?lit$079520168$-->
                    <path d="M174.6 352.7L172.7 352.7L172.7 347L174.5 347Q175.4 347 175.9 347.4Q176.4 347.8 176.4 348.6Q176.4 349 176.2 349.3Q175.9 349.6 175.5 349.7Q176 349.9 176.3 350.2Q176.5 350.6 176.5 351.1Q176.5 351.9 176 352.3Q175.5 352.7 174.6 352.7M174.7 350.1L173.4 350.1L173.4 352.1L174.6 352.1Q175.2 352.1 175.5 351.8Q175.8 351.6 175.8 351.1Q175.8 350.1 174.7 350.1M173.4 347.7L173.4 349.5L174.5 349.5Q175 349.5 175.3 349.2Q175.6 349 175.6 348.6Q175.6 348.1 175.4 347.9Q175.1 347.7 174.5 347.7L173.4 347.7M179.3 352.8Q178.4 352.8 177.9 352.2Q177.3 351.7 177.3 350.7L177.3 350.6Q177.3 350 177.6 349.5Q177.8 349 178.3 348.7Q178.7 348.4 179.2 348.4Q180 348.4 180.5 349Q180.9 349.5 180.9 350.5L180.9 350.8L178.1 350.8Q178.1 351.5 178.4 351.8Q178.8 352.2 179.3 352.2Q179.7 352.2 180 352.1Q180.2 351.9 180.4 351.7L180.9 352Q180.3 352.8 179.3 352.8M179.2 349Q178.8 349 178.5 349.3Q178.2 349.7 178.1 350.2L180.2 350.2L180.2 350.2Q180.2 349.6 179.9 349.3Q179.6 349 179.2 349M181.6 350.6L181.6 350.6Q181.6 349.6 182.1 349Q182.5 348.4 183.3 348.4Q184 348.4 184.4 348.9L184.4 346.7L185.2 346.7L185.2 352.7L184.5 352.7L184.5 352.3Q184 352.8 183.3 352.8Q182.5 352.8 182.1 352.2Q181.6 351.6 181.6 350.6M182.3 350.7Q182.3 351.4 182.6 351.8Q182.9 352.2 183.4 352.2Q184.1 352.2 184.4 351.6L184.4 349.6Q184.1 349 183.4 349Q182.9 349 182.6 349.5Q182.3 349.9 182.3 350.7M188.3 348.5L188.3 349.2Q188.2 349.1 188 349.1Q187.3 349.1 187 349.7L187 352.7L186.3 352.7L186.3 348.5L187 348.5L187 349Q187.3 348.4 188 348.4Q188.2 348.4 188.3 348.5M188.7 350.6L188.7 350.6Q188.7 350 189 349.5Q189.2 349 189.6 348.7Q190.1 348.4 190.6 348.4Q191.5 348.4 192 349Q192.6 349.6 192.6 350.6L192.6 350.7Q192.6 351.3 192.3 351.8Q192.1 352.3 191.7 352.5Q191.2 352.8 190.6 352.8Q189.8 352.8 189.2 352.2Q188.7 351.6 188.7 350.6M189.4 350.7Q189.4 351.4 189.8 351.8Q190.1 352.2 190.6 352.2Q191.2 352.2 191.5 351.8Q191.8 351.4 191.8 350.6Q191.8 349.9 191.5 349.5Q191.2 349 190.6 349Q190.1 349 189.8 349.4Q189.4 349.9 189.4 350.7M193.3 350.6L193.3 350.6Q193.3 350 193.5 349.5Q193.8 349 194.2 348.7Q194.6 348.4 195.2 348.4Q196.1 348.4 196.6 349Q197.1 349.6 197.1 350.6L197.1 350.7Q197.1 351.3 196.9 351.8Q196.7 352.3 196.2 352.5Q195.8 352.8 195.2 352.8Q194.3 352.8 193.8 352.2Q193.3 351.6 193.3 350.6M194 350.7Q194 351.4 194.3 351.8Q194.7 352.2 195.2 352.2Q195.8 352.2 196.1 351.8Q196.4 351.4 196.4 350.6Q196.4 349.9 196.1 349.5Q195.7 349 195.2 349Q194.7 349 194.3 349.4Q194 349.9 194 350.7M198 348.5L198.7 348.5L198.7 349Q199.2 348.4 200 348.4Q200.9 348.4 201.2 349.1Q201.4 348.8 201.7 348.6Q202.1 348.4 202.5 348.4Q203.9 348.4 204 349.9L204 352.7L203.2 352.7L203.2 349.9Q203.2 349.5 203 349.3Q202.8 349 202.3 349Q201.9 349 201.7 349.3Q201.4 349.5 201.4 349.9L201.4 352.7L200.6 352.7L200.6 350Q200.6 349 199.7 349Q199 349 198.8 349.6L198.8 352.7L198 352.7" class="zone-room"></path>
                  
            <!--?lit$079520168$-->
          </g>
        <!---->
    <!----><!---->
      <line stroke-width="3" x1="82" y1="372" x2="104" y2="372" stroke="#d69e2e"></line>
      <!--?lit$079520168$--><line stroke-width="1.5" x1="114" y1="382" x2="114" y2="415" stroke="#d69e2e"></line>
      <g class="meta-target">
        <!--?lit$079520168$--><title><!---->16 A · 2P · 2.5 mm²<!----></title>
        <rect stroke-width="1.8" rx="2" x="104" y="362" width="20" height="20" fill="color-mix(in srgb, #d69e2e 18%, var(--ha-card-background, var(--card-background-color, white)))" stroke="#d69e2e"></rect>
        <path d="M113.6 376L111.7 376L111.7 369.6L113.6 369.6Q114.4 369.6 115.1 370Q115.8 370.4 116.1 371.1Q116.5 371.7 116.5 372.6L116.5 373Q116.5 373.9 116.1 374.6Q115.8 375.3 115.1 375.6Q114.4 376 113.6 376M113.6 370.5L112.8 370.5L112.8 375.1L113.5 375.1Q114.4 375.1 114.9 374.6Q115.4 374 115.4 373L115.4 372.6Q115.4 371.6 114.9 371Q114.5 370.5 113.6 370.5" fill="#d69e2e"></path>
      </g>
      <!--?lit$079520168$-->

      <!--?lit$079520168$--><!---->
          <g class="meta-target">
            <!--?lit$079520168$--><title><!---->Bathroom · L1<!----></title>
            <line stroke-width="0.8" x1="114" y1="393" x2="132" y2="393" stroke="#d69e2e"></line>
            <!--?lit$079520168$-->
                    <rect x="132" y="386" width="20" height="12" fill="#3182ce" rx="3"></rect>
                    <path d="M139.5 389.4L139.5 393.7L141.7 393.7L141.7 394.4L138.6 394.4L138.6 389.4L139.5 389.4M144.5 389.4L144.5 394.4L143.7 394.4L143.7 390.4L142.5 390.8L142.5 390.1L144.4 389.4" fill="white"></path>
                  
            <svg x="156" y="387" width="12" height="12" viewBox="0 0 24 24"><path d="M7.5,10.5A1.5,1.5 0 0,1 9,12A1.5,1.5 0 0,1 7.5,13.5C6.66,13.5 6,12.83 6,12A1.5,1.5 0 0,1 7.5,10.5M16.5,10.5A1.5,1.5 0 0,1 18,12A1.5,1.5 0 0,1 16.5,13.5A1.5,1.5 0 0,1 15,12A1.5,1.5 0 0,1 16.5,10.5M4.22,2H19.78C21,2 22,3 22,4.22V19.78A2.22,2.22 0 0,1 19.78,22H4.22C3,22 2,21 2,19.78V4.22A2.22,2.22 0 0,1 4.22,2M12,4A8,8 0 0,0 4,12A8,8 0 0,0 12,20A8,8 0 0,0 20,12A8,8 0 0,0 12,4Z" fill="var(--secondary-text-color, #718096)"></path></svg>
            <!--?lit$079520168$-->
                    <path d="M174.6 394.7L172.7 394.7L172.7 389L174.5 389Q175.4 389 175.9 389.4Q176.4 389.8 176.4 390.6Q176.4 391 176.2 391.3Q175.9 391.6 175.5 391.7Q176 391.9 176.3 392.2Q176.5 392.6 176.5 393.1Q176.5 393.9 176 394.3Q175.5 394.7 174.6 394.7M174.7 392.1L173.4 392.1L173.4 394.1L174.6 394.1Q175.2 394.1 175.5 393.8Q175.8 393.6 175.8 393.1Q175.8 392.1 174.7 392.1M173.4 389.7L173.4 391.5L174.5 391.5Q175 391.5 175.3 391.2Q175.6 391 175.6 390.6Q175.6 390.1 175.4 389.9Q175.1 389.7 174.5 389.7L173.4 389.7M180.9 394.7L180.1 394.7Q180.1 394.6 180 394.3Q179.5 394.8 178.8 394.8Q178.2 394.8 177.8 394.5Q177.4 394.1 177.4 393.6Q177.4 392.9 177.9 392.5Q178.4 392.2 179.3 392.2L180 392.2L180 391.8Q180 391.5 179.8 391.2Q179.6 391 179.1 391Q178.7 391 178.5 391.2Q178.2 391.4 178.2 391.7L177.5 391.7Q177.5 391.4 177.7 391.1Q177.9 390.8 178.3 390.6Q178.7 390.4 179.2 390.4Q179.9 390.4 180.3 390.8Q180.7 391.2 180.7 391.8L180.7 393.7Q180.7 394.3 180.9 394.7L180.9 394.7M178.9 394.2Q179.3 394.2 179.6 394Q179.9 393.8 180 393.6L180 392.7L179.5 392.7Q178.1 392.7 178.1 393.5Q178.1 393.8 178.4 394Q178.6 394.2 178.9 394.2M182.1 389.5L182.9 389.5L182.9 390.5L183.6 390.5L183.6 391.1L182.9 391.1L182.9 393.7Q182.9 393.9 183 394.1Q183.1 394.2 183.3 394.2Q183.4 394.2 183.7 394.1L183.7 394.7Q183.4 394.8 183.1 394.8Q182.6 394.8 182.4 394.5Q182.1 394.2 182.1 393.7L182.1 391.1L181.4 391.1L181.4 390.5L182.1 390.5L182.1 389.5M185.2 388.7L185.2 391Q185.7 390.4 186.5 390.4Q187.8 390.4 187.8 391.9L187.8 394.7L187.1 394.7L187.1 391.9Q187.1 391.5 186.9 391.3Q186.7 391 186.2 391Q185.9 391 185.6 391.2Q185.4 391.4 185.2 391.7L185.2 394.7L184.5 394.7L184.5 388.7L185.2 388.7M190.9 390.5L190.9 391.2Q190.8 391.1 190.6 391.1Q189.9 391.1 189.6 391.7L189.6 394.7L188.9 394.7L188.9 390.5L189.6 390.5L189.6 391Q190 390.4 190.6 390.4Q190.8 390.4 190.9 390.5M191.3 392.6L191.3 392.6Q191.3 392 191.6 391.5Q191.8 391 192.3 390.7Q192.7 390.4 193.3 390.4Q194.1 390.4 194.7 391Q195.2 391.6 195.2 392.6L195.2 392.7Q195.2 393.3 194.9 393.8Q194.7 394.3 194.3 394.5Q193.8 394.8 193.3 394.8Q192.4 394.8 191.9 394.2Q191.3 393.6 191.3 392.6M192.1 392.7Q192.1 393.4 192.4 393.8Q192.7 394.2 193.3 394.2Q193.8 394.2 194.1 393.8Q194.5 393.4 194.5 392.6Q194.5 391.9 194.1 391.5Q193.8 391 193.3 391Q192.7 391 192.4 391.4Q192.1 391.9 192.1 392.7M195.9 392.6L195.9 392.6Q195.9 392 196.1 391.5Q196.4 391 196.8 390.7Q197.3 390.4 197.8 390.4Q198.7 390.4 199.2 391Q199.7 391.6 199.7 392.6L199.7 392.7Q199.7 393.3 199.5 393.8Q199.3 394.3 198.8 394.5Q198.4 394.8 197.8 394.8Q197 394.8 196.4 394.2Q195.9 393.6 195.9 392.6M196.6 392.7Q196.6 393.4 197 393.8Q197.3 394.2 197.8 394.2Q198.4 394.2 198.7 393.8Q199 393.4 199 392.6Q199 391.9 198.7 391.5Q198.4 391 197.8 391Q197.3 391 197 391.4Q196.6 391.9 196.6 392.7M200.6 390.5L201.3 390.5L201.4 391Q201.8 390.4 202.6 390.4Q203.5 390.4 203.8 391.1Q204 390.8 204.4 390.6Q204.7 390.4 205.2 390.4Q206.6 390.4 206.6 391.9L206.6 394.7L205.9 394.7L205.9 391.9Q205.9 391.5 205.6 391.3Q205.4 391 204.9 391Q204.5 391 204.3 391.3Q204 391.5 204 391.9L204 394.7L203.2 394.7L203.2 392Q203.2 391 202.3 391Q201.6 391 201.4 391.6L201.4 394.7L200.6 394.7" class="zone-room"></path>
                  
            <!--?lit$079520168$-->
          </g>
        <!----><!---->
          <g class="meta-target">
            <!--?lit$079520168$--><title><!---->WC · L1<!----></title>
            <line stroke-width="0.8" x1="114" y1="415" x2="132" y2="415" stroke="#d69e2e"></line>
            <!--?lit$079520168$-->
                    <rect x="132" y="408" width="20" height="12" fill="#3182ce" rx="3"></rect>
                    <path d="M139.5 411.4L139.5 415.7L141.7 415.7L141.7 416.4L138.6 416.4L138.6 411.4L139.5 411.4M144.5 411.4L144.5 416.4L143.7 416.4L143.7 412.4L142.5 412.8L142.5 412.1L144.4 411.4" fill="white"></path>
                  
            <svg x="156" y="409" width="12" height="12" viewBox="0 0 24 24"><path d="M7.5,10.5A1.5,1.5 0 0,1 9,12A1.5,1.5 0 0,1 7.5,13.5C6.66,13.5 6,12.83 6,12A1.5,1.5 0 0,1 7.5,10.5M16.5,10.5A1.5,1.5 0 0,1 18,12A1.5,1.5 0 0,1 16.5,13.5A1.5,1.5 0 0,1 15,12A1.5,1.5 0 0,1 16.5,10.5M4.22,2H19.78C21,2 22,3 22,4.22V19.78A2.22,2.22 0 0,1 19.78,22H4.22C3,22 2,21 2,19.78V4.22A2.22,2.22 0 0,1 4.22,2M12,4A8,8 0 0,0 4,12A8,8 0 0,0 12,20A8,8 0 0,0 20,12A8,8 0 0,0 12,4Z" fill="var(--secondary-text-color, #718096)"></path></svg>
            <!--?lit$079520168$-->
                    <path d="M173 411L173.9 414.9L174 415.7L174.2 415L175.3 411L175.9 411L177 415L177.2 415.7L177.3 414.9L178.2 411L178.9 411L177.5 416.7L176.9 416.7L175.7 412.6L175.6 412.2L175.5 412.6L174.3 416.7L173.6 416.7L172.2 411L173 411M183.2 414.9L183.9 414.9Q183.8 415.8 183.3 416.3Q182.7 416.8 181.8 416.8Q180.8 416.8 180.2 416.1Q179.6 415.4 179.6 414.2L179.6 413.6Q179.6 412.8 179.8 412.2Q180.1 411.6 180.6 411.3Q181.2 411 181.9 411Q182.8 411 183.3 411.5Q183.9 412 183.9 412.9L183.2 412.9Q183.1 412.2 182.8 411.9Q182.4 411.6 181.9 411.6Q181.1 411.6 180.7 412.1Q180.3 412.6 180.3 413.6L180.3 414.2Q180.3 415.1 180.7 415.7Q181.1 416.2 181.8 416.2Q182.4 416.2 182.7 415.9Q183.1 415.6 183.2 414.9" class="zone-room"></path>
                  
            <!--?lit$079520168$-->
          </g>
        <!---->
    <!---->
    <!----><!---->
      <!--?lit$079520168$--><!----><circle r="3.5" cx="24" cy="456" fill="#38a169"></circle><!---->
      <!--?lit$079520168$--><line stroke-width="2" x1="24" y1="456" x2="70" y2="456" stroke="#38a169"></line>

      <g class="meta-target">
        <!--?lit$079520168$--><title><!---->40 A · 30 mA · 2P · Cl. A · L3<!----></title>
        <rect stroke-width="1.8" rx="2" x="70" y="444" width="24" height="24" fill="color-mix(in srgb, #38a169 18%, var(--ha-card-background, var(--card-background-color, white)))" stroke="#38a169"></rect>
        <path d="M79 460L77.2 460L77.2 453.6L79 453.6Q79.9 453.6 80.5 454Q81.2 454.4 81.6 455.1Q81.9 455.7 81.9 456.6L81.9 457Q81.9 457.9 81.6 458.6Q81.2 459.3 80.5 459.6Q79.9 460 79 460M79 454.5L78.3 454.5L78.3 459.1L79 459.1Q79.9 459.1 80.3 458.6Q80.8 458 80.8 457L80.8 456.6Q80.8 455.6 80.4 455Q79.9 454.5 79 454.5M84.1 457.2L84.1 456.3L84.7 456.3Q85.2 456.3 85.5 456.1Q85.8 455.8 85.8 455.3Q85.8 454.9 85.6 454.6Q85.3 454.4 84.8 454.4Q84.4 454.4 84.1 454.6Q83.9 454.9 83.9 455.3L82.8 455.3Q82.8 454.8 83.1 454.4Q83.3 454 83.8 453.7Q84.3 453.5 84.8 453.5Q85.8 453.5 86.3 454Q86.9 454.5 86.9 455.3Q86.9 455.8 86.6 456.1Q86.3 456.5 85.9 456.7Q86.4 456.9 86.7 457.3Q87 457.7 87 458.2Q87 459.1 86.4 459.6Q85.8 460.1 84.8 460.1Q83.9 460.1 83.3 459.6Q82.7 459.1 82.7 458.3L83.8 458.3Q83.8 458.7 84.1 459Q84.4 459.2 84.8 459.2Q85.3 459.2 85.6 459Q85.9 458.7 85.9 458.2Q85.9 457.7 85.6 457.4Q85.3 457.2 84.7 457.2" fill="#38a169"></path>
      </g>

      <!--?lit$079520168$-->

      <!--?lit$079520168$--><line stroke-width="3" x1="82" y1="468" x2="82" y2="570" stroke="#38a169"></line>

      <!--?lit$079520168$--><!---->
      <line stroke-width="3" x1="82" y1="484" x2="104" y2="484" stroke="#38a169"></line>
      <!--?lit$079520168$--><line stroke-width="1.5" x1="114" y1="494" x2="114" y2="549" stroke="#38a169"></line>
      <g class="meta-target">
        <!--?lit$079520168$--><title><!---->10 A · 2P · 1.5 mm²<!----></title>
        <rect stroke-width="1.8" rx="2" x="104" y="474" width="20" height="20" fill="color-mix(in srgb, #38a169 18%, var(--ha-card-background, var(--card-background-color, white)))" stroke="#38a169"></rect>
        <path d="M115.8 484.3L115.8 485.1L113.2 485.1L113.2 487.1L116.3 487.1L116.3 488L112.1 488L112.1 481.6L116.3 481.6L116.3 482.5L113.2 482.5L113.2 484.3" fill="#38a169"></path>
      </g>
      <!--?lit$079520168$-->

      <!--?lit$079520168$--><!---->
          <g class="meta-target">
            <!--?lit$079520168$--><title><!---->Living room · L0<!----></title>
            <line stroke-width="0.8" x1="114" y1="505" x2="132" y2="505" stroke="#38a169"></line>
            <!--?lit$079520168$-->
                    <rect x="132" y="498" width="20" height="12" fill="#38a169" rx="3"></rect>
                    <path d="M139.5 501.4L139.5 505.7L141.7 505.7L141.7 506.4L138.6 506.4L138.6 501.4L139.5 501.4M145.5 503.4L145.5 504.3Q145.5 505.4 145.1 505.9Q144.7 506.5 143.9 506.5Q143.1 506.5 142.7 505.9Q142.3 505.4 142.3 504.4L142.3 503.5Q142.3 502.4 142.7 501.9Q143.1 501.3 143.9 501.3Q144.7 501.3 145.1 501.9Q145.5 502.4 145.5 503.4M144.7 504.5L144.7 503.4Q144.7 502.7 144.5 502.3Q144.3 502 143.9 502Q143.5 502 143.3 502.3Q143.1 502.6 143.1 503.3L143.1 504.4Q143.1 505.1 143.3 505.5Q143.5 505.8 143.9 505.8Q144.3 505.8 144.5 505.5Q144.7 505.2 144.7 504.5" fill="white"></path>
                  
            <svg x="156" y="499" width="12" height="12" viewBox="0 0 24 24"><path d="M12,2A7,7 0 0,1 19,9C19,11.38 17.81,13.47 16,14.74V17A1,1 0 0,1 15,18H9A1,1 0 0,1 8,17V14.74C6.19,13.47 5,11.38 5,9A7,7 0 0,1 12,2M9,21V20H15V21A1,1 0 0,1 14,22H10A1,1 0 0,1 9,21M12,4A5,5 0 0,0 7,9C7,11.05 8.23,12.81 10,13.58V16H14V13.58C15.77,12.81 17,11.05 17,9A5,5 0 0,0 12,4Z" fill="var(--secondary-text-color, #718096)"></path></svg>
            <!--?lit$079520168$-->
                    <path d="M173.4 501L173.4 506.1L176.1 506.1L176.1 506.7L172.7 506.7L172.7 501L173.4 501M177.6 502.5L177.6 506.7L176.9 506.7L176.9 502.5L177.6 502.5M176.9 501.4Q176.9 501.2 177 501.1Q177.1 501 177.3 501Q177.5 501 177.6 501.1Q177.7 501.2 177.7 501.4Q177.7 501.6 177.6 501.7Q177.5 501.8 177.3 501.8Q177.1 501.8 177 501.7Q176.9 501.6 176.9 501.4M179.1 502.5L180.2 505.8L181.2 502.5L182 502.5L180.5 506.7L179.9 506.7L178.4 502.5L179.1 502.5M183.5 502.5L183.5 506.7L182.7 506.7L182.7 502.5L183.5 502.5M182.7 501.4Q182.7 501.2 182.8 501.1Q182.9 501 183.1 501Q183.3 501 183.4 501.1Q183.5 501.2 183.5 501.4Q183.5 501.6 183.4 501.7Q183.3 501.8 183.1 501.8Q182.9 501.8 182.8 501.7Q182.7 501.6 182.7 501.4M184.6 502.5L185.3 502.5L185.3 503Q185.8 502.4 186.6 502.4Q187.9 502.4 187.9 503.9L187.9 506.7L187.2 506.7L187.2 503.9Q187.2 503.5 187 503.3Q186.8 503 186.4 503Q186 503 185.7 503.2Q185.5 503.4 185.3 503.7L185.3 506.7L184.6 506.7L184.6 502.5M188.9 504.6Q188.9 503.6 189.3 503Q189.8 502.4 190.5 502.4Q191.3 502.4 191.7 503L191.8 502.5L192.4 502.5L192.4 506.6Q192.4 507.5 191.9 507.9Q191.4 508.4 190.6 508.4Q190.2 508.4 189.7 508.2Q189.3 508 189.1 507.7L189.4 507.2Q189.9 507.8 190.6 507.8Q191.1 507.8 191.4 507.5Q191.7 507.2 191.7 506.7L191.7 506.3Q191.3 506.8 190.5 506.8Q189.8 506.8 189.3 506.2Q188.9 505.6 188.9 504.6M189.6 504.7Q189.6 505.4 189.9 505.8Q190.2 506.2 190.7 506.2Q191.4 506.2 191.7 505.6L191.7 503.6Q191.4 503 190.7 503Q190.2 503 189.9 503.5Q189.6 503.9 189.6 504.7M197.5 502.5L197.5 503.2Q197.4 503.1 197.2 503.1Q196.5 503.1 196.2 503.7L196.2 506.7L195.5 506.7L195.5 502.5L196.2 502.5L196.2 503Q196.6 502.4 197.2 502.4Q197.4 502.4 197.5 502.5M197.9 504.6L197.9 504.6Q197.9 504 198.2 503.5Q198.4 503 198.9 502.7Q199.3 502.4 199.8 502.4Q200.7 502.4 201.2 503Q201.8 503.6 201.8 504.6L201.8 504.7Q201.8 505.3 201.5 505.8Q201.3 506.3 200.9 506.5Q200.4 506.8 199.9 506.8Q199 506.8 198.5 506.2Q197.9 505.6 197.9 504.6M198.7 504.7Q198.7 505.4 199 505.8Q199.3 506.2 199.9 506.2Q200.4 506.2 200.7 505.8Q201.1 505.4 201.1 504.6Q201.1 503.9 200.7 503.5Q200.4 503 199.8 503Q199.3 503 199 503.4Q198.7 503.9 198.7 504.7M202.5 504.6L202.5 504.6Q202.5 504 202.7 503.5Q203 503 203.4 502.7Q203.9 502.4 204.4 502.4Q205.3 502.4 205.8 503Q206.3 503.6 206.3 504.6L206.3 504.7Q206.3 505.3 206.1 505.8Q205.9 506.3 205.4 506.5Q205 506.8 204.4 506.8Q203.6 506.8 203 506.2Q202.5 505.6 202.5 504.6M203.2 504.7Q203.2 505.4 203.5 505.8Q203.9 506.2 204.4 506.2Q205 506.2 205.3 505.8Q205.6 505.4 205.6 504.6Q205.6 503.9 205.3 503.5Q205 503 204.4 503Q203.9 503 203.5 503.4Q203.2 503.9 203.2 504.7M207.2 502.5L207.9 502.5L207.9 503Q208.4 502.4 209.2 502.4Q210.1 502.4 210.4 503.1Q210.6 502.8 211 502.6Q211.3 502.4 211.8 502.4Q213.1 502.4 213.2 503.9L213.2 506.7L212.4 506.7L212.4 503.9Q212.4 503.5 212.2 503.3Q212 503 211.5 503Q211.1 503 210.9 503.3Q210.6 503.5 210.6 503.9L210.6 506.7L209.8 506.7L209.8 504Q209.8 503 208.9 503Q208.2 503 208 503.6L208 506.7L207.2 506.7" class="zone-room"></path>
                  
            <!--?lit$079520168$-->
          </g>
        <!----><!---->
          <g class="meta-target">
            <!--?lit$079520168$--><title><!---->Kitchen · L0<!----></title>
            <line stroke-width="0.8" x1="114" y1="527" x2="132" y2="527" stroke="#38a169"></line>
            <!--?lit$079520168$-->
                    <rect x="132" y="520" width="20" height="12" fill="#38a169" rx="3"></rect>
                    <path d="M139.5 523.4L139.5 527.7L141.7 527.7L141.7 528.4L138.6 528.4L138.6 523.4L139.5 523.4M145.5 525.4L145.5 526.3Q145.5 527.4 145.1 527.9Q144.7 528.5 143.9 528.5Q143.1 528.5 142.7 527.9Q142.3 527.4 142.3 526.4L142.3 525.5Q142.3 524.4 142.7 523.9Q143.1 523.3 143.9 523.3Q144.7 523.3 145.1 523.9Q145.5 524.4 145.5 525.4M144.7 526.5L144.7 525.4Q144.7 524.7 144.5 524.3Q144.3 524 143.9 524Q143.5 524 143.3 524.3Q143.1 524.6 143.1 525.3L143.1 526.4Q143.1 527.1 143.3 527.5Q143.5 527.8 143.9 527.8Q144.3 527.8 144.5 527.5Q144.7 527.2 144.7 526.5" fill="white"></path>
                  
            <svg x="156" y="521" width="12" height="12" viewBox="0 0 24 24"><path d="M12,2A7,7 0 0,1 19,9C19,11.38 17.81,13.47 16,14.74V17A1,1 0 0,1 15,18H9A1,1 0 0,1 8,17V14.74C6.19,13.47 5,11.38 5,9A7,7 0 0,1 12,2M9,21V20H15V21A1,1 0 0,1 14,22H10A1,1 0 0,1 9,21M12,4A5,5 0 0,0 7,9C7,11.05 8.23,12.81 10,13.58V16H14V13.58C15.77,12.81 17,11.05 17,9A5,5 0 0,0 12,4Z" fill="var(--secondary-text-color, #718096)"></path></svg>
            <!--?lit$079520168$-->
                    <path d="M176.1 528.7L174.1 526.1L173.4 526.8L173.4 528.7L172.7 528.7L172.7 523L173.4 523L173.4 525.9L175.9 523L176.8 523L174.6 525.6L177 528.7L176.1 528.7M178.3 524.5L178.3 528.7L177.6 528.7L177.6 524.5L178.3 524.5M177.6 523.4Q177.6 523.2 177.7 523.1Q177.8 523 178 523Q178.2 523 178.3 523.1Q178.4 523.2 178.4 523.4Q178.4 523.6 178.3 523.7Q178.2 523.8 178 523.8Q177.8 523.8 177.7 523.7Q177.6 523.6 177.6 523.4M179.8 523.5L180.5 523.5L180.5 524.5L181.3 524.5L181.3 525.1L180.5 525.1L180.5 527.7Q180.5 527.9 180.6 528.1Q180.7 528.2 180.9 528.2Q181.1 528.2 181.3 528.1L181.3 528.7Q181 528.8 180.7 528.8Q180.3 528.8 180 528.5Q179.8 528.2 179.8 527.7L179.8 525.1L179 525.1L179 524.5L179.8 524.5L179.8 523.5M183.8 528.2Q184.2 528.2 184.5 528Q184.8 527.8 184.8 527.4L185.5 527.4Q185.5 527.8 185.2 528.1Q185 528.4 184.6 528.6Q184.2 528.8 183.8 528.8Q182.9 528.8 182.4 528.2Q181.9 527.7 181.9 526.7L181.9 526.5Q181.9 525.9 182.2 525.4Q182.4 525 182.8 524.7Q183.2 524.4 183.8 524.4Q184.5 524.4 185 524.9Q185.5 525.3 185.5 526L184.8 526Q184.8 525.6 184.5 525.3Q184.2 525 183.8 525Q183.3 525 183 525.4Q182.7 525.8 182.7 526.6L182.7 526.7Q182.7 527.4 183 527.8Q183.3 528.2 183.8 528.2M187 522.7L187 525Q187.5 524.4 188.3 524.4Q189.6 524.4 189.6 525.9L189.6 528.7L188.9 528.7L188.9 525.9Q188.9 525.5 188.7 525.3Q188.5 525 188.1 525Q187.7 525 187.4 525.2Q187.2 525.4 187 525.7L187 528.7L186.3 528.7L186.3 522.7L187 522.7M192.5 528.8Q191.6 528.8 191.1 528.2Q190.5 527.7 190.5 526.7L190.5 526.6Q190.5 526 190.8 525.5Q191 525 191.4 524.7Q191.9 524.4 192.4 524.4Q193.2 524.4 193.7 525Q194.1 525.5 194.1 526.5L194.1 526.8L191.3 526.8Q191.3 527.5 191.6 527.8Q192 528.2 192.5 528.2Q192.9 528.2 193.2 528.1Q193.4 527.9 193.6 527.7L194.1 528Q193.5 528.8 192.5 528.8M192.4 525Q191.9 525 191.6 525.3Q191.3 525.7 191.3 526.2L193.4 526.2L193.4 526.2Q193.4 525.6 193.1 525.3Q192.8 525 192.4 525M194.9 524.5L195.6 524.5L195.7 525Q196.1 524.4 196.9 524.4Q198.3 524.4 198.3 525.9L198.3 528.7L197.6 528.7L197.6 525.9Q197.5 525.5 197.3 525.3Q197.1 525 196.7 525Q196.4 525 196.1 525.2Q195.8 525.4 195.7 525.7L195.7 528.7L194.9 528.7" class="zone-room"></path>
                  
            <!--?lit$079520168$-->
          </g>
        <!----><!---->
          <g class="meta-target">
            <!--?lit$079520168$--><title><!---->Stairs · L1<!----></title>
            <line stroke-width="0.8" x1="114" y1="549" x2="132" y2="549" stroke="#38a169"></line>
            <!--?lit$079520168$-->
                    <rect x="132" y="542" width="20" height="12" fill="#3182ce" rx="3"></rect>
                    <path d="M139.5 545.4L139.5 549.7L141.7 549.7L141.7 550.4L138.6 550.4L138.6 545.4L139.5 545.4M144.5 545.4L144.5 550.4L143.7 550.4L143.7 546.4L142.5 546.8L142.5 546.1L144.4 545.4" fill="white"></path>
                  
            <svg x="156" y="543" width="12" height="12" viewBox="0 0 24 24"><path d="M12,2A7,7 0 0,1 19,9C19,11.38 17.81,13.47 16,14.74V17A1,1 0 0,1 15,18H9A1,1 0 0,1 8,17V14.74C6.19,13.47 5,11.38 5,9A7,7 0 0,1 12,2M9,21V20H15V21A1,1 0 0,1 14,22H10A1,1 0 0,1 9,21M12,4A5,5 0 0,0 7,9C7,11.05 8.23,12.81 10,13.58V16H14V13.58C15.77,12.81 17,11.05 17,9A5,5 0 0,0 12,4Z" fill="var(--secondary-text-color, #718096)"></path></svg>
            <!--?lit$079520168$-->
                    <path d="M174.3 548.2Q173.4 547.9 172.9 547.5Q172.5 547.1 172.5 546.5Q172.5 545.8 173 545.4Q173.6 545 174.4 545Q175 545 175.5 545.2Q175.9 545.4 176.2 545.8Q176.4 546.2 176.4 546.7L175.7 546.7Q175.7 546.2 175.4 545.9Q175 545.6 174.4 545.6Q173.9 545.6 173.6 545.8Q173.3 546.1 173.3 546.5Q173.3 546.9 173.5 547.1Q173.8 547.3 174.5 547.5Q175.3 547.7 175.7 548Q176.1 548.2 176.3 548.5Q176.4 548.9 176.4 549.3Q176.4 550 175.9 550.4Q175.4 550.8 174.5 550.8Q173.9 550.8 173.4 550.6Q172.9 550.4 172.6 550Q172.3 549.6 172.3 549.1L173.1 549.1Q173.1 549.6 173.4 549.9Q173.8 550.2 174.5 550.2Q175.1 550.2 175.4 550Q175.7 549.7 175.7 549.3Q175.7 548.9 175.4 548.7Q175.1 548.4 174.3 548.2M177.6 545.5L178.3 545.5L178.3 546.5L179.1 546.5L179.1 547.1L178.3 547.1L178.3 549.7Q178.3 549.9 178.4 550.1Q178.5 550.2 178.7 550.2Q178.9 550.2 179.1 550.1L179.1 550.7Q178.8 550.8 178.5 550.8Q178 550.8 177.8 550.5Q177.6 550.2 177.6 549.7L177.6 547.1L176.8 547.1L176.8 546.5L177.6 546.5L177.6 545.5M183.3 550.7L182.5 550.7Q182.5 550.6 182.4 550.3Q181.9 550.8 181.2 550.8Q180.6 550.8 180.2 550.5Q179.8 550.1 179.8 549.6Q179.8 548.9 180.3 548.5Q180.8 548.2 181.7 548.2L182.4 548.2L182.4 547.8Q182.4 547.5 182.2 547.2Q181.9 547 181.5 547Q181.1 547 180.9 547.2Q180.6 547.4 180.6 547.7L179.9 547.7Q179.9 547.4 180.1 547.1Q180.3 546.8 180.7 546.6Q181.1 546.4 181.6 546.4Q182.3 546.4 182.7 546.8Q183.1 547.2 183.1 547.8L183.1 549.7Q183.1 550.3 183.3 550.7L183.3 550.7M181.3 550.2Q181.7 550.2 182 550Q182.3 549.8 182.4 549.6L182.4 548.7L181.8 548.7Q180.5 548.7 180.5 549.5Q180.5 549.8 180.7 550Q181 550.2 181.3 550.2M185 546.5L185 550.7L184.3 550.7L184.3 546.5L185 546.5M184.3 545.4Q184.3 545.2 184.4 545.1Q184.5 545 184.7 545Q184.9 545 185 545.1Q185.1 545.2 185.1 545.4Q185.1 545.6 185 545.7Q184.9 545.8 184.7 545.8Q184.5 545.8 184.4 545.7Q184.3 545.6 184.3 545.4M188.2 546.5L188.2 547.2Q188.1 547.1 187.9 547.1Q187.2 547.1 186.9 547.7L186.9 550.7L186.2 550.7L186.2 546.5L186.9 546.5L186.9 547Q187.3 546.4 187.9 546.4Q188.1 546.4 188.2 546.5M191.4 549.6Q191.4 549.3 191.1 549.2Q190.9 549 190.4 548.9Q189.8 548.8 189.5 548.6Q189.2 548.4 189 548.2Q188.9 548 188.9 547.7Q188.9 547.1 189.3 546.8Q189.8 546.4 190.4 546.4Q191.2 546.4 191.6 546.8Q192.1 547.2 192.1 547.8L191.3 547.8Q191.3 547.5 191.1 547.2Q190.8 547 190.4 547Q190 547 189.8 547.2Q189.6 547.4 189.6 547.6Q189.6 547.9 189.8 548Q190 548.2 190.6 548.3Q191.1 548.4 191.4 548.6Q191.8 548.8 191.9 549Q192.1 549.2 192.1 549.6Q192.1 550.1 191.6 550.5Q191.2 550.8 190.5 550.8Q190 550.8 189.6 550.6Q189.2 550.5 189 550.1Q188.7 549.8 188.7 549.4L189.5 549.4Q189.5 549.8 189.7 550Q190 550.2 190.5 550.2Q190.9 550.2 191.1 550.1Q191.4 549.9 191.4 549.6" class="zone-room"></path>
                  
            <!--?lit$079520168$-->
          </g>
        <!---->
    <!----><!---->
      <line stroke-width="3" x1="82" y1="570" x2="104" y2="570" stroke="#38a169"></line>
      <!--?lit$079520168$--><line stroke-width="1.5" x1="114" y1="580" x2="114" y2="591" stroke="#38a169"></line>
      <g class="meta-target">
        <!--?lit$079520168$--><title><!---->16 A · 2P · 2.5 mm²<!----></title>
        <rect stroke-width="1.8" rx="2" x="104" y="560" width="20" height="20" fill="color-mix(in srgb, #38a169 18%, var(--ha-card-background, var(--card-background-color, white)))" stroke="#38a169"></rect>
        <path d="M115.9 570.4L115.9 571.3L113.3 571.3L113.3 574L112.2 574L112.2 567.6L116.2 567.6L116.2 568.5L113.3 568.5L113.3 570.4" fill="#38a169"></path>
      </g>
      <!--?lit$079520168$-->

      <!--?lit$079520168$--><!---->
          <g class="meta-target">
            <!--?lit$079520168$--><title><!---->Basement · LB<!----></title>
            <line stroke-width="0.8" x1="114" y1="591" x2="132" y2="591" stroke="#38a169"></line>
            <!--?lit$079520168$-->
                    <rect x="132" y="584" width="20" height="12" fill="#718096" rx="3"></rect>
                    <path d="M139.3 587.4L139.3 591.7L141.5 591.7L141.5 592.4L138.4 592.4L138.4 587.4L139.3 587.4M144 592.4L142.2 592.4L142.2 587.4L143.9 587.4Q144.7 587.4 145.2 587.8Q145.6 588.1 145.6 588.8Q145.6 589.1 145.4 589.4Q145.3 589.7 144.9 589.8Q145.3 589.9 145.5 590.2Q145.7 590.5 145.7 590.9Q145.7 591.6 145.3 592Q144.8 592.4 144 592.4M144.1 590.1L143.1 590.1L143.1 591.7L144 591.7Q144.4 591.7 144.7 591.5Q144.9 591.3 144.9 590.9Q144.9 590.2 144.1 590.1M143.1 588.1L143.1 589.5L143.9 589.5Q144.3 589.5 144.5 589.3Q144.8 589.1 144.8 588.8Q144.8 588.4 144.6 588.3Q144.3 588.1 143.9 588.1" fill="white"></path>
                  
            <svg x="156" y="585" width="12" height="12" viewBox="0 0 24 24"><path d="M7.5,10.5A1.5,1.5 0 0,1 9,12A1.5,1.5 0 0,1 7.5,13.5C6.66,13.5 6,12.83 6,12A1.5,1.5 0 0,1 7.5,10.5M16.5,10.5A1.5,1.5 0 0,1 18,12A1.5,1.5 0 0,1 16.5,13.5A1.5,1.5 0 0,1 15,12A1.5,1.5 0 0,1 16.5,10.5M4.22,2H19.78C21,2 22,3 22,4.22V19.78A2.22,2.22 0 0,1 19.78,22H4.22C3,22 2,21 2,19.78V4.22A2.22,2.22 0 0,1 4.22,2M12,4A8,8 0 0,0 4,12A8,8 0 0,0 12,20A8,8 0 0,0 20,12A8,8 0 0,0 12,4Z" fill="var(--secondary-text-color, #718096)"></path></svg>
            <!--?lit$079520168$-->
                    <path d="M174.6 592.7L172.7 592.7L172.7 587L174.5 587Q175.4 587 175.9 587.4Q176.4 587.8 176.4 588.6Q176.4 589 176.2 589.3Q175.9 589.6 175.5 589.7Q176 589.9 176.3 590.2Q176.5 590.6 176.5 591.1Q176.5 591.9 176 592.3Q175.5 592.7 174.6 592.7M174.7 590.1L173.4 590.1L173.4 592.1L174.6 592.1Q175.2 592.1 175.5 591.8Q175.8 591.6 175.8 591.1Q175.8 590.1 174.7 590.1M173.4 587.7L173.4 589.5L174.5 589.5Q175 589.5 175.3 589.2Q175.6 589 175.6 588.6Q175.6 588.1 175.4 587.9Q175.1 587.7 174.5 587.7L173.4 587.7M180.9 592.7L180.1 592.7Q180.1 592.6 180 592.3Q179.5 592.8 178.8 592.8Q178.2 592.8 177.8 592.5Q177.4 592.1 177.4 591.6Q177.4 590.9 177.9 590.5Q178.4 590.2 179.3 590.2L180 590.2L180 589.8Q180 589.5 179.8 589.2Q179.6 589 179.1 589Q178.7 589 178.5 589.2Q178.2 589.4 178.2 589.7L177.5 589.7Q177.5 589.4 177.7 589.1Q177.9 588.8 178.3 588.6Q178.7 588.4 179.2 588.4Q179.9 588.4 180.3 588.8Q180.7 589.2 180.7 589.8L180.7 591.7Q180.7 592.3 180.9 592.7L180.9 592.7M178.9 592.2Q179.3 592.2 179.6 592Q179.9 591.8 180 591.6L180 590.7L179.5 590.7Q178.1 590.7 178.1 591.5Q178.1 591.8 178.4 592Q178.6 592.2 178.9 592.2M184.3 591.6Q184.3 591.3 184.1 591.2Q183.9 591 183.3 590.9Q182.8 590.8 182.5 590.6Q182.2 590.4 182 590.2Q181.8 590 181.8 589.7Q181.8 589.1 182.3 588.8Q182.7 588.4 183.4 588.4Q184.1 588.4 184.6 588.8Q185 589.2 185 589.8L184.3 589.8Q184.3 589.5 184 589.2Q183.8 589 183.4 589Q183 589 182.8 589.2Q182.6 589.4 182.6 589.6Q182.6 589.9 182.8 590Q183 590.2 183.5 590.3Q184.1 590.4 184.4 590.6Q184.7 590.8 184.9 591Q185.1 591.2 185.1 591.6Q185.1 592.1 184.6 592.5Q184.2 592.8 183.4 592.8Q182.9 592.8 182.5 592.6Q182.1 592.5 181.9 592.1Q181.7 591.8 181.7 591.4L182.4 591.4Q182.4 591.8 182.7 592Q183 592.2 183.4 592.2Q183.8 592.2 184.1 592.1Q184.3 591.9 184.3 591.6M187.8 592.8Q186.9 592.8 186.4 592.2Q185.8 591.7 185.8 590.7L185.8 590.6Q185.8 590 186.1 589.5Q186.3 589 186.7 588.7Q187.2 588.4 187.7 588.4Q188.5 588.4 188.9 589Q189.4 589.5 189.4 590.5L189.4 590.8L186.5 590.8Q186.6 591.5 186.9 591.8Q187.3 592.2 187.8 592.2Q188.2 592.2 188.4 592.1Q188.7 591.9 188.9 591.7L189.4 592Q188.8 592.8 187.8 592.8M187.7 589Q187.2 589 186.9 589.3Q186.6 589.7 186.6 590.2L188.7 590.2L188.7 590.2Q188.7 589.6 188.4 589.3Q188.1 589 187.7 589M190.2 588.5L190.9 588.5L190.9 589Q191.4 588.4 192.2 588.4Q193.1 588.4 193.4 589.1Q193.6 588.8 194 588.6Q194.3 588.4 194.8 588.4Q196.1 588.4 196.2 589.9L196.2 592.7L195.4 592.7L195.4 589.9Q195.4 589.5 195.2 589.3Q195 589 194.5 589Q194.1 589 193.9 589.3Q193.6 589.5 193.6 589.9L193.6 592.7L192.8 592.7L192.8 590Q192.8 589 191.9 589Q191.2 589 191 589.6L191 592.7L190.2 592.7L190.2 588.5M199 592.8Q198.1 592.8 197.6 592.2Q197.1 591.7 197.1 590.7L197.1 590.6Q197.1 590 197.3 589.5Q197.6 589 198 588.7Q198.4 588.4 198.9 588.4Q199.7 588.4 200.2 589Q200.7 589.5 200.7 590.5L200.7 590.8L197.8 590.8Q197.8 591.5 198.2 591.8Q198.5 592.2 199 592.2Q199.4 592.2 199.7 592.1Q200 591.9 200.2 591.7L200.6 592Q200.1 592.8 199 592.8M198.9 589Q198.5 589 198.2 589.3Q197.9 589.7 197.8 590.2L199.9 590.2L199.9 590.2Q199.9 589.6 199.6 589.3Q199.4 589 198.9 589M201.5 588.5L202.2 588.5L202.2 589Q202.7 588.4 203.5 588.4Q204.8 588.4 204.8 589.9L204.8 592.7L204.1 592.7L204.1 589.9Q204.1 589.5 203.9 589.3Q203.7 589 203.2 589Q202.9 589 202.6 589.2Q202.4 589.4 202.2 589.7L202.2 592.7L201.5 592.7L201.5 588.5M206.2 587.5L206.9 587.5L206.9 588.5L207.7 588.5L207.7 589.1L206.9 589.1L206.9 591.7Q206.9 591.9 207 592.1Q207.1 592.2 207.4 592.2Q207.5 592.2 207.7 592.1L207.7 592.7Q207.4 592.8 207.1 592.8Q206.7 592.8 206.4 592.5Q206.2 592.2 206.2 591.7L206.2 589.1L205.4 589.1L205.4 588.5L206.2 588.5" class="zone-room"></path>
                  
            <!--?lit$079520168$-->
          </g>
        <!---->
    <!---->
    <!----><!---->
      <!--?lit$079520168$--><!----><circle r="3.5" cx="48" cy="632" fill="#805ad5"></circle><!----><!----><circle r="3.5" cx="36" cy="632" fill="#805ad5"></circle><!----><!----><circle r="3.5" cx="24" cy="632" fill="#805ad5"></circle><!---->
      <!--?lit$079520168$--><line stroke-width="2" x1="24" y1="632" x2="70" y2="632" stroke="#805ad5"></line>

      <g class="meta-target">
        <!--?lit$079520168$--><title><!---->40 A · 30 mA · 4P · Cl. A · L1+L2+L3<!----></title>
        <rect stroke-width="1.8" rx="2" x="70" y="620" width="24" height="24" fill="color-mix(in srgb, #805ad5 18%, var(--ha-card-background, var(--card-background-color, white)))" stroke="#805ad5"></rect>
        <path d="M79 636L77.2 636L77.2 629.6L79 629.6Q79.9 629.6 80.5 630Q81.2 630.4 81.6 631.1Q81.9 631.7 81.9 632.6L81.9 633Q81.9 633.9 81.6 634.6Q81.2 635.3 80.5 635.6Q79.9 636 79 636M79 630.5L78.3 630.5L78.3 635.1L79 635.1Q79.9 635.1 80.3 634.6Q80.8 634 80.8 633L80.8 632.6Q80.8 631.6 80.4 631Q79.9 630.5 79 630.5M86.5 629.6L86.5 633.7L87.3 633.7L87.3 634.6L86.5 634.6L86.5 636L85.4 636L85.4 634.6L82.6 634.6L82.6 633.9L85.4 629.6L86.5 629.6M85.3 631.2L83.7 633.7L85.4 633.7L85.4 631" fill="#805ad5"></path>
      </g>

      <!--?lit$079520168$-->

      <!--?lit$079520168$--><line stroke-width="3" x1="82" y1="644" x2="82" y2="702" stroke="#805ad5"></line>

      <!--?lit$079520168$--><!---->
      <line stroke-width="3" x1="82" y1="660" x2="104" y2="660" stroke="#805ad5"></line>
      <!--?lit$079520168$--><line stroke-width="1.5" x1="114" y1="670" x2="114" y2="681" stroke="#805ad5"></line>
      <g class="meta-target">
        <!--?lit$079520168$--><title><!---->20 A · 4P · 6 mm²<!----></title>
        <rect stroke-width="1.8" rx="2" x="104" y="650" width="20" height="20" fill="color-mix(in srgb, #805ad5 18%, var(--ha-card-background, var(--card-background-color, white)))" stroke="#805ad5"></rect>
        <path d="M113.7 657.6L113.7 664L112.5 664L112.5 661.2L109.7 661.2L109.7 664L108.6 664L108.6 657.6L109.7 657.6L109.7 660.3L112.5 660.3L112.5 657.6L113.7 657.6M117.4 661.6L116.1 661.6L116.1 664L115 664L115 657.6L117.4 657.6Q118.5 657.6 119.1 658.2Q119.8 658.7 119.8 659.6Q119.8 660.6 119.1 661.1Q118.5 661.6 117.4 661.6M116.1 658.5L116.1 660.7L117.4 660.7Q118 660.7 118.3 660.5Q118.6 660.2 118.6 659.6Q118.6 659.1 118.3 658.8Q118 658.5 117.4 658.5" fill="#805ad5"></path>
      </g>
      <!--?lit$079520168$-->
      <!--?lit$079520168$--><line class="bubble-conn" visibility="visible" data-ln-for="c-HP" x1="124" y1="660.75" x2="321.998291015625" y2="660.75"></line>
      <rect class="bubble-bg" width="33.001708984375" height="13.5" rx="3" visibility="visible" data-bg-for="c-HP" x="321.998291015625" y="654"></rect>
      <path d="M329.8 657.6L329.8 663L328.9 663L328.9 658.7L327.6 659.2L327.6 658.4L329.7 657.6L329.8 657.6M332.3 662.1Q332.5 662.1 332.7 662.2Q332.8 662.3 332.8 662.6Q332.8 662.8 332.7 662.9Q332.5 663 332.3 663Q332 663 331.9 662.9Q331.8 662.8 331.8 662.6Q331.8 662.3 331.9 662.2Q332 662.1 332.3 662.1M336.3 660.8Q335.8 661.2 335.2 661.2Q334.5 661.2 334.1 660.7Q333.7 660.3 333.7 659.5Q333.7 658.9 333.9 658.5Q334.1 658.1 334.5 657.8Q334.9 657.6 335.4 657.6Q336.2 657.6 336.7 658.2Q337.2 658.8 337.2 659.8L337.2 660.1Q337.2 661.5 336.5 662.3Q335.9 663 334.6 663L334.5 663L334.5 662.3L334.6 662.3Q335.4 662.3 335.8 661.9Q336.2 661.5 336.3 660.8M335.4 660.5Q335.7 660.5 335.9 660.4Q336.2 660.2 336.3 660L336.3 659.6Q336.3 659 336 658.7Q335.8 658.3 335.4 658.3Q335 658.3 334.8 658.6Q334.6 658.9 334.6 659.4Q334.6 659.9 334.8 660.2Q335 660.5 335.4 660.5M342.4 663L341.2 661.3L340.8 661.7L340.8 663L339.9 663L339.9 657.4L340.8 657.4L340.8 660.6L341.1 660.3L342.2 659L343.3 659L341.8 660.7L343.4 663L342.4 663M347.1 657.7L348.1 661.7L348.9 657.7L349.9 657.7L348.6 663L347.7 663L346.7 659.1L345.7 663L344.8 663L343.6 657.7L344.5 657.7L345.3 661.7L346.3 657.7" class="pwr-value" fill="#805ad5"></path>
      <!--?lit$079520168$-->
      <!--?lit$079520168$-->
    

      <!--?lit$079520168$--><!---->
          <g class="meta-target">
            <!--?lit$079520168$--><title><!---->Heat pump · L0<!----></title>
            <line stroke-width="0.8" x1="114" y1="681" x2="132" y2="681" stroke="#805ad5"></line>
            <!--?lit$079520168$-->
                    <rect x="132" y="674" width="20" height="12" fill="#38a169" rx="3"></rect>
                    <path d="M139.5 677.4L139.5 681.7L141.7 681.7L141.7 682.4L138.6 682.4L138.6 677.4L139.5 677.4M145.5 679.4L145.5 680.3Q145.5 681.4 145.1 681.9Q144.7 682.5 143.9 682.5Q143.1 682.5 142.7 681.9Q142.3 681.4 142.3 680.4L142.3 679.5Q142.3 678.4 142.7 677.9Q143.1 677.3 143.9 677.3Q144.7 677.3 145.1 677.9Q145.5 678.4 145.5 679.4M144.7 680.5L144.7 679.4Q144.7 678.7 144.5 678.3Q144.3 678 143.9 678Q143.5 678 143.3 678.3Q143.1 678.6 143.1 679.3L143.1 680.4Q143.1 681.1 143.3 681.5Q143.5 681.8 143.9 681.8Q144.3 681.8 144.5 681.5Q144.7 681.2 144.7 680.5" fill="white"></path>
                  
            <svg x="156" y="675" width="12" height="12" viewBox="0 0 24 24"><path d="M19 3H5C3.9 3 3 3.9 3 5V19C3 20.1 3.9 21 5 21H19C20.1 21 21 20.1 21 19V5C21 3.9 20.1 3 19 3M12.75 7.08C13.57 7.2 14.32 7.5 14.95 8L12.75 10.19V7.08M11.25 7.08V10.19L9.05 8C9.68 7.5 10.43 7.2 11.25 7.08M8 9.05L10.19 11.25H7.08C7.2 10.43 7.5 9.68 8 9.05M7.08 12.75H10.19L8 14.95C7.5 14.32 7.2 13.57 7.08 12.75M11.25 16.92C10.43 16.8 9.68 16.5 9.05 16L11.25 13.81V16.92M12 13C11.45 13 11 12.55 11 12S11.45 11 12 11 13 11.45 13 12 12.55 13 12 13M12.75 16.92V13.81L14.95 16C14.32 16.5 13.57 16.8 12.75 16.92M16 14.95L13.81 12.75H16.92C16.8 13.57 16.5 14.32 16 14.95M13.81 11.25L16 9.05C16.5 9.69 16.8 10.44 16.92 11.25H13.81Z" fill="var(--secondary-text-color, #718096)"></path></svg>
            <!--?lit$079520168$-->
                    <path d="M177 677L177 682.7L176.3 682.7L176.3 680.1L173.4 680.1L173.4 682.7L172.7 682.7L172.7 677L173.4 677L173.4 679.5L176.3 679.5L176.3 677L177 677M180 682.8Q179.1 682.8 178.6 682.2Q178.1 681.7 178.1 680.7L178.1 680.6Q178.1 680 178.3 679.5Q178.5 679 179 678.7Q179.4 678.4 179.9 678.4Q180.7 678.4 181.2 679Q181.7 679.5 181.7 680.5L181.7 680.8L178.8 680.8Q178.8 681.5 179.2 681.8Q179.5 682.2 180 682.2Q180.4 682.2 180.7 682.1Q181 681.9 181.2 681.7L181.6 682Q181.1 682.8 180 682.8M179.9 679Q179.5 679 179.2 679.3Q178.9 679.7 178.8 680.2L180.9 680.2L180.9 680.2Q180.9 679.6 180.6 679.3Q180.4 679 179.9 679M185.9 682.7L185.1 682.7Q185 682.6 185 682.3Q184.5 682.8 183.8 682.8Q183.2 682.8 182.8 682.5Q182.4 682.1 182.4 681.6Q182.4 680.9 182.9 680.5Q183.4 680.2 184.3 680.2L185 680.2L185 679.8Q185 679.5 184.8 679.2Q184.5 679 184.1 679Q183.7 679 183.4 679.2Q183.2 679.4 183.2 679.7L182.5 679.7Q182.5 679.4 182.7 679.1Q182.9 678.8 183.3 678.6Q183.7 678.4 184.1 678.4Q184.9 678.4 185.3 678.8Q185.7 679.2 185.7 679.8L185.7 681.7Q185.7 682.3 185.9 682.7L185.9 682.7M183.9 682.2Q184.2 682.2 184.5 682Q184.8 681.8 185 681.6L185 680.7L184.4 680.7Q183.1 680.7 183.1 681.5Q183.1 681.8 183.3 682Q183.5 682.2 183.9 682.2M187.1 677.5L187.8 677.5L187.8 678.5L188.6 678.5L188.6 679.1L187.8 679.1L187.8 681.7Q187.8 681.9 187.9 682.1Q188 682.2 188.3 682.2Q188.4 682.2 188.6 682.1L188.6 682.7Q188.3 682.8 188.1 682.8Q187.6 682.8 187.3 682.5Q187.1 682.2 187.1 681.7L187.1 679.1L186.3 679.1L186.3 678.5L187.1 678.5L187.1 677.5M195 680.6L195 680.7Q195 681.6 194.6 682.2Q194.1 682.8 193.4 682.8Q192.6 682.8 192.2 682.3L192.2 684.4L191.4 684.4L191.4 678.5L192.1 678.5L192.1 679Q192.6 678.4 193.4 678.4Q194.1 678.4 194.6 679Q195 679.6 195 680.6M194.3 680.6Q194.3 679.9 194 679.5Q193.7 679 193.1 679Q192.5 679 192.2 679.6L192.2 681.6Q192.5 682.2 193.1 682.2Q193.7 682.2 194 681.8Q194.3 681.4 194.3 680.6M198.5 682.7L198.5 682.3Q198.1 682.8 197.3 682.8Q196.6 682.8 196.3 682.4Q195.9 682 195.9 681.3L195.9 678.5L196.6 678.5L196.6 681.2Q196.6 682.2 197.4 682.2Q198.2 682.2 198.5 681.6L198.5 678.5L199.2 678.5L199.2 682.7L198.5 682.7M200.3 678.5L201 678.5L201 679Q201.5 678.4 202.3 678.4Q203.2 678.4 203.5 679.1Q203.7 678.8 204 678.6Q204.4 678.4 204.8 678.4Q206.2 678.4 206.3 679.9L206.3 682.7L205.5 682.7L205.5 679.9Q205.5 679.5 205.3 679.3Q205.1 679 204.6 679Q204.2 679 204 679.3Q203.7 679.5 203.7 679.9L203.7 682.7L202.9 682.7L202.9 680Q202.9 679 202 679Q201.3 679 201.1 679.6L201.1 682.7L200.3 682.7L200.3 678.5M210.9 680.6L210.9 680.7Q210.9 681.6 210.5 682.2Q210 682.8 209.3 682.8Q208.5 682.8 208.1 682.3L208.1 684.4L207.3 684.4L207.3 678.5L208 678.5L208 679Q208.5 678.4 209.3 678.4Q210 678.4 210.5 679Q210.9 679.6 210.9 680.6M210.2 680.6Q210.2 679.9 209.9 679.5Q209.6 679 209.1 679Q208.4 679 208.1 679.6L208.1 681.6Q208.4 682.2 209.1 682.2Q209.6 682.2 209.9 681.8Q210.2 681.4 210.2 680.6" class="zone-room"></path>
                  
            <!--?lit$079520168$-->
          </g>
        <!---->
    <!----><!---->
      <line stroke-width="3" x1="82" y1="702" x2="104" y2="702" stroke="#805ad5"></line>
      <!--?lit$079520168$--><line stroke-width="1.5" x1="114" y1="712" x2="114" y2="723" stroke="#805ad5"></line>
      <g class="meta-target">
        <!--?lit$079520168$--><title><!---->20 A · 4P · 6 mm²<!----></title>
        <rect stroke-width="1.8" rx="2" x="104" y="692" width="20" height="20" fill="color-mix(in srgb, #805ad5 18%, var(--ha-card-background, var(--card-background-color, white)))" stroke="#805ad5"></rect>
        <path d="M112.8 703.9L113.9 703.9Q113.8 704.9 113.2 705.5Q112.5 706.1 111.4 706.1Q110.7 706.1 110.1 705.7Q109.5 705.4 109.2 704.7Q108.9 704 108.8 703.1L108.8 702.5Q108.8 701.6 109.2 701Q109.5 700.3 110.1 699.9Q110.7 699.5 111.5 699.5Q112.5 699.5 113.2 700.1Q113.8 700.7 113.9 701.7L112.8 701.7Q112.7 701 112.4 700.7Q112.1 700.4 111.5 700.4Q110.7 700.4 110.4 700.9Q110 701.5 110 702.5L110 703.1Q110 704.1 110.3 704.6Q110.7 705.2 111.4 705.2Q112.1 705.2 112.4 704.9Q112.7 704.6 112.8 703.9M119.4 699.6L119.4 700.5L117.4 700.5L117.4 706L116.3 706L116.3 700.5L114.3 700.5L114.3 699.6" fill="#805ad5"></path>
      </g>
      <!--?lit$079520168$-->
      <!--?lit$079520168$--><line class="bubble-conn" visibility="visible" data-ln-for="c-CT" x1="124" y1="702.75" x2="323.7451171875" y2="702.75"></line>
      <rect class="bubble-bg" width="31.2548828125" height="13.5" rx="3" visibility="visible" data-bg-for="c-CT" x="323.7451171875" y="696"></rect>
      <path d="M331.7 702.8Q331.2 703.2 330.6 703.2Q329.9 703.2 329.5 702.7Q329.1 702.3 329.1 701.5Q329.1 700.9 329.3 700.5Q329.5 700.1 329.9 699.8Q330.3 699.6 330.8 699.6Q331.6 699.6 332.1 700.2Q332.6 700.8 332.6 701.8L332.6 702.1Q332.6 703.5 331.9 704.3Q331.3 705 330 705L329.9 705L329.9 704.3L330 704.3Q330.8 704.3 331.2 703.9Q331.6 703.5 331.7 702.8M330.8 702.5Q331.1 702.5 331.3 702.4Q331.5 702.2 331.7 702L331.7 701.6Q331.7 701 331.4 700.7Q331.2 700.3 330.8 700.3Q330.4 700.3 330.2 700.6Q330 700.9 330 701.4Q330 701.9 330.2 702.2Q330.4 702.5 330.8 702.5M335.9 702.8Q335.5 703.2 334.9 703.2Q334.2 703.2 333.8 702.7Q333.3 702.3 333.3 701.5Q333.3 700.9 333.6 700.5Q333.8 700.1 334.2 699.8Q334.6 699.6 335.1 699.6Q335.9 699.6 336.4 700.2Q336.8 700.8 336.8 701.8L336.8 702.1Q336.8 703.5 336.2 704.3Q335.5 705 334.2 705L334.1 705L334.1 704.3L334.2 704.3Q335 704.3 335.5 703.9Q335.9 703.5 335.9 702.8M335.1 702.5Q335.3 702.5 335.6 702.4Q335.8 702.2 335.9 702L335.9 701.6Q335.9 701 335.7 700.7Q335.5 700.3 335.1 700.3Q334.7 700.3 334.5 700.6Q334.2 700.9 334.2 701.4Q334.2 701.9 334.5 702.2Q334.7 702.5 335.1 702.5M340.7 699.7L340.7 703.1L341.3 703.1L341.3 703.8L340.7 703.8L340.7 705L339.8 705L339.8 703.8L337.5 703.8L337.5 703.3L339.8 699.7L340.7 699.7M339.7 701L338.4 703.1L339.8 703.1L339.8 700.9L339.7 701M347.1 699.7L348.1 703.7L348.9 699.7L349.9 699.7L348.6 705L347.7 705L346.7 701.1L345.7 705L344.8 705L343.6 699.7L344.5 699.7L345.3 703.7L346.3 699.7" class="pwr-value" fill="#805ad5"></path>
      <!--?lit$079520168$-->
      <!--?lit$079520168$-->
    

      <!--?lit$079520168$--><!---->
          <g class="meta-target">
            <!--?lit$079520168$--><title><!---->Induction cooktop · L0<!----></title>
            <line stroke-width="0.8" x1="114" y1="723" x2="132" y2="723" stroke="#805ad5"></line>
            <!--?lit$079520168$-->
                    <rect x="132" y="716" width="20" height="12" fill="#38a169" rx="3"></rect>
                    <path d="M139.5 719.4L139.5 723.7L141.7 723.7L141.7 724.4L138.6 724.4L138.6 719.4L139.5 719.4M145.5 721.4L145.5 722.3Q145.5 723.4 145.1 723.9Q144.7 724.5 143.9 724.5Q143.1 724.5 142.7 723.9Q142.3 723.4 142.3 722.4L142.3 721.5Q142.3 720.4 142.7 719.9Q143.1 719.3 143.9 719.3Q144.7 719.3 145.1 719.9Q145.5 720.4 145.5 721.4M144.7 722.5L144.7 721.4Q144.7 720.7 144.5 720.3Q144.3 720 143.9 720Q143.5 720 143.3 720.3Q143.1 720.6 143.1 721.3L143.1 722.4Q143.1 723.1 143.3 723.5Q143.5 723.8 143.9 723.8Q144.3 723.8 144.5 723.5Q144.7 723.2 144.7 722.5" fill="white"></path>
                  
            <svg x="156" y="717" width="12" height="12" viewBox="0 0 24 24"><path d="M6,14H8L11,17H9L6,14M4,4H5V3A1,1 0 0,1 6,2H10A1,1 0 0,1 11,3V4H13V3A1,1 0 0,1 14,2H18A1,1 0 0,1 19,3V4H20A2,2 0 0,1 22,6V19A2,2 0 0,1 20,21V22H17V21H7V22H4V21A2,2 0 0,1 2,19V6A2,2 0 0,1 4,4M18,7A1,1 0 0,1 19,8A1,1 0 0,1 18,9A1,1 0 0,1 17,8A1,1 0 0,1 18,7M14,7A1,1 0 0,1 15,8A1,1 0 0,1 14,9A1,1 0 0,1 13,8A1,1 0 0,1 14,7M20,6H4V10H20V6M4,19H20V12H4V19M6,7A1,1 0 0,1 7,8A1,1 0 0,1 6,9A1,1 0 0,1 5,8A1,1 0 0,1 6,7M13,14H15L18,17H16L13,14Z" fill="var(--secondary-text-color, #718096)"></path></svg>
            <!--?lit$079520168$-->
                    <path d="M173.5 719L173.5 724.7L172.7 724.7L172.7 719L173.5 719M174.7 720.5L175.4 720.5L175.4 721Q175.9 720.4 176.7 720.4Q178 720.4 178 721.9L178 724.7L177.3 724.7L177.3 721.9Q177.3 721.5 177.1 721.3Q176.9 721 176.5 721Q176.1 721 175.9 721.2Q175.6 721.4 175.4 721.7L175.4 724.7L174.7 724.7L174.7 720.5M179 722.6L179 722.6Q179 721.6 179.4 721Q179.9 720.4 180.6 720.4Q181.4 720.4 181.8 720.9L181.8 718.7L182.5 718.7L182.5 724.7L181.9 724.7L181.8 724.3Q181.4 724.8 180.6 724.8Q179.9 724.8 179.4 724.2Q179 723.6 179 722.6M179.7 722.7Q179.7 723.4 180 723.8Q180.3 724.2 180.8 724.2Q181.5 724.2 181.8 723.6L181.8 721.6Q181.5 721 180.8 721Q180.3 721 180 721.5Q179.7 721.9 179.7 722.7M186.3 724.7L186.3 724.3Q185.8 724.8 185 724.8Q184.3 724.8 184 724.4Q183.6 724 183.6 723.3L183.6 720.5L184.4 720.5L184.4 723.2Q184.4 724.2 185.1 724.2Q186 724.2 186.2 723.6L186.2 720.5L187 720.5L187 724.7L186.3 724.7M189.8 724.2Q190.1 724.2 190.4 724Q190.7 723.8 190.8 723.4L191.4 723.4Q191.4 723.8 191.2 724.1Q191 724.4 190.6 724.6Q190.2 724.8 189.8 724.8Q188.9 724.8 188.4 724.2Q187.9 723.7 187.9 722.7L187.9 722.5Q187.9 721.9 188.1 721.4Q188.3 721 188.7 720.7Q189.2 720.4 189.8 720.4Q190.5 720.4 190.9 720.9Q191.4 721.3 191.4 722L190.8 722Q190.7 721.6 190.4 721.3Q190.2 721 189.8 721Q189.2 721 188.9 721.4Q188.6 721.8 188.6 722.6L188.6 722.7Q188.6 723.4 188.9 723.8Q189.2 724.2 189.8 724.2M192.5 719.5L193.2 719.5L193.2 720.5L194 720.5L194 721.1L193.2 721.1L193.2 723.7Q193.2 723.9 193.3 724.1Q193.4 724.2 193.7 724.2Q193.8 724.2 194 724.1L194 724.7Q193.8 724.8 193.5 724.8Q193 724.8 192.8 724.5Q192.5 724.2 192.5 723.7L192.5 721.1L191.7 721.1L191.7 720.5L192.5 720.5L192.5 719.5M195.6 720.5L195.6 724.7L194.9 724.7L194.9 720.5L195.6 720.5M194.9 719.4Q194.9 719.2 195 719.1Q195.1 719 195.3 719Q195.5 719 195.6 719.1Q195.7 719.2 195.7 719.4Q195.7 719.6 195.6 719.7Q195.5 719.8 195.3 719.8Q195.1 719.8 195 719.7Q194.9 719.6 194.9 719.4M196.6 722.6L196.6 722.6Q196.6 722 196.9 721.5Q197.1 721 197.5 720.7Q198 720.4 198.5 720.4Q199.4 720.4 199.9 721Q200.5 721.6 200.5 722.6L200.5 722.7Q200.5 723.3 200.2 723.8Q200 724.3 199.5 724.5Q199.1 724.8 198.5 724.8Q197.7 724.8 197.1 724.2Q196.6 723.6 196.6 722.6M197.3 722.7Q197.3 723.4 197.7 723.8Q198 724.2 198.5 724.2Q199.1 724.2 199.4 723.8Q199.7 723.4 199.7 722.6Q199.7 721.9 199.4 721.5Q199.1 721 198.5 721Q198 721 197.7 721.4Q197.3 721.9 197.3 722.7M201.4 720.5L202 720.5L202.1 721Q202.6 720.4 203.3 720.4Q204.7 720.4 204.7 721.9L204.7 724.7L204 724.7L204 721.9Q204 721.5 203.8 721.3Q203.6 721 203.1 721Q202.8 721 202.5 721.2Q202.2 721.4 202.1 721.7L202.1 724.7L201.4 724.7L201.4 720.5M209.5 724.2Q209.8 724.2 210.1 724Q210.4 723.8 210.4 723.4L211.1 723.4Q211.1 723.8 210.9 724.1Q210.7 724.4 210.3 724.6Q209.9 724.8 209.5 724.8Q208.6 724.8 208.1 724.2Q207.6 723.7 207.6 722.7L207.6 722.5Q207.6 721.9 207.8 721.4Q208 721 208.4 720.7Q208.9 720.4 209.4 720.4Q210.2 720.4 210.6 720.9Q211.1 721.3 211.1 722L210.4 722Q210.4 721.6 210.1 721.3Q209.9 721 209.4 721Q208.9 721 208.6 721.4Q208.3 721.8 208.3 722.6L208.3 722.7Q208.3 723.4 208.6 723.8Q208.9 724.2 209.5 724.2M211.8 722.6L211.8 722.6Q211.8 722 212 721.5Q212.2 721 212.7 720.7Q213.1 720.4 213.7 720.4Q214.5 720.4 215.1 721Q215.6 721.6 215.6 722.6L215.6 722.7Q215.6 723.3 215.4 723.8Q215.1 724.3 214.7 724.5Q214.3 724.8 213.7 724.8Q212.8 724.8 212.3 724.2Q211.8 723.6 211.8 722.6M212.5 722.7Q212.5 723.4 212.8 723.8Q213.1 724.2 213.7 724.2Q214.2 724.2 214.6 723.8Q214.9 723.4 214.9 722.6Q214.9 721.9 214.5 721.5Q214.2 721 213.7 721Q213.1 721 212.8 721.4Q212.5 721.9 212.5 722.7M216.3 722.6L216.3 722.6Q216.3 722 216.6 721.5Q216.8 721 217.2 720.7Q217.7 720.4 218.2 720.4Q219.1 720.4 219.6 721Q220.2 721.6 220.2 722.6L220.2 722.7Q220.2 723.3 219.9 723.8Q219.7 724.3 219.3 724.5Q218.8 724.8 218.2 724.8Q217.4 724.8 216.8 724.2Q216.3 723.6 216.3 722.6M217 722.7Q217 723.4 217.4 723.8Q217.7 724.2 218.2 724.2Q218.8 724.2 219.1 723.8Q219.4 723.4 219.4 722.6Q219.4 721.9 219.1 721.5Q218.8 721 218.2 721Q217.7 721 217.4 721.4Q217 721.9 217 722.7M223.7 724.7L222.3 722.8L221.8 723.3L221.8 724.7L221.1 724.7L221.1 718.7L221.8 718.7L221.8 722.4L222.2 721.9L223.5 720.5L224.4 720.5L222.7 722.3L224.6 724.7L223.7 724.7M225.4 719.5L226.1 719.5L226.1 720.5L226.9 720.5L226.9 721.1L226.1 721.1L226.1 723.7Q226.1 723.9 226.2 724.1Q226.3 724.2 226.6 724.2Q226.7 724.2 226.9 724.1L226.9 724.7Q226.6 724.8 226.4 724.8Q225.9 724.8 225.6 724.5Q225.4 724.2 225.4 723.7L225.4 721.1L224.6 721.1L224.6 720.5L225.4 720.5L225.4 719.5M227.5 722.6L227.5 722.6Q227.5 722 227.7 721.5Q228 721 228.4 720.7Q228.8 720.4 229.4 720.4Q230.3 720.4 230.8 721Q231.3 721.6 231.3 722.6L231.3 722.7Q231.3 723.3 231.1 723.8Q230.8 724.3 230.4 724.5Q230 724.8 229.4 724.8Q228.5 724.8 228 724.2Q227.5 723.6 227.5 722.6M228.2 722.7Q228.2 723.4 228.5 723.8Q228.8 724.2 229.4 724.2Q229.9 724.2 230.3 723.8Q230.6 723.4 230.6 722.6Q230.6 721.9 230.3 721.5Q229.9 721 229.4 721Q228.9 721 228.5 721.4Q228.2 721.9 228.2 722.7M235.8 722.6L235.8 722.7Q235.8 723.6 235.4 724.2Q234.9 724.8 234.2 724.8Q233.4 724.8 232.9 724.3L232.9 726.4L232.2 726.4L232.2 720.5L232.9 720.5L232.9 721Q233.4 720.4 234.1 720.4Q234.9 720.4 235.3 721Q235.8 721.6 235.8 722.6M235.1 722.6Q235.1 721.9 234.8 721.5Q234.5 721 233.9 721Q233.3 721 232.9 721.6L232.9 723.6Q233.3 724.2 233.9 724.2Q234.5 724.2 234.8 723.8Q235.1 723.4 235.1 722.6" class="zone-room"></path>
                  
            <!--?lit$079520168$-->
          </g>
        <!---->
    <!---->
    <!---->
          </svg>
