<?xml version="1.0" encoding="UTF-8"?>
<svg preserveAspectRatio="xMidYMid meet" xmlns="http://www.w3.org/2000/svg" viewBox="0 0 440 494"><style>
    .bubble-bg { fill: #ffffff; stroke: #e2e8f0; stroke-width: 0.7; }
    .bubble-conn { stroke: #cbd5e0; stroke-width: 0.5; }
    .label-secondary, .zone-room { fill: #718096; }
    .phase-label { fill: #1a202c; }
    .sat-track { fill: #e2e8f0; opacity: 0.5; }
  </style>
            <!-- Phase trunks -->
            <line stroke-width="3" x1="24" y1="20" x2="24" y2="388" stroke="var(--electrical-panel-phase-l3-color, #5A6474)"></line>
            <line stroke-width="3" x1="36" y1="20" x2="36" y2="388" stroke="var(--electrical-panel-phase-l2-color, #1A202C)"></line>
            <line stroke-width="3" x1="48" y1="20" x2="48" y2="388" stroke="var(--electrical-panel-phase-l1-color, #8B4513)"></line>

            <!-- Phase labels -->
            <path d="M21.3 10.7L21.3 15.3L23.7 15.3L23.7 16L20.4 16L20.4 10.7L21.3 10.7M25.3 13.6L25.3 12.9L25.9 12.9Q26.3 12.9 26.5 12.7Q26.8 12.5 26.8 12.1Q26.8 11.7 26.6 11.5Q26.4 11.3 25.9 11.3Q25.6 11.3 25.4 11.5Q25.1 11.7 25.1 12.1L24.2 12.1Q24.2 11.6 24.5 11.3Q24.7 11 25.1 10.8Q25.5 10.6 25.9 10.6Q26.7 10.6 27.2 11Q27.6 11.4 27.6 12.1Q27.6 12.5 27.4 12.8Q27.2 13.1 26.8 13.3Q27.3 13.4 27.5 13.7Q27.7 14.1 27.7 14.5Q27.7 15.2 27.2 15.6Q26.7 16.1 25.9 16.1Q25.2 16.1 24.7 15.7Q24.2 15.3 24.2 14.6L25.1 14.6Q25.1 14.9 25.3 15.1Q25.5 15.4 25.9 15.4Q26.4 15.4 26.6 15.1Q26.8 14.9 26.8 14.5Q26.8 14.1 26.6 13.9Q26.3 13.6 25.8 13.6" class="phase-label"></path>
            <path d="M33.3 10.7L33.3 15.3L35.7 15.3L35.7 16L32.4 16L32.4 10.7L33.3 10.7M39.9 15.3L39.9 16L36.3 16L36.3 15.4L38.1 13.5Q38.5 13 38.6 12.7Q38.8 12.4 38.8 12.2Q38.8 11.8 38.6 11.5Q38.4 11.3 38 11.3Q37.6 11.3 37.3 11.6Q37.1 11.8 37.1 12.3L36.2 12.3Q36.2 11.8 36.4 11.4Q36.6 11 37 10.8Q37.5 10.6 38 10.6Q38.8 10.6 39.2 11Q39.7 11.4 39.7 12.1Q39.7 12.5 39.4 12.9Q39.2 13.3 38.7 13.9L37.4 15.3" class="phase-label"></path>
            <path d="M45.3 10.7L45.3 15.3L47.7 15.3L47.7 16L44.4 16L44.4 10.7L45.3 10.7M50.7 10.6L50.7 16L49.8 16L49.8 11.7L48.5 12.2L48.5 11.4L50.6 10.6" class="phase-label"></path>

            <!-- Staggered phase taps + bubbles -->
            <circle r="2" cx="48" cy="26" fill="var(--electrical-panel-phase-l1-color, #8B4513)"></circle>
            
      <line class="bubble-conn" visibility="hidden" data-ln-for="phase_l1" x1="48" y1="22" x2="150" y2="22"></line>
      <rect class="bubble-bg" width="42" height="15" rx="3" visibility="hidden" data-bg-for="phase_l1" x="130" y="14"></rect>
      
      
      
    
            <circle r="2" cx="36" cy="46" fill="var(--electrical-panel-phase-l2-color, #1A202C)"></circle>
            
      <line class="bubble-conn" visibility="hidden" data-ln-for="phase_l2" x1="36" y1="42" x2="185" y2="42"></line>
      <rect class="bubble-bg" width="42" height="15" rx="3" visibility="hidden" data-bg-for="phase_l2" x="165" y="34"></rect>
      
      
      
    
            <circle r="2" cx="24" cy="66" fill="var(--electrical-panel-phase-l3-color, #5A6474)"></circle>
            
      <line class="bubble-conn" visibility="hidden" data-ln-for="phase_l3" x1="24" y1="62" x2="220" y2="62"></line>
      <rect class="bubble-bg" width="42" height="15" rx="3" visibility="hidden" data-bg-for="phase_l3" x="200" y="54"></rect>
      
      
      
    

            <!-- Main totals (right column) -->
            <path d="M282.6 23.7L282.6 24.2L280.8 24.2L280.8 29L280.2 29L280.2 24.2L278.4 24.2L278.4 23.7L282.6 23.7M282.7 27L282.7 27Q282.7 26.4 282.9 25.9Q283.2 25.5 283.6 25.2Q284 25 284.5 25Q285.3 25 285.8 25.5Q286.3 26.1 286.3 27L286.3 27.1Q286.3 27.6 286.1 28.1Q285.9 28.6 285.5 28.8Q285 29.1 284.5 29.1Q283.7 29.1 283.2 28.5Q282.7 28 282.7 27M283.4 27.1Q283.4 27.7 283.7 28.1Q284 28.5 284.5 28.5Q285 28.5 285.3 28.1Q285.6 27.7 285.6 27Q285.6 26.3 285.3 25.9Q285 25.5 284.5 25.5Q284 25.5 283.7 25.9Q283.4 26.3 283.4 27.1M287.4 24.1L288.1 24.1L288.1 25L288.8 25L288.8 25.6L288.1 25.6L288.1 28Q288.1 28.3 288.2 28.4Q288.3 28.5 288.5 28.5Q288.6 28.5 288.8 28.5L288.8 29Q288.6 29.1 288.3 29.1Q287.9 29.1 287.6 28.8Q287.4 28.5 287.4 28L287.4 25.6L286.7 25.6L286.7 25L287.4 25L287.4 24.1M292.8 29L292.1 29Q292 28.9 292 28.6Q291.5 29.1 290.8 29.1Q290.3 29.1 289.9 28.7Q289.5 28.4 289.5 27.9Q289.5 27.3 290 26.9Q290.4 26.6 291.3 26.6L292 26.6L292 26.3Q292 25.9 291.7 25.7Q291.5 25.5 291.1 25.5Q290.8 25.5 290.5 25.7Q290.3 25.9 290.3 26.1L289.6 26.1Q289.6 25.8 289.8 25.6Q290 25.3 290.4 25.1Q290.7 25 291.2 25Q291.8 25 292.2 25.3Q292.6 25.6 292.6 26.2L292.6 28.1Q292.6 28.6 292.8 28.9L292.8 29M290.9 28.5Q291.3 28.5 291.5 28.3Q291.8 28.2 292 27.9L292 27.1L291.4 27.1Q290.2 27.1 290.2 27.8Q290.2 28.1 290.4 28.3Q290.6 28.5 290.9 28.5M294.4 23.4L294.4 29L293.8 29L293.8 23.4" class="label-secondary"></path>
            
      
      <rect class="bubble-bg" width="33.001708984375" height="13.5" rx="3" visibility="visible" data-bg-for="total" x="341.998291015625" y="20"></rect>
      <path d="M348.4 26.6L348.4 25.9L349 25.9Q349.4 25.9 349.6 25.7Q349.9 25.5 349.9 25.1Q349.9 24.7 349.7 24.5Q349.5 24.3 349 24.3Q348.7 24.3 348.5 24.5Q348.2 24.7 348.2 25.1L347.3 25.1Q347.3 24.6 347.6 24.3Q347.8 24 348.2 23.8Q348.6 23.6 349 23.6Q349.8 23.6 350.3 24Q350.7 24.4 350.7 25.1Q350.7 25.5 350.5 25.8Q350.3 26.1 349.9 26.3Q350.4 26.4 350.6 26.7Q350.8 27.1 350.8 27.5Q350.8 28.2 350.3 28.6Q349.8 29.1 349 29.1Q348.3 29.1 347.8 28.7Q347.3 28.3 347.3 27.6L348.2 27.6Q348.2 27.9 348.4 28.1Q348.6 28.4 349 28.4Q349.5 28.4 349.7 28.1Q349.9 27.9 349.9 27.5Q349.9 27.1 349.7 26.9Q349.4 26.6 349 26.6L348.4 26.6M352.3 28.1Q352.5 28.1 352.7 28.2Q352.8 28.3 352.8 28.6Q352.8 28.8 352.7 28.9Q352.5 29 352.3 29Q352 29 351.9 28.9Q351.8 28.8 351.8 28.6Q351.8 28.3 351.9 28.2Q352 28.1 352.3 28.1M357.2 25.8L357.2 26.8Q357.2 27.9 356.8 28.5Q356.4 29.1 355.5 29.1Q354.6 29.1 354.2 28.5Q353.8 27.9 353.7 26.8L353.7 25.9Q353.7 24.7 354.2 24.2Q354.6 23.6 355.5 23.6Q356.4 23.6 356.8 24.2Q357.2 24.7 357.2 25.8M356.3 27L356.3 25.8Q356.3 25 356.1 24.7Q355.9 24.3 355.5 24.3Q355 24.3 354.8 24.6Q354.6 25 354.6 25.7L354.6 26.9Q354.6 27.6 354.8 28Q355 28.4 355.5 28.4Q355.9 28.4 356.1 28Q356.3 27.7 356.3 27M362.4 29L361.2 27.3L360.8 27.7L360.8 29L359.9 29L359.9 23.4L360.8 23.4L360.8 26.6L361.1 26.3L362.2 25L363.3 25L361.8 26.7L363.4 29L362.4 29M367.1 23.7L368.1 27.7L368.9 23.7L369.9 23.7L368.6 29L367.7 29L366.7 25.1L365.7 29L364.8 29L363.6 23.7L364.5 23.7L365.3 27.7L366.3 23.7" class="pwr-value" fill="#c53030"></path>
      
      
    
            <path d="M285.9 46.3L285.9 48.3Q285.6 48.7 285.1 48.9Q284.6 49.1 284 49.1Q283.3 49.1 282.8 48.8Q282.3 48.5 282 47.9Q281.8 47.3 281.8 46.6L281.8 46.1Q281.8 44.9 282.3 44.3Q282.9 43.6 283.9 43.6Q284.7 43.6 285.2 44Q285.7 44.4 285.9 45.2L285.2 45.2Q285 44.2 283.9 44.2Q283.2 44.2 282.8 44.7Q282.5 45.2 282.5 46.1L282.5 46.5Q282.5 47.4 282.9 48Q283.3 48.5 284 48.5Q284.4 48.5 284.7 48.4Q285 48.3 285.2 48.1L285.2 46.9L283.9 46.9L283.9 46.3L285.9 46.3M288.8 45L288.8 45.6Q288.7 45.6 288.5 45.6Q287.8 45.6 287.6 46.2L287.6 49L286.9 49L286.9 45L287.6 45L287.6 45.5Q287.9 45 288.5 45Q288.7 45 288.8 45M290.2 45L290.2 49L289.5 49L289.5 45L290.2 45M289.5 44Q289.5 43.8 289.6 43.7Q289.7 43.6 289.9 43.6Q290.1 43.6 290.2 43.7Q290.3 43.8 290.3 44Q290.3 44.2 290.2 44.3Q290.1 44.4 289.9 44.4Q289.7 44.4 289.6 44.3Q289.5 44.2 289.5 44M291.1 47L291.1 47Q291.1 46.1 291.6 45.5Q292 45 292.7 45Q293.4 45 293.8 45.4L293.8 43.4L294.5 43.4L294.5 49L293.8 49L293.8 48.6Q293.4 49.1 292.7 49.1Q292 49.1 291.6 48.5Q291.1 47.9 291.1 47M291.8 47.1Q291.8 47.7 292.1 48.1Q292.4 48.5 292.8 48.5Q293.5 48.5 293.8 47.9L293.8 46.1Q293.5 45.5 292.9 45.5Q292.4 45.5 292.1 45.9Q291.8 46.3 291.8 47.1" class="label-secondary"></path>
            
      
      <rect class="bubble-bg" width="35.484619140625" height="13.5" rx="3" visibility="visible" data-bg-for="grid" x="339.515380859375" y="40"></rect>
      <path d="M348.2 46L348.2 46.7L345.1 46.7L345.1 46L348.2 46M352.7 43.7L352.7 44.2L350.6 49L349.6 49L351.8 44.4L349 44.4L349 43.7L352.7 43.7M354.4 46.6L354.4 45.9L355 45.9Q355.4 45.9 355.6 45.7Q355.9 45.5 355.9 45.1Q355.9 44.7 355.7 44.5Q355.5 44.3 355.1 44.3Q354.7 44.3 354.5 44.5Q354.2 44.7 354.2 45.1L353.3 45.1Q353.3 44.6 353.6 44.3Q353.8 44 354.2 43.8Q354.6 43.6 355 43.6Q355.8 43.6 356.3 44Q356.8 44.4 356.8 45.1Q356.8 45.5 356.5 45.8Q356.3 46.1 355.9 46.3Q356.4 46.4 356.6 46.7Q356.8 47.1 356.8 47.5Q356.8 48.2 356.3 48.6Q355.8 49.1 355 49.1Q354.3 49.1 353.8 48.7Q353.3 48.3 353.3 47.6L354.2 47.6Q354.2 47.9 354.4 48.1Q354.7 48.4 355.1 48.4Q355.5 48.4 355.7 48.1Q355.9 47.9 355.9 47.5Q355.9 47.1 355.7 46.9Q355.5 46.6 355 46.6L354.4 46.6M361.3 48.3L361.3 49L357.7 49L357.7 48.4L359.4 46.5Q359.8 46 360 45.7Q360.2 45.4 360.2 45.2Q360.2 44.8 359.9 44.5Q359.7 44.3 359.4 44.3Q358.9 44.3 358.7 44.6Q358.5 44.8 358.5 45.3L357.6 45.3Q357.6 44.8 357.8 44.4Q358 44 358.4 43.8Q358.8 43.6 359.4 43.6Q360.1 43.6 360.6 44Q361 44.4 361 45.1Q361 45.5 360.8 45.9Q360.6 46.3 360.1 46.9L358.8 48.3L361.3 48.3M367.1 43.7L368.1 47.7L368.9 43.7L369.9 43.7L368.6 49L367.7 49L366.7 45.1L365.7 49L364.8 49L363.6 43.7L364.5 43.7L365.3 47.7L366.3 43.7" class="pwr-value" fill="var(--secondary-text-color)"></path>
      
      
    

            
      <circle r="3.5" cx="48" cy="104" fill="#3182ce"></circle>
      <line stroke-width="2" x1="48" y1="104" x2="70" y2="104" stroke="#3182ce"></line>

      <g class="meta-target">
        <title>40 A · 30 mA · 2P · Cl. A · L1</title>
        <rect stroke-width="1.8" rx="2" x="70" y="92" width="24" height="24" fill="color-mix(in srgb, #3182ce 18%, var(--ha-card-background, var(--card-background-color, white)))" stroke="#3182ce"></rect>
        <path d="M79 108L77.2 108L77.2 101.6L79 101.6Q79.9 101.6 80.5 102Q81.2 102.4 81.6 103.1Q81.9 103.7 81.9 104.6L81.9 105Q81.9 105.9 81.6 106.6Q81.2 107.3 80.5 107.6Q79.9 108 79 108M79 102.5L78.3 102.5L78.3 107.1L79 107.1Q79.9 107.1 80.3 106.6Q80.8 106 80.8 105L80.8 104.6Q80.8 103.6 80.4 103Q79.9 102.5 79 102.5M85.8 101.6L85.8 108L84.7 108L84.7 102.9L83.1 103.4L83.1 102.5L85.6 101.6" fill="#3182ce"></path>
      </g>

      
      <line class="bubble-conn" visibility="visible" data-ln-for="g-D1" x1="94" y1="104.75" x2="348.0078125" y2="104.75"></line>
      <rect class="bubble-bg" width="26.9921875" height="13.5" rx="3" visibility="visible" data-bg-for="g-D1" x="348.0078125" y="98"></rect>
      <path d="M354.4 104.5L353.6 104.4L353.9 101.7L356.8 101.7L356.8 102.4L354.7 102.4L354.5 103.7Q354.9 103.5 355.4 103.5Q356.1 103.5 356.5 104Q357 104.5 357 105.3Q357 106.1 356.5 106.6Q356 107.1 355.2 107.1Q354.5 107.1 354 106.7Q353.5 106.2 353.5 105.6L354.3 105.6Q354.4 105.9 354.6 106.2Q354.8 106.4 355.2 106.4Q355.6 106.4 355.9 106.1Q356.1 105.8 356.1 105.3Q356.1 104.8 355.8 104.5Q355.6 104.2 355.1 104.2Q354.9 104.2 354.7 104.3Q354.6 104.3 354.4 104.5M361.3 106.3L361.3 107L357.7 107L357.7 106.4L359.4 104.5Q359.8 104 360 103.7Q360.2 103.4 360.2 103.2Q360.2 102.8 359.9 102.5Q359.7 102.3 359.4 102.3Q358.9 102.3 358.7 102.6Q358.5 102.8 358.5 103.3L357.6 103.3Q357.6 102.8 357.8 102.4Q358 102 358.4 101.8Q358.8 101.6 359.4 101.6Q360.1 101.6 360.6 102Q361 102.4 361 103.1Q361 103.5 360.8 103.9Q360.6 104.3 360.1 104.9L358.8 106.3L361.3 106.3M367.1 101.7L368.1 105.7L368.9 101.7L369.9 101.7L368.6 107L367.7 107L366.7 103.1L365.7 107L364.8 107L363.6 101.7L364.5 101.7L365.3 105.7L366.3 101.7" class="pwr-value" fill="#3182ce"></path>
      
      
    

      <line stroke-width="3" x1="82" y1="116" x2="82" y2="326" stroke="#3182ce"></line>

      
      <line stroke-width="3" x1="82" y1="132" x2="104" y2="132" stroke="#3182ce"></line>
      <line stroke-width="1.5" x1="114" y1="142" x2="114" y2="197" stroke="#3182ce"></line>
      <g class="meta-target">
        <title>16 A · 2P · 2.5 mm²</title>
        <rect stroke-width="1.8" rx="2" x="104" y="122" width="20" height="20" fill="color-mix(in srgb, #3182ce 18%, var(--ha-card-background, var(--card-background-color, white)))" stroke="#3182ce"></rect>
        <path d="M115.8 136L115.2 134.5L112.8 134.5L112.2 136L111.1 136L113.5 129.6L114.5 129.6L116.9 136L115.8 136M114 131L113.1 133.6L114.9 133.6" fill="#3182ce"></path>
      </g>
      
      <line class="bubble-conn" visibility="visible" data-ln-for="c-A" x1="124" y1="132.75" x2="343.7451171875" y2="132.75"></line>
      <rect class="bubble-bg" width="31.2548828125" height="13.5" rx="3" visibility="visible" data-bg-for="c-A" x="343.7451171875" y="126"></rect>
      <path d="M350.1 132.5L349.4 132.4L349.7 129.7L352.5 129.7L352.5 130.4L350.4 130.4L350.3 131.7Q350.6 131.5 351.1 131.5Q351.9 131.5 352.3 132Q352.7 132.5 352.7 133.3Q352.7 134.1 352.2 134.6Q351.8 135.1 351 135.1Q350.2 135.1 349.7 134.7Q349.3 134.2 349.2 133.6L350.1 133.6Q350.1 133.9 350.4 134.2Q350.6 134.4 350.9 134.4Q351.4 134.4 351.6 134.1Q351.8 133.8 351.8 133.3Q351.8 132.8 351.6 132.5Q351.3 132.2 350.9 132.2Q350.6 132.2 350.5 132.3Q350.3 132.3 350.1 132.5M356.1 129.6L356.2 129.6L356.2 130.4L356.1 130.4Q355.3 130.4 354.9 130.8Q354.4 131.2 354.3 131.9Q354.8 131.5 355.4 131.5Q356.1 131.5 356.6 132Q357 132.5 357 133.3Q357 134.1 356.5 134.6Q356 135.1 355.2 135.1Q354.4 135.1 353.9 134.5Q353.4 133.9 353.4 132.9L353.4 132.6Q353.4 131.2 354.1 130.4Q354.8 129.6 356.1 129.6M355.2 132.2Q354.9 132.2 354.7 132.4Q354.4 132.5 354.3 132.8L354.3 133.1Q354.3 133.7 354.6 134Q354.8 134.4 355.2 134.4Q355.6 134.4 355.8 134.1Q356.1 133.8 356.1 133.3Q356.1 132.8 355.8 132.5Q355.6 132.2 355.2 132.2M360.1 129.6L360.1 135L359.2 135L359.2 130.7L357.9 131.2L357.9 130.4L360 129.6L360.1 129.6M367.1 129.7L368.1 133.7L368.9 129.7L369.9 129.7L368.6 135L367.7 135L366.7 131.1L365.7 135L364.8 135L363.6 129.7L364.5 129.7L365.3 133.7L366.3 129.7" class="pwr-value" fill="#3182ce"></path>
      
      
    

      
          <g class="meta-target">
            <title>Kitchen sockets · L0</title>
            <line stroke-width="0.8" x1="114" y1="153" x2="132" y2="153" stroke="#3182ce"></line>
            
                    <rect x="132" y="146" width="20" height="12" fill="#38a169" rx="3"></rect>
                    <path d="M139.5 149.4L139.5 153.7L141.7 153.7L141.7 154.4L138.6 154.4L138.6 149.4L139.5 149.4M145.5 151.4L145.5 152.3Q145.5 153.4 145.1 153.9Q144.7 154.5 143.9 154.5Q143.1 154.5 142.7 153.9Q142.3 153.4 142.3 152.4L142.3 151.5Q142.3 150.4 142.7 149.9Q143.1 149.3 143.9 149.3Q144.7 149.3 145.1 149.9Q145.5 150.4 145.5 151.4M144.7 152.5L144.7 151.4Q144.7 150.7 144.5 150.3Q144.3 150 143.9 150Q143.5 150 143.3 150.3Q143.1 150.6 143.1 151.3L143.1 152.4Q143.1 153.1 143.3 153.5Q143.5 153.8 143.9 153.8Q144.3 153.8 144.5 153.5Q144.7 153.2 144.7 152.5" fill="white"></path>
                  
            <svg x="156" y="147" width="12" height="12" viewBox="0 0 24 24"><path d="M7.5,10.5A1.5,1.5 0 0,1 9,12A1.5,1.5 0 0,1 7.5,13.5C6.66,13.5 6,12.83 6,12A1.5,1.5 0 0,1 7.5,10.5M16.5,10.5A1.5,1.5 0 0,1 18,12A1.5,1.5 0 0,1 16.5,13.5A1.5,1.5 0 0,1 15,12A1.5,1.5 0 0,1 16.5,10.5M4.22,2H19.78C21,2 22,3 22,4.22V19.78A2.22,2.22 0 0,1 19.78,22H4.22C3,22 2,21 2,19.78V4.22A2.22,2.22 0 0,1 4.22,2M12,4A8,8 0 0,0 4,12A8,8 0 0,0 12,20A8,8 0 0,0 20,12A8,8 0 0,0 12,4Z" fill="var(--secondary-text-color, #718096)"></path></svg>
            
                    <path d="M176.1 154.7L174.1 152.1L173.4 152.8L173.4 154.7L172.7 154.7L172.7 149L173.4 149L173.4 151.9L175.9 149L176.8 149L174.6 151.6L177 154.7L176.1 154.7M178.3 150.5L178.3 154.7L177.6 154.7L177.6 150.5L178.3 150.5M177.6 149.4Q177.6 149.2 177.7 149.1Q177.8 149 178 149Q178.2 149 178.3 149.1Q178.4 149.2 178.4 149.4Q178.4 149.6 178.3 149.7Q178.2 149.8 178 149.8Q177.8 149.8 177.7 149.7Q177.6 149.6 177.6 149.4M179.8 149.5L180.5 149.5L180.5 150.5L181.3 150.5L181.3 151.1L180.5 151.1L180.5 153.7Q180.5 153.9 180.6 154.1Q180.7 154.2 180.9 154.2Q181.1 154.2 181.3 154.1L181.3 154.7Q181 154.8 180.7 154.8Q180.3 154.8 180 154.5Q179.8 154.2 179.8 153.7L179.8 151.1L179 151.1L179 150.5L179.8 150.5L179.8 149.5M183.8 154.2Q184.2 154.2 184.5 154Q184.8 153.8 184.8 153.4L185.5 153.4Q185.5 153.8 185.2 154.1Q185 154.4 184.6 154.6Q184.2 154.8 183.8 154.8Q182.9 154.8 182.4 154.2Q181.9 153.7 181.9 152.7L181.9 152.5Q181.9 151.9 182.2 151.4Q182.4 151 182.8 150.7Q183.2 150.4 183.8 150.4Q184.5 150.4 185 150.9Q185.5 151.3 185.5 152L184.8 152Q184.8 151.6 184.5 151.3Q184.2 151 183.8 151Q183.3 151 183 151.4Q182.7 151.8 182.7 152.6L182.7 152.7Q182.7 153.4 183 153.8Q183.3 154.2 183.8 154.2M187 148.7L187 151Q187.5 150.4 188.3 150.4Q189.6 150.4 189.6 151.9L189.6 154.7L188.9 154.7L188.9 151.9Q188.9 151.5 188.7 151.3Q188.5 151 188.1 151Q187.7 151 187.4 151.2Q187.2 151.4 187 151.7L187 154.7L186.3 154.7L186.3 148.7L187 148.7M192.5 154.8Q191.6 154.8 191.1 154.2Q190.5 153.7 190.5 152.7L190.5 152.6Q190.5 152 190.8 151.5Q191 151 191.4 150.7Q191.9 150.4 192.4 150.4Q193.2 150.4 193.7 151Q194.1 151.5 194.1 152.5L194.1 152.8L191.3 152.8Q191.3 153.5 191.6 153.8Q192 154.2 192.5 154.2Q192.9 154.2 193.2 154.1Q193.4 153.9 193.6 153.7L194.1 154Q193.5 154.8 192.5 154.8M192.4 151Q191.9 151 191.6 151.3Q191.3 151.7 191.3 152.2L193.4 152.2L193.4 152.2Q193.4 151.6 193.1 151.3Q192.8 151 192.4 151M194.9 150.5L195.6 150.5L195.7 151Q196.1 150.4 196.9 150.4Q198.3 150.4 198.3 151.9L198.3 154.7L197.6 154.7L197.6 151.9Q197.5 151.5 197.3 151.3Q197.1 151 196.7 151Q196.4 151 196.1 151.2Q195.8 151.4 195.7 151.7L195.7 154.7L194.9 154.7L194.9 150.5M203.8 153.6Q203.8 153.3 203.6 153.2Q203.4 153 202.8 152.9Q202.3 152.8 201.9 152.6Q201.6 152.4 201.5 152.2Q201.3 152 201.3 151.7Q201.3 151.1 201.8 150.8Q202.2 150.4 202.9 150.4Q203.6 150.4 204 150.8Q204.5 151.2 204.5 151.8L203.8 151.8Q203.8 151.5 203.5 151.2Q203.3 151 202.9 151Q202.5 151 202.3 151.2Q202 151.4 202 151.6Q202 151.9 202.2 152Q202.4 152.2 203 152.3Q203.5 152.4 203.9 152.6Q204.2 152.8 204.4 153Q204.5 153.2 204.5 153.6Q204.5 154.1 204.1 154.5Q203.6 154.8 202.9 154.8Q202.4 154.8 202 154.6Q201.6 154.5 201.4 154.1Q201.2 153.8 201.2 153.4L201.9 153.4Q201.9 153.8 202.2 154Q202.5 154.2 202.9 154.2Q203.3 154.2 203.6 154.1Q203.8 153.9 203.8 153.6M205.3 152.6L205.3 152.6Q205.3 152 205.5 151.5Q205.8 151 206.2 150.7Q206.6 150.4 207.2 150.4Q208.1 150.4 208.6 151Q209.1 151.6 209.1 152.6L209.1 152.7Q209.1 153.3 208.9 153.8Q208.7 154.3 208.2 154.5Q207.8 154.8 207.2 154.8Q206.3 154.8 205.8 154.2Q205.3 153.6 205.3 152.6M206 152.7Q206 153.4 206.3 153.8Q206.7 154.2 207.2 154.2Q207.8 154.2 208.1 153.8Q208.4 153.4 208.4 152.6Q208.4 151.9 208.1 151.5Q207.7 151 207.2 151Q206.7 151 206.3 151.4Q206 151.9 206 152.7M211.7 154.2Q212.1 154.2 212.4 154Q212.7 153.8 212.7 153.4L213.4 153.4Q213.4 153.8 213.2 154.1Q212.9 154.4 212.5 154.6Q212.2 154.8 211.7 154.8Q210.9 154.8 210.4 154.2Q209.8 153.7 209.8 152.7L209.8 152.5Q209.8 151.9 210.1 151.4Q210.3 151 210.7 150.7Q211.1 150.4 211.7 150.4Q212.4 150.4 212.9 150.9Q213.4 151.3 213.4 152L212.7 152Q212.7 151.6 212.4 151.3Q212.1 151 211.7 151Q211.2 151 210.9 151.4Q210.6 151.8 210.6 152.6L210.6 152.7Q210.6 153.4 210.9 153.8Q211.2 154.2 211.7 154.2M216.9 154.7L215.4 152.8L214.9 153.3L214.9 154.7L214.2 154.7L214.2 148.7L214.9 148.7L214.9 152.4L215.3 151.9L216.6 150.5L217.5 150.5L215.9 152.3L217.7 154.7L216.9 154.7M219.9 154.8Q219.1 154.8 218.6 154.2Q218 153.7 218 152.7L218 152.6Q218 152 218.3 151.5Q218.5 151 218.9 150.7Q219.4 150.4 219.9 150.4Q220.7 150.4 221.1 151Q221.6 151.5 221.6 152.5L221.6 152.8L218.7 152.8Q218.8 153.5 219.1 153.8Q219.4 154.2 220 154.2Q220.4 154.2 220.6 154.1Q220.9 153.9 221.1 153.7L221.5 154Q221 154.8 219.9 154.8M219.9 151Q219.4 151 219.1 151.3Q218.8 151.7 218.8 152.2L220.9 152.2L220.9 152.2Q220.8 151.6 220.6 151.3Q220.3 151 219.9 151M222.7 149.5L223.4 149.5L223.4 150.5L224.2 150.5L224.2 151.1L223.4 151.1L223.4 153.7Q223.4 153.9 223.5 154.1Q223.6 154.2 223.9 154.2Q224 154.2 224.2 154.1L224.2 154.7Q223.9 154.8 223.7 154.8Q223.2 154.8 222.9 154.5Q222.7 154.2 222.7 153.7L222.7 151.1L221.9 151.1L221.9 150.5L222.7 150.5L222.7 149.5M227.5 153.6Q227.5 153.3 227.3 153.2Q227.1 153 226.5 152.9Q226 152.8 225.6 152.6Q225.3 152.4 225.2 152.2Q225 152 225 151.7Q225 151.1 225.5 150.8Q225.9 150.4 226.6 150.4Q227.3 150.4 227.7 150.8Q228.2 151.2 228.2 151.8L227.5 151.8Q227.5 151.5 227.2 151.2Q227 151 226.6 151Q226.2 151 226 151.2Q225.7 151.4 225.7 151.6Q225.7 151.9 225.9 152Q226.2 152.2 226.7 152.3Q227.2 152.4 227.6 152.6Q227.9 152.8 228.1 153Q228.2 153.2 228.2 153.6Q228.2 154.1 227.8 154.5Q227.3 154.8 226.6 154.8Q226.1 154.8 225.7 154.6Q225.3 154.5 225.1 154.1Q224.9 153.8 224.9 153.4L225.6 153.4Q225.6 153.8 225.9 154Q226.2 154.2 226.6 154.2Q227 154.2 227.3 154.1Q227.5 153.9 227.5 153.6" class="zone-room"></path>
                  
            
          </g>
        
          <g class="meta-target">
            <title>Fridge · L0 · ✓ critical</title>
            <line stroke-width="0.8" x1="114" y1="175" x2="132" y2="175" stroke="#3182ce"></line>
            
                    <rect x="132" y="168" width="20" height="12" fill="#38a169" rx="3"></rect>
                    <path d="M139.5 171.4L139.5 175.7L141.7 175.7L141.7 176.4L138.6 176.4L138.6 171.4L139.5 171.4M145.5 173.4L145.5 174.3Q145.5 175.4 145.1 175.9Q144.7 176.5 143.9 176.5Q143.1 176.5 142.7 175.9Q142.3 175.4 142.3 174.4L142.3 173.5Q142.3 172.4 142.7 171.9Q143.1 171.3 143.9 171.3Q144.7 171.3 145.1 171.9Q145.5 172.4 145.5 173.4M144.7 174.5L144.7 173.4Q144.7 172.7 144.5 172.3Q144.3 172 143.9 172Q143.5 172 143.3 172.3Q143.1 172.6 143.1 173.3L143.1 174.4Q143.1 175.1 143.3 175.5Q143.5 175.8 143.9 175.8Q144.3 175.8 144.5 175.5Q144.7 175.2 144.7 174.5" fill="white"></path>
                  
            <svg x="156" y="169" width="12" height="12" viewBox="0 0 24 24"><path d="M7,2H17A2,2 0 0,1 19,4V9H5V4A2,2 0 0,1 7,2M19,19A2,2 0 0,1 17,21V22H15V21H9V22H7V21A2,2 0 0,1 5,19V10H19V19M8,5V7H10V5H8M8,12V15H10V12H8Z" fill="var(--secondary-text-color, #718096)"></path></svg>
            
                    <path d="M175.8 173.6L175.8 174.2L173.4 174.2L173.4 176.7L172.7 176.7L172.7 171L176.2 171L176.2 171.7L173.4 171.7L173.4 173.6L175.8 173.6M178.9 172.5L178.9 173.2Q178.7 173.1 178.6 173.1Q177.8 173.1 177.6 173.7L177.6 176.7L176.9 176.7L176.9 172.5L177.6 172.5L177.6 173Q177.9 172.4 178.6 172.4Q178.8 172.4 178.9 172.5M180.4 172.5L180.4 176.7L179.6 176.7L179.6 172.5L180.4 172.5M179.6 171.4Q179.6 171.2 179.7 171.1Q179.8 171 180 171Q180.2 171 180.3 171.1Q180.4 171.2 180.4 171.4Q180.4 171.6 180.3 171.7Q180.2 171.8 180 171.8Q179.8 171.8 179.7 171.7Q179.6 171.6 179.6 171.4M181.3 174.6L181.3 174.6Q181.3 173.6 181.8 173Q182.3 172.4 183 172.4Q183.8 172.4 184.2 172.9L184.2 170.7L184.9 170.7L184.9 176.7L184.2 176.7L184.2 176.3Q183.8 176.8 183 176.8Q182.3 176.8 181.8 176.2Q181.3 175.6 181.3 174.6M182.1 174.7Q182.1 175.4 182.4 175.8Q182.7 176.2 183.2 176.2Q183.9 176.2 184.2 175.6L184.2 173.6Q183.9 173 183.2 173Q182.7 173 182.4 173.5Q182.1 173.9 182.1 174.7M185.9 174.6Q185.9 173.6 186.3 173Q186.8 172.4 187.5 172.4Q188.3 172.4 188.7 173L188.8 172.5L189.4 172.5L189.4 176.6Q189.4 177.5 188.9 177.9Q188.5 178.4 187.6 178.4Q187.2 178.4 186.7 178.2Q186.3 178 186.1 177.7L186.4 177.2Q186.9 177.8 187.6 177.8Q188.1 177.8 188.4 177.5Q188.7 177.2 188.7 176.7L188.7 176.3Q188.3 176.8 187.5 176.8Q186.8 176.8 186.3 176.2Q185.9 175.6 185.9 174.6M186.6 174.7Q186.6 175.4 186.9 175.8Q187.2 176.2 187.7 176.2Q188.4 176.2 188.7 175.6L188.7 173.6Q188.4 173 187.7 173Q187.2 173 186.9 173.5Q186.6 173.9 186.6 174.7M192.3 176.8Q191.4 176.8 190.9 176.2Q190.3 175.7 190.3 174.7L190.3 174.6Q190.3 174 190.6 173.5Q190.8 173 191.2 172.7Q191.7 172.4 192.2 172.4Q193 172.4 193.5 173Q193.9 173.5 193.9 174.5L193.9 174.8L191.1 174.8Q191.1 175.5 191.4 175.8Q191.8 176.2 192.3 176.2Q192.7 176.2 193 176.1Q193.2 175.9 193.4 175.7L193.9 176Q193.3 176.8 192.3 176.8M192.2 173Q191.7 173 191.4 173.3Q191.1 173.7 191.1 174.2L193.2 174.2L193.2 174.2Q193.2 173.6 192.9 173.3Q192.6 173 192.2 173" class="zone-room"></path>
                  
            
      <line class="bubble-conn" visibility="visible" data-ln-for="z-A-1" x1="270" y1="175.75" x2="323.7451171875" y2="175.75"></line>
      <rect class="bubble-bg" width="51.2548828125" height="13.5" rx="3" visibility="visible" data-bg-for="z-A-1" x="323.7451171875" y="169"></rect>
      <path d="M332.7 177.3L332.7 178L329.1 178L329.1 177.4L330.9 175.5Q331.3 175 331.5 174.7Q331.6 174.4 331.6 174.2Q331.6 173.8 331.4 173.5Q331.2 173.3 330.8 173.3Q330.4 173.3 330.2 173.6Q329.9 173.8 329.9 174.3L329 174.3Q329 173.8 329.3 173.4Q329.5 173 329.9 172.8Q330.3 172.6 330.8 172.6Q331.6 172.6 332.1 173Q332.5 173.4 332.5 174.1Q332.5 174.5 332.3 174.9Q332.1 175.3 331.6 175.9L330.3 177.3L332.7 177.3M336.1 172.6L336.2 172.6L336.2 173.4L336.1 173.4Q335.3 173.4 334.9 173.8Q334.4 174.2 334.3 174.9Q334.8 174.5 335.4 174.5Q336.1 174.5 336.6 175Q337 175.5 337 176.3Q337 177.1 336.5 177.6Q336 178.1 335.2 178.1Q334.4 178.1 333.9 177.5Q333.4 176.9 333.4 175.9L333.4 175.6Q333.4 174.2 334.1 173.4Q334.8 172.6 336.1 172.6M335.2 175.2Q334.9 175.2 334.7 175.4Q334.4 175.5 334.3 175.8L334.3 176.1Q334.3 176.7 334.6 177Q334.8 177.4 335.2 177.4Q335.6 177.4 335.8 177.1Q336.1 176.8 336.1 176.3Q336.1 175.8 335.8 175.5Q335.6 175.2 335.2 175.2M340.1 172.6L340.1 178L339.2 178L339.2 173.7L337.9 174.2L337.9 173.4L340 172.6L340.1 172.6M347.1 172.7L348.1 176.7L348.9 172.7L349.9 172.7L348.6 178L347.7 178L346.7 174.1L345.7 178L344.8 178L343.6 172.7L344.5 172.7L345.3 176.7L346.3 172.7" class="pwr-value" fill="var(--primary-text-color)"></path>
      
      
              <rect style="cursor:pointer" data-toggle-for="z-A-1" x="354" y="171" width="14" height="8" fill="#38a169" rx="4"></rect>
              <circle fill="white" style="pointer-events:none" cx="363.5" cy="175" r="3"></circle>
              <rect fill="transparent" style="cursor:pointer" x="351" y="167" width="20" height="16"></rect>
            
    
          </g>
        
          <g class="meta-target">
            <title>Coffee maker · L0</title>
            <line stroke-width="0.8" x1="114" y1="197" x2="132" y2="197" stroke="#3182ce"></line>
            
                    <rect x="132" y="190" width="20" height="12" fill="#38a169" rx="3"></rect>
                    <path d="M139.5 193.4L139.5 197.7L141.7 197.7L141.7 198.4L138.6 198.4L138.6 193.4L139.5 193.4M145.5 195.4L145.5 196.3Q145.5 197.4 145.1 197.9Q144.7 198.5 143.9 198.5Q143.1 198.5 142.7 197.9Q142.3 197.4 142.3 196.4L142.3 195.5Q142.3 194.4 142.7 193.9Q143.1 193.3 143.9 193.3Q144.7 193.3 145.1 193.9Q145.5 194.4 145.5 195.4M144.7 196.5L144.7 195.4Q144.7 194.7 144.5 194.3Q144.3 194 143.9 194Q143.5 194 143.3 194.3Q143.1 194.6 143.1 195.3L143.1 196.4Q143.1 197.1 143.3 197.5Q143.5 197.8 143.9 197.8Q144.3 197.8 144.5 197.5Q144.7 197.2 144.7 196.5" fill="white"></path>
                  
            <svg x="156" y="191" width="12" height="12" viewBox="0 0 24 24"><path d="M18 6V4H20V2H6C4.9 2 4 2.9 4 4V20C4 21.1 4.9 22 6 22H20V20H15.97C17.2 19.09 18 17.64 18 16V11H8V16C8 17.64 8.81 19.09 10.03 20H6V4H8V6C8 6.55 8.45 7 9 7H17C17.55 7 18 6.55 18 6M13 8C13.55 8 14 8.45 14 9S13.55 10 13 10 12 9.55 12 9 12.45 8 13 8Z" fill="var(--secondary-text-color, #718096)"></path></svg>
            
                    <path d="M176.1 196.9L176.8 196.9Q176.7 197.8 176.2 198.3Q175.6 198.8 174.7 198.8Q173.7 198.8 173.1 198.1Q172.5 197.4 172.5 196.2L172.5 195.6Q172.5 194.8 172.7 194.2Q173 193.6 173.6 193.3Q174.1 193 174.8 193Q175.7 193 176.2 193.5Q176.8 194 176.8 194.9L176.1 194.9Q176 194.2 175.7 193.9Q175.3 193.6 174.8 193.6Q174 193.6 173.6 194.1Q173.2 194.6 173.2 195.6L173.2 196.2Q173.2 197.1 173.6 197.7Q174 198.2 174.7 198.2Q175.3 198.2 175.6 197.9Q176 197.6 176.1 196.9M177.6 196.6L177.6 196.6Q177.6 196 177.8 195.5Q178.1 195 178.5 194.7Q178.9 194.4 179.5 194.4Q180.3 194.4 180.9 195Q181.4 195.6 181.4 196.6L181.4 196.7Q181.4 197.3 181.2 197.8Q180.9 198.3 180.5 198.5Q180.1 198.8 179.5 198.8Q178.6 198.8 178.1 198.2Q177.6 197.6 177.6 196.6M178.3 196.7Q178.3 197.4 178.6 197.8Q178.9 198.2 179.5 198.2Q180 198.2 180.4 197.8Q180.7 197.4 180.7 196.6Q180.7 195.9 180.4 195.5Q180 195 179.5 195Q178.9 195 178.6 195.4Q178.3 195.9 178.3 196.7M183.4 198.7L182.7 198.7L182.7 195.1L182 195.1L182 194.5L182.7 194.5L182.7 194.1Q182.7 193.4 183 193Q183.4 192.7 184.1 192.7Q184.3 192.7 184.6 192.7L184.5 193.3Q184.3 193.3 184.1 193.3Q183.8 193.3 183.6 193.5Q183.4 193.7 183.4 194.1L183.4 194.5L184.3 194.5L184.3 195.1L183.4 195.1L183.4 198.7M186.2 198.7L185.4 198.7L185.4 195.1L184.8 195.1L184.8 194.5L185.4 194.5L185.4 194.1Q185.4 193.4 185.8 193Q186.2 192.7 186.8 192.7Q187.1 192.7 187.3 192.7L187.3 193.3Q187.1 193.3 186.9 193.3Q186.6 193.3 186.4 193.5Q186.2 193.7 186.2 194.1L186.2 194.5L187.1 194.5L187.1 195.1L186.2 195.1L186.2 198.7M189.5 198.8Q188.7 198.8 188.1 198.2Q187.6 197.7 187.6 196.7L187.6 196.6Q187.6 196 187.8 195.5Q188.1 195 188.5 194.7Q188.9 194.4 189.4 194.4Q190.3 194.4 190.7 195Q191.2 195.5 191.2 196.5L191.2 196.8L188.3 196.8Q188.3 197.5 188.7 197.8Q189 198.2 189.6 198.2Q190 198.2 190.2 198.1Q190.5 197.9 190.7 197.7L191.1 198Q190.6 198.8 189.5 198.8M189.4 195Q189 195 188.7 195.3Q188.4 195.7 188.3 196.2L190.5 196.2L190.5 196.2Q190.4 195.6 190.2 195.3Q189.9 195 189.4 195M193.8 198.8Q192.9 198.8 192.4 198.2Q191.8 197.7 191.8 196.7L191.8 196.6Q191.8 196 192.1 195.5Q192.3 195 192.7 194.7Q193.2 194.4 193.7 194.4Q194.5 194.4 195 195Q195.4 195.5 195.4 196.5L195.4 196.8L192.6 196.8Q192.6 197.5 192.9 197.8Q193.3 198.2 193.8 198.2Q194.2 198.2 194.5 198.1Q194.7 197.9 194.9 197.7L195.4 198Q194.8 198.8 193.8 198.8M193.7 195Q193.2 195 192.9 195.3Q192.6 195.7 192.6 196.2L194.7 196.2L194.7 196.2Q194.7 195.6 194.4 195.3Q194.1 195 193.7 195M198.2 194.5L198.9 194.5L198.9 195Q199.4 194.4 200.2 194.4Q201.1 194.4 201.4 195.1Q201.6 194.8 201.9 194.6Q202.3 194.4 202.7 194.4Q204.1 194.4 204.2 195.9L204.2 198.7L203.4 198.7L203.4 195.9Q203.4 195.5 203.2 195.3Q203 195 202.5 195Q202.1 195 201.9 195.3Q201.6 195.5 201.6 195.9L201.6 198.7L200.8 198.7L200.8 196Q200.8 195 199.9 195Q199.2 195 199 195.6L199 198.7L198.2 198.7L198.2 194.5M208.6 198.7L207.9 198.7Q207.8 198.6 207.8 198.3Q207.3 198.8 206.6 198.8Q205.9 198.8 205.5 198.5Q205.1 198.1 205.1 197.6Q205.1 196.9 205.6 196.5Q206.1 196.2 207 196.2L207.7 196.2L207.7 195.8Q207.7 195.5 207.5 195.2Q207.3 195 206.8 195Q206.5 195 206.2 195.2Q205.9 195.4 205.9 195.7L205.2 195.7Q205.2 195.4 205.4 195.1Q205.7 194.8 206 194.6Q206.4 194.4 206.9 194.4Q207.6 194.4 208 194.8Q208.4 195.2 208.5 195.8L208.5 197.7Q208.5 198.3 208.6 198.7L208.6 198.7M206.7 198.2Q207 198.2 207.3 198Q207.6 197.8 207.7 197.6L207.7 196.7L207.2 196.7Q205.8 196.7 205.8 197.5Q205.8 197.8 206.1 198Q206.3 198.2 206.7 198.2M212.3 198.7L210.8 196.8L210.3 197.3L210.3 198.7L209.6 198.7L209.6 192.7L210.3 192.7L210.3 196.4L210.7 195.9L212 194.5L212.9 194.5L211.3 196.3L213.1 198.7L212.3 198.7M215.3 198.8Q214.5 198.8 213.9 198.2Q213.4 197.7 213.4 196.7L213.4 196.6Q213.4 196 213.6 195.5Q213.9 195 214.3 194.7Q214.7 194.4 215.2 194.4Q216.1 194.4 216.5 195Q217 195.5 217 196.5L217 196.8L214.1 196.8Q214.1 197.5 214.5 197.8Q214.8 198.2 215.4 198.2Q215.8 198.2 216 198.1Q216.3 197.9 216.5 197.7L216.9 198Q216.4 198.8 215.3 198.8M215.2 195Q214.8 195 214.5 195.3Q214.2 195.7 214.1 196.2L216.3 196.2L216.3 196.2Q216.2 195.6 216 195.3Q215.7 195 215.2 195M219.9 194.5L219.9 195.2Q219.7 195.1 219.5 195.1Q218.8 195.1 218.5 195.7L218.5 198.7L217.8 198.7L217.8 194.5L218.5 194.5L218.5 195Q218.9 194.4 219.5 194.4Q219.7 194.4 219.9 194.5" class="zone-room"></path>
                  
            
      <line class="bubble-conn" visibility="visible" data-ln-for="z-A-2" x1="270" y1="197.75" x2="323.7451171875" y2="197.75"></line>
      <rect class="bubble-bg" width="51.2548828125" height="13.5" rx="3" visibility="visible" data-bg-for="z-A-2" x="323.7451171875" y="191"></rect>
      <path d="M332.2 194.7L332.2 198.1L332.8 198.1L332.8 198.8L332.2 198.8L332.2 200L331.3 200L331.3 198.8L329 198.8L328.9 198.3L331.2 194.7L332.2 194.7M331.2 196L329.9 198.1L331.3 198.1L331.3 195.9L331.2 196M337 194.7L337 195.2L334.8 200L333.9 200L336 195.4L333.3 195.4L333.3 194.7L337 194.7M340.1 194.6L340.1 200L339.2 200L339.2 195.7L337.9 196.2L337.9 195.4L340 194.6L340.1 194.6M347.1 194.7L348.1 198.7L348.9 194.7L349.9 194.7L348.6 200L347.7 200L346.7 196.1L345.7 200L344.8 200L343.6 194.7L344.5 194.7L345.3 198.7L346.3 194.7" class="pwr-value" fill="var(--primary-text-color)"></path>
      
      
              <rect style="cursor:pointer" data-toggle-for="z-A-2" x="354" y="193" width="14" height="8" fill="#38a169" rx="4"></rect>
              <circle fill="white" style="pointer-events:none" cx="363.5" cy="197" r="3"></circle>
              <rect fill="transparent" style="cursor:pointer" x="351" y="189" width="20" height="16"></rect>
            
    
          </g>
        
    
      <line stroke-width="3" x1="82" y1="218" x2="104" y2="218" stroke="#3182ce"></line>
      <line stroke-width="1.5" x1="114" y1="228" x2="114" y2="305" stroke="#3182ce"></line>
      <g class="meta-target">
        <title>10 A · 2P · 1.5 mm²</title>
        <rect stroke-width="1.8" rx="2" x="104" y="208" width="20" height="20" fill="color-mix(in srgb, #3182ce 18%, var(--ha-card-background, var(--card-background-color, white)))" stroke="#3182ce"></rect>
        <path d="M114.1 222L111.8 222L111.8 215.6L114 215.6Q115.1 215.6 115.7 216Q116.2 216.5 116.2 217.3Q116.2 217.8 116 218.1Q115.7 218.5 115.3 218.7Q115.8 218.8 116.1 219.2Q116.4 219.6 116.4 220.1Q116.4 221 115.8 221.5Q115.2 222 114.1 222M114.3 219.1L112.9 219.1L112.9 221.1L114.2 221.1Q114.7 221.1 115 220.9Q115.3 220.6 115.3 220.1Q115.3 219.1 114.3 219.1M112.9 216.5L112.9 218.3L114 218.3Q114.5 218.3 114.8 218.1Q115.1 217.8 115.1 217.4Q115.1 216.9 114.8 216.7Q114.6 216.5 114 216.5" fill="#3182ce"></path>
      </g>
      

      
          <g class="meta-target">
            <title>Living room · L0</title>
            <line stroke-width="0.8" x1="114" y1="239" x2="132" y2="239" stroke="#3182ce"></line>
            
                    <rect x="132" y="232" width="20" height="12" fill="#38a169" rx="3"></rect>
                    <path d="M139.5 235.4L139.5 239.7L141.7 239.7L141.7 240.4L138.6 240.4L138.6 235.4L139.5 235.4M145.5 237.4L145.5 238.3Q145.5 239.4 145.1 239.9Q144.7 240.5 143.9 240.5Q143.1 240.5 142.7 239.9Q142.3 239.4 142.3 238.4L142.3 237.5Q142.3 236.4 142.7 235.9Q143.1 235.3 143.9 235.3Q144.7 235.3 145.1 235.9Q145.5 236.4 145.5 237.4M144.7 238.5L144.7 237.4Q144.7 236.7 144.5 236.3Q144.3 236 143.9 236Q143.5 236 143.3 236.3Q143.1 236.6 143.1 237.3L143.1 238.4Q143.1 239.1 143.3 239.5Q143.5 239.8 143.9 239.8Q144.3 239.8 144.5 239.5Q144.7 239.2 144.7 238.5" fill="white"></path>
                  
            <svg x="156" y="233" width="12" height="12" viewBox="0 0 24 24"><path d="M12,2A7,7 0 0,1 19,9C19,11.38 17.81,13.47 16,14.74V17A1,1 0 0,1 15,18H9A1,1 0 0,1 8,17V14.74C6.19,13.47 5,11.38 5,9A7,7 0 0,1 12,2M9,21V20H15V21A1,1 0 0,1 14,22H10A1,1 0 0,1 9,21M12,4A5,5 0 0,0 7,9C7,11.05 8.23,12.81 10,13.58V16H14V13.58C15.77,12.81 17,11.05 17,9A5,5 0 0,0 12,4Z" fill="var(--secondary-text-color, #718096)"></path></svg>
            
                    <path d="M173.4 235L173.4 240.1L176.1 240.1L176.1 240.7L172.7 240.7L172.7 235L173.4 235M177.6 236.5L177.6 240.7L176.9 240.7L176.9 236.5L177.6 236.5M176.9 235.4Q176.9 235.2 177 235.1Q177.1 235 177.3 235Q177.5 235 177.6 235.1Q177.7 235.2 177.7 235.4Q177.7 235.6 177.6 235.7Q177.5 235.8 177.3 235.8Q177.1 235.8 177 235.7Q176.9 235.6 176.9 235.4M179.1 236.5L180.2 239.8L181.2 236.5L182 236.5L180.5 240.7L179.9 240.7L178.4 236.5L179.1 236.5M183.5 236.5L183.5 240.7L182.7 240.7L182.7 236.5L183.5 236.5M182.7 235.4Q182.7 235.2 182.8 235.1Q182.9 235 183.1 235Q183.3 235 183.4 235.1Q183.5 235.2 183.5 235.4Q183.5 235.6 183.4 235.7Q183.3 235.8 183.1 235.8Q182.9 235.8 182.8 235.7Q182.7 235.6 182.7 235.4M184.6 236.5L185.3 236.5L185.3 237Q185.8 236.4 186.6 236.4Q187.9 236.4 187.9 237.9L187.9 240.7L187.2 240.7L187.2 237.9Q187.2 237.5 187 237.3Q186.8 237 186.4 237Q186 237 185.7 237.2Q185.5 237.4 185.3 237.7L185.3 240.7L184.6 240.7L184.6 236.5M188.9 238.6Q188.9 237.6 189.3 237Q189.8 236.4 190.5 236.4Q191.3 236.4 191.7 237L191.8 236.5L192.4 236.5L192.4 240.6Q192.4 241.5 191.9 241.9Q191.4 242.4 190.6 242.4Q190.2 242.4 189.7 242.2Q189.3 242 189.1 241.7L189.4 241.2Q189.9 241.8 190.6 241.8Q191.1 241.8 191.4 241.5Q191.7 241.2 191.7 240.7L191.7 240.3Q191.3 240.8 190.5 240.8Q189.8 240.8 189.3 240.2Q188.9 239.6 188.9 238.6M189.6 238.7Q189.6 239.4 189.9 239.8Q190.2 240.2 190.7 240.2Q191.4 240.2 191.7 239.6L191.7 237.6Q191.4 237 190.7 237Q190.2 237 189.9 237.5Q189.6 237.9 189.6 238.7M197.5 236.5L197.5 237.2Q197.4 237.1 197.2 237.1Q196.5 237.1 196.2 237.7L196.2 240.7L195.5 240.7L195.5 236.5L196.2 236.5L196.2 237Q196.6 236.4 197.2 236.4Q197.4 236.4 197.5 236.5M197.9 238.6L197.9 238.6Q197.9 238 198.2 237.5Q198.4 237 198.9 236.7Q199.3 236.4 199.8 236.4Q200.7 236.4 201.2 237Q201.8 237.6 201.8 238.6L201.8 238.7Q201.8 239.3 201.5 239.8Q201.3 240.3 200.9 240.5Q200.4 240.8 199.9 240.8Q199 240.8 198.5 240.2Q197.9 239.6 197.9 238.6M198.7 238.7Q198.7 239.4 199 239.8Q199.3 240.2 199.9 240.2Q200.4 240.2 200.7 239.8Q201.1 239.4 201.1 238.6Q201.1 237.9 200.7 237.5Q200.4 237 199.8 237Q199.3 237 199 237.4Q198.7 237.9 198.7 238.7M202.5 238.6L202.5 238.6Q202.5 238 202.7 237.5Q203 237 203.4 236.7Q203.9 236.4 204.4 236.4Q205.3 236.4 205.8 237Q206.3 237.6 206.3 238.6L206.3 238.7Q206.3 239.3 206.1 239.8Q205.9 240.3 205.4 240.5Q205 240.8 204.4 240.8Q203.6 240.8 203 240.2Q202.5 239.6 202.5 238.6M203.2 238.7Q203.2 239.4 203.5 239.8Q203.9 240.2 204.4 240.2Q205 240.2 205.3 239.8Q205.6 239.4 205.6 238.6Q205.6 237.9 205.3 237.5Q205 237 204.4 237Q203.9 237 203.5 237.4Q203.2 237.9 203.2 238.7M207.2 236.5L207.9 236.5L207.9 237Q208.4 236.4 209.2 236.4Q210.1 236.4 210.4 237.1Q210.6 236.8 211 236.6Q211.3 236.4 211.8 236.4Q213.1 236.4 213.2 237.9L213.2 240.7L212.4 240.7L212.4 237.9Q212.4 237.5 212.2 237.3Q212 237 211.5 237Q211.1 237 210.9 237.3Q210.6 237.5 210.6 237.9L210.6 240.7L209.8 240.7L209.8 238Q209.8 237 208.9 237Q208.2 237 208 237.6L208 240.7L207.2 240.7" class="zone-room"></path>
                  
            
          </g>
        
          <g class="meta-target">
            <title>Bathroom · L0</title>
            <line stroke-width="0.8" x1="114" y1="261" x2="132" y2="261" stroke="#3182ce"></line>
            
                    <rect x="132" y="254" width="20" height="12" fill="#38a169" rx="3"></rect>
                    <path d="M139.5 257.4L139.5 261.7L141.7 261.7L141.7 262.4L138.6 262.4L138.6 257.4L139.5 257.4M145.5 259.4L145.5 260.3Q145.5 261.4 145.1 261.9Q144.7 262.5 143.9 262.5Q143.1 262.5 142.7 261.9Q142.3 261.4 142.3 260.4L142.3 259.5Q142.3 258.4 142.7 257.9Q143.1 257.3 143.9 257.3Q144.7 257.3 145.1 257.9Q145.5 258.4 145.5 259.4M144.7 260.5L144.7 259.4Q144.7 258.7 144.5 258.3Q144.3 258 143.9 258Q143.5 258 143.3 258.3Q143.1 258.6 143.1 259.3L143.1 260.4Q143.1 261.1 143.3 261.5Q143.5 261.8 143.9 261.8Q144.3 261.8 144.5 261.5Q144.7 261.2 144.7 260.5" fill="white"></path>
                  
            <svg x="156" y="255" width="12" height="12" viewBox="0 0 24 24"><path d="M12,2A7,7 0 0,1 19,9C19,11.38 17.81,13.47 16,14.74V17A1,1 0 0,1 15,18H9A1,1 0 0,1 8,17V14.74C6.19,13.47 5,11.38 5,9A7,7 0 0,1 12,2M9,21V20H15V21A1,1 0 0,1 14,22H10A1,1 0 0,1 9,21M12,4A5,5 0 0,0 7,9C7,11.05 8.23,12.81 10,13.58V16H14V13.58C15.77,12.81 17,11.05 17,9A5,5 0 0,0 12,4Z" fill="var(--secondary-text-color, #718096)"></path></svg>
            
                    <path d="M174.6 262.7L172.7 262.7L172.7 257L174.5 257Q175.4 257 175.9 257.4Q176.4 257.8 176.4 258.6Q176.4 259 176.2 259.3Q175.9 259.6 175.5 259.7Q176 259.9 176.3 260.2Q176.5 260.6 176.5 261.1Q176.5 261.9 176 262.3Q175.5 262.7 174.6 262.7M174.7 260.1L173.4 260.1L173.4 262.1L174.6 262.1Q175.2 262.1 175.5 261.8Q175.8 261.6 175.8 261.1Q175.8 260.1 174.7 260.1M173.4 257.7L173.4 259.5L174.5 259.5Q175 259.5 175.3 259.2Q175.6 259 175.6 258.6Q175.6 258.1 175.4 257.9Q175.1 257.7 174.5 257.7L173.4 257.7M180.9 262.7L180.1 262.7Q180.1 262.6 180 262.3Q179.5 262.8 178.8 262.8Q178.2 262.8 177.8 262.5Q177.4 262.1 177.4 261.6Q177.4 260.9 177.9 260.5Q178.4 260.2 179.3 260.2L180 260.2L180 259.8Q180 259.5 179.8 259.2Q179.6 259 179.1 259Q178.7 259 178.5 259.2Q178.2 259.4 178.2 259.7L177.5 259.7Q177.5 259.4 177.7 259.1Q177.9 258.8 178.3 258.6Q178.7 258.4 179.2 258.4Q179.9 258.4 180.3 258.8Q180.7 259.2 180.7 259.8L180.7 261.7Q180.7 262.3 180.9 262.7L180.9 262.7M178.9 262.2Q179.3 262.2 179.6 262Q179.9 261.8 180 261.6L180 260.7L179.5 260.7Q178.1 260.7 178.1 261.5Q178.1 261.8 178.4 262Q178.6 262.2 178.9 262.2M182.1 257.5L182.9 257.5L182.9 258.5L183.6 258.5L183.6 259.1L182.9 259.1L182.9 261.7Q182.9 261.9 183 262.1Q183.1 262.2 183.3 262.2Q183.4 262.2 183.7 262.1L183.7 262.7Q183.4 262.8 183.1 262.8Q182.6 262.8 182.4 262.5Q182.1 262.2 182.1 261.7L182.1 259.1L181.4 259.1L181.4 258.5L182.1 258.5L182.1 257.5M185.2 256.7L185.2 259Q185.7 258.4 186.5 258.4Q187.8 258.4 187.8 259.9L187.8 262.7L187.1 262.7L187.1 259.9Q187.1 259.5 186.9 259.3Q186.7 259 186.2 259Q185.9 259 185.6 259.2Q185.4 259.4 185.2 259.7L185.2 262.7L184.5 262.7L184.5 256.7L185.2 256.7M190.9 258.5L190.9 259.2Q190.8 259.1 190.6 259.1Q189.9 259.1 189.6 259.7L189.6 262.7L188.9 262.7L188.9 258.5L189.6 258.5L189.6 259Q190 258.4 190.6 258.4Q190.8 258.4 190.9 258.5M191.3 260.6L191.3 260.6Q191.3 260 191.6 259.5Q191.8 259 192.3 258.7Q192.7 258.4 193.3 258.4Q194.1 258.4 194.7 259Q195.2 259.6 195.2 260.6L195.2 260.7Q195.2 261.3 194.9 261.8Q194.7 262.3 194.3 262.5Q193.8 262.8 193.3 262.8Q192.4 262.8 191.9 262.2Q191.3 261.6 191.3 260.6M192.1 260.7Q192.1 261.4 192.4 261.8Q192.7 262.2 193.3 262.2Q193.8 262.2 194.1 261.8Q194.5 261.4 194.5 260.6Q194.5 259.9 194.1 259.5Q193.8 259 193.3 259Q192.7 259 192.4 259.4Q192.1 259.9 192.1 260.7M195.9 260.6L195.9 260.6Q195.9 260 196.1 259.5Q196.4 259 196.8 258.7Q197.3 258.4 197.8 258.4Q198.7 258.4 199.2 259Q199.7 259.6 199.7 260.6L199.7 260.7Q199.7 261.3 199.5 261.8Q199.3 262.3 198.8 262.5Q198.4 262.8 197.8 262.8Q197 262.8 196.4 262.2Q195.9 261.6 195.9 260.6M196.6 260.7Q196.6 261.4 197 261.8Q197.3 262.2 197.8 262.2Q198.4 262.2 198.7 261.8Q199 261.4 199 260.6Q199 259.9 198.7 259.5Q198.4 259 197.8 259Q197.3 259 197 259.4Q196.6 259.9 196.6 260.7M200.6 258.5L201.3 258.5L201.4 259Q201.8 258.4 202.6 258.4Q203.5 258.4 203.8 259.1Q204 258.8 204.4 258.6Q204.7 258.4 205.2 258.4Q206.6 258.4 206.6 259.9L206.6 262.7L205.9 262.7L205.9 259.9Q205.9 259.5 205.6 259.3Q205.4 259 204.9 259Q204.5 259 204.3 259.3Q204 259.5 204 259.9L204 262.7L203.2 262.7L203.2 260Q203.2 259 202.3 259Q201.6 259 201.4 259.6L201.4 262.7L200.6 262.7" class="zone-room"></path>
                  
            
          </g>
        
          <g class="meta-target">
            <title>Bedroom · L1</title>
            <line stroke-width="0.8" x1="114" y1="283" x2="132" y2="283" stroke="#3182ce"></line>
            
                    <rect x="132" y="276" width="20" height="12" fill="#3182ce" rx="3"></rect>
                    <path d="M139.5 279.4L139.5 283.7L141.7 283.7L141.7 284.4L138.6 284.4L138.6 279.4L139.5 279.4M144.5 279.4L144.5 284.4L143.7 284.4L143.7 280.4L142.5 280.8L142.5 280.1L144.4 279.4" fill="white"></path>
                  
            <svg x="156" y="277" width="12" height="12" viewBox="0 0 24 24"><path d="M12,2A7,7 0 0,1 19,9C19,11.38 17.81,13.47 16,14.74V17A1,1 0 0,1 15,18H9A1,1 0 0,1 8,17V14.74C6.19,13.47 5,11.38 5,9A7,7 0 0,1 12,2M9,21V20H15V21A1,1 0 0,1 14,22H10A1,1 0 0,1 9,21M12,4A5,5 0 0,0 7,9C7,11.05 8.23,12.81 10,13.58V16H14V13.58C15.77,12.81 17,11.05 17,9A5,5 0 0,0 12,4Z" fill="var(--secondary-text-color, #718096)"></path></svg>
            
                    <path d="M174.6 284.7L172.7 284.7L172.7 279L174.5 279Q175.4 279 175.9 279.4Q176.4 279.8 176.4 280.6Q176.4 281 176.2 281.3Q175.9 281.6 175.5 281.7Q176 281.9 176.3 282.2Q176.5 282.6 176.5 283.1Q176.5 283.9 176 284.3Q175.5 284.7 174.6 284.7M174.7 282.1L173.4 282.1L173.4 284.1L174.6 284.1Q175.2 284.1 175.5 283.8Q175.8 283.6 175.8 283.1Q175.8 282.1 174.7 282.1M173.4 279.7L173.4 281.5L174.5 281.5Q175 281.5 175.3 281.2Q175.6 281 175.6 280.6Q175.6 280.1 175.4 279.9Q175.1 279.7 174.5 279.7L173.4 279.7M179.3 284.8Q178.4 284.8 177.9 284.2Q177.3 283.7 177.3 282.7L177.3 282.6Q177.3 282 177.6 281.5Q177.8 281 178.3 280.7Q178.7 280.4 179.2 280.4Q180 280.4 180.5 281Q180.9 281.5 180.9 282.5L180.9 282.8L178.1 282.8Q178.1 283.5 178.4 283.8Q178.8 284.2 179.3 284.2Q179.7 284.2 180 284.1Q180.2 283.9 180.4 283.7L180.9 284Q180.3 284.8 179.3 284.8M179.2 281Q178.8 281 178.5 281.3Q178.2 281.7 178.1 282.2L180.2 282.2L180.2 282.2Q180.2 281.6 179.9 281.3Q179.6 281 179.2 281M181.6 282.6L181.6 282.6Q181.6 281.6 182.1 281Q182.5 280.4 183.3 280.4Q184 280.4 184.4 280.9L184.4 278.7L185.2 278.7L185.2 284.7L184.5 284.7L184.5 284.3Q184 284.8 183.3 284.8Q182.5 284.8 182.1 284.2Q181.6 283.6 181.6 282.6M182.3 282.7Q182.3 283.4 182.6 283.8Q182.9 284.2 183.4 284.2Q184.1 284.2 184.4 283.6L184.4 281.6Q184.1 281 183.4 281Q182.9 281 182.6 281.5Q182.3 281.9 182.3 282.7M188.3 280.5L188.3 281.2Q188.2 281.1 188 281.1Q187.3 281.1 187 281.7L187 284.7L186.3 284.7L186.3 280.5L187 280.5L187 281Q187.3 280.4 188 280.4Q188.2 280.4 188.3 280.5M188.7 282.6L188.7 282.6Q188.7 282 189 281.5Q189.2 281 189.6 280.7Q190.1 280.4 190.6 280.4Q191.5 280.4 192 281Q192.6 281.6 192.6 282.6L192.6 282.7Q192.6 283.3 192.3 283.8Q192.1 284.3 191.7 284.5Q191.2 284.8 190.6 284.8Q189.8 284.8 189.2 284.2Q188.7 283.6 188.7 282.6M189.4 282.7Q189.4 283.4 189.8 283.8Q190.1 284.2 190.6 284.2Q191.2 284.2 191.5 283.8Q191.8 283.4 191.8 282.6Q191.8 281.9 191.5 281.5Q191.2 281 190.6 281Q190.1 281 189.8 281.4Q189.4 281.9 189.4 282.7M193.3 282.6L193.3 282.6Q193.3 282 193.5 281.5Q193.8 281 194.2 280.7Q194.6 280.4 195.2 280.4Q196.1 280.4 196.6 281Q197.1 281.6 197.1 282.6L197.1 282.7Q197.1 283.3 196.9 283.8Q196.7 284.3 196.2 284.5Q195.8 284.8 195.2 284.8Q194.3 284.8 193.8 284.2Q193.3 283.6 193.3 282.6M194 282.7Q194 283.4 194.3 283.8Q194.7 284.2 195.2 284.2Q195.8 284.2 196.1 283.8Q196.4 283.4 196.4 282.6Q196.4 281.9 196.1 281.5Q195.7 281 195.2 281Q194.7 281 194.3 281.4Q194 281.9 194 282.7M198 280.5L198.7 280.5L198.7 281Q199.2 280.4 200 280.4Q200.9 280.4 201.2 281.1Q201.4 280.8 201.7 280.6Q202.1 280.4 202.5 280.4Q203.9 280.4 204 281.9L204 284.7L203.2 284.7L203.2 281.9Q203.2 281.5 203 281.3Q202.8 281 202.3 281Q201.9 281 201.7 281.3Q201.4 281.5 201.4 281.9L201.4 284.7L200.6 284.7L200.6 282Q200.6 281 199.7 281Q199 281 198.8 281.6L198.8 284.7L198 284.7" class="zone-room"></path>
                  
            
          </g>
        
          <g class="meta-target">
            <title>Hallway · L1</title>
            <line stroke-width="0.8" x1="114" y1="305" x2="132" y2="305" stroke="#3182ce"></line>
            
                    <rect x="132" y="298" width="20" height="12" fill="#3182ce" rx="3"></rect>
                    <path d="M139.5 301.4L139.5 305.7L141.7 305.7L141.7 306.4L138.6 306.4L138.6 301.4L139.5 301.4M144.5 301.4L144.5 306.4L143.7 306.4L143.7 302.4L142.5 302.8L142.5 302.1L144.4 301.4" fill="white"></path>
                  
            <svg x="156" y="299" width="12" height="12" viewBox="0 0 24 24"><path d="M12,2A7,7 0 0,1 19,9C19,11.38 17.81,13.47 16,14.74V17A1,1 0 0,1 15,18H9A1,1 0 0,1 8,17V14.74C6.19,13.47 5,11.38 5,9A7,7 0 0,1 12,2M9,21V20H15V21A1,1 0 0,1 14,22H10A1,1 0 0,1 9,21M12,4A5,5 0 0,0 7,9C7,11.05 8.23,12.81 10,13.58V16H14V13.58C15.77,12.81 17,11.05 17,9A5,5 0 0,0 12,4Z" fill="var(--secondary-text-color, #718096)"></path></svg>
            
                    <path d="M177 301L177 306.7L176.3 306.7L176.3 304.1L173.4 304.1L173.4 306.7L172.7 306.7L172.7 301L173.4 301L173.4 303.5L176.3 303.5L176.3 301L177 301M181.6 306.7L180.9 306.7Q180.8 306.6 180.8 306.3Q180.3 306.8 179.6 306.8Q178.9 306.8 178.5 306.5Q178.1 306.1 178.1 305.6Q178.1 304.9 178.6 304.5Q179.1 304.2 180 304.2L180.7 304.2L180.7 303.8Q180.7 303.5 180.5 303.2Q180.3 303 179.9 303Q179.5 303 179.2 303.2Q178.9 303.4 178.9 303.7L178.2 303.7Q178.2 303.4 178.4 303.1Q178.7 302.8 179 302.6Q179.4 302.4 179.9 302.4Q180.6 302.4 181 302.8Q181.5 303.2 181.5 303.8L181.5 305.7Q181.5 306.3 181.6 306.7L181.6 306.7M179.7 306.2Q180 306.2 180.3 306Q180.6 305.8 180.7 305.6L180.7 304.7L180.2 304.7Q178.9 304.7 178.9 305.5Q178.9 305.8 179.1 306Q179.3 306.2 179.7 306.2M183.4 300.7L183.4 306.7L182.7 306.7L182.7 300.7L183.4 300.7M185.3 300.7L185.3 306.7L184.6 306.7L184.6 300.7L185.3 300.7M189.2 302.5L190.2 305.7L191 302.5L191.8 302.5L190.5 306.7L189.9 306.7L188.9 303.5L187.9 306.7L187.3 306.7L186.1 302.5L186.8 302.5L187.7 305.7L188.6 302.5L189.2 302.5M195.9 306.7L195.1 306.7Q195 306.6 195 306.3Q194.5 306.8 193.8 306.8Q193.2 306.8 192.8 306.5Q192.4 306.1 192.4 305.6Q192.4 304.9 192.9 304.5Q193.4 304.2 194.3 304.2L195 304.2L195 303.8Q195 303.5 194.8 303.2Q194.5 303 194.1 303Q193.7 303 193.4 303.2Q193.2 303.4 193.2 303.7L192.5 303.7Q192.5 303.4 192.7 303.1Q192.9 302.8 193.3 302.6Q193.7 302.4 194.1 302.4Q194.9 302.4 195.3 302.8Q195.7 303.2 195.7 303.8L195.7 305.7Q195.7 306.3 195.9 306.7L195.9 306.7M193.9 306.2Q194.2 306.2 194.6 306Q194.9 305.8 195 305.6L195 304.7L194.4 304.7Q193.1 304.7 193.1 305.5Q193.1 305.8 193.3 306Q193.6 306.2 193.9 306.2M197.1 302.5L198.2 305.7L199.2 302.5L199.9 302.5L198.2 307.4Q197.8 308.4 197 308.4L196.8 308.4L196.6 308.4L196.6 307.8L196.8 307.8Q197.1 307.8 197.3 307.7Q197.5 307.5 197.7 307.1L197.8 306.7L196.3 302.5" class="zone-room"></path>
                  
            
          </g>
        
    
      <line stroke-width="3" x1="82" y1="326" x2="104" y2="326" stroke="#3182ce"></line>
      <line stroke-width="1.5" x1="114" y1="336" x2="114" y2="347" stroke="#3182ce"></line>
      <g class="meta-target">
        <title>16 A · 2P · 2.5 mm²</title>
        <rect stroke-width="1.8" rx="2" x="104" y="316" width="20" height="20" fill="color-mix(in srgb, #3182ce 18%, var(--ha-card-background, var(--card-background-color, white)))" stroke="#3182ce"></rect>
        <path d="M115.5 327.9L116.6 327.9Q116.5 328.9 115.8 329.5Q115.2 330.1 114.1 330.1Q113.3 330.1 112.7 329.7Q112.2 329.4 111.8 328.7Q111.5 328 111.5 327.1L111.5 326.5Q111.5 325.6 111.8 325Q112.2 324.3 112.8 323.9Q113.4 323.5 114.1 323.5Q115.2 323.5 115.8 324.1Q116.5 324.7 116.6 325.7L115.5 325.7Q115.4 325 115.1 324.7Q114.8 324.4 114.1 324.4Q113.4 324.4 113 324.9Q112.6 325.5 112.6 326.5L112.6 327.1Q112.6 328.1 113 328.6Q113.4 329.2 114.1 329.2Q114.7 329.2 115.1 328.9Q115.4 328.6 115.5 327.9" fill="#3182ce"></path>
      </g>
      

      
          <g class="meta-target">
            <title>Bedroom · L1</title>
            <line stroke-width="0.8" x1="114" y1="347" x2="132" y2="347" stroke="#3182ce"></line>
            
                    <rect x="132" y="340" width="20" height="12" fill="#3182ce" rx="3"></rect>
                    <path d="M139.5 343.4L139.5 347.7L141.7 347.7L141.7 348.4L138.6 348.4L138.6 343.4L139.5 343.4M144.5 343.4L144.5 348.4L143.7 348.4L143.7 344.4L142.5 344.8L142.5 344.1L144.4 343.4" fill="white"></path>
                  
            <svg x="156" y="341" width="12" height="12" viewBox="0 0 24 24"><path d="M7.5,10.5A1.5,1.5 0 0,1 9,12A1.5,1.5 0 0,1 7.5,13.5C6.66,13.5 6,12.83 6,12A1.5,1.5 0 0,1 7.5,10.5M16.5,10.5A1.5,1.5 0 0,1 18,12A1.5,1.5 0 0,1 16.5,13.5A1.5,1.5 0 0,1 15,12A1.5,1.5 0 0,1 16.5,10.5M4.22,2H19.78C21,2 22,3 22,4.22V19.78A2.22,2.22 0 0,1 19.78,22H4.22C3,22 2,21 2,19.78V4.22A2.22,2.22 0 0,1 4.22,2M12,4A8,8 0 0,0 4,12A8,8 0 0,0 12,20A8,8 0 0,0 20,12A8,8 0 0,0 12,4Z" fill="var(--secondary-text-color, #718096)"></path></svg>
            
                    <path d="M174.6 348.7L172.7 348.7L172.7 343L174.5 343Q175.4 343 175.9 343.4Q176.4 343.8 176.4 344.6Q176.4 345 176.2 345.3Q175.9 345.6 175.5 345.7Q176 345.9 176.3 346.2Q176.5 346.6 176.5 347.1Q176.5 347.9 176 348.3Q175.5 348.7 174.6 348.7M174.7 346.1L173.4 346.1L173.4 348.1L174.6 348.1Q175.2 348.1 175.5 347.8Q175.8 347.6 175.8 347.1Q175.8 346.1 174.7 346.1M173.4 343.7L173.4 345.5L174.5 345.5Q175 345.5 175.3 345.2Q175.6 345 175.6 344.6Q175.6 344.1 175.4 343.9Q175.1 343.7 174.5 343.7L173.4 343.7M179.3 348.8Q178.4 348.8 177.9 348.2Q177.3 347.7 177.3 346.7L177.3 346.6Q177.3 346 177.6 345.5Q177.8 345 178.3 344.7Q178.7 344.4 179.2 344.4Q180 344.4 180.5 345Q180.9 345.5 180.9 346.5L180.9 346.8L178.1 346.8Q178.1 347.5 178.4 347.8Q178.8 348.2 179.3 348.2Q179.7 348.2 180 348.1Q180.2 347.9 180.4 347.7L180.9 348Q180.3 348.8 179.3 348.8M179.2 345Q178.8 345 178.5 345.3Q178.2 345.7 178.1 346.2L180.2 346.2L180.2 346.2Q180.2 345.6 179.9 345.3Q179.6 345 179.2 345M181.6 346.6L181.6 346.6Q181.6 345.6 182.1 345Q182.5 344.4 183.3 344.4Q184 344.4 184.4 344.9L184.4 342.7L185.2 342.7L185.2 348.7L184.5 348.7L184.5 348.3Q184 348.8 183.3 348.8Q182.5 348.8 182.1 348.2Q181.6 347.6 181.6 346.6M182.3 346.7Q182.3 347.4 182.6 347.8Q182.9 348.2 183.4 348.2Q184.1 348.2 184.4 347.6L184.4 345.6Q184.1 345 183.4 345Q182.9 345 182.6 345.5Q182.3 345.9 182.3 346.7M188.3 344.5L188.3 345.2Q188.2 345.1 188 345.1Q187.3 345.1 187 345.7L187 348.7L186.3 348.7L186.3 344.5L187 344.5L187 345Q187.3 344.4 188 344.4Q188.2 344.4 188.3 344.5M188.7 346.6L188.7 346.6Q188.7 346 189 345.5Q189.2 345 189.6 344.7Q190.1 344.4 190.6 344.4Q191.5 344.4 192 345Q192.6 345.6 192.6 346.6L192.6 346.7Q192.6 347.3 192.3 347.8Q192.1 348.3 191.7 348.5Q191.2 348.8 190.6 348.8Q189.8 348.8 189.2 348.2Q188.7 347.6 188.7 346.6M189.4 346.7Q189.4 347.4 189.8 347.8Q190.1 348.2 190.6 348.2Q191.2 348.2 191.5 347.8Q191.8 347.4 191.8 346.6Q191.8 345.9 191.5 345.5Q191.2 345 190.6 345Q190.1 345 189.8 345.4Q189.4 345.9 189.4 346.7M193.3 346.6L193.3 346.6Q193.3 346 193.5 345.5Q193.8 345 194.2 344.7Q194.6 344.4 195.2 344.4Q196.1 344.4 196.6 345Q197.1 345.6 197.1 346.6L197.1 346.7Q197.1 347.3 196.9 347.8Q196.7 348.3 196.2 348.5Q195.8 348.8 195.2 348.8Q194.3 348.8 193.8 348.2Q193.3 347.6 193.3 346.6M194 346.7Q194 347.4 194.3 347.8Q194.7 348.2 195.2 348.2Q195.8 348.2 196.1 347.8Q196.4 347.4 196.4 346.6Q196.4 345.9 196.1 345.5Q195.7 345 195.2 345Q194.7 345 194.3 345.4Q194 345.9 194 346.7M198 344.5L198.7 344.5L198.7 345Q199.2 344.4 200 344.4Q200.9 344.4 201.2 345.1Q201.4 344.8 201.7 344.6Q202.1 344.4 202.5 344.4Q203.9 344.4 204 345.9L204 348.7L203.2 348.7L203.2 345.9Q203.2 345.5 203 345.3Q202.8 345 202.3 345Q201.9 345 201.7 345.3Q201.4 345.5 201.4 345.9L201.4 348.7L200.6 348.7L200.6 346Q200.6 345 199.7 345Q199 345 198.8 345.6L198.8 348.7L198 348.7" class="zone-room"></path>
                  
            
      <line class="bubble-conn" visibility="visible" data-ln-for="z-C-0" x1="270" y1="347.75" x2="323.7451171875" y2="347.75"></line>
      <rect class="bubble-bg" width="51.2548828125" height="13.5" rx="3" visibility="visible" data-bg-for="z-C-0" x="323.7451171875" y="341"></rect>
      <path d="M332.2 344.7L332.2 348.1L332.8 348.1L332.8 348.8L332.2 348.8L332.2 350L331.3 350L331.3 348.8L329 348.8L328.9 348.3L331.2 344.7L332.2 344.7M331.2 346L329.9 348.1L331.3 348.1L331.3 345.9L331.2 346M334.4 347.5L333.6 347.4L333.9 344.7L336.8 344.7L336.8 345.4L334.7 345.4L334.5 346.7Q334.9 346.5 335.4 346.5Q336.1 346.5 336.5 347Q337 347.5 337 348.3Q337 349.1 336.5 349.6Q336 350.1 335.2 350.1Q334.5 350.1 334 349.7Q333.5 349.2 333.5 348.6L334.3 348.6Q334.4 348.9 334.6 349.2Q334.8 349.4 335.2 349.4Q335.6 349.4 335.9 349.1Q336.1 348.8 336.1 348.3Q336.1 347.8 335.8 347.5Q335.6 347.2 335.1 347.2Q334.9 347.2 334.7 347.3Q334.6 347.3 334.4 347.5M340.1 344.6L340.1 350L339.2 350L339.2 345.7L337.9 346.2L337.9 345.4L340 344.6L340.1 344.6M347.1 344.7L348.1 348.7L348.9 344.7L349.9 344.7L348.6 350L347.7 350L346.7 346.1L345.7 350L344.8 350L343.6 344.7L344.5 344.7L345.3 348.7L346.3 344.7" class="pwr-value" fill="var(--primary-text-color)"></path>
      
      
              <rect style="cursor:pointer" data-toggle-for="z-C-0" x="354" y="343" width="14" height="8" fill="#a0aec0" rx="4"></rect>
              <circle fill="white" style="pointer-events:none" cx="358.5" cy="347" r="3"></circle>
              <rect fill="transparent" style="cursor:pointer" x="351" y="339" width="20" height="16"></rect>
            
    
          </g>
        
    
    
      <circle r="3.5" cx="48" cy="388" fill="var(--energy-solar-color, #d97706)"></circle>
      <line stroke-width="2" x1="48" y1="388" x2="70" y2="388" stroke="var(--energy-solar-color, #d97706)"></line>

      <g class="meta-target">
        <title>L1</title>
        <rect stroke-width="1.8" rx="2" x="70" y="376" width="24" height="24" fill="color-mix(in srgb, var(--energy-solar-color, #d97706) 18%, var(--ha-card-background, var(--card-background-color, white)))" stroke="var(--energy-solar-color, #d97706)"></rect>
        <path d="M79.3 389.6L78 389.6L78 392L76.9 392L76.9 385.6L79.3 385.6Q80.4 385.6 81 386.2Q81.6 386.7 81.6 387.6Q81.6 388.6 81 389.1Q80.4 389.6 79.3 389.6M78 386.5L78 388.7L79.3 388.7Q79.9 388.7 80.2 388.5Q80.5 388.2 80.5 387.6Q80.5 387.1 80.2 386.8Q79.9 386.5 79.3 386.5L78 386.5M83.3 385.6L84.9 390.6L86.5 385.6L87.7 385.6L85.4 392L84.3 392L82 385.6" fill="var(--energy-solar-color, #d97706)"></path>
      </g>

      
      <line class="bubble-conn" visibility="visible" data-ln-for="g-PV" x1="94" y1="388.75" x2="337.7685546875" y2="388.75"></line>
      <rect class="bubble-bg" width="37.2314453125" height="13.5" rx="3" visibility="visible" data-bg-for="g-PV" x="337.7685546875" y="382"></rect>
      <path d="M346.5 388L346.5 388.7L343.3 388.7L343.3 388L346.5 388M349.8 385.6L349.8 391L348.9 391L348.9 386.7L347.6 387.2L347.6 386.4L349.7 385.6L349.8 385.6M352.3 390.1Q352.5 390.1 352.7 390.2Q352.8 390.3 352.8 390.6Q352.8 390.8 352.7 390.9Q352.5 391 352.3 391Q352 391 351.9 390.9Q351.8 390.8 351.8 390.6Q351.8 390.3 351.9 390.2Q352 390.1 352.3 390.1M357.3 390.3L357.3 391L353.8 391L353.8 390.4L355.5 388.5Q355.9 388 356.1 387.7Q356.2 387.4 356.2 387.2Q356.2 386.8 356 386.5Q355.8 386.3 355.5 386.3Q355 386.3 354.8 386.6Q354.5 386.8 354.5 387.3L353.7 387.3Q353.7 386.8 353.9 386.4Q354.1 386 354.5 385.8Q354.9 385.6 355.5 385.6Q356.2 385.6 356.7 386Q357.1 386.4 357.1 387.1Q357.1 387.5 356.9 387.9Q356.7 388.3 356.2 388.9L354.9 390.3L357.3 390.3M362.4 391L361.2 389.3L360.8 389.7L360.8 391L359.9 391L359.9 385.4L360.8 385.4L360.8 388.6L361.1 388.3L362.2 387L363.3 387L361.8 388.7L363.4 391L362.4 391M367.1 385.7L368.1 389.7L368.9 385.7L369.9 385.7L368.6 391L367.7 391L366.7 387.1L365.7 391L364.8 391L363.6 385.7L364.5 385.7L365.3 389.7L366.3 385.7" class="pwr-value" fill="var(--energy-solar-color, #d97706)"></path>
      
      
    

      <line stroke-width="3" x1="82" y1="400" x2="82" y2="416" stroke="var(--energy-solar-color, #d97706)"></line>

      
      <line stroke-width="3" x1="82" y1="416" x2="104" y2="416" stroke="var(--energy-solar-color, #d97706)"></line>
      <line stroke-width="1.5" x1="114" y1="426" x2="114" y2="459" stroke="var(--energy-solar-color, #d97706)"></line>
      <g class="meta-target">
        
        <rect stroke-width="1.8" rx="2" x="104" y="406" width="20" height="20" fill="color-mix(in srgb, var(--energy-solar-color, #d97706) 18%, var(--ha-card-background, var(--card-background-color, white)))" stroke="var(--energy-solar-color, #d97706)"></rect>
        <path d="M108.4 413.6L108.4 420L107.3 420L107.3 413.6L108.4 413.6M114.9 413.6L114.9 420L113.8 420L110.9 415.5L110.9 420L109.8 420L109.8 413.6L110.9 413.6L113.8 418.2L113.8 413.6L114.9 413.6M116.8 413.6L118.5 418.6L120.1 413.6L121.3 413.6L119 420L117.9 420L115.6 413.6" fill="var(--energy-solar-color, #d97706)"></path>
      </g>
      

      
          <g class="meta-target">
            <title>Inverter #1 · TO</title>
            <line stroke-width="0.8" x1="114" y1="437" x2="132" y2="437" stroke="var(--energy-solar-color, #d97706)"></line>
            
                    <rect x="132" y="430" width="20" height="12" fill="#c2410c" rx="3"></rect>
                    <path d="M141.6 433.4L141.6 434.1L140.1 434.1L140.1 438.4L139.2 438.4L139.2 434.1L137.7 434.1L137.7 433.4L141.6 433.4M146.1 435.8L146.1 436Q146.1 436.8 145.9 437.3Q145.6 437.9 145.2 438.2Q144.7 438.5 144.1 438.5Q143.5 438.5 143 438.2Q142.5 437.9 142.3 437.3Q142 436.8 142 436.1L142 435.8Q142 435.1 142.3 434.5Q142.5 433.9 143 433.6Q143.5 433.3 144.1 433.3Q144.7 433.3 145.2 433.6Q145.6 433.9 145.9 434.5Q146.1 435 146.1 435.8M145.3 436L145.3 435.8Q145.3 434.9 145 434.5Q144.6 434.1 144.1 434.1Q143.5 434.1 143.2 434.5Q142.9 434.9 142.9 435.7L142.9 436Q142.9 436.9 143.2 437.3Q143.5 437.8 144.1 437.8Q144.7 437.8 145 437.3Q145.3 436.9 145.3 436" fill="white"></path>
                  
            <svg x="156" y="431" width="12" height="12" viewBox="0 0 24 24"><path d="M11.45,2V5.55L15,3.77L11.45,2M10.45,8L8,10.46L11.75,11.71L10.45,8M2,11.45L3.77,15L5.55,11.45H2M10,2H2V10C2.57,10.17 3.17,10.25 3.77,10.25C7.35,10.26 10.26,7.35 10.27,3.75C10.26,3.16 10.17,2.57 10,2M17,22V16H14L19,7V13H22L17,22Z" fill="var(--secondary-text-color, #718096)"></path></svg>
            
                    <path d="M173.5 433L173.5 438.7L172.7 438.7L172.7 433L173.5 433M174.7 434.5L175.4 434.5L175.4 435Q175.9 434.4 176.7 434.4Q178 434.4 178 435.9L178 438.7L177.3 438.7L177.3 435.9Q177.3 435.5 177.1 435.3Q176.9 435 176.5 435Q176.1 435 175.9 435.2Q175.6 435.4 175.4 435.7L175.4 438.7L174.7 438.7L174.7 434.5M179.5 434.5L180.5 437.8L181.6 434.5L182.3 434.5L180.8 438.7L180.3 438.7L178.7 434.5L179.5 434.5M184.7 438.8Q183.9 438.8 183.3 438.2Q182.8 437.7 182.8 436.7L182.8 436.6Q182.8 436 183 435.5Q183.3 435 183.7 434.7Q184.1 434.4 184.6 434.4Q185.4 434.4 185.9 435Q186.4 435.5 186.4 436.5L186.4 436.8L183.5 436.8Q183.5 437.5 183.9 437.8Q184.2 438.2 184.8 438.2Q185.1 438.2 185.4 438.1Q185.7 437.9 185.9 437.7L186.3 438Q185.8 438.8 184.7 438.8M184.6 435Q184.2 435 183.9 435.3Q183.6 435.7 183.5 436.2L185.6 436.2L185.6 436.2Q185.6 435.6 185.3 435.3Q185.1 435 184.6 435M189.2 434.5L189.2 435.2Q189.1 435.1 188.9 435.1Q188.2 435.1 187.9 435.7L187.9 438.7L187.2 438.7L187.2 434.5L187.9 434.5L187.9 435Q188.3 434.4 188.9 434.4Q189.1 434.4 189.2 434.5M190.4 433.5L191.1 433.5L191.1 434.5L191.9 434.5L191.9 435.1L191.1 435.1L191.1 437.7Q191.1 437.9 191.2 438.1Q191.3 438.2 191.5 438.2Q191.7 438.2 191.9 438.1L191.9 438.7Q191.6 438.8 191.3 438.8Q190.9 438.8 190.6 438.5Q190.4 438.2 190.4 437.7L190.4 435.1L189.6 435.1L189.6 434.5L190.4 434.5L190.4 433.5M194.5 438.8Q193.6 438.8 193.1 438.2Q192.5 437.7 192.5 436.7L192.5 436.6Q192.5 436 192.8 435.5Q193 435 193.4 434.7Q193.9 434.4 194.4 434.4Q195.2 434.4 195.7 435Q196.1 435.5 196.1 436.5L196.1 436.8L193.3 436.8Q193.3 437.5 193.6 437.8Q194 438.2 194.5 438.2Q194.9 438.2 195.2 438.1Q195.4 437.9 195.6 437.7L196.1 438Q195.5 438.8 194.5 438.8M194.4 435Q193.9 435 193.6 435.3Q193.3 435.7 193.3 436.2L195.4 436.2L195.4 436.2Q195.4 435.6 195.1 435.3Q194.8 435 194.4 435M199 434.5L199 435.2Q198.8 435.1 198.6 435.1Q197.9 435.1 197.7 435.7L197.7 438.7L197 438.7L197 434.5L197.7 434.5L197.7 435Q198 434.4 198.7 434.4Q198.9 434.4 199 434.5M203.8 438.7L204.1 437.1L203.1 437.1L202.7 438.7L202.2 438.7L202.5 437.1L201.6 437.1L201.6 436.6L202.6 436.6L202.9 435.2L201.9 435.2L201.9 434.7L203 434.7L203.3 433L203.8 433L203.5 434.7L204.6 434.7L204.9 433L205.4 433L205.1 434.7L205.9 434.7L205.9 435.2L205 435.2L204.7 436.6L205.6 436.6L205.6 437.1L204.6 437.1L204.3 438.7L203.8 438.7M203.4 435.2L203.2 436.6L204.2 436.6L204.5 435.2L203.4 435.2M208.9 433L208.9 438.7L208.1 438.7L208.1 433.9L206.7 434.5L206.7 433.8L208.8 433" class="zone-room"></path>
                  
            
      <line class="bubble-conn" visibility="visible" data-ln-for="z-INV-0" x1="270" y1="437.75" x2="337.7685546875" y2="437.75"></line>
      <rect class="bubble-bg" width="37.2314453125" height="13.5" rx="3" visibility="visible" data-bg-for="z-INV-0" x="337.7685546875" y="431"></rect>
      <path d="M346.5 437L346.5 437.7L343.3 437.7L343.3 437L346.5 437M349.8 434.6L349.8 440L348.9 440L348.9 435.7L347.6 436.2L347.6 435.4L349.7 434.6L349.8 434.6M352.3 439.1Q352.5 439.1 352.7 439.2Q352.8 439.3 352.8 439.6Q352.8 439.8 352.7 439.9Q352.5 440 352.3 440Q352 440 351.9 439.9Q351.8 439.8 351.8 439.6Q351.8 439.3 351.9 439.2Q352 439.1 352.3 439.1M354.8 437.6L354.8 436.9L355.3 436.9Q355.7 436.9 356 436.7Q356.2 436.5 356.2 436.1Q356.2 435.7 356 435.5Q355.8 435.3 355.4 435.3Q355 435.3 354.8 435.5Q354.6 435.7 354.6 436.1L353.7 436.1Q353.7 435.6 353.9 435.3Q354.1 435 354.5 434.8Q354.9 434.6 355.4 434.6Q356.2 434.6 356.6 435Q357.1 435.4 357.1 436.1Q357.1 436.5 356.9 436.8Q356.6 437.1 356.3 437.3Q356.7 437.4 357 437.7Q357.2 438.1 357.2 438.5Q357.2 439.2 356.7 439.6Q356.2 440.1 355.4 440.1Q354.6 440.1 354.1 439.7Q353.6 439.3 353.6 438.6L354.5 438.6Q354.5 438.9 354.8 439.1Q355 439.4 355.4 439.4Q355.8 439.4 356.1 439.1Q356.3 438.9 356.3 438.5Q356.3 438.1 356 437.9Q355.8 437.6 355.3 437.6L354.8 437.6M362.4 440L361.2 438.3L360.8 438.7L360.8 440L359.9 440L359.9 434.4L360.8 434.4L360.8 437.6L361.1 437.3L362.2 436L363.3 436L361.8 437.7L363.4 440L362.4 440M367.1 434.7L368.1 438.7L368.9 434.7L369.9 434.7L368.6 440L367.7 440L366.7 436.1L365.7 440L364.8 440L363.6 434.7L364.5 434.7L365.3 438.7L366.3 434.7" class="pwr-value" fill="var(--primary-text-color)"></path>
      
      
    
          </g>
        
          <g class="meta-target">
            <title>Inverter #2 · TO</title>
            <line stroke-width="0.8" x1="114" y1="459" x2="132" y2="459" stroke="var(--energy-solar-color, #d97706)"></line>
            
                    <rect x="132" y="452" width="20" height="12" fill="#c2410c" rx="3"></rect>
                    <path d="M141.6 455.4L141.6 456.1L140.1 456.1L140.1 460.4L139.2 460.4L139.2 456.1L137.7 456.1L137.7 455.4L141.6 455.4M146.1 457.8L146.1 458Q146.1 458.8 145.9 459.3Q145.6 459.9 145.2 460.2Q144.7 460.5 144.1 460.5Q143.5 460.5 143 460.2Q142.5 459.9 142.3 459.3Q142 458.8 142 458.1L142 457.8Q142 457.1 142.3 456.5Q142.5 455.9 143 455.6Q143.5 455.3 144.1 455.3Q144.7 455.3 145.2 455.6Q145.6 455.9 145.9 456.5Q146.1 457 146.1 457.8M145.3 458L145.3 457.8Q145.3 456.9 145 456.5Q144.6 456.1 144.1 456.1Q143.5 456.1 143.2 456.5Q142.9 456.9 142.9 457.7L142.9 458Q142.9 458.9 143.2 459.3Q143.5 459.8 144.1 459.8Q144.7 459.8 145 459.3Q145.3 458.9 145.3 458" fill="white"></path>
                  
            <svg x="156" y="453" width="12" height="12" viewBox="0 0 24 24"><path d="M11.45,2V5.55L15,3.77L11.45,2M10.45,8L8,10.46L11.75,11.71L10.45,8M2,11.45L3.77,15L5.55,11.45H2M10,2H2V10C2.57,10.17 3.17,10.25 3.77,10.25C7.35,10.26 10.26,7.35 10.27,3.75C10.26,3.16 10.17,2.57 10,2M17,22V16H14L19,7V13H22L17,22Z" fill="var(--secondary-text-color, #718096)"></path></svg>
            
                    <path d="M173.5 455L173.5 460.7L172.7 460.7L172.7 455L173.5 455M174.7 456.5L175.4 456.5L175.4 457Q175.9 456.4 176.7 456.4Q178 456.4 178 457.9L178 460.7L177.3 460.7L177.3 457.9Q177.3 457.5 177.1 457.3Q176.9 457 176.5 457Q176.1 457 175.9 457.2Q175.6 457.4 175.4 457.7L175.4 460.7L174.7 460.7L174.7 456.5M179.5 456.5L180.5 459.8L181.6 456.5L182.3 456.5L180.8 460.7L180.3 460.7L178.7 456.5L179.5 456.5M184.7 460.8Q183.9 460.8 183.3 460.2Q182.8 459.7 182.8 458.7L182.8 458.6Q182.8 458 183 457.5Q183.3 457 183.7 456.7Q184.1 456.4 184.6 456.4Q185.4 456.4 185.9 457Q186.4 457.5 186.4 458.5L186.4 458.8L183.5 458.8Q183.5 459.5 183.9 459.8Q184.2 460.2 184.8 460.2Q185.1 460.2 185.4 460.1Q185.7 459.9 185.9 459.7L186.3 460Q185.8 460.8 184.7 460.8M184.6 457Q184.2 457 183.9 457.3Q183.6 457.7 183.5 458.2L185.6 458.2L185.6 458.2Q185.6 457.6 185.3 457.3Q185.1 457 184.6 457M189.2 456.5L189.2 457.2Q189.1 457.1 188.9 457.1Q188.2 457.1 187.9 457.7L187.9 460.7L187.2 460.7L187.2 456.5L187.9 456.5L187.9 457Q188.3 456.4 188.9 456.4Q189.1 456.4 189.2 456.5M190.4 455.5L191.1 455.5L191.1 456.5L191.9 456.5L191.9 457.1L191.1 457.1L191.1 459.7Q191.1 459.9 191.2 460.1Q191.3 460.2 191.5 460.2Q191.7 460.2 191.9 460.1L191.9 460.7Q191.6 460.8 191.3 460.8Q190.9 460.8 190.6 460.5Q190.4 460.2 190.4 459.7L190.4 457.1L189.6 457.1L189.6 456.5L190.4 456.5L190.4 455.5M194.5 460.8Q193.6 460.8 193.1 460.2Q192.5 459.7 192.5 458.7L192.5 458.6Q192.5 458 192.8 457.5Q193 457 193.4 456.7Q193.9 456.4 194.4 456.4Q195.2 456.4 195.7 457Q196.1 457.5 196.1 458.5L196.1 458.8L193.3 458.8Q193.3 459.5 193.6 459.8Q194 460.2 194.5 460.2Q194.9 460.2 195.2 460.1Q195.4 459.9 195.6 459.7L196.1 460Q195.5 460.8 194.5 460.8M194.4 457Q193.9 457 193.6 457.3Q193.3 457.7 193.3 458.2L195.4 458.2L195.4 458.2Q195.4 457.6 195.1 457.3Q194.8 457 194.4 457M199 456.5L199 457.2Q198.8 457.1 198.6 457.1Q197.9 457.1 197.7 457.7L197.7 460.7L197 460.7L197 456.5L197.7 456.5L197.7 457Q198 456.4 198.7 456.4Q198.9 456.4 199 456.5M203.8 460.7L204.1 459.1L203.1 459.1L202.7 460.7L202.2 460.7L202.5 459.1L201.6 459.1L201.6 458.6L202.6 458.6L202.9 457.2L201.9 457.2L201.9 456.7L203 456.7L203.3 455L203.8 455L203.5 456.7L204.6 456.7L204.9 455L205.4 455L205.1 456.7L205.9 456.7L205.9 457.2L205 457.2L204.7 458.6L205.6 458.6L205.6 459.1L204.6 459.1L204.3 460.7L203.8 460.7M203.4 457.2L203.2 458.6L204.2 458.6L204.5 457.2L203.4 457.2M210.2 460.1L210.2 460.7L206.5 460.7L206.5 460.2L208.5 458Q208.9 457.5 209.1 457.2Q209.2 456.9 209.2 456.6Q209.2 456.1 209 455.8Q208.7 455.6 208.2 455.6Q207.7 455.6 207.4 455.9Q207.1 456.2 207.1 456.7L206.4 456.7Q206.4 455.9 206.9 455.5Q207.4 455 208.2 455Q209 455 209.5 455.4Q210 455.8 210 456.5Q210 457.3 208.9 458.5L207.4 460.1" class="zone-room"></path>
                  
            
      <line class="bubble-conn" visibility="visible" data-ln-for="z-INV-1" x1="270" y1="459.75" x2="337.7685546875" y2="459.75"></line>
      <rect class="bubble-bg" width="37.2314453125" height="13.5" rx="3" visibility="visible" data-bg-for="z-INV-1" x="337.7685546875" y="453"></rect>
      <path d="M346.5 459L346.5 459.7L343.3 459.7L343.3 459L346.5 459M349.8 456.6L349.8 462L348.9 462L348.9 457.7L347.6 458.2L347.6 457.4L349.7 456.6L349.8 456.6M352.3 461.1Q352.5 461.1 352.7 461.2Q352.8 461.3 352.8 461.6Q352.8 461.8 352.7 461.9Q352.5 462 352.3 462Q352 462 351.9 461.9Q351.8 461.8 351.8 461.6Q351.8 461.3 351.9 461.2Q352 461.1 352.3 461.1M356.8 456.7L356.8 460.1L357.4 460.1L357.4 460.8L356.8 460.8L356.8 462L355.9 462L355.9 460.8L353.6 460.8L353.5 460.3L355.8 456.7L356.8 456.7M355.8 458L354.5 460.1L355.9 460.1L355.9 457.9L355.8 458M362.4 462L361.2 460.3L360.8 460.7L360.8 462L359.9 462L359.9 456.4L360.8 456.4L360.8 459.6L361.1 459.3L362.2 458L363.3 458L361.8 459.7L363.4 462L362.4 462M367.1 456.7L368.1 460.7L368.9 456.7L369.9 456.7L368.6 462L367.7 462L366.7 458.1L365.7 462L364.8 462L363.6 456.7L364.5 456.7L365.3 460.7L366.3 456.7" class="pwr-value" fill="var(--primary-text-color)"></path>
      
      
    
          </g>
        
    
    
          </svg>
