<?xml version="1.0" encoding="UTF-8"?>
<svg preserveAspectRatio="xMidYMid meet" xmlns="http://www.w3.org/2000/svg" viewBox="0 0 440 296"><style>
    .bubble-bg { fill: #ffffff; stroke: #e2e8f0; stroke-width: 0.7; }
    .bubble-conn { stroke: #cbd5e0; stroke-width: 0.5; }
    .label-secondary, .zone-room { fill: #718096; }
    .phase-label { fill: #1a202c; }
    .sat-track { fill: #e2e8f0; opacity: 0.5; }
  </style>
            <!-- Phase trunks -->
            <line stroke-width="3" x1="24" y1="20" x2="24" y2="104" stroke="var(--electrical-panel-phase-l3-color, #5A6474)"></line>
            <line stroke-width="3" x1="36" y1="20" x2="36" y2="104" stroke="var(--electrical-panel-phase-l2-color, #1A202C)"></line>
            <line stroke-width="3" x1="48" y1="20" x2="48" y2="104" stroke="var(--electrical-panel-phase-l1-color, #8B4513)"></line>

            <!-- Phase labels -->
            <path d="M21.3 10.7L21.3 15.3L23.7 15.3L23.7 16L20.4 16L20.4 10.7L21.3 10.7M25.3 13.6L25.3 12.9L25.9 12.9Q26.3 12.9 26.5 12.7Q26.8 12.5 26.8 12.1Q26.8 11.7 26.6 11.5Q26.4 11.3 25.9 11.3Q25.6 11.3 25.4 11.5Q25.1 11.7 25.1 12.1L24.2 12.1Q24.2 11.6 24.5 11.3Q24.7 11 25.1 10.8Q25.5 10.6 25.9 10.6Q26.7 10.6 27.2 11Q27.6 11.4 27.6 12.1Q27.6 12.5 27.4 12.8Q27.2 13.1 26.8 13.3Q27.3 13.4 27.5 13.7Q27.7 14.1 27.7 14.5Q27.7 15.2 27.2 15.6Q26.7 16.1 25.9 16.1Q25.2 16.1 24.7 15.7Q24.2 15.3 24.2 14.6L25.1 14.6Q25.1 14.9 25.3 15.1Q25.5 15.4 25.9 15.4Q26.4 15.4 26.6 15.1Q26.8 14.9 26.8 14.5Q26.8 14.1 26.6 13.9Q26.3 13.6 25.8 13.6" class="phase-label"></path>
            <path d="M33.3 10.7L33.3 15.3L35.7 15.3L35.7 16L32.4 16L32.4 10.7L33.3 10.7M39.9 15.3L39.9 16L36.3 16L36.3 15.4L38.1 13.5Q38.5 13 38.6 12.7Q38.8 12.4 38.8 12.2Q38.8 11.8 38.6 11.5Q38.4 11.3 38 11.3Q37.6 11.3 37.3 11.6Q37.1 11.8 37.1 12.3L36.2 12.3Q36.2 11.8 36.4 11.4Q36.6 11 37 10.8Q37.5 10.6 38 10.6Q38.8 10.6 39.2 11Q39.7 11.4 39.7 12.1Q39.7 12.5 39.4 12.9Q39.2 13.3 38.7 13.9L37.4 15.3" class="phase-label"></path>
            <path d="M45.3 10.7L45.3 15.3L47.7 15.3L47.7 16L44.4 16L44.4 10.7L45.3 10.7M50.7 10.6L50.7 16L49.8 16L49.8 11.7L48.5 12.2L48.5 11.4L50.6 10.6" class="phase-label"></path>

            <!-- Staggered phase taps + bubbles -->
            <circle r="2" cx="48" cy="26" fill="var(--electrical-panel-phase-l1-color, #8B4513)"></circle>
            
      <line class="bubble-conn" visibility="hidden" data-ln-for="phase_l1" x1="48" y1="22" x2="150" y2="22"></line>
      <rect class="bubble-bg" width="42" height="15" rx="3" visibility="hidden" data-bg-for="phase_l1" x="110" y="14"></rect>
      
      
      
    
            <circle r="2" cx="36" cy="46" fill="var(--electrical-panel-phase-l2-color, #1A202C)"></circle>
            
      <line class="bubble-conn" visibility="hidden" data-ln-for="phase_l2" x1="36" y1="42" x2="185" y2="42"></line>
      <rect class="bubble-bg" width="42" height="15" rx="3" visibility="hidden" data-bg-for="phase_l2" x="145" y="34"></rect>
      
      
      
    
            <circle r="2" cx="24" cy="66" fill="var(--electrical-panel-phase-l3-color, #5A6474)"></circle>
            
      <line class="bubble-conn" visibility="hidden" data-ln-for="phase_l3" x1="24" y1="62" x2="220" y2="62"></line>
      <rect class="bubble-bg" width="42" height="15" rx="3" visibility="hidden" data-bg-for="phase_l3" x="180" y="54"></rect>
      
      
      
    

            <!-- Main totals (right column) -->
            <path d="M282.6 23.7L282.6 24.2L280.8 24.2L280.8 29L280.2 29L280.2 24.2L278.4 24.2L278.4 23.7L282.6 23.7M282.7 27L282.7 27Q282.7 26.4 282.9 25.9Q283.2 25.5 283.6 25.2Q284 25 284.5 25Q285.3 25 285.8 25.5Q286.3 26.1 286.3 27L286.3 27.1Q286.3 27.6 286.1 28.1Q285.9 28.6 285.5 28.8Q285 29.1 284.5 29.1Q283.7 29.1 283.2 28.5Q282.7 28 282.7 27M283.4 27.1Q283.4 27.7 283.7 28.1Q284 28.5 284.5 28.5Q285 28.5 285.3 28.1Q285.6 27.7 285.6 27Q285.6 26.3 285.3 25.9Q285 25.5 284.5 25.5Q284 25.5 283.7 25.9Q283.4 26.3 283.4 27.1M287.4 24.1L288.1 24.1L288.1 25L288.8 25L288.8 25.6L288.1 25.6L288.1 28Q288.1 28.3 288.2 28.4Q288.3 28.5 288.5 28.5Q288.6 28.5 288.8 28.5L288.8 29Q288.6 29.1 288.3 29.1Q287.9 29.1 287.6 28.8Q287.4 28.5 287.4 28L287.4 25.6L286.7 25.6L286.7 25L287.4 25L287.4 24.1M292.8 29L292.1 29Q292 28.9 292 28.6Q291.5 29.1 290.8 29.1Q290.3 29.1 289.9 28.7Q289.5 28.4 289.5 27.9Q289.5 27.3 290 26.9Q290.4 26.6 291.3 26.6L292 26.6L292 26.3Q292 25.9 291.7 25.7Q291.5 25.5 291.1 25.5Q290.8 25.5 290.5 25.7Q290.3 25.9 290.3 26.1L289.6 26.1Q289.6 25.8 289.8 25.6Q290 25.3 290.4 25.1Q290.7 25 291.2 25Q291.8 25 292.2 25.3Q292.6 25.6 292.6 26.2L292.6 28.1Q292.6 28.6 292.8 28.9L292.8 29M290.9 28.5Q291.3 28.5 291.5 28.3Q291.8 28.2 292 27.9L292 27.1L291.4 27.1Q290.2 27.1 290.2 27.8Q290.2 28.1 290.4 28.3Q290.6 28.5 290.9 28.5M294.4 23.4L294.4 29L293.8 29L293.8 23.4" class="label-secondary"></path>
            
      
      <rect class="bubble-bg" width="42" height="15" rx="3" visibility="hidden" data-bg-for="total" x="310" y="17"></rect>
      
      
      
    
            <path d="M285.9 46.3L285.9 48.3Q285.6 48.7 285.1 48.9Q284.6 49.1 284 49.1Q283.3 49.1 282.8 48.8Q282.3 48.5 282 47.9Q281.8 47.3 281.8 46.6L281.8 46.1Q281.8 44.9 282.3 44.3Q282.9 43.6 283.9 43.6Q284.7 43.6 285.2 44Q285.7 44.4 285.9 45.2L285.2 45.2Q285 44.2 283.9 44.2Q283.2 44.2 282.8 44.7Q282.5 45.2 282.5 46.1L282.5 46.5Q282.5 47.4 282.9 48Q283.3 48.5 284 48.5Q284.4 48.5 284.7 48.4Q285 48.3 285.2 48.1L285.2 46.9L283.9 46.9L283.9 46.3L285.9 46.3M288.8 45L288.8 45.6Q288.7 45.6 288.5 45.6Q287.8 45.6 287.6 46.2L287.6 49L286.9 49L286.9 45L287.6 45L287.6 45.5Q287.9 45 288.5 45Q288.7 45 288.8 45M290.2 45L290.2 49L289.5 49L289.5 45L290.2 45M289.5 44Q289.5 43.8 289.6 43.7Q289.7 43.6 289.9 43.6Q290.1 43.6 290.2 43.7Q290.3 43.8 290.3 44Q290.3 44.2 290.2 44.3Q290.1 44.4 289.9 44.4Q289.7 44.4 289.6 44.3Q289.5 44.2 289.5 44M291.1 47L291.1 47Q291.1 46.1 291.6 45.5Q292 45 292.7 45Q293.4 45 293.8 45.4L293.8 43.4L294.5 43.4L294.5 49L293.8 49L293.8 48.6Q293.4 49.1 292.7 49.1Q292 49.1 291.6 48.5Q291.1 47.9 291.1 47M291.8 47.1Q291.8 47.7 292.1 48.1Q292.4 48.5 292.8 48.5Q293.5 48.5 293.8 47.9L293.8 46.1Q293.5 45.5 292.9 45.5Q292.4 45.5 292.1 45.9Q291.8 46.3 291.8 47.1" class="label-secondary"></path>
            
      
      <rect class="bubble-bg" width="42" height="15" rx="3" visibility="hidden" data-bg-for="grid" x="310" y="37"></rect>
      
      
      
    

            
      <circle r="3.5" cx="48" cy="104" fill="#3182ce"></circle>
      <line stroke-width="2" x1="48" y1="104" x2="70" y2="104" stroke="#3182ce"></line>

      <g class="meta-target">
        <title>40 A · 30 mA · 2P · Cl. A · L1</title>
        <rect stroke-width="1.8" rx="2" x="70" y="92" width="24" height="24" fill="color-mix(in srgb, #3182ce 18%, var(--ha-card-background, var(--card-background-color, white)))" stroke="#3182ce"></rect>
        <path d="M79 108L77.2 108L77.2 101.6L79 101.6Q79.9 101.6 80.5 102Q81.2 102.4 81.6 103.1Q81.9 103.7 81.9 104.6L81.9 105Q81.9 105.9 81.6 106.6Q81.2 107.3 80.5 107.6Q79.9 108 79 108M79 102.5L78.3 102.5L78.3 107.1L79 107.1Q79.9 107.1 80.3 106.6Q80.8 106 80.8 105L80.8 104.6Q80.8 103.6 80.4 103Q79.9 102.5 79 102.5M85.8 101.6L85.8 108L84.7 108L84.7 102.9L83.1 103.4L83.1 102.5L85.6 101.6" fill="#3182ce"></path>
      </g>

      

      <line stroke-width="3" x1="82" y1="116" x2="82" y2="196" stroke="#3182ce"></line>

      
      <line stroke-width="3" x1="82" y1="132" x2="104" y2="132" stroke="#3182ce"></line>
      <line stroke-width="1.5" x1="114" y1="142" x2="114" y2="175" stroke="#3182ce"></line>
      <g class="meta-target">
        <title>16 A · 2P · 2.5 mm²</title>
        <rect stroke-width="1.8" rx="2" x="104" y="122" width="20" height="20" fill="color-mix(in srgb, #3182ce 18%, var(--ha-card-background, var(--card-background-color, white)))" stroke="#3182ce"></rect>
        <path d="M115.8 136L115.2 134.5L112.8 134.5L112.2 136L111.1 136L113.5 129.6L114.5 129.6L116.9 136L115.8 136M114 131L113.1 133.6L114.9 133.6" fill="#3182ce"></path>
      </g>
      

      
          <g class="meta-target">
            <title>Kitchen · L0</title>
            <line stroke-width="0.8" x1="114" y1="153" x2="132" y2="153" stroke="#3182ce"></line>
            
                    <rect x="132" y="146" width="20" height="12" fill="#38a169" rx="3"></rect>
                    <path d="M139.5 149.4L139.5 153.7L141.7 153.7L141.7 154.4L138.6 154.4L138.6 149.4L139.5 149.4M145.5 151.4L145.5 152.3Q145.5 153.4 145.1 153.9Q144.7 154.5 143.9 154.5Q143.1 154.5 142.7 153.9Q142.3 153.4 142.3 152.4L142.3 151.5Q142.3 150.4 142.7 149.9Q143.1 149.3 143.9 149.3Q144.7 149.3 145.1 149.9Q145.5 150.4 145.5 151.4M144.7 152.5L144.7 151.4Q144.7 150.7 144.5 150.3Q144.3 150 143.9 150Q143.5 150 143.3 150.3Q143.1 150.6 143.1 151.3L143.1 152.4Q143.1 153.1 143.3 153.5Q143.5 153.8 143.9 153.8Q144.3 153.8 144.5 153.5Q144.7 153.2 144.7 152.5" fill="white"></path>
                  
            <svg x="156" y="147" width="12" height="12" viewBox="0 0 24 24"><path d="M7.5,10.5A1.5,1.5 0 0,1 9,12A1.5,1.5 0 0,1 7.5,13.5C6.66,13.5 6,12.83 6,12A1.5,1.5 0 0,1 7.5,10.5M16.5,10.5A1.5,1.5 0 0,1 18,12A1.5,1.5 0 0,1 16.5,13.5A1.5,1.5 0 0,1 15,12A1.5,1.5 0 0,1 16.5,10.5M4.22,2H19.78C21,2 22,3 22,4.22V19.78A2.22,2.22 0 0,1 19.78,22H4.22C3,22 2,21 2,19.78V4.22A2.22,2.22 0 0,1 4.22,2M12,4A8,8 0 0,0 4,12A8,8 0 0,0 12,20A8,8 0 0,0 20,12A8,8 0 0,0 12,4Z" fill="var(--secondary-text-color, #718096)"></path></svg>
            
                    <path d="M176.1 154.7L174.1 152.1L173.4 152.8L173.4 154.7L172.7 154.7L172.7 149L173.4 149L173.4 151.9L175.9 149L176.8 149L174.6 151.6L177 154.7L176.1 154.7M178.3 150.5L178.3 154.7L177.6 154.7L177.6 150.5L178.3 150.5M177.6 149.4Q177.6 149.2 177.7 149.1Q177.8 149 178 149Q178.2 149 178.3 149.1Q178.4 149.2 178.4 149.4Q178.4 149.6 178.3 149.7Q178.2 149.8 178 149.8Q177.8 149.8 177.7 149.7Q177.6 149.6 177.6 149.4M179.8 149.5L180.5 149.5L180.5 150.5L181.3 150.5L181.3 151.1L180.5 151.1L180.5 153.7Q180.5 153.9 180.6 154.1Q180.7 154.2 180.9 154.2Q181.1 154.2 181.3 154.1L181.3 154.7Q181 154.8 180.7 154.8Q180.3 154.8 180 154.5Q179.8 154.2 179.8 153.7L179.8 151.1L179 151.1L179 150.5L179.8 150.5L179.8 149.5M183.8 154.2Q184.2 154.2 184.5 154Q184.8 153.8 184.8 153.4L185.5 153.4Q185.5 153.8 185.2 154.1Q185 154.4 184.6 154.6Q184.2 154.8 183.8 154.8Q182.9 154.8 182.4 154.2Q181.9 153.7 181.9 152.7L181.9 152.5Q181.9 151.9 182.2 151.4Q182.4 151 182.8 150.7Q183.2 150.4 183.8 150.4Q184.5 150.4 185 150.9Q185.5 151.3 185.5 152L184.8 152Q184.8 151.6 184.5 151.3Q184.2 151 183.8 151Q183.3 151 183 151.4Q182.7 151.8 182.7 152.6L182.7 152.7Q182.7 153.4 183 153.8Q183.3 154.2 183.8 154.2M187 148.7L187 151Q187.5 150.4 188.3 150.4Q189.6 150.4 189.6 151.9L189.6 154.7L188.9 154.7L188.9 151.9Q188.9 151.5 188.7 151.3Q188.5 151 188.1 151Q187.7 151 187.4 151.2Q187.2 151.4 187 151.7L187 154.7L186.3 154.7L186.3 148.7L187 148.7M192.5 154.8Q191.6 154.8 191.1 154.2Q190.5 153.7 190.5 152.7L190.5 152.6Q190.5 152 190.8 151.5Q191 151 191.4 150.7Q191.9 150.4 192.4 150.4Q193.2 150.4 193.7 151Q194.1 151.5 194.1 152.5L194.1 152.8L191.3 152.8Q191.3 153.5 191.6 153.8Q192 154.2 192.5 154.2Q192.9 154.2 193.2 154.1Q193.4 153.9 193.6 153.7L194.1 154Q193.5 154.8 192.5 154.8M192.4 151Q191.9 151 191.6 151.3Q191.3 151.7 191.3 152.2L193.4 152.2L193.4 152.2Q193.4 151.6 193.1 151.3Q192.8 151 192.4 151M194.9 150.5L195.6 150.5L195.7 151Q196.1 150.4 196.9 150.4Q198.3 150.4 198.3 151.9L198.3 154.7L197.6 154.7L197.6 151.9Q197.5 151.5 197.3 151.3Q197.1 151 196.7 151Q196.4 151 196.1 151.2Q195.8 151.4 195.7 151.7L195.7 154.7L194.9 154.7" class="zone-room"></path>
                  
            
          </g>
        
          <g class="meta-target">
            <title>Living room · L0</title>
            <line stroke-width="0.8" x1="114" y1="175" x2="132" y2="175" stroke="#3182ce"></line>
            
                    <rect x="132" y="168" width="20" height="12" fill="#38a169" rx="3"></rect>
                    <path d="M139.5 171.4L139.5 175.7L141.7 175.7L141.7 176.4L138.6 176.4L138.6 171.4L139.5 171.4M145.5 173.4L145.5 174.3Q145.5 175.4 145.1 175.9Q144.7 176.5 143.9 176.5Q143.1 176.5 142.7 175.9Q142.3 175.4 142.3 174.4L142.3 173.5Q142.3 172.4 142.7 171.9Q143.1 171.3 143.9 171.3Q144.7 171.3 145.1 171.9Q145.5 172.4 145.5 173.4M144.7 174.5L144.7 173.4Q144.7 172.7 144.5 172.3Q144.3 172 143.9 172Q143.5 172 143.3 172.3Q143.1 172.6 143.1 173.3L143.1 174.4Q143.1 175.1 143.3 175.5Q143.5 175.8 143.9 175.8Q144.3 175.8 144.5 175.5Q144.7 175.2 144.7 174.5" fill="white"></path>
                  
            <svg x="156" y="169" width="12" height="12" viewBox="0 0 24 24"><path d="M7.5,10.5A1.5,1.5 0 0,1 9,12A1.5,1.5 0 0,1 7.5,13.5C6.66,13.5 6,12.83 6,12A1.5,1.5 0 0,1 7.5,10.5M16.5,10.5A1.5,1.5 0 0,1 18,12A1.5,1.5 0 0,1 16.5,13.5A1.5,1.5 0 0,1 15,12A1.5,1.5 0 0,1 16.5,10.5M4.22,2H19.78C21,2 22,3 22,4.22V19.78A2.22,2.22 0 0,1 19.78,22H4.22C3,22 2,21 2,19.78V4.22A2.22,2.22 0 0,1 4.22,2M12,4A8,8 0 0,0 4,12A8,8 0 0,0 12,20A8,8 0 0,0 20,12A8,8 0 0,0 12,4Z" fill="var(--secondary-text-color, #718096)"></path></svg>
            
                    <path d="M173.4 171L173.4 176.1L176.1 176.1L176.1 176.7L172.7 176.7L172.7 171L173.4 171M177.6 172.5L177.6 176.7L176.9 176.7L176.9 172.5L177.6 172.5M176.9 171.4Q176.9 171.2 177 171.1Q177.1 171 177.3 171Q177.5 171 177.6 171.1Q177.7 171.2 177.7 171.4Q177.7 171.6 177.6 171.7Q177.5 171.8 177.3 171.8Q177.1 171.8 177 171.7Q176.9 171.6 176.9 171.4M179.1 172.5L180.2 175.8L181.2 172.5L182 172.5L180.5 176.7L179.9 176.7L178.4 172.5L179.1 172.5M183.5 172.5L183.5 176.7L182.7 176.7L182.7 172.5L183.5 172.5M182.7 171.4Q182.7 171.2 182.8 171.1Q182.9 171 183.1 171Q183.3 171 183.4 171.1Q183.5 171.2 183.5 171.4Q183.5 171.6 183.4 171.7Q183.3 171.8 183.1 171.8Q182.9 171.8 182.8 171.7Q182.7 171.6 182.7 171.4M184.6 172.5L185.3 172.5L185.3 173Q185.8 172.4 186.6 172.4Q187.9 172.4 187.9 173.9L187.9 176.7L187.2 176.7L187.2 173.9Q187.2 173.5 187 173.3Q186.8 173 186.4 173Q186 173 185.7 173.2Q185.5 173.4 185.3 173.7L185.3 176.7L184.6 176.7L184.6 172.5M188.9 174.6Q188.9 173.6 189.3 173Q189.8 172.4 190.5 172.4Q191.3 172.4 191.7 173L191.8 172.5L192.4 172.5L192.4 176.6Q192.4 177.5 191.9 177.9Q191.4 178.4 190.6 178.4Q190.2 178.4 189.7 178.2Q189.3 178 189.1 177.7L189.4 177.2Q189.9 177.8 190.6 177.8Q191.1 177.8 191.4 177.5Q191.7 177.2 191.7 176.7L191.7 176.3Q191.3 176.8 190.5 176.8Q189.8 176.8 189.3 176.2Q188.9 175.6 188.9 174.6M189.6 174.7Q189.6 175.4 189.9 175.8Q190.2 176.2 190.7 176.2Q191.4 176.2 191.7 175.6L191.7 173.6Q191.4 173 190.7 173Q190.2 173 189.9 173.5Q189.6 173.9 189.6 174.7M197.5 172.5L197.5 173.2Q197.4 173.1 197.2 173.1Q196.5 173.1 196.2 173.7L196.2 176.7L195.5 176.7L195.5 172.5L196.2 172.5L196.2 173Q196.6 172.4 197.2 172.4Q197.4 172.4 197.5 172.5M197.9 174.6L197.9 174.6Q197.9 174 198.2 173.5Q198.4 173 198.9 172.7Q199.3 172.4 199.8 172.4Q200.7 172.4 201.2 173Q201.8 173.6 201.8 174.6L201.8 174.7Q201.8 175.3 201.5 175.8Q201.3 176.3 200.9 176.5Q200.4 176.8 199.9 176.8Q199 176.8 198.5 176.2Q197.9 175.6 197.9 174.6M198.7 174.7Q198.7 175.4 199 175.8Q199.3 176.2 199.9 176.2Q200.4 176.2 200.7 175.8Q201.1 175.4 201.1 174.6Q201.1 173.9 200.7 173.5Q200.4 173 199.8 173Q199.3 173 199 173.4Q198.7 173.9 198.7 174.7M202.5 174.6L202.5 174.6Q202.5 174 202.7 173.5Q203 173 203.4 172.7Q203.9 172.4 204.4 172.4Q205.3 172.4 205.8 173Q206.3 173.6 206.3 174.6L206.3 174.7Q206.3 175.3 206.1 175.8Q205.9 176.3 205.4 176.5Q205 176.8 204.4 176.8Q203.6 176.8 203 176.2Q202.5 175.6 202.5 174.6M203.2 174.7Q203.2 175.4 203.5 175.8Q203.9 176.2 204.4 176.2Q205 176.2 205.3 175.8Q205.6 175.4 205.6 174.6Q205.6 173.9 205.3 173.5Q205 173 204.4 173Q203.9 173 203.5 173.4Q203.2 173.9 203.2 174.7M207.2 172.5L207.9 172.5L207.9 173Q208.4 172.4 209.2 172.4Q210.1 172.4 210.4 173.1Q210.6 172.8 211 172.6Q211.3 172.4 211.8 172.4Q213.1 172.4 213.2 173.9L213.2 176.7L212.4 176.7L212.4 173.9Q212.4 173.5 212.2 173.3Q212 173 211.5 173Q211.1 173 210.9 173.3Q210.6 173.5 210.6 173.9L210.6 176.7L209.8 176.7L209.8 174Q209.8 173 208.9 173Q208.2 173 208 173.6L208 176.7L207.2 176.7" class="zone-room"></path>
                  
            
          </g>
        
    
      <line stroke-width="3" x1="82" y1="196" x2="104" y2="196" stroke="#3182ce"></line>
      <line stroke-width="1.5" x1="114" y1="206" x2="114" y2="261" stroke="#3182ce"></line>
      <g class="meta-target">
        <title>10 A · 2P · 1.5 mm²</title>
        <rect stroke-width="1.8" rx="2" x="104" y="186" width="20" height="20" fill="color-mix(in srgb, #3182ce 18%, var(--ha-card-background, var(--card-background-color, white)))" stroke="#3182ce"></rect>
        <path d="M114.1 200L111.8 200L111.8 193.6L114 193.6Q115.1 193.6 115.7 194Q116.2 194.5 116.2 195.3Q116.2 195.8 116 196.1Q115.7 196.5 115.3 196.7Q115.8 196.8 116.1 197.2Q116.4 197.6 116.4 198.1Q116.4 199 115.8 199.5Q115.2 200 114.1 200M114.3 197.1L112.9 197.1L112.9 199.1L114.2 199.1Q114.7 199.1 115 198.9Q115.3 198.6 115.3 198.1Q115.3 197.1 114.3 197.1M112.9 194.5L112.9 196.3L114 196.3Q114.5 196.3 114.8 196.1Q115.1 195.8 115.1 195.4Q115.1 194.9 114.8 194.7Q114.6 194.5 114 194.5" fill="#3182ce"></path>
      </g>
      

      
          <g class="meta-target">
            <title>Living room · L0</title>
            <line stroke-width="0.8" x1="114" y1="217" x2="132" y2="217" stroke="#3182ce"></line>
            
                    <rect x="132" y="210" width="20" height="12" fill="#38a169" rx="3"></rect>
                    <path d="M139.5 213.4L139.5 217.7L141.7 217.7L141.7 218.4L138.6 218.4L138.6 213.4L139.5 213.4M145.5 215.4L145.5 216.3Q145.5 217.4 145.1 217.9Q144.7 218.5 143.9 218.5Q143.1 218.5 142.7 217.9Q142.3 217.4 142.3 216.4L142.3 215.5Q142.3 214.4 142.7 213.9Q143.1 213.3 143.9 213.3Q144.7 213.3 145.1 213.9Q145.5 214.4 145.5 215.4M144.7 216.5L144.7 215.4Q144.7 214.7 144.5 214.3Q144.3 214 143.9 214Q143.5 214 143.3 214.3Q143.1 214.6 143.1 215.3L143.1 216.4Q143.1 217.1 143.3 217.5Q143.5 217.8 143.9 217.8Q144.3 217.8 144.5 217.5Q144.7 217.2 144.7 216.5" fill="white"></path>
                  
            <svg x="156" y="211" width="12" height="12" viewBox="0 0 24 24"><path d="M12,2A7,7 0 0,1 19,9C19,11.38 17.81,13.47 16,14.74V17A1,1 0 0,1 15,18H9A1,1 0 0,1 8,17V14.74C6.19,13.47 5,11.38 5,9A7,7 0 0,1 12,2M9,21V20H15V21A1,1 0 0,1 14,22H10A1,1 0 0,1 9,21M12,4A5,5 0 0,0 7,9C7,11.05 8.23,12.81 10,13.58V16H14V13.58C15.77,12.81 17,11.05 17,9A5,5 0 0,0 12,4Z" fill="var(--secondary-text-color, #718096)"></path></svg>
            
                    <path d="M173.4 213L173.4 218.1L176.1 218.1L176.1 218.7L172.7 218.7L172.7 213L173.4 213M177.6 214.5L177.6 218.7L176.9 218.7L176.9 214.5L177.6 214.5M176.9 213.4Q176.9 213.2 177 213.1Q177.1 213 177.3 213Q177.5 213 177.6 213.1Q177.7 213.2 177.7 213.4Q177.7 213.6 177.6 213.7Q177.5 213.8 177.3 213.8Q177.1 213.8 177 213.7Q176.9 213.6 176.9 213.4M179.1 214.5L180.2 217.8L181.2 214.5L182 214.5L180.5 218.7L179.9 218.7L178.4 214.5L179.1 214.5M183.5 214.5L183.5 218.7L182.7 218.7L182.7 214.5L183.5 214.5M182.7 213.4Q182.7 213.2 182.8 213.1Q182.9 213 183.1 213Q183.3 213 183.4 213.1Q183.5 213.2 183.5 213.4Q183.5 213.6 183.4 213.7Q183.3 213.8 183.1 213.8Q182.9 213.8 182.8 213.7Q182.7 213.6 182.7 213.4M184.6 214.5L185.3 214.5L185.3 215Q185.8 214.4 186.6 214.4Q187.9 214.4 187.9 215.9L187.9 218.7L187.2 218.7L187.2 215.9Q187.2 215.5 187 215.3Q186.8 215 186.4 215Q186 215 185.7 215.2Q185.5 215.4 185.3 215.7L185.3 218.7L184.6 218.7L184.6 214.5M188.9 216.6Q188.9 215.6 189.3 215Q189.8 214.4 190.5 214.4Q191.3 214.4 191.7 215L191.8 214.5L192.4 214.5L192.4 218.6Q192.4 219.5 191.9 219.9Q191.4 220.4 190.6 220.4Q190.2 220.4 189.7 220.2Q189.3 220 189.1 219.7L189.4 219.2Q189.9 219.8 190.6 219.8Q191.1 219.8 191.4 219.5Q191.7 219.2 191.7 218.7L191.7 218.3Q191.3 218.8 190.5 218.8Q189.8 218.8 189.3 218.2Q188.9 217.6 188.9 216.6M189.6 216.7Q189.6 217.4 189.9 217.8Q190.2 218.2 190.7 218.2Q191.4 218.2 191.7 217.6L191.7 215.6Q191.4 215 190.7 215Q190.2 215 189.9 215.5Q189.6 215.9 189.6 216.7M197.5 214.5L197.5 215.2Q197.4 215.1 197.2 215.1Q196.5 215.1 196.2 215.7L196.2 218.7L195.5 218.7L195.5 214.5L196.2 214.5L196.2 215Q196.6 214.4 197.2 214.4Q197.4 214.4 197.5 214.5M197.9 216.6L197.9 216.6Q197.9 216 198.2 215.5Q198.4 215 198.9 214.7Q199.3 214.4 199.8 214.4Q200.7 214.4 201.2 215Q201.8 215.6 201.8 216.6L201.8 216.7Q201.8 217.3 201.5 217.8Q201.3 218.3 200.9 218.5Q200.4 218.8 199.9 218.8Q199 218.8 198.5 218.2Q197.9 217.6 197.9 216.6M198.7 216.7Q198.7 217.4 199 217.8Q199.3 218.2 199.9 218.2Q200.4 218.2 200.7 217.8Q201.1 217.4 201.1 216.6Q201.1 215.9 200.7 215.5Q200.4 215 199.8 215Q199.3 215 199 215.4Q198.7 215.9 198.7 216.7M202.5 216.6L202.5 216.6Q202.5 216 202.7 215.5Q203 215 203.4 214.7Q203.9 214.4 204.4 214.4Q205.3 214.4 205.8 215Q206.3 215.6 206.3 216.6L206.3 216.7Q206.3 217.3 206.1 217.8Q205.9 218.3 205.4 218.5Q205 218.8 204.4 218.8Q203.6 218.8 203 218.2Q202.5 217.6 202.5 216.6M203.2 216.7Q203.2 217.4 203.5 217.8Q203.9 218.2 204.4 218.2Q205 218.2 205.3 217.8Q205.6 217.4 205.6 216.6Q205.6 215.9 205.3 215.5Q205 215 204.4 215Q203.9 215 203.5 215.4Q203.2 215.9 203.2 216.7M207.2 214.5L207.9 214.5L207.9 215Q208.4 214.4 209.2 214.4Q210.1 214.4 210.4 215.1Q210.6 214.8 211 214.6Q211.3 214.4 211.8 214.4Q213.1 214.4 213.2 215.9L213.2 218.7L212.4 218.7L212.4 215.9Q212.4 215.5 212.2 215.3Q212 215 211.5 215Q211.1 215 210.9 215.3Q210.6 215.5 210.6 215.9L210.6 218.7L209.8 218.7L209.8 216Q209.8 215 208.9 215Q208.2 215 208 215.6L208 218.7L207.2 218.7" class="zone-room"></path>
                  
            
          </g>
        
          <g class="meta-target">
            <title>Bathroom · L0</title>
            <line stroke-width="0.8" x1="114" y1="239" x2="132" y2="239" stroke="#3182ce"></line>
            
                    <rect x="132" y="232" width="20" height="12" fill="#38a169" rx="3"></rect>
                    <path d="M139.5 235.4L139.5 239.7L141.7 239.7L141.7 240.4L138.6 240.4L138.6 235.4L139.5 235.4M145.5 237.4L145.5 238.3Q145.5 239.4 145.1 239.9Q144.7 240.5 143.9 240.5Q143.1 240.5 142.7 239.9Q142.3 239.4 142.3 238.4L142.3 237.5Q142.3 236.4 142.7 235.9Q143.1 235.3 143.9 235.3Q144.7 235.3 145.1 235.9Q145.5 236.4 145.5 237.4M144.7 238.5L144.7 237.4Q144.7 236.7 144.5 236.3Q144.3 236 143.9 236Q143.5 236 143.3 236.3Q143.1 236.6 143.1 237.3L143.1 238.4Q143.1 239.1 143.3 239.5Q143.5 239.8 143.9 239.8Q144.3 239.8 144.5 239.5Q144.7 239.2 144.7 238.5" fill="white"></path>
                  
            <svg x="156" y="233" width="12" height="12" viewBox="0 0 24 24"><path d="M12,2A7,7 0 0,1 19,9C19,11.38 17.81,13.47 16,14.74V17A1,1 0 0,1 15,18H9A1,1 0 0,1 8,17V14.74C6.19,13.47 5,11.38 5,9A7,7 0 0,1 12,2M9,21V20H15V21A1,1 0 0,1 14,22H10A1,1 0 0,1 9,21M12,4A5,5 0 0,0 7,9C7,11.05 8.23,12.81 10,13.58V16H14V13.58C15.77,12.81 17,11.05 17,9A5,5 0 0,0 12,4Z" fill="var(--secondary-text-color, #718096)"></path></svg>
            
                    <path d="M174.6 240.7L172.7 240.7L172.7 235L174.5 235Q175.4 235 175.9 235.4Q176.4 235.8 176.4 236.6Q176.4 237 176.2 237.3Q175.9 237.6 175.5 237.7Q176 237.9 176.3 238.2Q176.5 238.6 176.5 239.1Q176.5 239.9 176 240.3Q175.5 240.7 174.6 240.7M174.7 238.1L173.4 238.1L173.4 240.1L174.6 240.1Q175.2 240.1 175.5 239.8Q175.8 239.6 175.8 239.1Q175.8 238.1 174.7 238.1M173.4 235.7L173.4 237.5L174.5 237.5Q175 237.5 175.3 237.2Q175.6 237 175.6 236.6Q175.6 236.1 175.4 235.9Q175.1 235.7 174.5 235.7L173.4 235.7M180.9 240.7L180.1 240.7Q180.1 240.6 180 240.3Q179.5 240.8 178.8 240.8Q178.2 240.8 177.8 240.5Q177.4 240.1 177.4 239.6Q177.4 238.9 177.9 238.5Q178.4 238.2 179.3 238.2L180 238.2L180 237.8Q180 237.5 179.8 237.2Q179.6 237 179.1 237Q178.7 237 178.5 237.2Q178.2 237.4 178.2 237.7L177.5 237.7Q177.5 237.4 177.7 237.1Q177.9 236.8 178.3 236.6Q178.7 236.4 179.2 236.4Q179.9 236.4 180.3 236.8Q180.7 237.2 180.7 237.8L180.7 239.7Q180.7 240.3 180.9 240.7L180.9 240.7M178.9 240.2Q179.3 240.2 179.6 240Q179.9 239.8 180 239.6L180 238.7L179.5 238.7Q178.1 238.7 178.1 239.5Q178.1 239.8 178.4 240Q178.6 240.2 178.9 240.2M182.1 235.5L182.9 235.5L182.9 236.5L183.6 236.5L183.6 237.1L182.9 237.1L182.9 239.7Q182.9 239.9 183 240.1Q183.1 240.2 183.3 240.2Q183.4 240.2 183.7 240.1L183.7 240.7Q183.4 240.8 183.1 240.8Q182.6 240.8 182.4 240.5Q182.1 240.2 182.1 239.7L182.1 237.1L181.4 237.1L181.4 236.5L182.1 236.5L182.1 235.5M185.2 234.7L185.2 237Q185.7 236.4 186.5 236.4Q187.8 236.4 187.8 237.9L187.8 240.7L187.1 240.7L187.1 237.9Q187.1 237.5 186.9 237.3Q186.7 237 186.2 237Q185.9 237 185.6 237.2Q185.4 237.4 185.2 237.7L185.2 240.7L184.5 240.7L184.5 234.7L185.2 234.7M190.9 236.5L190.9 237.2Q190.8 237.1 190.6 237.1Q189.9 237.1 189.6 237.7L189.6 240.7L188.9 240.7L188.9 236.5L189.6 236.5L189.6 237Q190 236.4 190.6 236.4Q190.8 236.4 190.9 236.5M191.3 238.6L191.3 238.6Q191.3 238 191.6 237.5Q191.8 237 192.3 236.7Q192.7 236.4 193.3 236.4Q194.1 236.4 194.7 237Q195.2 237.6 195.2 238.6L195.2 238.7Q195.2 239.3 194.9 239.8Q194.7 240.3 194.3 240.5Q193.8 240.8 193.3 240.8Q192.4 240.8 191.9 240.2Q191.3 239.6 191.3 238.6M192.1 238.7Q192.1 239.4 192.4 239.8Q192.7 240.2 193.3 240.2Q193.8 240.2 194.1 239.8Q194.5 239.4 194.5 238.6Q194.5 237.9 194.1 237.5Q193.8 237 193.3 237Q192.7 237 192.4 237.4Q192.1 237.9 192.1 238.7M195.9 238.6L195.9 238.6Q195.9 238 196.1 237.5Q196.4 237 196.8 236.7Q197.3 236.4 197.8 236.4Q198.7 236.4 199.2 237Q199.7 237.6 199.7 238.6L199.7 238.7Q199.7 239.3 199.5 239.8Q199.3 240.3 198.8 240.5Q198.4 240.8 197.8 240.8Q197 240.8 196.4 240.2Q195.9 239.6 195.9 238.6M196.6 238.7Q196.6 239.4 197 239.8Q197.3 240.2 197.8 240.2Q198.4 240.2 198.7 239.8Q199 239.4 199 238.6Q199 237.9 198.7 237.5Q198.4 237 197.8 237Q197.3 237 197 237.4Q196.6 237.9 196.6 238.7M200.6 236.5L201.3 236.5L201.4 237Q201.8 236.4 202.6 236.4Q203.5 236.4 203.8 237.1Q204 236.8 204.4 236.6Q204.7 236.4 205.2 236.4Q206.6 236.4 206.6 237.9L206.6 240.7L205.9 240.7L205.9 237.9Q205.9 237.5 205.6 237.3Q205.4 237 204.9 237Q204.5 237 204.3 237.3Q204 237.5 204 237.9L204 240.7L203.2 240.7L203.2 238Q203.2 237 202.3 237Q201.6 237 201.4 237.6L201.4 240.7L200.6 240.7" class="zone-room"></path>
                  
            
          </g>
        
          <g class="meta-target">
            <title>Hallway · L0</title>
            <line stroke-width="0.8" x1="114" y1="261" x2="132" y2="261" stroke="#3182ce"></line>
            
                    <rect x="132" y="254" width="20" height="12" fill="#38a169" rx="3"></rect>
                    <path d="M139.5 257.4L139.5 261.7L141.7 261.7L141.7 262.4L138.6 262.4L138.6 257.4L139.5 257.4M145.5 259.4L145.5 260.3Q145.5 261.4 145.1 261.9Q144.7 262.5 143.9 262.5Q143.1 262.5 142.7 261.9Q142.3 261.4 142.3 260.4L142.3 259.5Q142.3 258.4 142.7 257.9Q143.1 257.3 143.9 257.3Q144.7 257.3 145.1 257.9Q145.5 258.4 145.5 259.4M144.7 260.5L144.7 259.4Q144.7 258.7 144.5 258.3Q144.3 258 143.9 258Q143.5 258 143.3 258.3Q143.1 258.6 143.1 259.3L143.1 260.4Q143.1 261.1 143.3 261.5Q143.5 261.8 143.9 261.8Q144.3 261.8 144.5 261.5Q144.7 261.2 144.7 260.5" fill="white"></path>
                  
            <svg x="156" y="255" width="12" height="12" viewBox="0 0 24 24"><path d="M12,2A7,7 0 0,1 19,9C19,11.38 17.81,13.47 16,14.74V17A1,1 0 0,1 15,18H9A1,1 0 0,1 8,17V14.74C6.19,13.47 5,11.38 5,9A7,7 0 0,1 12,2M9,21V20H15V21A1,1 0 0,1 14,22H10A1,1 0 0,1 9,21M12,4A5,5 0 0,0 7,9C7,11.05 8.23,12.81 10,13.58V16H14V13.58C15.77,12.81 17,11.05 17,9A5,5 0 0,0 12,4Z" fill="var(--secondary-text-color, #718096)"></path></svg>
            
                    <path d="M177 257L177 262.7L176.3 262.7L176.3 260.1L173.4 260.1L173.4 262.7L172.7 262.7L172.7 257L173.4 257L173.4 259.5L176.3 259.5L176.3 257L177 257M181.6 262.7L180.9 262.7Q180.8 262.6 180.8 262.3Q180.3 262.8 179.6 262.8Q178.9 262.8 178.5 262.5Q178.1 262.1 178.1 261.6Q178.1 260.9 178.6 260.5Q179.1 260.2 180 260.2L180.7 260.2L180.7 259.8Q180.7 259.5 180.5 259.2Q180.3 259 179.9 259Q179.5 259 179.2 259.2Q178.9 259.4 178.9 259.7L178.2 259.7Q178.2 259.4 178.4 259.1Q178.7 258.8 179 258.6Q179.4 258.4 179.9 258.4Q180.6 258.4 181 258.8Q181.5 259.2 181.5 259.8L181.5 261.7Q181.5 262.3 181.6 262.7L181.6 262.7M179.7 262.2Q180 262.2 180.3 262Q180.6 261.8 180.7 261.6L180.7 260.7L180.2 260.7Q178.9 260.7 178.9 261.5Q178.9 261.8 179.1 262Q179.3 262.2 179.7 262.2M183.4 256.7L183.4 262.7L182.7 262.7L182.7 256.7L183.4 256.7M185.3 256.7L185.3 262.7L184.6 262.7L184.6 256.7L185.3 256.7M189.2 258.5L190.2 261.7L191 258.5L191.8 258.5L190.5 262.7L189.9 262.7L188.9 259.5L187.9 262.7L187.3 262.7L186.1 258.5L186.8 258.5L187.7 261.7L188.6 258.5L189.2 258.5M195.9 262.7L195.1 262.7Q195 262.6 195 262.3Q194.5 262.8 193.8 262.8Q193.2 262.8 192.8 262.5Q192.4 262.1 192.4 261.6Q192.4 260.9 192.9 260.5Q193.4 260.2 194.3 260.2L195 260.2L195 259.8Q195 259.5 194.8 259.2Q194.5 259 194.1 259Q193.7 259 193.4 259.2Q193.2 259.4 193.2 259.7L192.5 259.7Q192.5 259.4 192.7 259.1Q192.9 258.8 193.3 258.6Q193.7 258.4 194.1 258.4Q194.9 258.4 195.3 258.8Q195.7 259.2 195.7 259.8L195.7 261.7Q195.7 262.3 195.9 262.7L195.9 262.7M193.9 262.2Q194.2 262.2 194.6 262Q194.9 261.8 195 261.6L195 260.7L194.4 260.7Q193.1 260.7 193.1 261.5Q193.1 261.8 193.3 262Q193.6 262.2 193.9 262.2M197.1 258.5L198.2 261.7L199.2 258.5L199.9 258.5L198.2 263.4Q197.8 264.4 197 264.4L196.8 264.4L196.6 264.4L196.6 263.8L196.8 263.8Q197.1 263.8 197.3 263.7Q197.5 263.5 197.7 263.1L197.8 262.7L196.3 258.5" class="zone-room"></path>
                  
            
          </g>
        
    
    
          </svg>
